<?xml version="1.0" encoding="utf-8"?>
<!-- Generator: Adobe Illustrator 17.0.0, SVG Export Plug-In . SVG Version: 6.00 Build 0)  -->
<!DOCTYPE svg PUBLIC "-//W3C//DTD SVG 1.1//EN" "http://www.w3.org/Graphics/SVG/1.1/DTD/svg11.dtd">
<svg version="1.1" id="Layer_1" xmlns="http://www.w3.org/2000/svg" xmlns:xlink="http://www.w3.org/1999/xlink" x="0px" y="0px"
	 width="264px" height="150px" viewBox="0 0 264 150" enable-background="new 0 0 264 150" xml:space="preserve">
<g>
	<path fill="#A7875E" d="M16.556,30.575c-0.258-0.085-0.452-0.172-0.582-0.259c-0.129-0.085-0.368-0.13-0.712-0.13
		c-0.174-0.863-0.432-1.598-0.776-2.204c-0.346-0.604-0.433-1.382-0.259-2.334c-0.517-0.172-0.97-0.496-1.358-0.972
		c-0.388-0.474-0.97-0.713-1.746-0.713c-0.174-0.173-0.259-0.389-0.259-0.649c-0.345,0-0.604,0.217-0.775,0.649
		c-0.433-0.519-0.992-0.626-1.682-0.324c-0.691,0.304-1.293,0.369-1.81,0.194c-0.174,0-0.239,0.045-0.194,0.13
		c0.042,0.087-0.022,0.13-0.194,0.13c-0.087,0-0.151,0.022-0.194,0.065c-0.044,0.044-0.109,0.065-0.194,0.065
		c-0.087,0.174-0.109,0.304-0.065,0.389c0.042,0.087-0.022,0.13-0.194,0.13c-0.259-0.085-0.54-0.172-0.841-0.26
		c-0.303-0.085-0.54-0.043-0.711,0.13c0.085,1.124,0.366,2.226,0.841,3.306c0.473,1.082,0.495,2.269,0.065,3.566
		c0.431,0.433,0.603,1.124,0.518,2.074c0,0.174-0.023,0.282-0.065,0.324c-0.044,0.044-0.065,0.109-0.065,0.194
		C5.129,34.681,5,35.329,4.915,36.02c-0.087,0.693-0.174,1.384-0.258,2.075c-0.174,1.471-0.41,3.004-0.712,4.602
		c-0.303,1.6-0.582,3.134-0.841,4.602c-0.174,0.693-0.303,1.296-0.388,1.815c-0.087,0.519-0.174,1.082-0.258,1.685
		c-0.087,0.174-0.129,0.389-0.129,0.648c0,0.26-0.044,0.476-0.129,0.648v0.13C2.025,52.4,1.896,52.53,1.811,52.615
		c-0.087,0.087-0.129,0.217-0.129,0.389c0,0.174,0.107,0.239,0.324,0.194c0.214-0.043,0.279,0.022,0.194,0.195
		c0,0.693-0.087,1.319-0.259,1.88c-0.174,0.563-0.346,1.146-0.517,1.75c0,0.174-0.022,0.369-0.065,0.583
		c-0.044,0.217-0.065,0.411-0.065,0.583c0.085,0.174,0.172,0.304,0.258,0.389c0.085,0.087,0.13,0.217,0.13,0.389
		c-0.087,0.693-0.303,1.406-0.647,2.139c-0.346,0.735-0.388,1.536-0.129,2.398c0.085,0.174,0.15,0.174,0.194,0
		c0.042-0.172,0.107-0.215,0.194-0.13c-0.174,0.519-0.367,1.146-0.582,1.88c-0.216,0.735-0.324,1.449-0.324,2.139
		c0.172,0.174,0.324,0.194,0.453,0.065c0.129-0.13,0.236-0.15,0.323-0.065c-0.258,1.125-0.323,2.334-0.194,3.63
		s-0.109,2.378-0.712,3.241c0.259,0,0.388,0.216,0.388,0.648c0.172,0.174,0.129,0.389-0.129,0.649c0,0.952-0.13,1.685-0.388,2.204
		c0,0.259,0,0.54,0,0.842c0,0.305,0.085,0.584,0.258,0.843c0,0.346,0.259,0.564,0.776,0.649c-0.433,1.988-0.712,4.105-0.841,6.352
		C0.194,88.698,0.085,90.99,0,93.323c0.172,0,0.323,0.02,0.452,0.065c0.13,0.043,0.279-0.022,0.453-0.194
		c0.172-0.174,0.258-0.433,0.258-0.778c0.085-0.174,0.15-0.346,0.194-0.518c0.042-0.174,0.194-0.217,0.453-0.13
		c0.172,0,0.237,0.085,0.194,0.259c-0.045,0.172-0.023,0.344,0.065,0.518c0,0.085,0.085,0.107,0.258,0.065
		c0.172-0.044,0.258-0.022,0.258,0.066c-0.432,0.431-0.517,0.927-0.258,1.491c0.258,0.561,0.343,1.102,0.258,1.62
		c-0.087,0.172-0.194,0.172-0.323,0c-0.129-0.174-0.239-0.174-0.324,0c0,0.259,0.108,0.41,0.324,0.454
		c0.214,0.043,0.366,0.107,0.452,0.194c-0.174,0.777-0.044,1.381,0.388,1.814c-0.087,0.085-0.174,0.13-0.258,0.13
		c-0.087,0-0.13,0.085-0.13,0.26c0,0.172,0.065,0.279,0.194,0.324c0.129,0.042,0.149,0.194,0.065,0.453
		c0.085,0.085,0.042,0.107-0.129,0.065c-0.174-0.044-0.259,0.02-0.259,0.195c0.172,0,0.259,0.043,0.259,0.13
		c0,0.085,0.085,0.13,0.258,0.13c0.085,0.172,0.172,0.194,0.259,0.065c0.085-0.13,0.129-0.109,0.129,0.065
		c0.085,0.69,0.02,1.209-0.194,1.555c-0.216,0.345-0.324,0.863-0.324,1.556c0,0.085,0.02,0.043,0.065-0.13
		c0.042-0.175,0.108-0.218,0.194-0.13c0.172,0.778,0.129,1.556-0.13,2.334v0.26c0,0.172-0.044,0.279-0.129,0.324
		c-0.087,0.043-0.044,0.15,0.129,0.324c0.172-0.087,0.259-0.217,0.259-0.389c0-0.174,0.085-0.259,0.258-0.259
		c0.172,0.344,0.258,0.992,0.258,1.944c0,0.085,0.042,0.043,0.13-0.13c0.085-0.174,0.214-0.174,0.388,0
		c0,0.259-0.044,0.475-0.129,0.649c-0.087,0.172-0.174,0.344-0.259,0.518c0.259,0.085,0.431,0.043,0.517-0.13
		c0.085-0.174,0.129-0.368,0.129-0.583c0-0.217,0-0.434,0-0.649c0-0.217,0.085-0.368,0.258-0.453
		c0.259-0.087,0.473-0.065,0.647,0.065c0.172,0.13,0.388,0.15,0.646,0.065c0.603-9.075,1.401-17.936,2.393-26.577
		c0.99-8.642,2.219-17.156,3.686-25.54c0.259-0.26,0.517-0.302,0.776-0.13c0.085-0.173,0.107-0.345,0.065-0.519
		c-0.044-0.173-0.065-0.345-0.065-0.519c0.172-0.432,0.324-0.821,0.453-1.167c0.129-0.345,0.149-0.733,0.065-1.167
		c-0.433,0.259-0.605,0.735-0.518,1.426c0.085,0.693-0.087,1.254-0.517,1.685c0.172-1.037,0.343-2.03,0.517-2.982
		c0.172-0.95,0.344-1.9,0.518-2.852c0.085-0.259,0.15-0.539,0.194-0.842c0.042-0.302,0.149-0.626,0.323-0.972
		c0.085,0.174,0.107,0.347,0.065,0.519c-0.044,0.174-0.022,0.346,0.065,0.519c0.172-0.26,0.279-0.604,0.324-1.037
		c0.042-0.432,0.065-0.863,0.065-1.296c-0.087,0.087-0.174,0.304-0.258,0.648c-0.087,0.087-0.109,0.174-0.065,0.259
		c0.042,0.087,0.02,0.174-0.065,0.26c0.085-1.469,0.279-2.83,0.583-4.084c0.301-1.252,0.537-2.571,0.711-3.954
		c0.172,0.087,0.258,0.194,0.258,0.324c0,0.13,0.085,0.11,0.259-0.065c0.172-0.172,0.258-0.561,0.258-1.167
		c0-0.432-0.044-0.778-0.129-1.037c-0.174,0.174-0.216,0.347-0.129,0.519c0.085,0.174,0.042,0.347-0.129,0.519
		c-0.259-0.432-0.324-0.907-0.194-1.426c0.13-0.519,0.324-0.908,0.582-1.167h-0.129c-0.174-0.26-0.174-0.474,0-0.648
		c0.172-0.173,0.258-0.389,0.258-0.649c0.085-0.344,0.107-0.713,0.065-1.102c-0.044-0.389-0.065-0.798-0.065-1.232
		C16.599,31.009,16.641,30.749,16.556,30.575z"/>
	<path fill="#A7875E" d="M16.298,34.983c0.172-0.173,0.236-0.26,0.194-0.26C16.447,34.724,16.383,34.811,16.298,34.983z"/>
	<path fill="#A7875E" d="M36.218,71.543h0.115c-0.015-0.157-0.049-0.259-0.115-0.259V71.543z"/>
	<path fill="#A7875E" d="M65.839,15.666v-0.907c-0.087-0.085-0.152-0.26-0.194-0.519c-0.045-0.26-0.152-0.302-0.324-0.13
		c0.259,0.347,0.214,0.671-0.129,0.973c-0.345,0.304-0.388,0.541-0.129,0.713C65.234,15.711,65.493,15.666,65.839,15.666z"/>
	<path fill="#A7875E" d="M36.347,70.376c-0.05,0-0.072,0.048-0.079,0.12c0.005,0.007,0.008-0.003,0.014,0.009
		C36.325,70.593,36.347,70.55,36.347,70.376z"/>
	<polygon fill="#A7875E" points="36.332,71.543 36.333,71.55 36.347,71.543 	"/>
	<path fill="#A7875E" d="M36.282,70.7c-0.019-0.09-0.019-0.151-0.014-0.203c-0.032-0.041-0.05-0.008-0.05,0.139l-0.258,0.26
		c-0.087,0.087-0.13,0.174-0.13,0.259h0.388v-0.13C36.302,71.025,36.325,70.917,36.282,70.7z"/>
	<path fill="#A7875E" d="M68.167,47.494c-0.087,0.13-0.045,0.282,0.129,0.454c0-0.172,0.107-0.302,0.323-0.389
		c0.214-0.085,0.323-0.259,0.323-0.518c-0.174,0-0.281-0.043-0.323-0.13c-0.044-0.085-0.151-0.13-0.323-0.13
		C68.296,47.127,68.252,47.364,68.167,47.494z"/>
	<path fill="#A7875E" d="M35.312,68.301c0,0.347,0.042,0.519,0.129,0.519C35.441,68.476,35.397,68.301,35.312,68.301z"/>
	<path fill="#A7875E" d="M71.142,34.594c0-0.172,0.042-0.302,0.129-0.389c0.085-0.085,0.042-0.13-0.129-0.13
		c-0.087,0.174-0.129,0.217-0.129,0.13c0-0.085-0.044-0.13-0.129-0.13C70.883,34.422,70.968,34.594,71.142,34.594z"/>
	<path fill="#A7875E" d="M70.495,37.965v0.778c0.343,0,0.517-0.085,0.517-0.259C71.012,38.224,70.839,38.052,70.495,37.965z"/>
	<path fill="#A7875E" d="M67.52,49.633c0.085,0.347,0.214,0.434,0.388,0.259c-0.087,0-0.13-0.042-0.13-0.13
		c0-0.085,0.042-0.172,0.13-0.259C67.562,49.244,67.433,49.289,67.52,49.633z"/>
	<path fill="#A7875E" d="M69.978,41.011c0.085-0.13,0.042-0.194-0.129-0.194C69.848,41.076,69.891,41.141,69.978,41.011z"/>
	<path fill="#A7875E" d="M69.719,37.187c-0.087,0.434-0.129,0.8-0.129,1.102c0,0.304,0.214,0.454,0.647,0.454
		C70.408,38.139,70.237,37.62,69.719,37.187z"/>
	<path fill="#A7875E" d="M66.873,54.43c0.085-0.259,0.042-0.389-0.129-0.389c0,0.174-0.023,0.259-0.065,0.259
		c-0.044,0-0.065,0.087-0.065,0.26C66.699,54.734,66.787,54.689,66.873,54.43z"/>
	<rect x="35.829" y="70.246" fill="#A7875E" width="0.388" height="0.13"/>
	<path fill="#A7875E" d="M31.302,68.042c0,0.174,0,0.369,0,0.584c0,0.217,0.042,0.324,0.129,0.324c0-0.085,0.02-0.215,0.065-0.389
		C31.539,68.389,31.474,68.216,31.302,68.042z"/>
	<path fill="#A7875E" d="M31.69,66.487c0.258-0.259,0.388-0.474,0.388-0.648h-0.258C31.733,65.925,31.69,66.142,31.69,66.487z"/>
	<path fill="#A7875E" d="M41.651,48.985c-0.087,0-0.152-0.02-0.194-0.065c-0.044-0.043-0.109-0.065-0.194-0.065v0.259
		c0.085,0,0.15,0.065,0.194,0.194c0.042,0.13,0.107,0.195,0.194,0.195c-0.087-0.172-0.109-0.28-0.065-0.324
		C41.628,49.136,41.651,49.072,41.651,48.985z"/>
	<path fill="#A7875E" d="M68.943,46.003c-0.345-0.085-0.517,0.022-0.517,0.324c0,0.304,0.172,0.454,0.517,0.454V46.003z"/>
	<path fill="#A7875E" d="M41.392,49.503v0.259c0,0.087,0.085,0.13,0.259,0.13l-0.13-0.259v-0.13H41.392z"/>
	<path fill="#A7875E" d="M66.29,82.822c-0.388,0.518-0.796,0.952-1.229,1.296c-0.258,0.174-0.537,0.304-0.841,0.389
		c-0.301,0.088-0.453,0.347-0.453,0.778c0.863-0.69,1.833-1.446,2.91-2.269c1.079-0.821,2.092-1.576,3.04-2.269
		c0.087-0.085,0.259-0.259,0.518-0.518c0.258-0.259,0.517-0.475,0.775-0.649c0.259-0.172,0.433-0.302,0.518-0.389
		c0.087-0.085,0-0.043-0.259,0.13c-0.517,0.433-1.077,0.8-1.682,1.102c-0.602,0.304-1.207,0.843-1.811,1.62
		C67.176,82.044,66.679,82.304,66.29,82.822z"/>
	<path fill="#A7875E" d="M74.763,76.469c-0.087,0.175-0.281,0.347-0.582,0.519c-0.303,0.174-0.367,0.346-0.194,0.518
		c0.172-0.172,0.388-0.302,0.647-0.389C74.893,77.033,74.935,76.816,74.763,76.469z"/>
	<path fill="#A7875E" d="M71.077,92.935c0.303,0.085,0.368-0.087,0.194-0.519C70.84,92.675,70.775,92.847,71.077,92.935z"/>
	<path fill="#A7875E" d="M73.534,77.766c-0.303,0-0.453,0.217-0.453,0.648C73.684,77.983,73.836,77.766,73.534,77.766z"/>
	<path fill="#A7875E" d="M105.678,43.864c0.259-0.043,0.301-0.15,0.129-0.324c-0.346,0-0.562,0.045-0.647,0.13
		C105.245,43.843,105.419,43.908,105.678,43.864z"/>
	<path fill="#A7875E" d="M46.048,107.584c0.432,0.604,0.733,0.604,0.905,0C46.609,107.325,46.306,107.325,46.048,107.584z"/>
	<path fill="#A7875E" d="M70.236,91.768c-0.082,0.082-0.147,0.129-0.203,0.159c0.081,0.01,0.159,0.019,0.268,0.035
		C70.604,92.005,70.581,91.94,70.236,91.768z"/>
	<path fill="#A7875E" d="M97.27,55.208c-0.432,0.087-0.841,0.065-1.229-0.065c-0.388-0.13-0.756,0.022-1.1,0.453
		c0.431,0,0.926,0.045,1.488,0.13C96.989,55.813,97.27,55.641,97.27,55.208z"/>
	<path fill="#A7875E" d="M101.668,54.689c0.172,0.087,0.301,0,0.388-0.26c-0.174-0.344-0.388-0.409-0.646-0.194
		c-0.259,0.217-0.303,0.411-0.13,0.583C101.365,54.647,101.494,54.604,101.668,54.689z"/>
	<path fill="#A7875E" d="M70.033,91.927c-0.062-0.008-0.116-0.014-0.162-0.018C69.898,91.968,69.955,91.968,70.033,91.927z"/>
	<path fill="#A7875E" d="M117.449,44.966c0.172,0.174,0.388,0.13,0.646-0.13C117.75,44.664,117.534,44.706,117.449,44.966z"/>
	<path fill="#A7875E" d="M105.031,54.689c0.172-0.172,0.43-0.13,0.776,0.13c0.344,0.259,0.602,0.174,0.776-0.259
		c-0.258,0-0.626-0.065-1.1-0.195C105.009,54.235,104.857,54.344,105.031,54.689z"/>
	<path fill="#A7875E" d="M90.156,44.966c0.258-0.172,0.56-0.237,0.906-0.194c0.343,0.044,0.646-0.065,0.905-0.324
		c-0.259,0-0.647,0.022-1.164,0.065C90.285,44.556,90.069,44.706,90.156,44.966z"/>
	<path fill="#A7875E" d="M112.792,44.382c-0.174-0.13-0.346-0.107-0.517,0.065c0.172,0.087,0.431,0.152,0.776,0.194
		c0.343,0.045,0.43-0.065,0.258-0.324C113.136,44.492,112.964,44.512,112.792,44.382z"/>
	<path fill="#A7875E" d="M122.752,45.614c-0.258,0-0.561-0.085-0.905-0.259c-0.346-0.173-0.647-0.13-0.905,0.13
		c0.343,0.174,0.753,0.281,1.229,0.324C122.643,45.853,122.836,45.788,122.752,45.614z"/>
	<path fill="#A7875E" d="M110.204,44.058c-0.174-0.172-0.303-0.085-0.388,0.26c0.172,0.174,0.388,0.239,0.647,0.194
		c0.259-0.043,0.301-0.237,0.13-0.583C110.506,44.188,110.377,44.232,110.204,44.058z"/>
	<path fill="#A7875E" d="M109.688,44.318c-0.776-0.519-1.251-0.648-1.423-0.389C108.782,44.362,109.255,44.492,109.688,44.318z"/>
	<path fill="#A7875E" d="M74.052,90.471c-0.303,0-0.368,0.172-0.194,0.518c0.085-0.174,0.258-0.324,0.517-0.453
		c0.259-0.13,0.301-0.325,0.13-0.584C74.504,90.296,74.352,90.471,74.052,90.471z"/>
	<path fill="#A7875E" d="M104.125,43.539c0.343,0.434,0.602,0.434,0.776,0C104.469,43.195,104.21,43.195,104.125,43.539z"/>
	<path fill="#A7875E" d="M72.952,91.378c-0.174,0.26-0.388,0.432-0.647,0.519c0.431,0.259,0.711,0.237,0.841-0.065
		c0.129-0.305,0.279-0.541,0.453-0.713C73.34,91.032,73.124,91.119,72.952,91.378z"/>
	<path fill="#A7875E" d="M106.195,43.669c0.517,0.346,0.948,0.346,1.293,0C106.971,43.584,106.538,43.584,106.195,43.669z"/>
	<path fill="#A7875E" d="M137.367,16.055c0.085,0.259,0.214,0.434,0.388,0.519c0.172-0.172,0.194-0.367,0.065-0.583
		c-0.129-0.215-0.238-0.409-0.323-0.583C137.323,15.581,137.281,15.796,137.367,16.055z"/>
	<path fill="#A7875E" d="M137.238,14.888c0,0.434,0.085,0.563,0.258,0.389c-0.087-0.086-0.129-0.15-0.129-0.195
		C137.367,15.04,137.323,14.975,137.238,14.888z"/>
	<path fill="#A7875E" d="M130.77,21.63c0-0.173-0.044-0.26-0.129-0.26C130.641,21.545,130.683,21.63,130.77,21.63z"/>
	<path fill="#A7875E" d="M129.477,31.223v0.26v0.389c0.43,0.087,0.732,0.239,0.906,0.454c0.172,0.216,0.43,0.411,0.775,0.583
		c0.172-0.085,0.474-0.13,0.906-0.13c0.517,0.174,0.948,0.259,1.293,0.259c0.344,0,0.647-0.02,0.906-0.065
		c0.258-0.043,0.56-0.107,0.906-0.194c0.085,0.087,0.129,0.174,0.129,0.259c0,0.087,0.085,0.13,0.258,0.13
		c0.172-0.086,0.473-0.13,0.906-0.13c0.343-0.085,0.776-0.302,1.293-0.648v-0.259c0.085-0.173,0.194-0.237,0.323-0.195
		c0.13,0.045,0.194-0.02,0.194-0.194v-0.519c0-0.172,0.065-0.237,0.194-0.194c0.129,0.044,0.194-0.02,0.194-0.195
		c0-0.344-0.065-0.691-0.194-1.037c-0.13-0.345-0.109-0.648,0.065-0.908c0-0.172,0.042-0.259,0.129-0.259
		c0.085,0,0.129-0.043,0.129-0.13c-0.174-0.259-0.216-0.538-0.129-0.842c0.085-0.302,0.129-0.583,0.129-0.843
		c0-0.172-0.044-0.279-0.129-0.324c-0.087-0.042-0.129-0.15-0.129-0.324c0-0.344,0.042-0.626,0.129-0.842
		c0.085-0.215,0.129-0.496,0.129-0.843v-0.648c-0.087-0.604-0.174-1.187-0.258-1.75c-0.087-0.561-0.129-1.102-0.129-1.62v-0.649
		c0-0.172,0.02-0.302,0.065-0.389c0.042-0.085,0.065-0.215,0.065-0.389c0-0.085-0.044-0.172-0.129-0.259
		c-0.087-0.085-0.13-0.173-0.13-0.26V17.87c-0.174-0.604-0.388-1.037-0.647-1.296c-0.087,0.087-0.109,0.174-0.065,0.259
		c0.042,0.087-0.022,0.13-0.194,0.13c0.085,0,0-0.13-0.259-0.389l-0.388-1.556c-0.087-0.085-0.129-0.085-0.129,0
		c0,0.087-0.087,0.087-0.258,0c-0.174-0.085-0.281-0.237-0.324-0.454c-0.044-0.215-0.194-0.324-0.453-0.324
		c-0.087,0.087-0.065,0.194,0.065,0.324c0.129,0.13,0.107,0.195-0.065,0.195c-0.174,0-0.258-0.085-0.258-0.26
		c0-0.172-0.087-0.259-0.258-0.259c-0.087,0-0.087,0.044,0,0.13c0.085,0.087,0.042,0.13-0.13,0.13c-0.087-0.085-0.087-0.13,0-0.13
		c0.085,0,0.085-0.085,0-0.26c-0.174-0.085-0.324-0.237-0.453-0.453c-0.129-0.215-0.281-0.324-0.452-0.324
		c-0.087,0-0.129,0.044-0.129,0.13h-0.13c-0.087,0.174-0.109,0.324-0.065,0.454c0.042,0.13,0.065,0.282,0.065,0.454
		c0,0.174-0.087,0.304-0.259,0.389c-0.087-0.173-0.151-0.324-0.194-0.454c-0.044-0.13-0.109-0.28-0.194-0.454
		c-0.174,0.259-0.258,0.563-0.258,0.908c0,0.346,0,0.735,0,1.167c0,0.174-0.022,0.281-0.065,0.324
		c-0.044,0.044-0.065,0.152-0.065,0.324v0.259c0-0.172-0.174-0.259-0.518-0.259c-0.174,0.434-0.151,0.887,0.065,1.361
		c0.215,0.476,0.279,0.93,0.194,1.361c-0.087,0.088-0.13,0.174-0.13,0.26c0,0.087-0.087,0.13-0.258,0.13
		c-0.087-0.172-0.129-0.389-0.129-0.648c0-0.259-0.174-0.344-0.517-0.259c0.085,0.174,0.13,0.433,0.13,0.778
		c-0.087,0.174-0.194,0.304-0.324,0.389c-0.13,0.087-0.239,0.216-0.324,0.389c0.258,0.519,0.301,1.082,0.129,1.685
		c0,0.174-0.087,0.347-0.258,0.519c-0.087-0.085-0.109-0.172-0.065-0.259c0.042-0.085,0.02-0.173-0.065-0.26
		c-0.258,0.174-0.346,0.454-0.258,0.843c0.085,0.389,0.085,0.713,0,0.972c-0.087,0.26-0.304,0.434-0.647,0.519
		c0.172,0.606,0.236,1.232,0.194,1.88c-0.044,0.649-0.109,1.232-0.194,1.751c-0.174,0.518-0.258,0.952-0.258,1.296
		c-0.087,0.346-0.087,0.67,0,0.972C129.562,30.555,129.562,30.879,129.477,31.223z"/>
	<path fill="#A7875E" d="M130.641,20.981c0-0.172-0.044-0.259-0.129-0.259C130.512,20.981,130.554,21.069,130.641,20.981z"/>
	<path fill="#A7875E" d="M137.367,14.888c0.085-0.172,0.107-0.345,0.065-0.519c-0.044-0.172-0.194-0.26-0.453-0.26
		c0.085,0.174,0.129,0.324,0.129,0.454C137.108,14.694,137.193,14.803,137.367,14.888z"/>
	<path fill="#A7875E" d="M90.154,112.899c0.019-0.047,0.053-0.079,0.074-0.124c-0.07,0.022-0.155,0.043-0.268,0.059
		C89.658,112.877,89.723,112.899,90.154,112.899z"/>
	<path fill="#A7875E" d="M164.077,80.812c-0.303,0.217-0.281,0.412,0.065,0.584c0.085-0.344,0.214-0.41,0.389-0.194
		c0.172,0.217,0.258,0.022,0.258-0.584C164.615,80.533,164.378,80.598,164.077,80.812z"/>
	<path fill="#A7875E" d="M155.087,87.036c0.431,0.043,0.603-0.153,0.518-0.584c-0.258,0.087-0.583,0.259-0.97,0.519
		c-0.388,0.259-0.498,0.474-0.323,0.648C154.396,87.186,154.655,86.991,155.087,87.036z"/>
	<path fill="#A7875E" d="M157.157,85.674c-0.174-0.085-0.281-0.085-0.323,0c-0.044,0.088-0.087,0.195-0.129,0.325
		c-0.044,0.13-0.065,0.217-0.065,0.259c0,0.044,0.042-0.02,0.129-0.194C157.199,85.891,157.328,85.762,157.157,85.674z"/>
	<path fill="#A7875E" d="M90.995,111.927c0.388-0.217,0.841-0.67,1.358-1.361c-0.602,0.431-1.184,0.778-1.747,1.037
		c-0.559,0.259-1.055,0.603-1.487,1.037c0.346,0.085,0.604,0,0.776-0.259c0.158-0.236,0.314-0.172,0.47,0.164
		C90.53,112.294,90.727,112.075,90.995,111.927z"/>
	<path fill="#A7875E" d="M179.923,73.747c-1.898,0.778-3.774,1.795-5.627,3.047c-1.856,1.254-3.903,2.313-6.144,3.177
		c-0.088,0.259-0.238,0.453-0.453,0.583c-0.166,0.099-0.281,0.216-0.37,0.341c1.56-0.768,3.206-1.55,4.962-2.35
		C175.137,77.247,177.679,75.649,179.923,73.747z"/>
	<path fill="#A7875E" d="M87.696,114.974c0.345,0.172,0.647,0.13,0.905-0.13c0.259-0.26,0.562-0.39,0.906-0.39
		c-0.431,0-0.602-0.13-0.517-0.389C88.213,114.066,87.783,114.368,87.696,114.974z"/>
	<path fill="#A7875E" d="M150.689,88.007c0.602,0,0.754-0.152,0.453-0.453C150.839,87.25,150.689,87.402,150.689,88.007z"/>
	<path fill="#A7875E" d="M87.308,113.548c0,0.085-0.107,0.13-0.324,0.13c-0.214,0-0.408,0-0.582,0c-0.172,0-0.301,0.043-0.389,0.13
		c-0.085,0.085-0.042,0.172,0.13,0.259c0.346,0,0.691-0.087,1.035-0.259C87.525,113.633,87.567,113.548,87.308,113.548z"/>
	<path fill="#A7875E" d="M85.109,115.492c0.604-0.433,0.992-0.777,1.164-1.037C85.671,114.455,85.283,114.8,85.109,115.492z"/>
	<path fill="#A7875E" d="M104.123,105.25c0.026-0.132,0.09-0.234,0.173-0.322c-0.018,0.002-0.024-0.006-0.043-0.002
		C103.994,104.969,103.952,105.076,104.123,105.25z"/>
	<path fill="#A7875E" d="M148.231,21.63c0-0.432-0.174-0.649-0.517-0.649C147.714,21.415,147.886,21.63,148.231,21.63z"/>
	<path fill="#A7875E" d="M194.224,42.367c-0.015,0.014-0.02,0.037-0.029,0.055C194.212,42.411,194.214,42.385,194.224,42.367z"/>
	<path fill="#A7875E" d="M196.091,43.28c0.258,0.693,0.473,0.908,0.647,0.648C196.91,43.669,196.693,43.454,196.091,43.28z"/>
	<path fill="#A7875E" d="M151.982,85.026c-0.015,0.046-0.036,0.076-0.057,0.108c0.101-0.033,0.198-0.064,0.316-0.108
		C152.155,84.767,152.068,84.767,151.982,85.026z"/>
	<path fill="#A7875E" d="M144.48,80.618v-0.389c0.258-0.259,0.343-0.367,0.258-0.325c-0.087,0.045-0.216,0.153-0.388,0.325
		c-0.172,0.174-0.279,0.324-0.323,0.453C143.986,80.812,144.137,80.792,144.48,80.618z"/>
	<path fill="#A7875E" d="M151.925,85.134c-0.12,0.039-0.225,0.069-0.319,0.092C151.746,85.281,151.852,85.249,151.925,85.134z"/>
	<path fill="#A7875E" d="M153.794,84.507c0.43-0.172,0.69-0.344,0.776-0.518C154.052,83.989,153.794,84.163,153.794,84.507z"/>
	<path fill="#A7875E" d="M194.539,41.595c-0.346-0.085-0.453,0.065-0.324,0.454c0.051,0.155,0.046,0.252,0.008,0.318
		c0.029-0.028,0.069-0.049,0.121-0.059C194.559,42.265,194.624,42.028,194.539,41.595z"/>
	<path fill="#A7875E" d="M90.412,112.64c-0.016-0.039-0.031-0.061-0.047-0.095c-0.048,0.074-0.098,0.147-0.137,0.23
		C90.346,112.738,90.412,112.694,90.412,112.64z"/>
	<path fill="#A7875E" d="M161.361,83.6c-0.475,0.259-0.928,0.498-1.358,0.712c-0.433,0.218-0.821,0.412-1.165,0.584
		c-0.345,0.174-0.475,0.304-0.388,0.389c1.12-0.172,2.09-0.538,2.911-1.102c0.818-0.561,1.746-1.058,2.781-1.491
		c-0.692,0-1.251,0.044-1.681,0.13C162.202,83.081,161.834,83.34,161.361,83.6z"/>
	<path fill="#A7875E" d="M181.281,72.645c-0.562,0.305-0.928,0.671-1.099,1.102c0.518,0,0.926-0.107,1.229-0.324
		c0.302-0.215,0.754-0.497,1.358-0.843C182.336,72.321,181.841,72.343,181.281,72.645z"/>
	<path fill="#A7875E" d="M167.146,80.984c-0.409-0.121-0.869-0.013-1.387,0.348c-0.562,0.389-0.97,0.712-1.229,0.972
		C165.365,81.87,166.245,81.429,167.146,80.984z"/>
	<path fill="#A7875E" d="M167.328,80.894c-0.061,0.03-0.122,0.06-0.182,0.09c0.033,0.01,0.068,0.01,0.1,0.023
		C167.266,80.967,167.302,80.932,167.328,80.894z"/>
	<path fill="#A7875E" d="M94.81,109.983c0.345-0.045,0.303-0.11-0.129-0.195c-0.172,0.172-0.453,0.28-0.841,0.325
		c-0.388,0.043-0.711,0.194-0.97,0.453c0.346,0.172,0.647,0.107,0.906-0.194c0.258-0.304,0.433-0.194,0.517,0.324
		c0.346-0.174,0.734-0.281,1.164-0.324c0.433-0.044,0.733-0.239,0.905-0.584c-0.43,0-0.775,0.085-1.034,0.26
		c-0.259,0.172-0.517,0.344-0.776,0.518C94.38,110.22,94.467,110.025,94.81,109.983z"/>
	<path fill="#A7875E" d="M93.388,110.825c-0.172,0.085-0.172,0.215,0,0.39c0.174,0.085,0.345,0.043,0.517-0.13
		c0.174-0.174,0.174-0.259,0-0.259C93.733,110.738,93.561,110.738,93.388,110.825z"/>
	<path fill="#A7875E" d="M106.322,104.148c0.258-0.044,0.433-0.13,0.517-0.259c0.087-0.13,0.044-0.324-0.13-0.583
		c-0.085,0.431-0.388,0.625-0.905,0.583c-0.517-0.044-0.776,0.194-0.776,0.713c0.087-0.087,0.258-0.174,0.517-0.259
		C105.805,104.256,106.064,104.191,106.322,104.148z"/>
	<path fill="#A7875E" d="M111.626,101.232c-0.689-0.174-0.97-0.087-0.841,0.259C110.914,101.835,111.195,101.75,111.626,101.232z"/>
	<path fill="#A7875E" d="M218.598,71.932c0.172,0,0.408-0.02,0.712-0.065c0.301-0.043,0.537-0.02,0.711,0.065
		c0-0.173-0.216-0.26-0.646-0.26C218.941,71.672,218.682,71.759,218.598,71.932z"/>
	<path fill="#A7875E" d="M233.925,43.021c-0.044,0.087,0.02,0.087,0.195,0c0.689-0.173,1.076-0.302,1.163-0.389
		c-0.432,0-0.84,0-1.229,0c-0.388,0-0.755,0.044-1.1,0.13c0,0.26,0.085,0.389,0.259,0.389c0.258-0.26,0.43-0.389,0.517-0.389
		C233.903,42.849,233.968,42.936,233.925,43.021z"/>
	<path fill="#A7875E" d="M241.88,54.56c-0.174,0.174-0.345,0.174-0.517,0c-0.174,0.433-0.044,0.628,0.388,0.583
		c0.43-0.043,0.647-0.237,0.647-0.583C242.224,54.387,242.052,54.387,241.88,54.56z"/>
	<path fill="#A7875E" d="M229.075,53.781c0.172-0.085,0.452-0.085,0.841,0c0.388,0.087,0.667,0.044,0.84-0.13
		c-0.174-0.085-0.41-0.15-0.711-0.194C229.742,53.415,229.418,53.522,229.075,53.781z"/>
	<path fill="#A7875E" d="M247.184,40.817v0.389c0.172,0.087,0.301,0.045,0.388-0.13c0.085-0.172,0.214-0.259,0.389-0.259
		c0-0.085-0.087-0.107-0.259-0.065C247.527,40.797,247.356,40.817,247.184,40.817z"/>
	<path fill="#A7875E" d="M231.145,53.652c0.43,0.087,0.861,0.174,1.293,0.259c0.43,0.087,0.861,0.045,1.293-0.13
		c-0.345-0.085-0.755-0.172-1.229-0.259C232.028,53.437,231.575,53.48,231.145,53.652z"/>
	<path fill="#A7875E" d="M205.403,50.929c0-0.172,0.021-0.389,0.066-0.648c0.042-0.259-0.023-0.432-0.195-0.519
		C205.101,50.541,205.145,50.929,205.403,50.929z"/>
	<path fill="#A7875E" d="M205.403,47.558c0,0.519,0.042,0.865,0.13,1.037c0-0.172,0.02-0.389,0.065-0.648
		C205.641,47.688,205.576,47.558,205.403,47.558z"/>
	<path fill="#A7875E" d="M230.627,43.021c-0.087,0-0.216-0.043-0.388-0.13c-0.174-0.085-0.303-0.085-0.388,0v0.13
		C230.195,43.195,230.453,43.195,230.627,43.021z"/>
	<path fill="#A7875E" d="M262.318,32.584c-0.692-0.13-1.38-0.237-2.07-0.324c0.085-0.345,0.301-0.474,0.647-0.389
		c0.343,0.087,0.602,0.044,0.776-0.13c-0.259,0-0.389-0.172-0.389-0.519c-0.517,0.174-1.035,0.26-1.552,0.26
		c-0.518,0-0.992,0.087-1.424,0.259c-0.258-0.172-0.497-0.237-0.711-0.194c-0.216,0.044-0.41,0.065-0.582,0.065
		c-0.175,0.087-0.368,0.109-0.583,0.065c-0.216-0.043-0.453-0.02-0.712,0.065h-4.915c-0.95,0.087-1.856,0.152-2.716,0.194
		c-0.863,0.045-1.769,0.065-2.717,0.065c-3.795,0.087-7.566,0.152-11.318,0.195c-3.751,0.044-7.611,0.152-11.576,0.324
		c-0.088-0.172-0.282-0.302-0.583-0.389c-0.303-0.085-0.583-0.302-0.841-0.648c0.085-0.95,0.258-1.771,0.517-2.464
		c0.259-0.691,0.474-1.468,0.647-2.334c-0.692-0.085-1.186-0.366-1.487-0.842c-0.304-0.474-0.928-0.626-1.876-0.454
		c-0.087-0.432-0.258-0.778-0.517-1.037c-0.433-0.172-1.057-0.172-1.876,0c-0.821,0.174-1.445,0.13-1.876-0.13
		c-0.174,0.434-0.475,0.823-0.905,1.167c-0.433,0.347-0.906,0.389-1.424,0.13c-0.862,0.865-1.617,1.902-2.263,3.112
		c-0.647,1.211-1.057,2.68-1.229,4.408c-0.433,0-0.669,0.13-0.712,0.389c-0.044,0.259-0.151,0.519-0.324,0.778
		c-0.087,0.174,0,0.239,0.259,0.195c0.258-0.043,0.388,0.065,0.388,0.324c-0.174,0.174-0.345,0.347-0.517,0.519
		c-0.175,0.174-0.346,0.347-0.518,0.519c-0.432,0.174-0.905,0.434-1.423,0.778c-0.087,0.434-0.151,0.972-0.194,1.621
		c-0.044,0.648-0.151,1.146-0.324,1.491c-0.174,0.259-0.303,0.411-0.388,0.454c-0.078,0.04-0.157,0.139-0.234,0.283
		c0.012-0.28,0.008-0.567-0.025-0.867c-0.174-1.381-0.711-2.57-1.616-3.565c-0.906-0.992-2.005-1.88-3.299-2.657
		c-1.293-0.778-2.716-1.426-4.269-1.945c-1.552-0.519-3.061-0.95-4.527-1.296c-1.984-0.519-4.225-0.798-6.725-0.842
		c-2.503-0.043-4.657-0.324-6.468-0.843c0,0.606-0.087,0.778-0.258,0.519c-0.174-0.259-0.346-0.172-0.518,0.26
		c-1.467-0.432-2.954-0.778-4.462-1.037c-1.51-0.26-2.975-0.539-4.398-0.843c-1.424-0.302-2.804-0.648-4.14-1.037
		c-1.338-0.389-2.609-0.928-3.815-1.62c0-0.95-0.044-1.9-0.129-2.852c-0.087-0.95-0.216-1.988-0.389-3.112
		c-1.467-0.691-3.126-1.122-4.98-1.296c-1.856-0.172-3.731,0.087-5.627,0.778c-0.432,1.124-0.517,2.399-0.258,3.825
		c0.258,1.426,0.258,2.745,0,3.954c-0.517,0-0.821,0.087-0.906,0.259c-0.174,1.037-0.174,2.074,0,3.112
		c0.172,1.037,0.473,1.859,0.906,2.463c-0.258,0.865-0.433,1.6-0.517,2.204c-0.087,0.606-0.087,1.471,0,2.593
		c-0.433,0.174-0.562,0.563-0.388,1.167c0.172,0.606,0.214,1.124,0.129,1.556c-0.087,1.211-0.258,2.508-0.517,3.889
		c-0.259,1.383-0.303,2.81-0.129,4.278c0,0.087-0.13,0.26-0.389,0.519c0.172,0.693,0.215,1.232,0.13,1.621
		c-0.087,0.389-0.216,0.93-0.388,1.621c-0.087,2.508-0.174,5.425-0.258,8.751c-0.087,3.328-0.216,6.547-0.388,9.659
		c0,0.692-0.087,1.341-0.259,1.944c-0.174,0.606-0.258,1.124-0.258,1.556c0.085,0.605,0.194,1.406,0.324,2.398
		c0.129,0.995-0.023,1.578-0.453,1.75c0.258,0.778,0.301,1.426,0.129,1.945c-0.174,0.518-0.174,1.211,0,2.074
		c-0.432,0.087-0.776,0.194-1.035,0.324c-0.258,0.13-0.473,0.239-0.646,0.324c0-0.259,0.044-0.409,0.129-0.453
		c0.087-0.043,0.174-0.15,0.258-0.324c-0.689,0.433-1.358,0.929-2.005,1.491c-0.646,0.563-1.314,1.059-2.005,1.491
		c0.346-0.172,0.734-0.259,1.164-0.259c0.433,0,0.388,0.217-0.129,0.648c0.691-0.431,1.034-0.69,1.034-0.777
		c0-0.085,0.304-0.215,0.906-0.39c-0.258-0.344-0.194-0.583,0.194-0.712c0.388-0.13,0.627-0.237,0.712-0.324
		c-0.172,0.174-0.042,0.174,0.388,0c0.431-0.173,0.732-0.13,0.906,0.13c0,0.433-0.044,0.692-0.129,0.777
		c-0.087,0.087-0.044,0.26,0.129,0.519c-0.776,0.433-1.572,0.777-2.393,1.037c-0.819,0.259-1.4,0.735-1.746,1.426
		c-0.172-0.344-0.324-0.409-0.453-0.194c-0.129,0.217-0.02,0.411,0.323,0.583c-0.172,0.085-0.343-0.02-0.517-0.324
		c-0.172-0.302-0.301-0.237-0.388,0.194c0.087,0.172-0.107,0.259-0.582,0.259c-0.473,0-0.667,0.215-0.582,0.649
		c-1.466,0.344-2.672,0.843-3.622,1.491c-0.671,0.46-1.343,0.844-2.015,1.195c0.644-7.064,1.357-13.887,2.145-20.447v-0.39
		c0.085-0.172,0.13-0.366,0.13-0.583c0-0.215,0.085-0.41,0.258-0.584c0.085,0,0.15-0.02,0.194-0.065
		c0.042-0.042,0.149-0.02,0.323,0.065c-0.087-0.604-0.065-1.102,0.065-1.491c0.129-0.389,0.236-0.842,0.324-1.361
		c-0.433,0.259-0.604,0.693-0.517,1.296c0.085,0.606,0,1.037-0.258,1.296c0-0.95,0.065-1.815,0.194-2.593
		c0.129-0.778,0.279-1.556,0.452-2.334c0-0.691,0.085-1.209,0.259-1.556c0.172,0.087,0.237,0.195,0.194,0.324
		c-0.045,0.13-0.022,0.281,0.065,0.454c0.172-0.691,0.258-1.339,0.258-1.945c-0.174,0.087-0.258,0.217-0.258,0.389
		c0,0.174,0,0.346,0,0.519c-0.087-1.209-0.022-2.376,0.194-3.5c0.214-1.122,0.408-2.247,0.582-3.371c0.172,0,0.259,0.044,0.259,0.13
		c0,0.087,0.042,0.087,0.129,0c0.085-0.172,0.129-0.519,0.129-1.037s-0.044-0.82-0.129-0.907c-0.087,0.174-0.109,0.346-0.065,0.519
		c0.042,0.174,0.02,0.346-0.065,0.519c-0.174-0.432-0.217-0.885-0.13-1.362c0.085-0.474,0.259-0.842,0.517-1.102
		c-0.258,0-0.345-0.085-0.258-0.259c-0.087-0.172-0.087-0.302,0-0.389c0.085-0.085,0.129-0.215,0.129-0.389
		c0.085-0.344,0.107-0.691,0.065-1.037c-0.044-0.345-0.065-0.733-0.065-1.167c0-0.085,0.02-0.15,0.065-0.195
		c0.042-0.043,0.065-0.15,0.065-0.324c-0.174-0.085-0.345-0.15-0.517-0.195c-0.174-0.043-0.388-0.065-0.647-0.065
		c-0.174-0.691-0.388-1.317-0.647-1.88c-0.259-0.561-0.388-1.274-0.388-2.139c-0.432-0.172-0.776-0.453-1.035-0.842
		c-0.258-0.389-0.734-0.496-1.423-0.324c-0.258-0.085-0.388-0.302-0.388-0.648c-0.174,0.087-0.281,0.174-0.324,0.26
		c-0.044,0.087-0.151,0.174-0.323,0.259c-0.433-0.432-0.906-0.474-1.423-0.13c-0.518,0.347-1.079,0.389-1.682,0.13
		c0,0.174-0.174,0.347-0.517,0.519c-0.087,0-0.087,0.044,0,0.13c0.085,0.087,0.085,0.13,0,0.13c-0.258,0-0.517-0.02-0.776-0.065
		c-0.258-0.043-0.517-0.02-0.776,0.065c0.085,0.952,0.366,1.88,0.841,2.787c0.425,0.815,0.502,1.723,0.268,2.712
		c-0.465-0.214-1.001-0.387-1.625-0.508c-1.122-0.215-2.156-0.237-3.104-0.065c-1.811-0.778-3.622-1.08-5.432-0.908
		c0-0.172-0.044-0.259-0.129-0.259c-0.087,0-0.217-0.085-0.388-0.259c-2.069-0.086-4.097-0.195-6.08-0.324
		c-1.984-0.13-3.967-0.496-5.95-1.102c-0.95,0.434-2.027,0.498-3.234,0.194c-1.208-0.302-2.286-0.279-3.233,0.065
		c-0.087-0.085-0.174-0.13-0.259-0.13c-0.087,0-0.216-0.042-0.388-0.13c-1.208,0.259-2.437,0.411-3.686,0.454
		c-1.251,0.044-2.48,0.152-3.687,0.324c-0.433,0.26-0.928,0.476-1.488,0.649c-0.562,0.174-1.015,0.13-1.358-0.13
		c0-0.604,0.107-0.82,0.323-0.648c0.214,0.174,0.409,0.087,0.583-0.259c-0.776-0.26-1.617-0.195-2.523,0.194
		c-0.905,0.389-1.833,0.454-2.781,0.194c1.12-0.778,2.328-1.511,3.622-2.204c0.172,0.087,0.215,0.281,0.13,0.583
		c-0.087,0.304,0.085,0.541,0.517,0.713c0.172-0.172,0.323-0.454,0.452-0.843c0.129-0.389,0.107-0.668-0.065-0.842
		c0.69-0.432,1.4-0.885,2.134-1.361c0.732-0.474,1.53-0.885,2.393-1.232c0.343-0.172,0.712-0.259,1.1-0.259
		c0.388,0,0.797-0.172,1.229-0.519c-0.087,0,0-0.215,0.258-0.648c0.172-0.085,0.583-0.237,1.229-0.454
		c0.647-0.215,1.055-0.237,1.229-0.065c0.948-0.778,1.96-1.296,3.04-1.556c1.077-0.259,1.961-0.778,2.652-1.555
		c0.344,0.174,0.667,0.216,0.97,0.13c0.301-0.085,0.583-0.194,0.841-0.324c0.258-0.13,0.517-0.259,0.776-0.389
		c0.258-0.13,0.559-0.15,0.905-0.065c0.431-0.432,1.164-0.95,2.199-1.556c1.035-0.604,1.896-0.993,2.587-1.167
		c1.035-0.172,2.047-0.604,3.04-1.296c0.991-0.691,1.961-1.167,2.911-1.426c0-0.344-0.129-0.474-0.388-0.389
		c-0.174,0.087-0.346,0.217-0.517,0.389c-1.122,0.519-2.264,1.082-3.428,1.685c-1.164,0.606-2.264,0.995-3.299,1.167
		c-0.691,0.434-1.38,0.887-2.07,1.361c-0.691,0.476-1.509,0.628-2.458,0.454c1.983-0.95,3.988-1.922,6.015-2.917
		c2.025-0.992,4.03-1.88,6.015-2.657c-0.174-0.173-0.152-0.324,0.065-0.454c0.214-0.13,0.366-0.237,0.452-0.324
		c-0.517-0.172-0.647-0.324-0.388-0.454c0.258-0.13,0.301-0.279,0.129-0.453c-0.433,0.174-0.928,0.259-1.488,0.259
		c-0.562,0-1.057,0.216-1.488,0.648c-0.604-0.604-1.423-0.561-2.458,0.13c0.085-0.431-0.087-0.604-0.517-0.519
		c-0.433,0.088-0.734,0.26-0.906,0.519c-0.258-0.431-0.281-0.668-0.065-0.713c0.214-0.043,0.408-0.324,0.582-0.842
		c-0.346-0.173-0.604-0.15-0.776,0.065c-0.174,0.217-0.433,0.194-0.776-0.065c0.085-0.26,0.258-0.389,0.517-0.389
		c-0.691-0.172-1.251-0.043-1.682,0.389c-0.433,0.434-0.992,0.563-1.682,0.389c0-0.344-0.109-0.538-0.324-0.583
		c-0.216-0.042-0.452-0.042-0.711,0c-0.259,0.045-0.54,0.13-0.841,0.26c-0.303,0.13-0.54,0.109-0.712-0.065
		c-0.087-0.26-0.022-0.409,0.194-0.454c0.214-0.043,0.237-0.15,0.065-0.324c-0.174,0.174-0.324,0.282-0.453,0.324
		c-0.129,0.044-0.281-0.065-0.452-0.324c0.085-0.431,0.279-0.713,0.582-0.842c0.301-0.13,0.366-0.279,0.194-0.454
		c-0.863,0.693-1.791,1.082-2.781,1.167c-0.992,0.087-1.875,0.389-2.651,0.908c-0.433-0.432-0.776-0.496-1.035-0.195
		c-0.259,0.304-0.605,0.324-1.035,0.065c-0.174,0.434-0.238,0.713-0.194,0.843c0.042,0.13-0.065,0.324-0.324,0.583
		c-0.259-0.172-0.497-0.172-0.711,0c-0.216,0.174-0.41,0-0.583-0.519c-1.034,0.693-2.134,1.167-3.298,1.426
		c-1.164,0.259-2.221,0.778-3.169,1.555c-1.122,0.26-2.199,0.563-3.234,0.908c-1.035,0.346-2.07,0.735-3.105,1.167
		c-1.122,0.952-2.286,1.902-3.492,2.852c-1.208,0.952-2.35,2.009-3.428,3.176c-1.079,1.167-2.069,2.528-2.974,4.084
		c-0.906,1.556-1.575,3.415-2.005,5.575c0.602,1.211,0.948,2.638,1.035,4.278c0.085,1.643,0.43,2.982,1.035,4.019
		c0.861,0.693,1.637,0.908,2.328,0.648c0.689-0.259,1.508-0.389,2.458-0.389c0.43,0,0.754,0.065,0.97,0.194
		c0.214,0.13,0.452,0.152,0.711,0.065c1.896-0.604,3.535-0.778,4.916-0.519c-0.174,0.174-0.346,0.239-0.517,0.195
		c-0.174-0.043-0.303,0.109-0.388,0.453c0.43,0.174,0.776,0.087,1.035-0.259c0.258-0.344,0.602-0.519,1.034-0.519
		c0,0.087-0.044,0.13-0.129,0.13c-0.087,0-0.13,0.088-0.13,0.26c1.207,0,2.414-0.15,3.622-0.454
		c1.207-0.302,2.413-0.539,3.622-0.713c0.517,0.087,0.99,0,1.423-0.26c0.43-0.259,0.861-0.431,1.293-0.519
		c0.776-0.085,1.617-0.13,2.522-0.13c0.906,0,1.789,0,2.652,0c0.431,0,0.841,0,1.229,0c0.295,0,0.553,0.127,0.773,0.377
		c-0.132-0.128-0.28-0.173-0.449-0.118c-0.258,0.087-0.303,0.304-0.129,0.648c0.085-0.085,0.258-0.13,0.517-0.13
		c0.259,0,0.344,0.087,0.259,0.259c-0.346,0.174-0.82,0.259-1.423,0.259c-0.604,0-0.992-0.344-1.164-1.037
		c-0.174,0.346-0.539,0.498-1.1,0.453c-0.561-0.043-0.841,0.411-0.841,1.362c0.431-0.26,0.883-0.389,1.359-0.389
		c0.473,0,0.948,0.044,1.423,0.13c0.473,0.088,0.97,0.195,1.487,0.324c0.518,0.13,1.035,0.109,1.552-0.065
		c0.517,0.346,1.035,0.476,1.552,0.389c0.517-0.085,1.013-0.172,1.487-0.259c0.473-0.085,0.926-0.13,1.358-0.13
		c0.431,0,0.906,0.259,1.423,0.778c0.431,0.087,0.861,0.109,1.294,0.065c0.43-0.043,0.776-0.02,1.034,0.065
		c-0.174,0.434-0.303,0.693-0.388,0.778c0.431-0.085,0.797-0.237,1.1-0.454c0.301-0.215,0.625-0.107,0.97,0.324
		c-0.691,0.346-1.38,0.736-2.07,1.167c-0.691,0.433-1.467,0.563-2.328,0.389c0.172,0.174,0.215,0.347,0.129,0.519
		c-1.38,0.174-2.587,0.476-3.622,0.908c-0.174,0.087-0.323,0.217-0.452,0.389c-0.129,0.174-0.281,0.304-0.453,0.389
		c-0.087,0-0.152-0.043-0.194-0.13c-0.044-0.085-0.151-0.13-0.323-0.13c-0.433,0.087-0.95,0.259-1.552,0.518
		c-0.605,0.26-1.122,0.519-1.553,0.778c-0.691,0.346-1.445,0.778-2.264,1.296c-0.82,0.519-1.574,0.952-2.264,1.296
		c-0.087,0-0.174-0.107-0.258-0.324c-0.087-0.215-0.174-0.237-0.258-0.065c-0.776,0.346-1.51,0.778-2.199,1.296
		c-0.692,0.519-1.467,0.865-2.328,1.037c0.258,0,0.343,0.13,0.258,0.389c-0.691,0-1.338,0.239-1.94,0.713
		c-0.604,0.476-1.251,0.887-1.94,1.232v-0.518c-0.346,0.864-0.756,1.341-1.229,1.426c-0.475,0.087-0.928,0.044-1.358-0.13
		c-0.174,0.259-0.216,0.411-0.129,0.453c0.085,0.044,0.172,0.022,0.259-0.065c0.085-0.085,0.172-0.13,0.258-0.13
		c0.085,0,0.085,0.087,0,0.259c-1.035,0.087-2.221,0.606-3.557,1.556c-1.338,0.951-2.393,1.859-3.169,2.722
		c-0.691,0.174-1.38,0.54-2.07,1.102c-0.691,0.563-1.38,1.06-2.069,1.491c-0.087,0.087-0.217,0.109-0.388,0.065
		c-0.174-0.043-0.303-0.065-0.388-0.065c-0.174,0.174-0.324,0.39-0.453,0.649c-0.13,0.259-0.281,0.433-0.453,0.518
		c-0.258,0.259-0.647,0.412-1.164,0.454c-0.517,0.044-0.821,0.411-0.906,1.102c-1.982,0.951-3.9,2.203-5.756,3.759
		c-1.853,1.555-3.729,3.024-5.627,4.408c-0.572,0.397-1.156,0.83-1.75,1.295c0.043-0.177,0.088-0.354,0.135-0.529
		c1.481-1.189,2.968-2.394,4.462-3.618c-1.466,0.693-2.801,1.576-4.01,2.657c-0.088,0.079-0.177,0.152-0.265,0.23
		c0.271-0.97,0.493-1.972,0.654-3.017c0.172-0.863,0.388-1.685,0.647-2.463c0.085-0.604,0.107-1.122,0.065-1.555
		c-0.044-0.432,0.02-0.95,0.194-1.556c0-0.518,0.172-1.122,0.518-1.815c0.172-0.604,0.279-1.209,0.323-1.815
		c0.042-0.603,0.194-1.209,0.453-1.815c0.172-0.259,0.324-0.474,0.453-0.648c0.129-0.172,0.194-0.431,0.194-0.778
		c0.085-0.431,0.129-0.82,0.129-1.167c0-0.344,0-0.733,0-1.167v-0.13c0.343-0.172,0.538-0.389,0.582-0.648
		c0.042-0.26,0.107-0.519,0.194-0.778c0.085-0.259,0.172-0.519,0.258-0.778c0.085-0.26,0.129-0.474,0.129-0.648
		c0.172-0.778,0.366-1.556,0.582-2.334c0.215-0.778,0.194-1.641-0.065-2.593c-0.259,0-0.368,0.174-0.324,0.519
		c0.042,0.347,0.107,0.563,0.194,0.648c-0.087,0.087-0.13,0.152-0.13,0.195c0,0.044-0.087,0.152-0.258,0.324
		c0,0.087-0.044,0.13-0.129,0.13c-0.174,0.174-0.258,0.174-0.258,0c0.172-0.172,0.236-0.453,0.194-0.842
		c-0.044-0.389,0.02-0.713,0.194-0.972l0.776-0.778c-0.433,0-0.605-0.237-0.518-0.713c0.085-0.474,0.344-0.713,0.776-0.713
		c-0.174,0.174-0.258,0.389-0.258,0.649c0,0.259,0.085,0.433,0.258,0.518c0.172-0.085,0.258-0.237,0.258-0.453
		c0-0.215,0.042-0.367,0.129-0.454c0-0.172,0.042-0.324,0.13-0.454c0.085-0.13,0.129-0.324,0.129-0.583
		c0.085-0.172,0.107-0.366,0.065-0.583c-0.044-0.215-0.065-0.454-0.065-0.713c-0.174,0-0.259,0.346-0.259,1.037
		c-0.087,0.087-0.151,0.152-0.194,0.194c-0.044,0.044-0.194,0.065-0.452,0.065c0.258-1.209,0.559-2.289,0.905-3.241
		c0.085-0.344,0.172-0.603,0.259-0.778c0.085-0.172,0.085-0.474,0-0.907l0.129-0.13V54.3c0-0.085,0.065-0.13,0.194-0.13
		c0.129,0,0.194-0.043,0.194-0.13c0.172-0.173,0.259-0.389,0.259-0.648v-0.908c0.171-0.259,0.301-0.473,0.388-0.647
		c-0.084,0.351-0.129,0.821-0.129,1.424c0.172,0,0.258-0.085,0.258-0.259c0-0.172,0-0.302,0-0.389
		c0.085-0.172,0.194-0.366,0.323-0.583c0.129-0.215,0.02-0.409-0.323-0.583c-0.009,0.019-0.016,0.047-0.025,0.067
		c0.013-0.065,0.025-0.131,0.025-0.197c-0.087-0.085-0.151-0.172-0.194-0.26c-0.045-0.085-0.109-0.172-0.194-0.259
		c-0.087-0.085-0.129-0.172-0.129-0.259c0-0.26,0.172-0.734,0.517-1.426c0.343-1.122,0.602-2.419,0.776-3.889
		c0.172-0.691,0.366-1.317,0.582-1.88c0.214-0.561,0.408-1.187,0.582-1.88c0.172-0.26,0.259-0.474,0.259-0.648
		c0-0.172,0.042-0.345,0.129-0.519c0.085-0.172,0.194-0.389,0.323-0.648c0.129-0.26,0.02-0.432-0.323-0.519
		c-0.174,0.693-0.433,1.361-0.776,2.009c-0.345,0.648-0.517,1.319-0.517,2.01c-0.087,0.693-0.174,1.082-0.259,1.167
		c-0.174,0.606-0.346,1.211-0.517,1.815c-0.174,0.606-0.345,1.254-0.517,1.944c0,0.347-0.045,0.628-0.13,0.843
		c-0.087,0.217-0.129,0.541-0.129,0.972c-0.087,0.174-0.109,0.304-0.065,0.389c0.042,0.087,0.02,0.174-0.065,0.26
		c-0.087,0.606-0.194,1.102-0.323,1.491c-0.129,0.389-0.281,0.8-0.452,1.232c-0.259,0.26-0.389,0.519-0.389,0.778
		c0,0.174,0,0.389,0,0.648c0,0.259-0.044,0.519-0.129,0.778c0,0.952-0.432,1.426-1.293,1.426c0.172-0.432,0.408-0.908,0.712-1.426
		c0.301-0.519,0.323-1.122,0.065-1.815c0.172,0.087,0.301,0.087,0.388,0c0-0.085,0.042-0.172,0.129-0.259
		c0-0.086,0.065-0.215,0.194-0.389c0.13-0.172,0.194-0.345,0.194-0.519c0-0.432-0.044-0.908-0.129-1.426
		c-0.087-0.518-0.045-0.992,0.129-1.426c0.085-0.085,0.172-0.13,0.259-0.13c0.085-0.26,0.194-0.432,0.323-0.519
		c0.129-0.085,0.194-0.302,0.194-0.648h-0.258c-0.087,0-0.129-0.085-0.129-0.26c0.343,0,0.559-0.043,0.647-0.13
		c0.172-0.172,0.194-0.279,0.065-0.324c-0.13-0.043-0.194-0.108-0.194-0.195c0-0.519,0.13-1.167,0.389-1.945
		c0.172-0.432,0.258-0.778,0.258-1.037c0-0.259,0.042-0.561,0.129-0.908c0-0.259,0.042-0.409,0.129-0.453
		c0.085-0.043,0.214-0.107,0.388-0.195v-0.907c0.085-0.26,0.129-0.519,0.129-0.778c0-0.259,0-0.431,0-0.518
		c0.172-0.26,0.324-0.454,0.453-0.583c0.129-0.13,0.279-0.409,0.452-0.843c0.172-0.863,0.324-1.857,0.453-2.982
		c0.129-1.122,0.279-2.16,0.452-3.111c0.172-0.778,0.408-1.576,0.712-2.399c0.301-0.82,0.582-1.533,0.841-2.139
		c0.172-0.173,0.279-0.409,0.324-0.713c0.042-0.302,0.065-0.538,0.065-0.713c0.085-0.344,0.149-0.778,0.194-1.296
		c0.042-0.519,0.02-0.993-0.065-1.426c0-0.518,0.042-0.863,0.129-1.037c0-0.173,0.042-0.26,0.129-0.26
		c0.085,0,0.129-0.043,0.129-0.13c0.518-1.122,0.861-2.204,1.035-3.241c0-0.778,0.172-1.64,0.517-2.593
		c0-0.172,0.02-0.474,0.065-0.908c0.042-0.431,0.107-0.863,0.194-1.296V14.24c0.085-0.085,0.129-0.26,0.129-0.519
		c0.172-0.26,0.214-0.519,0.129-0.778c-0.087-0.259-0.044-0.561,0.129-0.907c0-0.172,0.042-0.345,0.129-0.519
		c0.085-0.172,0.13-0.302,0.13-0.389c0-0.172,0.02-0.389,0.065-0.648c0.042-0.259,0.065-0.474,0.065-0.648
		c0-0.432,0.042-0.842,0.129-1.232c0.085-0.389,0.13-0.798,0.13-1.232c0-0.95,0.085-1.511,0.258-1.685
		c0-0.691,0.02-1.339,0.065-1.944c0.042-0.604,0.065-1.297,0.065-2.075c-0.345-0.085-0.669-0.13-0.97-0.13
		c-0.303,0-0.41-0.085-0.323-0.26c0-0.172,0.085-0.279,0.258-0.324c0.172-0.043,0.259-0.15,0.259-0.324
		c0-0.172-0.087-0.302-0.259-0.389c-0.174-0.085-0.303-0.172-0.388-0.259h-0.906c0,0.346,0.129,0.519,0.388,0.519
		c0.258,0,0.388,0.174,0.388,0.519c-0.087,0-0.217,0-0.388,0c-0.174,0-0.303,0.087-0.388,0.259C73.296,1.45,73.426,1.515,73.6,1.47
		c0.172-0.043,0.258-0.02,0.258,0.065C73.685,1.622,73.555,1.644,73.47,1.6c-0.087-0.043-0.174-0.065-0.258-0.065
		c0,0.346-0.129,0.563-0.388,0.648c0.172,0.087,0.214,0.152,0.129,0.194c-0.087,0.044-0.129,0.152-0.129,0.324
		c0-0.085,0.042-0.13,0.129-0.13c0.085,0,0.172,0.044,0.258,0.13c-0.174,0.174-0.345,0.369-0.517,0.583
		c-0.174,0.217-0.129,0.369,0.13,0.454C72.65,4.085,72.5,4.452,72.37,4.841c-0.129,0.389-0.065,0.758,0.194,1.102
		c-0.259,0.26-0.433,0.583-0.517,0.972c-0.087,0.389-0.129,0.8-0.129,1.232c0,0.434-0.022,0.908-0.065,1.426
		c-0.044,0.519-0.194,0.907-0.453,1.167c-0.174-0.173-0.216-0.302-0.13-0.389c0.085-0.085,0.042-0.13-0.129-0.13
		c-0.087,0-0.129,0.174-0.129,0.519c-0.087,0.087-0.129,0.217-0.129,0.389v0.13c0,0.346,0,0.628,0,0.842
		c0,0.217-0.129,0.411-0.388,0.583c0-0.085-0.087-0.302-0.259-0.648c0-0.432,0.085-0.863,0.259-1.296
		c0.172-0.432,0.172-0.821,0-1.167c-0.174,0.087-0.324,0.152-0.453,0.194c-0.129,0.044-0.194,0.152-0.194,0.324
		c0,0.174,0.085,0.411,0.258,0.713c0.172,0.304,0.042,0.541-0.388,0.713c-0.087,0-0.109-0.065-0.065-0.194
		c0.042-0.13-0.022-0.195-0.194-0.195c0,0.174-0.065,0.369-0.194,0.583c-0.129,0.217-0.194,0.411-0.194,0.583
		c0.259,0.26,0.388,0.434,0.388,0.519c-0.174,0.174-0.41,0.346-0.712,0.519c-0.303,0.174-0.497,0.434-0.582,0.778
		c0,0.26,0.02,0.411,0.065,0.454c0.042,0.044,0.15,0.152,0.323,0.324h-0.517c-0.087,0-0.129,0.044-0.129,0.13
		c-0.174,0.347-0.174,0.778,0,1.296c0.172,0.519,0.085,0.778-0.259,0.778c-0.174,0-0.388-0.26-0.646-0.778
		c-0.174,0.26-0.282,0.411-0.324,0.454c-0.044,0.044-0.065,0.152-0.065,0.324c0.518,0,0.861,0.044,1.035,0.13
		c-0.258,1.383-0.82,2.249-1.681,2.593c0,0.778,0.042,1.254,0.129,1.426c-0.174,0-0.303,0.13-0.388,0.389
		c-0.174,0.174-0.324,0.304-0.453,0.389c-0.129,0.087-0.194,0.217-0.194,0.389c0,0.259,0.042,0.476,0.129,0.648
		c0.085,0.174,0.129,0.347,0.129,0.519c-0.174,0-0.258,0.087-0.258,0.259c0,0.174-0.087,0.347-0.258,0.519
		c-0.346,0.174-0.605,0.389-0.776,0.648c-0.174,0.174-0.216,0.476-0.129,0.908c0.085,0.434,0.129,0.735,0.129,0.907
		c0,0.347-0.087,0.564-0.258,0.649v0.648c-0.087,0.087-0.194,0.217-0.324,0.389c-0.129,0.174-0.194,0.347-0.194,0.519l0.258,0.389
		c-0.174,0.087-0.303,0.347-0.388,0.778c-0.087,0.434-0.388,0.648-0.905,0.648c0.344-0.95,0.602-1.835,0.776-2.657
		c0.172-0.82,0.344-1.621,0.517-2.398c0.172-0.691,0.259-1.382,0.259-2.075c0.517-0.259,0.776-0.82,0.776-1.685
		c0-0.344,0.042-0.626,0.13-0.842c0.085-0.215,0.129-0.409,0.129-0.583c0.172-0.432,0.214-0.778,0.129-1.037
		c-0.087-0.26-0.044-0.604,0.129-1.037c0-0.172,0.042-0.324,0.129-0.454c0.085-0.13,0.129-0.279,0.129-0.453v-0.649
		c-0.432,0.434-0.863,1.167-1.293,2.204c0,0.865-0.258,1.471-0.776,1.815h-0.13c-0.174,0.174-0.323,0.282-0.452,0.324
		c-0.129,0.044-0.109,0.152,0.065,0.324c0,0.087,0.065,0.109,0.194,0.065c0.129-0.043,0.236-0.02,0.324,0.065
		c-0.517,0.174-0.756,0.563-0.711,1.167c0.042,0.606-0.152,1.082-0.583,1.426c-0.174-0.172-0.194-0.279-0.065-0.324
		c0.129-0.043,0.15-0.15,0.065-0.324c-0.345,0.347-0.432,0.606-0.258,0.778c-0.433,0.693-0.821,1.6-1.164,2.723
		c-0.345,1.124-0.433,2.334-0.258,3.63c-0.174,0-0.259,0.023-0.259,0.065c0,0.044-0.044,0.065-0.129,0.065
		c-0.087,0.087-0.13,0.304-0.13,0.648l-0.129,0.13c-0.087,0.087-0.129,0.174-0.129,0.259c-0.087,0.347-0.151,0.778-0.194,1.297
		c-0.044,0.519-0.238,0.952-0.582,1.296c-0.174,0.347-0.259,0.693-0.259,1.037c-0.087,0.434-0.174,0.735-0.258,0.907
		c-0.087,0.174-0.129,0.347-0.129,0.519v0.908c-0.087,0.174-0.174,0.411-0.258,0.713c-0.087,0.304-0.13,0.541-0.13,0.713
		c-0.087,0.347-0.109,0.583-0.065,0.713c0.042,0.13,0.02,0.281-0.065,0.453c-0.174,0.434-0.41,0.713-0.711,0.843
		c-0.303,0.13-0.54,0.369-0.712,0.713c0.172,0.347,0.194,0.648,0.065,0.908c-0.129,0.259-0.281,0.648-0.452,1.167
		c-0.087,0.174-0.129,0.346-0.129,0.518c0,0.174-0.044,0.347-0.129,0.519c-0.259,0.693-0.304,1.384-0.13,2.075
		c0.172,0.693,0.215,1.254,0.13,1.685c-0.433,0-0.647,0.044-0.647,0.13c0.431,0.174,0.667,0.411,0.712,0.713
		c0.042,0.304,0.065,0.628,0.065,0.973c-0.087,0.174-0.239,0.259-0.453,0.259c-0.217,0-0.368,0-0.453,0
		c-0.087,1.212-0.433,2.269-1.035,3.177c-0.604,0.908-0.776,2.097-0.517,3.565c0.43,0.174,0.646,0.606,0.646,1.296
		c-0.174,0.088-0.258,0.152-0.258,0.195c0,0.044-0.087,0.109-0.258,0.194c-0.346,0.606-0.669,1.232-0.97,1.88
		c-0.303,0.648-0.497,1.362-0.582,2.139c0.258,0,0.388,0.044,0.388,0.13c-0.259,0-0.562,0.044-0.906,0.13
		c0,0.26,0.107,0.476,0.323,0.649c0.214,0.174,0.366,0.433,0.453,0.778c-0.087,0.087-0.239,0.217-0.453,0.389
		c-0.216,0.174-0.323,0.346-0.323,0.519v0.648c0.258,0.606,0.258,1.146,0,1.62c-0.258,0.477-0.604,0.887-1.035,1.233
		c0,0.174,0.065,0.281,0.194,0.324c0.129,0.044,0.194,0.194,0.194,0.453c-0.174,0-0.281,0.109-0.324,0.324
		c-0.044,0.217-0.151,0.369-0.323,0.454c0.172,0.259,0.258,0.433,0.258,0.518c0.085,0.175,0.107,0.412,0.065,0.713
		c-0.044,0.304-0.022,0.583,0.065,0.843c-0.087,0.087-0.129,0.304-0.129,0.648c-0.174,0.087-0.345,0.13-0.517,0.13
		c0.517,0.434,0.625,0.8,0.324,1.102c-0.303,0.305-0.627,0.541-0.97,0.713c-0.087,0.174-0.109,0.346-0.065,0.518
		c0.042,0.175,0.02,0.39-0.065,0.649c-0.087-0.259-0.151-0.474-0.194-0.649c-0.044-0.172-0.065-0.344-0.065-0.518
		c0-0.085-0.045-0.194-0.13-0.324c-0.087-0.13-0.129-0.325-0.129-0.584c-0.863-1.381-1.381-3.066-1.552-5.056
		c-0.174-0.172-0.258-0.39-0.258-0.649c0-0.259-0.044-0.518-0.129-0.777v-0.39c-0.174-0.085-0.216-0.194-0.129-0.324
		c0.085-0.13,0.129-0.237,0.129-0.324c-0.259-0.519-0.388-0.863-0.388-1.037c0-0.259,0.042-0.432,0.129-0.519
		c-0.087-0.172-0.151-0.344-0.194-0.519c-0.045-0.172-0.109-0.344-0.194-0.519v-0.519c-0.432-0.085-0.646-0.259-0.646-0.519v-0.259
		c0-0.259-0.065-0.454-0.194-0.583c-0.129-0.13-0.194-0.279-0.194-0.454c0-0.085-0.022-0.15-0.065-0.194
		c-0.044-0.042-0.065-0.107-0.065-0.194l-0.129-0.13c-0.087-0.172-0.109-0.344-0.065-0.519c0.042-0.172,0.02-0.431-0.065-0.778
		c-0.174-0.432-0.368-0.928-0.582-1.491c-0.216-0.561-0.281-1.145-0.194-1.751c-0.258-0.259-0.41-0.561-0.452-0.907
		c-0.044-0.345-0.151-0.691-0.323-1.037c-0.087,0-0.13-0.043-0.13-0.13v-0.389c-0.259-0.431-0.346-0.95-0.259-1.555
		c0-0.086-0.044-0.13-0.129-0.13c-0.087,0-0.129-0.085-0.129-0.259c0-0.172,0.02-0.28,0.065-0.324
		c0.042-0.043,0.065-0.107,0.065-0.194c-0.087,0-0.216,0-0.388,0c-0.174,0-0.258-0.043-0.258-0.13
		c-0.087-0.173-0.109-0.324-0.065-0.454c0.042-0.13,0.065-0.279,0.065-0.454c-0.087-0.085-0.174-0.237-0.259-0.454
		c-0.087-0.215-0.087-0.409,0-0.583c-0.087-0.085-0.174-0.172-0.259-0.259c-0.087-0.085-0.129-0.302-0.129-0.648v-0.389v-0.259
		c0-0.26-0.044-0.474-0.129-0.648c-0.087-0.173-0.087-0.345,0-0.519l0.129-0.13c0,0.347,0.085,0.564,0.258,0.649v-1.945
		c-0.258-0.778-0.388-1.468-0.388-2.074c0-0.173-0.022-0.215-0.065-0.13c-0.044,0.088-0.065,0.045-0.065-0.13h0.129v-0.13
		c0-0.172-0.022-0.324-0.065-0.454c-0.044-0.13-0.065-0.237-0.065-0.324c0-0.085-0.044-0.15-0.129-0.195
		c-0.087-0.042-0.129-0.15-0.129-0.324v-0.519h0.258c-0.174-0.345-0.303-0.604-0.388-0.778c-0.087-0.172-0.129-0.344-0.129-0.518
		c0.344-0.173,0.517-0.345,0.517-0.519v-0.908h0.129l0.129-0.13v-0.389c0-0.172,0.065-0.302,0.194-0.389
		c0.129-0.085,0.194-0.215,0.194-0.389v-0.778c0.085,0,0.259,0,0.517,0s0.343-0.085,0.258-0.259h-0.672
		c0.041-0.028,0.086-0.06,0.155-0.13c-0.433,0-0.647-0.085-0.647-0.26V36.02c0.258,0,0.388-0.172,0.388-0.518h-0.388
		c0.172-0.085,0.258-0.302,0.258-0.649c-0.174-0.085-0.432-0.107-0.775-0.065c-0.346,0.045-0.647,0.065-0.906,0.065
		c0-0.085,0.065-0.13,0.194-0.13c0.129,0,0.194-0.043,0.194-0.13v-0.259c-0.174-0.085-0.367-0.108-0.582-0.065
		c-0.216,0.045-0.411,0.065-0.583,0.065c-0.174,0.174-0.452,0.217-0.841,0.13c-0.388-0.085-0.711-0.13-0.97-0.13
		c0-0.085,0.02-0.13,0.065-0.13c0.042,0,0.065-0.043,0.065-0.13c-1.467-0.519-3.191-0.885-5.174-1.102
		c-1.984-0.215-3.751-0.107-5.303,0.324c-0.258,0.778-0.346,1.685-0.258,2.722c0.085,1.037,0.129,2.075,0.129,3.112
		c0,0.087-0.065,0.174-0.194,0.259c-0.129,0.087-0.194,0.304-0.194,0.648c0,0.088,0.042,0.152,0.129,0.195
		c0.085,0.044,0.042,0.152-0.129,0.324c0,0.434-0.129,0.758-0.388,0.973c-0.259,0.216-0.433,0.541-0.517,0.972
		c0,0.174,0.02,0.324,0.065,0.453c0.042,0.13,0.065,0.324,0.065,0.583c0,0.778-0.087,1.426-0.259,1.945
		c-0.174,0.434-0.303,0.778-0.388,1.037c-0.087,0.259-0.129,0.606-0.129,1.037c-0.174,0.174-0.217,0.304-0.129,0.389
		c0.085,0.087,0.129,0.174,0.129,0.26c-0.259,0.952-0.388,1.902-0.388,2.852c-0.174,0.434-0.216,0.8-0.129,1.102
		c0.085,0.304,0.129,0.671,0.129,1.102c-0.174,0.087-0.259,0.217-0.259,0.389c-0.087,0.347-0.129,0.952-0.129,1.815
		c-0.087,0.519-0.303,0.995-0.647,1.426V57.8c-0.087,0.087-0.129,0.174-0.129,0.26v0.13c0,0.606-0.13,0.952-0.388,1.037
		c-0.258,0.778-0.388,1.513-0.388,2.204v0.908c0,0.087,0,0.216,0,0.389c0,0.174-0.087,0.304-0.259,0.389
		c-0.174,0.519-0.281,0.995-0.324,1.426c-0.044,0.434-0.109,0.865-0.194,1.296v0.648c-0.087,0.174-0.216,0.26-0.388,0.26
		c-0.174,0.259-0.217,0.476-0.129,0.648c0.085,0.174,0.129,0.346,0.129,0.519v0.908c-0.259,0.518-0.388,0.995-0.388,1.426v1.426
		c0,0.434-0.087,0.823-0.259,1.167c-0.174,0.347-0.258,0.606-0.258,0.778c0,0.174,0.02,0.281,0.065,0.324
		c0.042,0.044,0.065,0.109,0.065,0.194c-0.087,0.347-0.174,0.606-0.258,0.778c-0.087,0.174-0.129,0.346-0.129,0.519
		c-0.174,0.518-0.281,1.102-0.324,1.75c-0.044,0.649-0.109,1.319-0.194,2.01c0,0.433-0.022,0.865-0.065,1.296
		c-0.044,0.433-0.065,0.865-0.065,1.296v0.649c-0.087,1.47-0.343,2.917-0.776,4.342c-0.431,1.427-0.602,2.788-0.517,4.084
		c0,0.344,0.174,0.691,0.517,1.037c0-0.174,0.045-0.217,0.13-0.13c0.087,0.085,0.174,0.13,0.258,0.13v0.259
		c0.172,0.172,0.258,0.279,0.258,0.324c0,0.043,0.042,0.107,0.129,0.195h0.647c0.085,0,0.172,0.043,0.258,0.13
		c0.085,0.085,0.258,0.215,0.517,0.389c0.344,0,0.667-0.044,0.97-0.13c0.301-0.087,0.625-0.044,0.97,0.13h0.517
		c0.172,0,0.279-0.044,0.324-0.13c0.042-0.087,0.107-0.13,0.194-0.13c0.085,0.172,0.129,0.302,0.129,0.389
		c0.259-0.433,0.819-0.518,1.682-0.259c0.861,0.259,1.552,0.302,2.07,0.13c0.602,0,0.948-0.174,1.034-0.518
		c0.259-0.175,0.237-0.325-0.065-0.454c-0.303-0.13-0.452-0.324-0.452-0.583c0.602-0.434,0.861-0.995,0.776-1.686h-0.129
		c-0.087,0-0.13-0.13-0.13-0.389c0-0.087,0.042-0.13,0.13-0.13c0.085,0,0.172-0.087,0.259-0.26c0-0.518-0.045-0.864-0.13-1.036
		c0.172-0.434,0.237-0.778,0.194-1.037c-0.045-0.26-0.109-0.604-0.194-1.037c0.172,0,0.259-0.043,0.259-0.13
		c0-0.085,0.085-0.13,0.258-0.13c0-0.345-0.044-0.669-0.129-0.973c-0.087-0.302-0.129-0.669-0.129-1.102
		c0-0.172,0.042-0.279,0.129-0.325c0.085-0.042,0.129-0.15,0.129-0.324v-1.037c0-0.431,0.042-0.797,0.129-1.102
		c0.085-0.302,0.129-0.668,0.129-1.102c0-0.431,0.02-0.797,0.065-1.102c0.042-0.302,0.065-0.668,0.065-1.101
		c0.085,0,0.13,0.044,0.13,0.13c0.172-0.345,0.259-0.908,0.259-1.686c-0.174,0-0.259,0.065-0.259,0.194c0-0.02,0-0.037,0-0.065
		c0-0.431,0.042-0.82,0.129-1.167c0.085-0.344,0.215-0.733,0.388-1.167c0,0.174-0.044,0.369-0.129,0.584
		c-0.087,0.217-0.044,0.324,0.129,0.324c0.172-0.431,0.236-0.821,0.194-1.167c-0.044-0.344-0.022-0.778,0.065-1.296
		c0-0.344,0.065-0.649,0.194-0.908c0.13-0.259,0.194-0.518,0.194-0.778c0-0.172,0.042-0.215,0.129-0.13
		c0.085,0.087,0.13,0.044,0.13-0.13v-0.777l0.129-0.26l-0.129-0.13l-0.13,0.13c0.085-0.69,0.13-1.339,0.13-1.945
		c0-0.604,0.042-1.122,0.129-1.556c0.172-0.344,0.258-0.713,0.258-1.102s0.042-0.668,0.129-0.842c0-0.173,0.085-0.302,0.258-0.389
		c0.259,0.174,0.279,0.411,0.065,0.713c-0.217,0.304-0.239,0.628-0.065,0.972c0.259-0.085,0.389-0.302,0.389-0.648
		c0-0.345,0.042-0.648,0.129-0.908v-0.13c0-0.085,0.02-0.13,0.065-0.13c0.042,0,0.065-0.085,0.065-0.26
		c-0.174-0.085-0.324-0.065-0.453,0.065c-0.129,0.13-0.194,0.11-0.194-0.065c0-0.431,0.065-0.863,0.194-1.296
		c0.129-0.432,0.237-0.863,0.324-1.296h0.129c0.085,0.519,0.042,0.865-0.129,1.037v0.907c0.085-0.259,0.129-0.474,0.129-0.648
		c0-0.172,0.042-0.344,0.129-0.519l0.258,0.13h0.388c0.172,0.174,0.344,0.411,0.517,0.713c0.172,0.304,0.388,0.583,0.647,0.842
		l-0.388,0.13c0.344,0.347,0.473,0.563,0.388,0.648c0.172,0,0.259,0.045,0.259,0.13c0.085,0.174,0.107,0.281,0.065,0.324
		c-0.044,0.044-0.065,0.152-0.065,0.324l0.129,0.259v0.389c0,0.087,0.042,0.217,0.129,0.389c0.085,0.174,0.129,0.304,0.129,0.389
		c-0.087,0-0.174,0.045-0.258,0.13h0.258c0,0.174,0.02,0.281,0.065,0.324c0.042,0.044,0.065,0.152,0.065,0.324
		c0,0.087-0.129,0.13-0.388,0.13c0.172,0,0.214,0.087,0.129,0.259c-0.087,0.174-0.044,0.26,0.129,0.26c0,0.087,0.02,0.13,0.065,0.13
		c0.042,0,0.065,0.044,0.065,0.13h-0.129v0.26c0.085,0.174,0.172,0.368,0.258,0.584c0.085,0.217,0.043,0.411-0.129,0.583
		c0.172,0.174,0.279,0.217,0.324,0.13c0.042-0.085,0.065-0.043,0.065,0.13c0.172,0,0.259,0.087,0.259,0.26
		c0,0.174-0.087,0.259-0.259,0.259c-0.087-0.085-0.087-0.259,0-0.519c-0.174,0-0.239,0.065-0.194,0.194
		c0.042,0.13,0.065,0.24,0.065,0.325c0,0.174,0.085,0.194,0.259,0.065c0.172-0.13,0.258-0.15,0.258-0.065
		c0,0.174,0.02,0.281,0.065,0.324c0.042,0.044,0.065,0.109,0.065,0.194c0,0.174,0.02,0.281,0.065,0.324
		c0.042,0.045,0.065,0.153,0.065,0.325c0-0.085-0.087-0.043-0.258,0.13c0.258,0,0.388,0.13,0.388,0.389l-0.258,0.13
		c0-0.054-0.01-0.079-0.014-0.122c-0.085,0.077-0.186,0.099-0.309,0.057c-0.129-0.043-0.239-0.02-0.324,0.065
		c-0.174,0.175-0.194,0.26-0.065,0.26c0.129,0,0.194,0.044,0.194,0.13c0,0.174,0.065,0.324,0.194,0.453
		c0.129,0.13,0.194,0.239,0.194,0.324c0.172,0.693,0.301,1.124,0.388,1.296c0.344,0.26,0.538,0.454,0.583,0.584
		c0.042,0.13,0.065,0.324,0.065,0.583v0.13v0.13c0,0.174,0.085,0.259,0.258,0.259l0.129,0.259c0,0.087-0.022,0.13-0.065,0.13
		c-0.044,0-0.022,0.087,0.065,0.259c0.085,0.347,0.129,0.693,0.129,1.037c0,0.347,0.215,0.736,0.647,1.167h-0.259
		c-0.087,0-0.151,0.022-0.194,0.065c-0.045,0.045-0.022,0.066,0.065,0.066c0.172,0,0.237,0.109,0.194,0.324
		c-0.045,0.216,0.02,0.368,0.194,0.453c0.258,0.259,0.388,0.693,0.388,1.296c0,0.087,0.042,0.13,0.129,0.13
		c0.085,0,0.13,0.088,0.13,0.26h-0.259c0.172,0.087,0.301,0.152,0.388,0.194c0.085,0.044,0.215,0.152,0.388,0.324
		c0.172,0.346,0.279,0.671,0.323,0.972c0.042,0.304,0.149,0.54,0.324,0.713c0,0.087-0.045,0.109-0.13,0.065
		c-0.087-0.043-0.087,0.022,0,0.194l0.13,0.13c-0.087,0.087-0.13,0.174-0.13,0.259v0.389c0,0.088,0.13,0.13,0.389,0.13
		c0,0.174,0.042,0.346,0.129,0.518c0.085,0.174,0.214,0.389,0.388,0.649c0,0.174,0.042,0.304,0.129,0.389
		c0.085,0.087,0.172,0.216,0.259,0.389v0.13v0.13v0.39c0,0.518,0.149,0.885,0.453,1.102c0.301,0.215,0.452,0.625,0.452,1.232
		l0.129,0.13v0.518c0,0.173,0.065,0.39,0.194,0.649c0.129,0.259,0.149,0.603,0.065,1.037l0.13,0.13c0,0.344,0.085,0.603,0.258,0.778
		c0.172,0.172,0.343,0.344,0.517,0.518c0,0.085-0.065,0.15-0.194,0.194c-0.129,0.043-0.109,0.15,0.065,0.325
		c0.085,0.259,0.237,0.496,0.453,0.712c0.215,0.215,0.237,0.497,0.065,0.843c0.343,0.085,0.559,0.215,0.646,0.389
		c-0.087,0-0.174,0.043-0.258,0.13c0.172,0.172,0.473,0.26,0.906,0.26c0.343,0.431,0.582,0.949,0.711,1.555
		c0.102,0.474,0.22,0.915,0.348,1.337c-0.264,0.239-0.531,0.478-0.796,0.717c0.16-0.424,0.074-0.762-0.264-1.016
		c-0.174,0.259-0.281,0.603-0.324,1.037c-0.02,0.195-0.011,0.354,0.014,0.496c-1.684,1.52-3.359,3.039-5.06,4.56
		c-2.801,2.506-5.323,5.401-7.566,8.687c-0.259,0.431-0.538,0.842-0.841,1.232c-0.301,0.389-0.495,0.927-0.582,1.62
		c0.087-0.087,0.13-0.259,0.13-0.518c2.415-3.458,4.937-6.547,7.566-9.27c2.093-2.166,4.228-4.218,6.401-6.164
		c0.034,0.099,0.068,0.2,0.133,0.264c0.063-0.128,0.158-0.35,0.268-0.618c0.323-0.287,0.646-0.575,0.971-0.857
		c0.019,0.058,0.034,0.122,0.054,0.179c0.085,0,0.129,0.065,0.129,0.195c0,0.095,0.062,0.143,0.155,0.168
		c-0.481,0.433-0.959,0.86-1.449,1.322c-1.378,1.209-2.846,2.528-4.398,3.954c-1.552,1.426-3.04,2.938-4.463,4.538
		c-1.423,1.599-2.758,3.349-4.009,5.251c-1.249,1.9-2.264,3.932-3.04,6.093c0.259,0.431,0.433,0.518,0.518,0.259
		c0.087-0.259,0.303-0.304,0.646-0.13c-0.258,0.519-0.258,0.734,0,0.649c0.259-0.087,0.433,0.043,0.518,0.389
		c0.345-0.346,0.733-0.995,1.164-1.945c0.174,0.085,0.303,0.172,0.388,0.26c0.087,0.085,0.216,0.043,0.388-0.13
		c0-0.346,0.174-0.67,0.518-0.971c0.345-0.305,0.517-0.8,0.517-1.492c0.433,0.345,0.692,0.303,0.776-0.13
		c0.087-0.433,0.258-0.823,0.517-1.167c0.087-0.087,0.174-0.109,0.259-0.065c0.087,0.043,0.174,0.02,0.259-0.065
		c0.087-0.087,0.151-0.304,0.194-0.648c0.044-0.347,0.109-0.606,0.194-0.778l0.259,0.259l0.129,0.13
		c0.95-1.124,1.92-2.204,2.91-3.241c0.992-1.037,1.963-2.073,2.91-3.111c0.174,0.344,0.368,0.324,0.582-0.065
		c0.216-0.39,0.323-0.369,0.323,0.065c-0.258,0.259-0.495,0.431-0.711,0.518c-0.215,0.085-0.324,0.344-0.324,0.778
		c-0.085,0-0.259,0.107-0.517,0.324c-0.258,0.215-0.517,0.496-0.776,0.843c-0.258,0.344-0.473,0.648-0.646,0.908
		c-0.172,0.259-0.214,0.431-0.129,0.518c0.517-0.433,0.992-0.995,1.423-1.685c0.432-0.693,0.906-1.255,1.423-1.686h0.258l0.13,0.13
		c0.691-0.433,1.208-0.93,1.552-1.491c0.345-0.564,0.734-1.017,1.164-1.361c0.432-0.259,0.798-0.541,1.099-0.843
		c0.303-0.304,0.626-0.583,0.97-0.843c0.518-0.415,1.025-0.851,1.526-1.296h0.156c0.172,0,0.258,0.085,0.258,0.259v0.177
		c-0.449,0.33-0.892,0.66-1.359,0.99c-0.732,0.519-1.229,1.209-1.487,2.075c0.95-0.692,1.94-1.578,2.975-2.657
		c0.117-0.122,0.229-0.218,0.344-0.329c0.08,0.053,0.175,0.068,0.303,0.005c0.06-0.124,0.048-0.217,0.001-0.296
		c0.785-0.698,1.52-1.125,2.197-1.261c-0.258-0.174-0.343-0.346-0.258-0.518c0.258,0.172,0.646,0.15,1.164-0.065
		c0.517-0.217,1.122-0.325,1.81-0.325c0.087-0.346,0.194-0.54,0.324-0.583c0.129-0.044,0.239-0.281,0.324-0.713
		c0.174,0.172,0.258,0.303,0.258,0.39c0,0.085,0.087,0.085,0.258,0c1.467-1.471,3.105-2.853,4.916-4.149
		c0,0.259-0.129,0.431-0.388,0.519c-0.258,0.085-0.214,0.259,0.129,0.518c0.518-0.693,1.079-1.146,1.682-1.361
		c0.479-0.172,0.844-0.584,1.106-1.217c0.043,0.034,0.104,0.072,0.188,0.115c0.432-0.346,0.906-0.649,1.423-0.908
		c0.517-0.259,0.95-0.778,1.293-1.555c0.174,0.518,0.324,0.583,0.453,0.194c0.13-0.389,0.281-0.671,0.453-0.843
		c0.174-0.087,0.41-0.152,0.711-0.194c0.303-0.044,0.54-0.109,0.711-0.194c0.031,0,0.093,0.006,0.153,0.011
		c-0.015-0.032-0.023-0.078-0.023-0.141c0.433-0.693,0.906-0.865,1.423-0.519c0.691-0.692,1.401-1.276,2.134-1.75
		c0.732-0.477,1.488-0.972,2.264-1.492c-0.517,0.691-1.144,1.275-1.875,1.751c-0.734,0.474-1.359,0.928-1.876,1.361
		c-0.085,0.085-0.323,0.237-0.711,0.454c-0.388,0.215-0.408,0.409-0.065,0.583c0.691-0.174,1.443-0.671,2.264-1.491
		c0.818-0.823,1.659-1.361,2.522-1.621c-0.174,0.26-0.388,0.41-0.647,0.454c-0.258,0.043-0.475,0.279-0.647,0.712
		c0.689,0.085,1.314-0.109,1.875-0.583c0.56-0.477,1.013-0.887,1.358-1.232c0.69-0.174,1.294-0.541,1.811-1.102
		c0.517-0.564,1.164-0.756,1.94-0.584c-0.259-0.172-0.281-0.279-0.065-0.324c0.214-0.043,0.324-0.194,0.324-0.453
		c0.43,0.174,0.905,0.087,1.423-0.26c0.517-0.344,0.948-0.862,1.293-1.555c0.776-0.172,1.508-0.496,2.199-0.972
		c0.689-0.474,1.378-0.885,2.07-1.232c0.517-0.259,1.013-0.518,1.487-0.777c0.473-0.26,0.926-0.519,1.358-0.778
		c1.638-0.95,3.254-1.751,4.851-2.398c1.595-0.649,3.124-1.361,4.592-2.139c0.172-0.085,0.344-0.389,0.517-0.908
		c0.085-0.085,0.194-0.065,0.323,0.065c0.129,0.13,0.237,0.109,0.324-0.065c0.431-0.172,0.861-0.431,1.294-0.778
		c0.43-0.344,0.86-0.344,1.293,0c0.343-0.518,0.731-0.82,1.164-0.907c0.43-0.085,0.818-0.172,1.164-0.26
		c0.517-0.172,1.035-0.453,1.552-0.842c0.517-0.39,1.077-0.669,1.682-0.843c0.172-0.085,0.344-0.085,0.517,0
		c0.172,0.087,0.343,0.087,0.517,0c0.172,0,0.388-0.13,0.647-0.389c0.258-0.26,0.473-0.432,0.647-0.519
		c3.707-1.296,7.329-2.593,10.865-3.889c0.602-0.259,1.229-0.431,1.876-0.519c0.646-0.085,1.229-0.215,1.746-0.389
		c0.025-0.012,0.047-0.033,0.071-0.047c-0.026,0.103-0.042,0.202-0.072,0.306v0.519c-0.258,0.259-0.388,0.476-0.388,0.648
		c0.085,0.174,0.172,0.26,0.258,0.26c0.085,0,0.172,0.087,0.258,0.259c0,0.087-0.022,0.239-0.065,0.454
		c-0.044,0.217-0.065,0.412-0.065,0.584c-0.087,0.174-0.129,0.346-0.129,0.518c0,0.174-0.044,0.304-0.129,0.389v0.26
		c-0.087,0.174-0.129,0.433-0.129,0.777c-0.259,0.434-0.304,0.778-0.13,1.037c0,0.174,0.065,0.305,0.194,0.39
		c0.129,0.087,0.194,0.174,0.194,0.259c0,0.174-0.022,0.304-0.065,0.389c-0.044,0.087-0.065,0.217-0.065,0.389
		c-0.174,0.519-0.346,1.017-0.518,1.492c-0.174,0.476-0.174,1.06,0,1.75c0,0.087,0.042,0.065,0.13-0.065
		c0.085-0.13,0.172-0.107,0.259,0.065c-0.433,0.693-0.647,1.815-0.647,3.371h0.388c0.085,0,0.129-0.043,0.129-0.13
		c-0.174,1.037-0.174,2.119,0,3.241c0.172,1.124,0.042,2.074-0.388,2.852c0.172,0,0.259,0.13,0.259,0.39
		c0.085,0.346,0.065,0.777-0.065,1.296c-0.129,0.518-0.194,0.993-0.194,1.426c0,0.691,0.042,1.122,0.129,1.296
		c0.085,0.172,0.301,0.344,0.647,0.519c-0.154,1.028-0.257,2.116-0.335,3.236c-0.381-0.169-0.615-0.168-0.701,0.004
		c0.174,0,0.217,0.13,0.129,0.39c-0.085,0.259-0.172,0.389-0.258,0.389c0-0.087,0-0.216,0-0.389c0-0.174-0.085-0.259-0.258-0.259
		c0,0.431-0.042,0.668-0.129,0.712c-0.085,0.042-0.194,0.042-0.324,0c-0.13-0.044-0.259-0.044-0.388,0
		c-0.129,0.042-0.236,0.194-0.323,0.454c0-0.175-0.172-0.131-0.517,0.13c-0.344,0.259-0.517,0.172-0.517-0.26
		c-0.085,0.173-0.149,0.325-0.194,0.454c-0.042,0.13-0.02,0.324,0.065,0.583c-0.344-0.346-0.538-0.368-0.583-0.065
		c-0.042,0.303-0.149,0.539-0.323,0.713c0.174-0.693-0.042-0.908-0.647-0.649c-0.172,0.085-0.215,0.238-0.13,0.454
		c0.087,0.215-0.085,0.409-0.517,0.583c0.087-0.346,0.044-0.476-0.129-0.389c-0.172,0.085-0.388,0.237-0.647,0.453
		c-0.258,0.215-0.517,0.41-0.776,0.584c-0.259,0.172-0.431,0.215-0.517,0.13c0.258-0.087,0.388-0.259,0.388-0.519
		c-0.259,0.432-0.538,0.626-0.841,0.584c-0.301-0.044-0.667,0.02-1.1,0.194c-0.085,0.085-0.129,0.172-0.129,0.259
		c0,0.085-0.042,0.13-0.13,0.13c-0.085,0.085-0.172,0.066-0.259-0.065c-0.085-0.13-0.214-0.109-0.388,0.065
		c0.087-0.087-0.042-0.065-0.388,0.066c-0.344,0.13-0.667,0.302-0.97,0.518c-0.301,0.215-0.56,0.409-0.776,0.583
		c-0.214,0.173-0.15,0.303,0.194,0.39c-0.343,0-0.582,0.085-0.711,0.259c-0.13,0.172-0.108,0.043,0.065-0.389
		c-0.603,0.344-1.207,0.82-1.811,1.426c-0.602,0.603-1.249,0.863-1.94,0.778v0.13c-0.689-0.347-1.294-0.194-1.811,0.453
		c-0.517,0.649-0.906,1.058-1.164,1.232c-0.69,0.604-1.378,0.885-2.07,0.843c-0.479-0.031-0.803,0.061-0.991,0.261
		c0.222-0.026,0.345,0.031,0.345,0.192c-0.172,0-0.301,0.085-0.388,0.26c-0.085,0.172-0.258,0.259-0.517,0.259
		c-0.172-0.174-0.259-0.39-0.259-0.649c-0.517,0.344-0.948,0.734-1.293,1.167c-0.023,0.029-0.038,0.057-0.06,0.086
		c-0.002-0.043-0.023-0.092-0.07-0.15c-0.172-0.217-0.343-0.281-0.517-0.194c-1.207,0.778-2.393,1.404-3.557,1.88
		c-1.164,0.474-2.134,1.102-2.911,1.879c0.863-0.346,1.552-0.735,2.07-1.167c0.517-0.433,1.251-0.777,2.199-1.037
		c-0.085,0.432-0.323,0.649-0.712,0.649c-0.388,0-0.279,0.215,0.324,0.648c-0.517,0.432-0.99,0.734-1.423,0.908
		c-0.43,0.172-0.559-0.087-0.388-0.777c-0.43,0.259-0.625,0.496-0.582,0.712c0.044,0.215-0.065,0.454-0.324,0.713
		c-1.12,0.69-2.284,1.232-3.492,1.62c-1.207,0.39-2.199,1.015-2.975,1.88c0.174,0,0.239,0.13,0.194,0.389
		c-0.042,0.259,0.022,0.389,0.194,0.389c0.258-0.605,0.669-0.907,1.229-0.907c0.562,0,1.015-0.347,1.358-1.037
		c0.433,0.172,0.821,0.107,1.164-0.194c0.346-0.305,0.734-0.369,1.164-0.195c0.174-0.174,0.281-0.368,0.324-0.583
		c0.044-0.216,0.152-0.411,0.324-0.584c0.517,0.085,0.992,0.043,1.423-0.13c0.433-0.174,0.821-0.368,1.164-0.583
		c0.345-0.216,0.692-0.412,1.035-0.584c0.345-0.174,0.733-0.174,1.164,0c-0.172-0.433-0.149-0.648,0.065-0.648
		c0.216,0,0.41-0.087,0.582-0.259c0.346-0.26,0.82-0.39,1.423-0.39c1.122-0.777,2.179-1.383,3.169-1.814
		c0.992-0.434,1.94-0.843,2.846-1.232c0.906-0.39,1.856-0.758,2.846-1.102c0.992-0.347,2.091-0.823,3.298-1.427
		c-0.085-0.346,0-0.605,0.259-0.777c0.174,0.431,0.647,0.389,1.423-0.13c0.776-0.519,1.338-0.865,1.681-1.037
		c1.811-0.865,3.557-1.666,5.239-2.398c1.152-0.504,2.263-1.077,3.354-1.682c-0.032,1.706-0.055,3.411-0.055,5.118h0.647
		c0.172-0.175,0.279-0.412,0.323-0.713c0.042-0.304,0.194-0.541,0.453-0.713c0.258,0.085,0.366,0.26,0.323,0.519
		c-0.044,0.259,0.107,0.389,0.452,0.389c-0.432,0.432-0.497,0.885-0.194,1.361c0.301,0.475,0.408,0.928,0.324,1.362
		c-0.087,0.085-0.194,0.085-0.324,0c-0.129-0.088-0.194-0.045-0.194,0.13c0.085,0.172,0.194,0.259,0.323,0.259
		c0.13,0,0.237,0.043,0.324,0.13c0,0.172-0.022,0.324-0.065,0.453c-0.044,0.13-0.022,0.28,0.065,0.454
		c0,0.172,0.065,0.279,0.194,0.324c0.129,0.043,0.194,0.15,0.194,0.324c-0.258,0-0.388,0.13-0.388,0.39
		c0.085,0.172,0.149,0.259,0.194,0.259c0.042,0,0.065,0.085,0.065,0.259c0,0.172-0.044,0.237-0.129,0.194
		c-0.087-0.044-0.13,0.02-0.13,0.194c0.085,0,0.13,0.043,0.13,0.13c0,0.085,0.085,0.085,0.258,0c0,0.172,0.042,0.194,0.129,0.065
		c0.085-0.13,0.172-0.153,0.258-0.065c0.085,0.603,0.02,1.102-0.194,1.491c-0.216,0.389-0.281,0.843-0.194,1.361
		c0-0.087,0.085-0.13,0.258-0.13c0.172,0.603,0.172,1.252,0,1.945c0,0.172-0.044,0.324-0.129,0.453
		c-0.087,0.13-0.044,0.237,0.129,0.324c0.172-0.433,0.301-0.648,0.388-0.648c0.259,0.344,0.301,0.907,0.129,1.685
		c0.085,0,0.15-0.065,0.194-0.194c0.042-0.13,0.107-0.109,0.194,0.065c0.085,0.259,0.042,0.562-0.129,0.908v0.13
		c0.258,0.085,0.388-0.044,0.388-0.389c0.085-0.175,0.129-0.39,0.129-0.649c0-0.259,0.085-0.433,0.259-0.518
		c0.172-0.175,0.324-0.175,0.453,0c0.129,0.172,0.279,0.172,0.452,0c0.172-3.631,0.344-7.24,0.518-10.826
		c0.15-3.134,0.34-6.248,0.556-9.348c0.397-0.233,0.824-0.467,1.318-0.699c0.733-0.347,1.488-0.693,2.264-1.037
		c0.776-0.347,1.51-0.649,2.199-0.908c0.691-0.259,1.208-0.519,1.552-0.778c-0.344,0-0.518-0.13-0.518-0.389
		c0.518,0.085,0.95,0.02,1.294-0.194c0.346-0.218,0.711-0.454,1.099-0.713c0.389-0.259,0.821-0.498,1.294-0.713
		c0.475-0.217,1.012-0.324,1.617-0.324c-0.174,0.431-0.258,0.734-0.258,0.908c0,0.172-0.087,0.302-0.259,0.389
		c-1.035,0.345-1.983,0.821-2.846,1.427c-0.861,0.603-1.766,1.121-2.716,1.555c0.259,0,0.604-0.109,1.035-0.324
		c0.433-0.218,0.927-0.477,1.488-0.778c0.561-0.304,1.144-0.584,1.746-0.843c0.605-0.259,1.12-0.389,1.553-0.389
		c-0.174,0.344-0.217,0.69-0.13,1.037c0.085,0.344,0.13,0.733,0.13,1.167c-0.087,0.259-0.194,0.648-0.324,1.167
		c-0.13,0.518-0.194,0.993-0.194,1.426c0.085,0.085,0.172,0.13,0.259,0.13c0.085,0,0.129,0.02,0.129,0.065
		c0,0.042,0.042,0.065,0.13,0.065c0,0.95-0.087,2.16-0.259,3.63c-0.174,1.469-0.259,2.723-0.259,3.76
		c-0.087,1.037-0.087,1.987,0,2.852c0.085,0.863,0.129,1.686,0.129,2.463c0,0.085-0.044,0.172-0.129,0.259
		c-0.087,0.085-0.129,0.303-0.129,0.649c-0.258,3.802-0.388,7.562-0.388,11.279c0,0.231-0.008,0.456-0.01,0.685
		c-3.631-2.272-8.4-1.769-11.479,1.316c-3.279,3.288-3.637,8.496-0.836,12.201c0.643-0.644,1.286-1.289,1.929-1.934
		c-1.759-2.622-1.419-6.126,0.811-8.36c2.229-2.234,5.724-2.575,8.341-0.812c0.405-0.407,0.811-0.813,1.217-1.22
		c-0.061,3.034-0.26,5.957-0.62,8.753c0.692-0.518,0.926-1.124,0.712-1.815c-0.214-0.692-0.065-1.426,0.452-2.204
		c-0.174-0.433-0.216-1.059-0.129-1.879c0.085-0.823,0.214-1.708,0.388-2.657c0.085-0.952,0.129-1.902,0.129-2.853
		c0-0.952,0.172-1.341,0.517-1.167c-0.174-0.518-0.216-0.972-0.129-1.361c0.085-0.389,0.129-0.843,0.129-1.361
		c0.43,0.172,0.647-0.022,0.647-0.584c0-0.563-0.174-0.887-0.517-0.972c0-0.433,0.065-0.692,0.194-0.777
		c0.13-0.087,0.237-0.217,0.324-0.39c-0.259,0-0.346-0.087-0.259-0.259c0.518-0.087,0.69-0.239,0.518-0.453
		c-0.174-0.217-0.259-0.628-0.259-1.232c0.517,0.085,0.689-0.109,0.517-0.584c-0.174-0.476-0.216-0.887-0.129-1.232
		c0.085-0.433,0.214-0.713,0.388-0.843c0.172-0.13,0.259-0.368,0.259-0.712c0-0.174-0.109-0.39-0.324-0.649
		c-0.216-0.259-0.238-0.563-0.065-0.908c0.343-1.036,0.583-2.118,0.712-3.24c0.129-1.124,0.214-2.248,0.258-3.371
		c0.042-1.124,0.129-2.226,0.258-3.306c0.129-1.082,0.366-2.097,0.712-3.047c0.085,0.691,0.194,1.145,0.323,1.361
		c0.129,0.215,0.107,0.539-0.065,0.972c0.431-0.087,0.56-0.368,0.388-0.843c-0.174-0.476-0.216-0.929-0.13-1.361
		c0.172-0.692,0.324-1.535,0.453-2.528c0.129-0.995,0.149-1.967,0.065-2.917c0.776,0.085,1.443-0.13,2.005-0.649
		c0.559-0.518,1.1-0.691,1.617-0.518c-0.174,0.433-0.453,0.712-0.841,0.842c-0.388,0.13-0.669,0.41-0.841,0.843
		c0.861-0.518,1.531-0.887,2.005-1.102c0.474-0.215,1.184-0.668,2.134-1.361c1.293,0,2.328-0.324,3.105-0.972
		c0.775-0.649,1.594-1.187,2.458-1.62c0.517-0.26,0.991-0.432,1.423-0.519c0.43-0.085,0.731-0.389,0.906-0.908
		c-0.175-0.259-0.346-0.324-0.518-0.194c-0.174,0.13-0.323,0.305-0.452,0.519c-0.129,0.216-0.281,0.389-0.452,0.518
		c-0.174,0.13-0.346,0.065-0.518-0.194c0.603,0.087,0.926-0.107,0.97-0.584c0.042-0.474,0.279-0.755,0.711-0.842
		c0.344,0.433,0.819,0.389,1.424-0.13c0.602-0.519,1.207-0.908,1.811-1.167c0.085,0.346-0.11,0.563-0.583,0.648
		c-0.475,0.087-0.498,0.259-0.065,0.519c0.69-0.519,1.336-0.843,1.94-0.972c0.603-0.13,1.25-0.539,1.941-1.232
		c-0.517,0.087-0.992,0.217-1.423,0.389c-0.433,0.174-0.863,0.389-1.293,0.649c-0.087-0.432,0.085-0.649,0.517-0.649
		c0.431,0,0.603-0.13,0.518-0.389c-0.346-0.085-0.734-0.02-1.164,0.194c-0.433,0.217-0.863,0.453-1.293,0.713
		c-0.433,0.259-0.885,0.498-1.359,0.712c-0.475,0.216-0.885,0.239-1.229,0.065c0.603-0.172,1.184-0.366,1.747-0.583
		c0.559-0.215,0.97-0.584,1.229-1.102c-0.433,0.174-0.97,0.476-1.617,0.908c-0.646,0.433-1.186,0.563-1.616,0.389
		c0.776-0.344,1.487-0.669,2.134-0.972c0.647-0.302,1.229-0.496,1.747-0.583c-0.259,0-0.389-0.13-0.389-0.39
		c0.431,0.434,0.754,0.499,0.97,0.194c0.214-0.302,0.624-0.538,1.229-0.712c-0.174-0.172-0.129-0.367,0.129-0.584
		c0.259-0.215,0.583-0.431,0.97-0.648c0.389-0.215,0.776-0.39,1.164-0.519c0.388-0.13,0.625-0.194,0.712-0.194
		c-0.087,0.174-0.129,0.304-0.129,0.389c0,0.26,0.129,0.26,0.388,0c0.172-0.085,0.194-0.259,0.065-0.518
		c-0.129-0.259,0.02-0.389,0.452-0.389c-0.087,0.346-0.087,0.518,0,0.518c0.085,0,0.195-0.065,0.324-0.194
		c0.129-0.13,0.279-0.259,0.452-0.389c0.172-0.13,0.258-0.066,0.258,0.194c-0.517,0.777-1.358,1.319-2.522,1.62
		c-1.164,0.304-1.963,0.887-2.393,1.751c0.43,0.087,0.819,0.022,1.164-0.195c0.343-0.215,0.776-0.02,1.293,0.584
		c0.948-0.863,2.025-1.64,3.234-2.334c1.207-0.691,2.241-1.167,3.104-1.426c0-0.345-0.021-0.539-0.064-0.584
		c-0.044-0.043-0.11-0.02-0.195,0.065c-0.087,0.087-0.174,0.13-0.258,0.13c-0.087,0-0.129-0.085-0.129-0.259
		c0.085-0.431,0.301-0.538,0.646-0.324c0.344,0.216,0.732,0.239,1.165,0.065c0.947-0.431,1.724-0.885,2.328-1.361
		c0.602-0.475,1.423-0.799,2.458-0.972c0.258-0.691,0.797-1.122,1.616-1.296c0.819-0.172,1.358-0.691,1.617-1.556
		c1.379-0.172,2.782-0.885,4.204-2.139c1.423-1.252,2.824-2.095,4.204-2.528c-0.345,0.693-0.799,1.167-1.358,1.426
		c-0.562,0.259-1.015,0.648-1.358,1.167c-0.346,0.174-0.776,0.259-1.294,0.259c-1.034,1.211-2.373,2.227-4.009,3.047
		c-1.639,0.823-3.062,1.751-4.269,2.788c0.431,0.174,0.819,0.152,1.164-0.065c0.343-0.215,0.603-0.454,0.776-0.713
		c0.43-0.344,0.97-0.712,1.617-1.102c0.647-0.389,1.184-0.755,1.617-1.102c0.172-0.085,0.279-0.02,0.323,0.194
		c0.042,0.218,0.107,0.282,0.194,0.195c0.776-0.432,1.638-1.08,2.587-1.945c0.948-0.863,2.025-1.685,3.234-2.463
		c0.948-0.863,1.876-1.663,2.782-2.398c0.906-0.733,1.746-1.576,2.522-2.528c0.689-0.691,1.314-1.339,1.875-1.945
		c0.56-0.604,0.97-1.209,1.229-1.815c0.026-0.031,0.043-0.062,0.067-0.093c0.093,1.519,0.129,3.058,0.062,4.631
		c-0.087,1.989,0,3.847,0.258,5.575c0,0.087,0.085,0.065,0.259-0.065c0.172-0.13,0.214-0.108,0.129,0.065
		c0.172,0.087,0.258,0.194,0.258,0.324c0,0.13,0.085,0.239,0.258,0.324l0.259-0.519c0.517-0.519,1.034-0.733,1.552-0.648
		l-0.389,3.111c0.344,0.519,0.453,1.211,0.324,2.074c-0.129,0.865-0.282,1.773-0.453,2.722c-1.467,0-2.631,0.305-3.492,0.908
		c0,0.952,0,1.815,0,2.594c0,0.777-0.042,1.513-0.129,2.203c0.175,0.865,0.304,1.621,0.389,2.269
		c0.087,0.649,0.345,1.189,0.775,1.621c0.172-0.085,0.343-0.107,0.518-0.065c0.172,0.044,0.43,0.022,0.775-0.065h1.035
		c-0.174,0.346-0.41,0.476-0.711,0.389c-0.304-0.085-0.54,0.044-0.712,0.389c0,0.347,0.129,0.412,0.388,0.195
		c0.259-0.216,0.474-0.28,0.647-0.195c0,0.175-0.109,0.305-0.323,0.39c-0.217,0.087-0.239,0.13-0.065,0.13
		c0.343,0,0.624,0.022,0.84,0.065c0.215,0.044,0.496,0.022,0.841-0.065c-0.174,1.727-0.238,3.521-0.194,5.38
		c0.042,1.858-0.022,3.696-0.194,5.51c0,0.604,0.02,1.232,0.065,1.88c0.042,0.648,0.02,1.317-0.065,2.01
		c-0.088,0.431-0.151,0.927-0.194,1.491c-0.044,0.561-0.11,1.057-0.195,1.491c0,0.432,0.066,0.821,0.195,1.167
		c0.129,0.344,0.279,0.562,0.452,0.649c0.172-0.693,0.343-1.407,0.517-2.139c0.173-0.736,0.474-1.189,0.906-1.361
		c0.085-0.175,0.194-0.24,0.324-0.194c0.129,0.042,0.235,0.019,0.323-0.066c0-0.433,0.02-0.994,0.065-1.685
		c0.042-0.693,0.15-1.341,0.323-1.945c-0.345,0-0.518-0.044-0.518-0.13c0.344-0.692,0.647-1.211,0.907-1.555
		c0.172-0.693,0.214-1.448,0.129-2.269c-0.087-0.823-0.129-1.578-0.129-2.269c0.172-0.433,0.43-0.823,0.775-1.167
		c0-0.087,0.085-0.174,0.258-0.259c0.172-0.087,0.258-0.217,0.258-0.39c0-0.259-0.109-0.433-0.323-0.518
		c-0.216-0.087-0.281-0.304-0.194-0.649c0.43-0.174,0.776-0.411,1.035-0.712c0.258-0.305,0.603-0.499,1.035-0.584
		c0.085-0.172,0.214-0.259,0.388-0.259c0.172,0,0.258-0.085,0.258-0.259v-0.13c0.259-0.085,0.474-0.043,0.647,0.13
		c0.258,0,0.495-0.13,0.711-0.39c0.215-0.259,0.496-0.474,0.841-0.648c0.085,0,0.301,0.174,0.647,0.518
		c0.172-0.259,0.408-0.431,0.711-0.518c0.302-0.085,0.538-0.215,0.712-0.389c0.258,0,0.559-0.043,0.906-0.13
		c0.343-0.085,0.647-0.172,0.906-0.259c1.293-0.085,2.522-0.085,3.686,0c1.164,0.087,2.306,0.044,3.428-0.13
		c0.602-0.603,1.293-0.908,2.07-0.908c-0.174,0.26-0.368,0.369-0.583,0.325c-0.216-0.043-0.41,0.065-0.582,0.324
		c0.258,0.087,0.517,0.044,0.775-0.13c0.259-0.172,0.518-0.302,0.776-0.39c0.172-0.172,0.43-0.259,0.776-0.259
		c0.343,0,0.731-0.043,1.164-0.13h2.07c1.377-0.085,2.758-0.15,4.139-0.194c1.378-0.043,2.717-0.15,4.009-0.324
		c0.085-0.085,0.066-0.13-0.064-0.13c-0.129,0-0.11-0.173,0.064-0.519c0.518,0.174,1.165,0.152,1.941-0.065
		c0.776-0.215,1.424-0.279,1.941-0.194c0.343-0.691,0.689-1.08,1.035-1.167c0.172,0,0.343-0.02,0.517-0.065
		c0.173-0.043,0.344-0.065,0.518-0.065c1.465-0.172,2.995-0.302,4.592-0.39c1.594-0.085,2.91-0.215,3.945-0.389
		c-0.692-0.085-1.338-0.085-1.94,0c-0.175-0.085-0.346-0.085-0.518,0c-0.174,0.087-0.216,0.044-0.129-0.13
		c-0.174-0.172-0.194-0.344-0.065-0.518c0.129-0.173,0.279-0.303,0.452-0.39l-0.388-0.13c-0.174-0.085-0.304-0.107-0.389-0.065
		c-0.087,0.044-0.174,0.065-0.258,0.065c0.085-0.344,0.195-0.603,0.324-0.778c0.129-0.172,0.194-0.474,0.194-0.907
		c0.43-0.085,0.819-0.303,1.164-0.649c0.343-0.344,0.731-0.603,1.164-0.778c0.172,0,0.343,0.022,0.517,0.065
		c0.172,0.045,0.344,0.153,0.518,0.325c-0.174,0.433-0.518,0.583-1.035,0.453c-0.518-0.13-0.863-0.107-1.035,0.065
		c0.172,0.174,0.388,0.259,0.646,0.259c0.259,0,0.389,0.087,0.389,0.26c0.172-0.26,0.366-0.41,0.582-0.454
		c0.214-0.043,0.324-0.15,0.324-0.324c0.172,0,0.258-0.13,0.258-0.389c0.172,0,0.366,0.022,0.582,0.065
		c0.215,0.044,0.453,0.022,0.712-0.065c0.172-0.085,0.258-0.28,0.258-0.584c0-0.302,0.042-0.538,0.129-0.713
		c0.431,0.434,0.948,0.519,1.552,0.26c0.603-0.26,1.121-0.562,1.553-0.908c-0.174-0.344-0.517-0.453-1.035-0.324
		s-0.906,0.022-1.164-0.325c-0.087-0.085-0.109-0.172-0.065-0.259c0.042-0.085-0.022-0.085-0.194,0c-0.258,0-0.498,0.13-0.712,0.389
		c-0.216,0.26-0.539,0.305-0.97,0.13c0.085-0.085,0.085-0.195,0-0.325c-0.087-0.13-0.044-0.194,0.129-0.194
		c0.431-0.172,0.797-0.237,1.099-0.194c0.302,0.044,0.538-0.065,0.712-0.324c0.085-0.432-0.065-0.584-0.452-0.454
		c-0.389,0.13-0.712,0.109-0.97-0.065c-0.175,0.952-0.692,1.383-1.552,1.296c-0.863-0.085-1.381-0.259-1.553-0.518
		c0.43-0.431,0.861-0.519,1.293-0.259c0.431,0.259,0.819,0.304,1.164,0.13c0.085-0.172,0.107-0.279,0.065-0.324
		c-0.044-0.043-0.065-0.108-0.065-0.195c-0.345-0.172-0.561-0.259-0.646-0.259c-0.087,0-0.195,0.022-0.324,0.065
		c-0.129,0.044-0.238,0.065-0.323,0.065c-1.035,0.174-2.07,0.152-3.105-0.065c-1.034-0.215-1.984-0.15-2.845,0.194
		c-0.174-0.085-0.475-0.043-0.906,0.13c-0.258,0-0.561-0.085-0.906-0.259h-1.163c-2.503-0.172-5.09-0.15-7.761,0.065
		c-2.674,0.217-5.261,0.325-7.761,0.325c-1.208,0.087-2.373,0.109-3.492,0.065c-1.122-0.042-2.286-0.065-3.492-0.065
		c-0.517-0.085-1.1-0.085-1.747,0c-0.646,0.087-1.229,0.174-1.746,0.259c-0.776,0.087-1.509,0.174-2.199,0.259
		c-0.692,0.087-1.38,0.174-2.07,0.259c0.172-0.259,0.236-0.518,0.194-0.777c-0.044-0.26-0.109-0.519-0.194-0.778
		c0.258,0,0.431-0.043,0.518-0.13c0.43,0,0.646-0.172,0.646-0.519c0.085-0.172,0.129-0.344,0.129-0.518c0-0.172-0.174-0.172-0.517,0
		c-0.258,0.087-0.303,0.174-0.129,0.259c0.172,0.087,0.172,0.174,0,0.259c-0.346,0-0.562-0.043-0.647-0.13
		c0.258-0.431,0.431-0.862,0.518-1.296c0.085-0.431,0.172-0.863,0.258-1.297c0.085-0.259,0.258-0.518,0.517-0.778v-0.519v-0.648
		c0-0.172-0.044-0.389-0.129-0.648c-0.087-0.259-0.087-0.474,0-0.648c0.43-0.085,0.776-0.15,1.035-0.195
		c0.258-0.043,0.518-0.02,0.776,0.065c0.085-0.085,0.085-0.237,0-0.454c-0.087-0.215-0.087-0.367,0-0.454
		c0.43-0.172,0.86-0.279,1.293-0.324c0.43-0.043,0.906-0.107,1.423-0.194c0.172-0.432,0.473-0.713,0.906-0.842
		c0.43-0.13,0.948-0.28,1.552-0.454c0.603,0.087,1.207,0.152,1.811,0.194c0.602,0.044,1.077,0.152,1.423,0.324
		c0.343-0.26,0.711-0.389,1.099-0.389c0.388,0,0.796,0.044,1.229,0.13c0.43,0.087,0.861,0.13,1.293,0.13
		c0.43,0,0.861-0.085,1.293-0.26c-0.174-0.344-0.388-0.496-0.646-0.454c-0.259,0.045-0.433,0.195-0.518,0.454
		c-0.174-0.172-0.345-0.344-0.517-0.519c-0.174-0.172-0.174-0.389,0-0.648c0-0.172,0.065-0.324,0.194-0.454
		c0.129-0.13,0.279-0.279,0.452-0.453c0.343-0.173,0.732-0.195,1.164-0.065c0.431,0.13,0.819,0.195,1.164,0.195
		c0.085,0,0.066-0.043-0.065-0.13c-0.129-0.085-0.109-0.215,0.065-0.389c0.172-0.085,0.301-0.085,0.389,0
		c0.085,0.087,0.172,0.044,0.258-0.13c0.343-0.085,0.518-0.215,0.518-0.389c0-0.172,0.085-0.259,0.258-0.259
		c0.43-0.086,0.796-0.108,1.099-0.065c0.301,0.045,0.666,0.022,1.1-0.065c0-0.344,0.129-0.519,0.388-0.519
		c0.085-0.085,0.214-0.085,0.388,0c0-0.172-0.065-0.279-0.194-0.324c-0.129-0.043-0.109-0.195,0.065-0.454
		c0.602-0.172,1.249-0.302,1.941-0.389c0.689-0.085,1.336-0.215,1.941-0.389c0-0.173-0.023-0.302-0.066-0.389
		c-0.044-0.085-0.022-0.215,0.066-0.389c0.172-0.085,0.236-0.085,0.193,0c-0.044,0.088,0.021,0.13,0.195,0.13
		c0.085-0.26,0.042-0.432-0.129-0.519c-0.174-0.085-0.216-0.26-0.129-0.519c-0.175,0-0.195-0.065-0.066-0.195
		c0.129-0.13,0.15-0.237,0.066-0.324c-0.518,0.087-1.035,0.152-1.553,0.194c-0.517,0.044-1.079,0.065-1.681,0.065
		c-1.208,0-2.437-0.043-3.687-0.13c-1.25-0.085-2.479-0.085-3.686,0c-0.862-0.085-1.768-0.15-2.716-0.194
		c-0.95-0.043-1.769-0.107-2.458-0.195c-0.432,0-0.692-0.043-0.776-0.13c0.518-0.431,1.142-0.539,1.876-0.324
		c0.731,0.217,1.443,0.281,2.134,0.194c-1.726-0.259-3.408-0.496-5.045-0.713c-1.639-0.215-3.408-0.237-5.303-0.065
		c-0.087-0.26-0.174-0.519-0.258-0.778c-0.088-0.259-0.045-0.519,0.129-0.778c0.258,0,0.473-0.085,0.646-0.26
		c-0.087-0.691-0.174-1.727-0.258-3.111c-0.087-1.381,0.129-2.593,0.646-3.63c0.172,0.174,0.28,0.194,0.324,0.065
		c0.042-0.13,0.149-0.194,0.323-0.194c0.343-0.173,0.732-0.28,1.164-0.324c0.43-0.043,0.819-0.107,1.164-0.194
		c1.12-0.085,2.177-0.173,3.169-0.26c0.991-0.085,1.961-0.172,2.91-0.259c-0.035,0-0.095,0-0.194,0c-0.216,0-0.281-0.085-0.194-0.26
		c0.343-0.172,0.689-0.344,1.035-0.519c0.343-0.172,0.732-0.259,1.164-0.259c0.43,0,0.86,0,1.293,0c0.431,0,0.861-0.043,1.293-0.13
		c0,0.174-0.065,0.304-0.194,0.389c-0.129,0.088-0.109,0.217,0.065,0.389c0.517-0.344,0.991-0.519,1.423-0.519
		c0.173,0,0.344,0.022,0.518,0.065c0.172,0.045,0.388,0.065,0.646,0.065c0.258,0.088,0.625,0.088,1.099,0
		c0.473-0.085,0.883-0.13,1.229-0.13c0.431-0.085,0.732-0.215,0.906-0.389c0.172-0.173,0.474-0.345,0.906-0.519
		c0.085,0.174,0.517,0.259,1.293,0.259c0.258-0.085,0.473-0.194,0.647-0.324c0.172-0.13,0.388-0.28,0.646-0.454
		c0.085-0.085,0.258-0.13,0.517-0.13c0.173-0.086,0.28-0.15,0.324-0.195c0.042-0.043,0.149-0.107,0.323-0.194
		c0.172,0.174,0.258,0.369,0.258,0.583c0,0.217,0.13,0.411,0.389,0.583c0.517-0.26,0.97-0.389,1.358-0.389c0.388,0,0.841,0,1.358,0
		c0.343-0.172,0.602-0.344,0.776-0.519c0.172-0.172,0.343-0.302,0.517-0.389c0.259,0.174,0.452,0.259,0.583,0.259
		c0.129,0,0.279,0.044,0.452,0.13c0.343-0.431,0.819-0.604,1.423-0.519c0.431-0.172,0.861-0.215,1.293-0.13
		c0.431,0.087,0.819,0.087,1.165,0c0.947,0.087,1.853,0.087,2.716,0c0.86-0.085,1.681-0.215,2.458-0.389
		c-0.087-0.259-0.258-0.389-0.517-0.389c-0.259,0-0.562,0.022-0.906,0.065c-0.346,0.044-0.669,0.087-0.97,0.13
		c-0.304,0.044-0.498-0.02-0.583-0.194c-0.087,0-0.151-0.065-0.194-0.195c-0.044-0.13-0.065-0.15-0.065-0.065
		c-1.208,0.26-2.286,0.304-3.234,0.13c-0.949-0.173-1.985-0.215-3.104-0.13c0.172-0.431,0.388-0.626,0.646-0.583
		c0.258,0.045,0.473,0.022,0.647-0.065c0.085-0.172-0.175-0.344-0.776-0.519c0,0.174-0.065,0.369-0.194,0.583
		c-0.129,0.217-0.281,0.324-0.452,0.324c-0.605,0.347-0.928,0.389-0.97,0.13c-0.044-0.259,0.02-0.604,0.194-1.037
		c0.517-0.172,1.035-0.237,1.552-0.194c0.518,0.044,1.12,0.022,1.811-0.065c0.43-0.172,0.905-0.302,1.423-0.389
		c0.518-0.085,0.906-0.172,1.164-0.259c0.172-0.172,0.388-0.215,0.646-0.13c0.173-0.085,0.344-0.173,0.518-0.26
		c0.172-0.085,0.343-0.085,0.518,0c-0.346,0.174-0.647,0.304-0.906,0.389c-0.259,0.087-0.562,0.13-0.906,0.13
		c0,0.259,0.172,0.304,0.517,0.13c0.603,0.174,1.164,0.087,1.682-0.259c0.343,0,0.624,0.044,0.841,0.13
		c0.214,0.087,0.408,0.044,0.582-0.13c0.085-0.172,0.065-0.26-0.065-0.26c-0.129,0-0.151-0.13-0.065-0.389
		c0.518-0.173,0.926-0.215,1.229-0.13c0.301,0.087,0.753,0.045,1.358-0.13c-0.087-0.172-0.129-0.344-0.129-0.519
		c0-0.172-0.044-0.302-0.129-0.389c0.258-0.345,0.624-0.583,1.1-0.713c0.473-0.13,0.97-0.194,1.487-0.194
		c0.518,0,1.013-0.02,1.488-0.065c0.473-0.042,0.84-0.237,1.099-0.583C263.567,32.996,263.007,32.714,262.318,32.584z
		 M104.255,34.076c0.69-0.172,1.293-0.215,1.811-0.13c-0.433,0.434-0.906,0.67-1.423,0.713c-0.517,0.044-1.079,0.152-1.682,0.324
		C103.133,34.552,103.563,34.25,104.255,34.076z M98.434,36.474c0.344,0.13,0.56,0.065,0.647-0.194
		c0.258,0.434,0.214,0.606-0.13,0.519c-0.346-0.085-0.562-0.085-0.647,0C98.046,36.454,98.089,36.344,98.434,36.474z M72.824,3.479
		c0-0.172,0.042-0.215,0.129-0.13c0.085,0.087,0.172,0.044,0.258-0.13c0,0.174-0.022,0.281-0.065,0.324
		c-0.044,0.044-0.065,0.11-0.065,0.195c-0.174,0-0.258-0.043-0.258-0.13V3.479z M61.57,69.728c-0.346-0.172-0.346-0.604,0-1.296
		c0.085,0,0.129,0.065,0.129,0.194c0,0.13,0.085,0.194,0.258,0.194C61.958,69.167,61.829,69.468,61.57,69.728z M62.022,68.042
		c0.042,0,0.02,0.087-0.065,0.259c-0.345,0.088-0.452-0.13-0.323-0.648c0.129-0.519,0.323-0.604,0.582-0.259l-0.259,0.519
		C61.958,68,61.978,68.042,62.022,68.042z M61.893,66.487c0.129-0.172,0.237-0.172,0.324,0v0.389h-0.259
		C61.784,66.791,61.764,66.661,61.893,66.487z M62.67,70.182c-0.044,0.389-0.151,0.758-0.324,1.102
		c-0.087-0.085-0.129-0.431-0.129-1.037c0-0.518,0.172-0.95,0.517-1.296h0.129C62.777,69.383,62.712,69.793,62.67,70.182z
		 M63.252,68.432c-0.087,0.087-0.259,0.13-0.517,0.13c-0.174,0-0.303-0.043-0.388-0.13c0-0.26,0.108-0.475,0.324-0.649
		c0.214-0.172,0.236-0.344,0.065-0.518c0.172,0,0.279,0.022,0.323,0.065c0.042,0.044,0.107,0.065,0.194,0.065
		c0,0.174-0.045,0.346-0.13,0.519C63.035,68.087,63.078,68.259,63.252,68.432z M63.122,66.746c0-0.173,0.02-0.324,0.065-0.454
		c0.042-0.13,0.15-0.107,0.324,0.065C63.51,66.616,63.381,66.746,63.122,66.746z M63.898,57.995
		c0.085-0.302,0.129-0.538,0.129-0.713c0.258,0.087,0.323,0.239,0.194,0.454c-0.129,0.217-0.109,0.498,0.065,0.843
		C63.941,58.493,63.812,58.299,63.898,57.995z M63.446,60.134c0.13-0.085,0.237-0.172,0.324-0.259h0.258
		c0,0.174-0.065,0.304-0.194,0.389c-0.129,0.087-0.194,0.217-0.194,0.389c-0.087,0-0.217-0.043-0.388-0.13
		C63.252,60.351,63.316,60.221,63.446,60.134z M62.863,62.144c0.258-0.561,0.473-0.928,0.647-1.102
		c0.085,0.346,0.065,0.628-0.065,0.842c-0.129,0.217-0.239,0.411-0.324,0.583c0,0.26,0.02,0.411,0.065,0.454
		c0.042,0.044,0.065,0.109,0.065,0.194C62.734,63.031,62.605,62.707,62.863,62.144z M62.863,64.672
		c-0.174,0.434-0.345,0.823-0.517,1.167c0,0.174-0.044,0.26-0.129,0.26c0-0.863,0.172-1.641,0.517-2.334
		C62.993,63.938,63.035,64.24,62.863,64.672z M61.893,32.65c0.129-0.173,0.194-0.474,0.194-0.908
		c0.172-0.172,0.258-0.389,0.258-0.648c0.431,0.519,0.517,1.146,0.259,1.88c-0.259,0.735-0.475,1.276-0.647,1.621
		c-0.258-0.172-0.388-0.604-0.388-1.296C61.655,33.038,61.764,32.824,61.893,32.65z M61.247,35.502
		c0.214-0.173,0.236-0.389,0.065-0.649c0.085,0,0.172,0.045,0.258,0.13l0.388,0.389c0,0.174-0.109,0.347-0.323,0.519
		c-0.216,0.174-0.323,0.347-0.323,0.519c-0.174,0-0.281-0.043-0.324-0.13c-0.045-0.085-0.109-0.13-0.194-0.13
		C60.879,35.891,61.03,35.676,61.247,35.502z M31.044,69.987v-0.13c0.085-0.085,0.129-0.085,0.129,0L31.044,69.987z M41.068,46.262
		c0.129,0.347,0.107,0.736-0.065,1.167c-0.087-0.431-0.151-0.82-0.194-1.167c-0.039-0.305-0.057-0.651-0.061-1.026
		C40.833,45.579,40.94,45.922,41.068,46.262z M40.486,44.771c0-0.215,0-0.409,0-0.583c0.172,0.087,0.258,0.346,0.258,0.778
		C40.571,45.053,40.486,44.988,40.486,44.771z M59.888,76.794c0,0.217-0.045,0.368-0.13,0.453v-0.648
		C59.844,76.514,59.888,76.579,59.888,76.794z M59.5,41.984c0.172,0,0.258,0.087,0.258,0.259c0,0.174-0.087,0.26-0.258,0.26h-0.258
		C59.242,42.33,59.327,42.158,59.5,41.984z M58.336,46.068c0.085-0.389,0.214-0.583,0.388-0.583
		c0.259,0.174,0.388,0.389,0.388,0.648s-0.174,0.434-0.518,0.519C58.336,46.651,58.249,46.457,58.336,46.068z M58.595,46.781
		c0,0.778-0.174,1.211-0.517,1.296C57.904,47.473,58.078,47.04,58.595,46.781z M57.56,50.411c0.085-0.431,0.172-0.798,0.259-1.102
		c0.085-0.302,0.172-0.668,0.258-1.102v0.13c0.258,0.346,0.301,0.778,0.129,1.296c-0.174,0.519-0.216,0.995-0.129,1.426
		c-0.087,0-0.194-0.043-0.324-0.13c-0.129-0.085-0.368-0.13-0.711-0.13C57.043,50.715,57.214,50.585,57.56,50.411z M50.989,103.667
		c-0.011-0.093-0.053-0.206-0.155-0.361c-0.082-0.123-0.131-0.224-0.154-0.308c0.029-0.028,0.06-0.053,0.089-0.081
		c0.02-0.019,0.039-0.033,0.059-0.052c0.064,0.046,0.099,0.087,0.071,0.116c-0.045,0.043,0.02,0.066,0.194,0.066
		c0-0.088-0.044-0.175-0.129-0.26v-0.041c0.385-0.346,0.756-0.627,1.111-0.837c-0.046,0.143-0.077,0.301-0.077,0.489
		c0,0.042,0.024,0.058,0.031,0.093c-0.009,0.012-0.023,0.024-0.032,0.036C51.745,102.864,51.408,103.245,50.989,103.667z
		 M52.253,102.235c0.005-0.009-0.001-0.023,0.004-0.031c0.068-0.104,0.031-0.226-0.066-0.358c0.289-0.16,0.572-0.288,0.841-0.355
		C52.723,101.738,52.474,101.987,52.253,102.235z M63.121,96.176c-0.259,0.344-0.602,0.518-1.035,0.518
		c0.346-0.174,0.647-0.476,0.906-0.908c0.258-0.433,0.604-0.563,1.034-0.389C63.683,95.57,63.38,95.829,63.121,96.176z
		 M64.674,95.074c-0.055,0.007-0.087,0.018-0.124,0.028c0.042-0.116,0.089-0.223,0.124-0.353
		C65.019,94.921,65.019,95.029,64.674,95.074z M113.697,56.18c-0.346-0.043-0.691-0.065-1.035-0.065
		c-0.087-0.431-0.087-0.648,0-0.648c0.085,0,0.214-0.085,0.388-0.259c-0.433-0.173-0.756-0.195-0.97-0.065
		c-0.216,0.13-0.453-0.02-0.712-0.454c-0.174,0.434-0.109,0.606,0.194,0.519c0.301-0.085,0.324,0.217,0.065,0.907
		c-0.776-0.604-1.833-0.863-3.169-0.778c-1.338,0.087-2.696,0.044-4.075-0.13c0-0.173,0.02-0.409,0.065-0.713
		c0.042-0.302-0.194-0.324-0.711-0.065c-0.174-0.259-0.174-0.409,0-0.453c0.172-0.043,0.301-0.15,0.388-0.324
		c0.948,0.259,1.896,0.434,2.846,0.519c0.948,0.087,1.875,0.152,2.781,0.194c0.906,0.044,1.766,0.174,2.587,0.389
		c0.819,0.217,1.573,0.583,2.264,1.102C114.344,56.115,114.041,56.225,113.697,56.18z M102.959,105.445
		c0.258-0.305,0.475-0.282,0.647,0.065c-0.085,0.172-0.215,0.259-0.389,0.259c-0.172,0-0.258,0.085-0.258,0.259
		C102.701,105.941,102.701,105.747,102.959,105.445z M101.343,107.714c-0.819,0.431-1.573,0.603-2.264,0.518
		c0.174-0.174,0.517-0.304,1.034-0.389c0.517-0.087,0.691-0.218,0.517-0.39c-0.172-0.174-0.408-0.174-0.711,0
		c-0.301,0.172-0.408,0.085-0.324-0.259c0.517,0.085,0.885,0.02,1.099-0.194c0.216-0.217,0.54-0.411,0.97-0.584
		c0.189,0,0.31-0.025,0.383-0.066c-0.271,0.368-0.494,0.735-0.641,1.103c0.345-0.259,0.776-0.563,1.293-0.907
		c0.517-0.347,0.906-0.347,1.164,0C103.004,106.891,102.163,107.28,101.343,107.714z M126.791,94.162
		c-0.002,0.032-0.003,0.064-0.005,0.096c-0.053,0.004-0.106-0.003-0.156-0.027C126.699,94.208,126.738,94.185,126.791,94.162z
		 M150.884,79.84c0.473,0,0.796-0.085,0.969-0.259c-0.174,0.259-0.452,0.519-0.84,0.778c-0.388,0.259-0.669,0.304-0.841,0.13
		C150.172,80.057,150.408,79.84,150.884,79.84z M152.112,84.118c-0.259,0.434-0.734,0.649-1.423,0.649
		C151.033,84.335,151.508,84.118,152.112,84.118z M150.625,81.396c0.129-0.259,0.236-0.432,0.324-0.519
		c0.172-0.172,0.301-0.085,0.388,0.26c0.085,0.346,0.042,0.304-0.129-0.13c-0.174,0.26-0.303,0.39-0.388,0.39
		C150.56,81.655,150.495,81.655,150.625,81.396z M159.356,83.405c-0.345,0.218-0.734,0.39-1.164,0.519
		c-0.432,0.13-0.885,0.239-1.358,0.324c-0.475,0.087-0.885,0.217-1.229,0.39c0.689-0.519,1.358-0.885,2.004-1.102
		c0.647-0.216,1.359-0.41,2.134-0.584c-0.087-0.085-0.258-0.13-0.517-0.13c0-0.172,0.085-0.259,0.258-0.259
		c0.172,0,0.343-0.043,0.518-0.13C159.916,82.867,159.699,83.19,159.356,83.405z M156.64,83.405
		c-2.328,0.995-4.614,2.054-6.856,3.177c-0.174-0.344-0.194-0.603-0.065-0.777c0.129-0.173,0.258-0.325,0.388-0.454
		c0.129-0.13,0.214-0.237,0.258-0.324c0.016-0.033,0.003-0.058-0.025-0.078c0.414,0.077,0.666,0.167,0.737,0.273
		c0.053,0.081,0.239,0.077,0.528,0.006c-0.044-0.017-0.089-0.036-0.141-0.071c0.43-0.518,0.948-0.863,1.553-1.037
		c0.602-0.172,0.818-0.518,0.646-1.037c0.172,0,0.258,0.216,0.258,0.649c1.553-0.95,3.083-1.664,4.592-2.139
		c1.508-0.474,2.996-1.102,4.463-1.88C161.079,81.182,158.968,82.413,156.64,83.405z M160.003,80.877
		c0.602-0.603,1.508-1.122,2.716-1.555C161.943,80.1,161.037,80.618,160.003,80.877z M168.087,76.794
		c-0.476,0.13-0.756,0.239-0.841,0.324c-0.174-0.085-0.065-0.215,0.323-0.389c0.389-0.172,0.667-0.303,0.841-0.39
		C168.669,76.514,168.56,76.664,168.087,76.794z M196.027,50.8c-0.562,0.434-1.144,0.778-1.747,1.037
		c-0.604,0.259-1.164,0.563-1.681,0.907c-0.517,0.347-0.906,0.908-1.164,1.685c-0.433-0.172-0.605-0.172-0.518,0
		c0.085,0.174,0.042,0.347-0.129,0.519c-0.345,0.174-0.799,0.324-1.358,0.454c-0.561,0.13-1.1,0.324-1.617,0.583
		c-0.433,0.174-0.799,0.454-1.099,0.842c-0.303,0.389-0.669,0.671-1.1,0.843c-0.692,0.434-1.402,0.822-2.134,1.167
		c-0.734,0.347-1.445,0.735-2.134,1.167c-0.604,0.519-1.186,1.082-1.746,1.685c-0.562,0.606-1.186,0.822-1.876,0.648
		c-0.258,0.087-0.433,0.216-0.518,0.389c-0.087,0.174-0.258,0.304-0.517,0.389c-0.174,0-0.323,0.022-0.452,0.065
		c-0.13,0.045-0.194-0.02-0.194-0.194c-1.036,1.124-2.18,1.945-3.428,2.463c-1.252,0.519-2.567,1.124-3.946,1.815
		c-0.174,0.087-0.258,0.217-0.258,0.389c-0.433-0.085-0.863-0.02-1.293,0.195c-0.433,0.217-0.692,0.628-0.776,1.232
		c-0.345-0.085-0.776-0.02-1.293,0.194c-0.517,0.217-0.863,0.541-1.035,0.973c-0.692,0.087-1.316,0.259-1.876,0.519
		c-0.561,0.259-1.099,0.563-1.616,0.907c-0.517,0.347-1.015,0.628-1.487,0.843c-0.476,0.216-1.015,0.324-1.617,0.324
		c0,0.26-0.258,0.606-0.775,1.037c-0.518,0.434-0.95,0.778-1.293,1.037c-0.087,0-0.152-0.065-0.195-0.194
		c-0.044-0.13-0.109-0.194-0.194-0.194c-0.517,0.346-1.079,0.777-1.681,1.296c-0.605,0.518-1.294,0.778-2.07,0.778
		c0.172-0.519,0.43-0.972,0.775-1.362c0.344-0.389,0.667-0.777,0.97-1.167c0.302-0.389,0.538-0.885,0.712-1.491
		c0.172-0.603,0.172-1.381,0-2.334c-0.174,0.087-0.238,0.239-0.194,0.453c0.042,0.217,0.065,0.369,0.065,0.454
		c-0.258-0.519-0.345-0.973-0.258-1.361c0.085-0.39,0.194-0.778,0.323-1.167c0.129-0.39,0.258-0.821,0.388-1.297
		c0.13-0.474,0.149-1.102,0.065-1.88c0.259,0.434,0.518,0.519,0.776,0.26c0.258-0.26,0.301-0.604,0.129-1.037
		c-0.258,0-0.41,0.044-0.452,0.13c-0.044,0.087-0.022,0.195,0.065,0.324c0.085,0.13,0.149,0.239,0.194,0.324
		c0.042,0.087-0.065,0.13-0.323,0.13c-0.175-0.691-0.217-1.469-0.129-2.334c0.085-0.863,0.517-1.252,1.293-1.167
		c0.172-0.432,0.129-0.821-0.129-1.167c-0.258-0.345-0.216-0.519,0.129-0.519c-0.087-0.345-0.195-0.561-0.324-0.648
		c-0.129-0.085-0.151-0.345-0.064-0.778c0.343-0.259,0.537-0.691,0.582-1.296c0.042-0.604-0.109-1.037-0.452-1.296
		c0-0.173,0.172-0.26,0.517-0.26c-0.174-1.296-0.044-2.354,0.388-3.176c0.431-0.821,0.69-1.835,0.776-3.047
		c0.43,0,0.69-0.042,0.776-0.13c0.258-1.555,0.517-3.436,0.775-5.64c0.258-2.204,0.474-4.428,0.647-6.676
		c1.12-0.519,2.328-0.389,3.622,0.389c0.172-0.085,0.214-0.173,0.129-0.26c-0.087-0.085-0.044-0.215,0.129-0.389
		c2.413,0.606,5.239,1.232,8.473,1.88c3.234,0.648,6.445,1.319,9.636,2.009c0.776,0.346,1.552,0.693,2.328,1.037
		c0.776,0.347,1.552,0.606,2.328,0.778c0.172,0,0.408-0.043,0.712-0.13c0.301-0.085,0.537-0.085,0.711,0l-0.129,0.519
		c0.259,0.087,0.56,0.087,0.906,0c0.343-0.085,0.602-0.13,0.775-0.13c0.776,0.693,1.66,1.146,2.652,1.361
		c0.991,0.217,2.005,0.583,3.04,1.102c-0.087,0.26-0.066,0.454,0.064,0.583c0.13,0.13,0.237,0.239,0.324,0.324
		c0.085,0.087,0.15,0.174,0.194,0.259c0.042,0.087-0.022,0.217-0.194,0.389c0.43-0.26,0.775-0.215,1.035,0.13
		c0.258,0.347,0.43,0.389,0.517,0.13c0.085,0.174,0.172,0.434,0.259,0.778c0.085,0.346,0.301,0.563,0.646,0.648
		C197.039,49.72,196.586,50.368,196.027,50.8z M199.713,46.651c-0.174,0-0.303,0.13-0.388,0.389
		c-0.776-0.691-1.553-1.491-2.328-2.399c-0.776-0.907-1.682-1.491-2.717-1.75c-0.111-0.219-0.133-0.371-0.085-0.469
		c-0.076,0.052-0.22,0.036-0.432-0.05c-0.258-0.431-0.605-0.733-1.035-0.907c-0.432-0.172-0.906-0.324-1.423-0.454
		c-0.518-0.13-1.035-0.279-1.552-0.454c-0.518-0.172-0.993-0.474-1.424-0.907c1.466,0.519,2.931,0.842,4.398,0.972
		c1.465,0.13,2.716,0.671,3.751,1.621c0.172,0,0.302-0.085,0.389-0.259c0.085-0.172,0.214-0.26,0.388-0.26
		c0.172,0.434,0.366,0.758,0.583,0.972c0.214,0.217,0.408,0.411,0.582,0.583c0.085,0.174,0.042,0.259-0.129,0.259
		c-0.087,0-0.129,0.13-0.129,0.389c-0.433,0.26-0.605,0.194-0.518-0.194c0.085-0.389-0.044-0.583-0.388-0.583
		c-0.345,0-0.345,0.13,0,0.389c0.343,0.26,0.301,0.389-0.129,0.389c0.517,0.434,1.035,0.778,1.552,1.037
		c0.518,0.259,0.948,0.693,1.293,1.296C199.971,46.522,199.885,46.651,199.713,46.651z M205.986,49.049
		c-0.044,0.648-0.109,1.276-0.194,1.88v2.204c-0.692-0.085-1.186,0.065-1.487,0.454c-0.304,0.389-0.669,0.8-1.1,1.232
		c0-0.447,0-0.755,0-0.908c0.085-0.259,0.194-0.474,0.323-0.648c0.129-0.172,0.237-0.389,0.324-0.648
		c0.172-0.778,0.236-1.641,0.194-2.593c-0.044-0.95,0.107-1.685,0.452-2.204c-0.174-0.691-0.258-1.426-0.258-2.204
		s0.129-1.381,0.388-1.815c-0.258-0.778-0.281-1.491-0.065-2.139c0.123-0.371,0.191-0.766,0.215-1.18
		c0.414,0.854,0.625,1.85,0.625,2.995c0,1.167-0.087,2.356-0.258,3.566c0.172,0.087,0.366,0.065,0.583-0.065
		c0.214-0.13,0.323-0.107,0.323,0.065C206.051,47.733,206.028,48.401,205.986,49.049z M250.935,77.701
		c0.085-0.13,0.172-0.28,0.258-0.454c0.085,0.174,0.085,0.369,0,0.584c-0.087,0.216-0.216,0.324-0.388,0.324
		C250.806,77.983,250.848,77.831,250.935,77.701z M253.522,33.038c-0.174,0-0.258-0.172-0.258-0.519
		c0.43-0.085,0.754-0.15,0.97-0.194c0.214-0.043,0.495,0.022,0.841,0.194C254.47,32.779,253.953,32.953,253.522,33.038z"/>
	<path fill="#A7875E" d="M255.721,38.872c0.172,0.174,0.388,0.174,0.647,0C256.109,38.613,255.893,38.613,255.721,38.872z"/>
	<path fill="#A7875E" d="M256.239,75.886c-0.346-0.043-0.518,0.022-0.518,0.194c0,0.259,0.258,0.304,0.776,0.13
		C256.669,76.038,256.582,75.931,256.239,75.886z"/>
	<path fill="#A7875E" d="M205.145,68.821c-0.087,0-0.151,0.087-0.194,0.259c-0.044,0.174-0.022,0.346,0.065,0.519
		c0.085-0.173,0.172-0.345,0.258-0.519C205.359,68.908,205.317,68.821,205.145,68.821z"/>
	<path fill="#A7875E" d="M245.308,80.812c-0.129-0.042-0.194,0.022-0.194,0.194c0.085,0.088,0.194,0.11,0.323,0.065
		c0.129-0.043,0.195-0.15,0.195-0.324C245.545,80.835,245.437,80.857,245.308,80.812z"/>
	<path fill="#A7875E" d="M110.781,129.794c0.836,0,1.672,0,2.508,0c1.711,2.405,3.422,4.81,5.132,7.215c1.108,0,2.216,0,3.323,0
		c-1.768-2.487-3.537-4.973-5.306-7.46c5.54-1.57,4.944-10.172-1.788-10.229c-2.554,0-5.108,0-7.663,0c-0.833,0-1.665,0-2.498,0
		c0,5.896,0,11.792,0,17.688c0.833,0,1.666,0,2.498,0c0-2.405,0-4.81,0-7.215c0.157,0,0.313,0,0.47,0
		c1.711,2.405,3.422,4.81,5.133,7.215c1.107,0,2.216,0,3.323,0C114.203,134.604,112.492,132.199,110.781,129.794z M106.988,127.427
		c0-1.868,0-3.735,0-5.603c2.554,0,5.108,0,7.663,0c3.828,0.192,3.828,5.411,0,5.603
		C112.096,127.427,109.542,127.427,106.988,127.427z"/>
	<path fill="#A7875E" d="M85.062,119.321c-0.832,0-1.665,0-2.498,0c-0.833,0-1.665,0-2.498,0c0,2.589,0,5.178,0,7.767
		c-0.733,0-1.465,0-2.198,0c0,0.835,0,1.669,0,2.503c0.733,0,1.465,0,2.198,0c0,2.473,0,4.945,0,7.418c0.833,0,1.665,0,2.498,0
		c0.833,0,1.666,0,2.498,0C98.101,137.021,98.101,119.308,85.062,119.321z M85.062,134.289c-0.707,0-1.979,0-2.12,0
		c0-1.566,0-3.132,0-4.698c0.978,0,3.088,0,4.632,0c0-0.834,0-1.668,0-2.503c-1.544,0-3.654,0-4.632,0c0-1.683,0-3.365,0-5.048
		c0.141,0,1.414,0,2.121,0C94.091,122.032,94.091,134.298,85.062,134.289z"/>
	<path fill="#A7875E" d="M144.62,124.374c1.784,2.624,1.454,6.15-0.786,8.395c-0.041,0.041-0.089,0.07-0.131,0.11
		c0.108-0.219,0.176-0.46,0.196-0.727c0.045-0.564,0.065-1.189,0.065-1.88c-0.518,0.172-0.712,0.649-0.583,1.426
		c0.1,0.604,0.081,1.099-0.053,1.495c-2.24,1.835-5.437,2.026-7.871,0.365c-0.642,0.644-1.285,1.288-1.927,1.932
		c2.824,2.164,6.533,2.466,9.595,1.021c0.014,0.154,0.033,0.287,0.061,0.374c0.027-0.135,0.054-0.294,0.081-0.446
		c0.893-0.44,1.73-1.023,2.468-1.762c3.291-3.298,3.638-8.528,0.812-12.234C145.905,123.086,145.263,123.73,144.62,124.374z"/>
	<polygon fill="#A7875E" points="167.017,128.505 162.481,118.722 154.001,137.009 157.572,137.009 162.481,126.423 
		166.971,136.106 168.753,132.265 170.953,137.009 174.524,137.009 170.584,128.513 171.553,126.423 176.462,137.009 
		180.033,137.009 171.553,118.722 	"/>
	<polygon fill="#A7875E" points="132.594,149.979 138.753,149.979 138.753,149.216 133.355,149.216 133.355,147.298 
		138.753,147.298 138.753,146.511 133.355,146.511 133.355,144.593 138.753,144.593 138.753,143.83 132.594,143.83 	"/>
	<rect x="123.249" y="143.83" fill="#A7875E" width="0.761" height="6.149"/>
	<path fill="#A7875E" d="M115.794,149.979h0.761v-1.919h2.009l3.365,1.919v-0.858l-1.843-1.061h1.843v-4.218h-6.135V149.979z
		 M116.555,144.617h4.601v2.681h-4.601V144.617z"/>
	<path fill="#A7875E" d="M130.584,144.724c-0.277-0.278-0.602-0.497-0.975-0.655c-0.373-0.159-0.769-0.238-1.189-0.238
		c-1.03,0-2.061,0-3.091,0c0,2.05,0,4.099,0,6.149c1.03,0,2.061,0,3.091,0c0.42,0,0.816-0.079,1.189-0.238
		c0.372-0.159,0.697-0.377,0.975-0.655c0.277-0.278,0.497-0.604,0.66-0.977c0.162-0.373,0.244-0.775,0.244-1.204
		c0-0.429-0.081-0.83-0.244-1.204C131.082,145.328,130.862,145.002,130.584,144.724z M130.692,147.298
		c-0.04,0.23-0.113,0.453-0.22,0.667c-0.107,0.215-0.248,0.409-0.422,0.584c-0.222,0.215-0.474,0.379-0.755,0.495
		c-0.281,0.115-0.573,0.173-0.874,0.173c-0.777,0-1.554,0-2.33,0c0-1.541,0-3.082,0-4.624c0.777,0,1.554,0,2.33,0
		c0.301,0,0.592,0.058,0.874,0.173c0.281,0.115,0.533,0.28,0.755,0.495c0.174,0.175,0.315,0.369,0.422,0.584s0.18,0.437,0.22,0.667
		C130.738,146.754,130.737,147.031,130.692,147.298z"/>
</g>
</svg>
