<?xml version="1.0" encoding="utf-8"?>
<!-- Generator: Adobe Illustrator 17.0.0, SVG Export Plug-In . SVG Version: 6.00 Build 0)  -->
<!DOCTYPE svg PUBLIC "-//W3C//DTD SVG 1.1//EN" "http://www.w3.org/Graphics/SVG/1.1/DTD/svg11.dtd">
<svg version="1.1" id="Layer_1" xmlns="http://www.w3.org/2000/svg" xmlns:xlink="http://www.w3.org/1999/xlink" x="0px" y="0px"
	 width="68px" height="68px" viewBox="0 0 68 68" enable-background="new 0 0 68 68" xml:space="preserve">
<g>
	<rect width="68" height="68"/>
	<g>
		<g>
			<path fill="#FFFFFF" d="M27.026,25.226c0,1.387-1.496,2.259-2.703,1.576c-1.296-0.733-2.592-1.467-3.888-2.2
				c0,1.133,0,2.265,0,3.398c0,2.502,1.346,4.811,3.524,6.043c3.096,1.751,6.191,3.503,9.287,5.254c0-8.481,0-16.962,0-25.443
				c-3.538,0.383-6.219,3.37-6.219,6.929C27.026,22.264,27.026,23.745,27.026,25.226z"/>
		</g>
		<g>
			<path fill="#FFFFFF" d="M33.245,49.234c0-0.763-0.255-1.201-0.919-1.576c-2.789-1.578-5.578-3.156-8.367-4.734
				c-2.178-1.232-3.524-3.541-3.524-6.043c0-1.036,0-2.071,0-3.107c4.27,2.416,8.54,4.832,12.811,7.248c0,1.22,0,2.439,0,3.659
				c0,0.534,0.221,0.755,0.755,0.755s0.755-0.221,0.755-0.755c0-1.22,0-2.439,0-3.659c4.27-2.416,8.541-4.832,12.811-7.248
				c0,1.036,0,2.071,0,3.107c0,2.502-1.346,4.811-3.524,6.043c-2.789,1.578-5.578,3.156-8.367,4.734
				c-0.664,0.375-0.919,0.814-0.919,1.576c0,2.447,0,1.085,0,3.532c0,0.534-0.221,0.755-0.755,0.755s-0.755-0.221-0.755-0.755
				C33.245,50.319,33.245,51.681,33.245,49.234z"/>
		</g>
		<g>
			<path fill="#FFFFFF" d="M40.974,25.226c0,1.387,1.496,2.259,2.703,1.576c1.296-0.733,2.592-1.467,3.888-2.2
				c0,1.133,0,2.265,0,3.398c0,2.502-1.346,4.811-3.524,6.043c-3.096,1.751-6.191,3.503-9.287,5.254c0-8.481,0-16.962,0-25.443
				c3.538,0.383,6.219,3.37,6.219,6.929C40.974,22.264,40.974,23.745,40.974,25.226z"/>
		</g>
	</g>
</g>
</svg>
