<svg xmlns="http://www.w3.org/2000/svg">
<defs>
<font id="FuturaEF-DemiBold" horiz-adv-x="1024" >
  <font-face 
    font-family="FuturaEF-DemiBold"
    font-weight="400"
    font-stretch="normal"
    units-per-em="2048"
    panose-1="2 0 5 3 5 0 0 2 0 3"
    ascent="1638"
    descent="-410"
    x-height="887"
    cap-height="1366"
    bbox="-59 -512 2025 1905"
    underline-thickness="40"
    underline-position="-299"
    unicode-range="U+000D-FB02"
  />
<missing-glyph horiz-adv-x="748" 
d="M68 0v1365h544v-1365h-544zM136 68h408v1229h-408v-1229z" />
    <glyph glyph-name=".notdef" horiz-adv-x="748" 
d="M68 0v1365h544v-1365h-544zM136 68h408v1229h-408v-1229z" />
    <glyph glyph-name="glyph1" horiz-adv-x="2048" 
 />
    <glyph glyph-name="glyph1" horiz-adv-x="2048" 
 />
    <glyph glyph-name="uni000D" unicode="&#xd;" horiz-adv-x="512" 
 />
    <glyph glyph-name="space" unicode=" " horiz-adv-x="512" 
 />
    <glyph glyph-name="exclam" unicode="!" horiz-adv-x="512" 
d="M96 133q0 66 47 113t113 47t113 -47t47 -113t-47 -113t-113 -47t-113 47.5t-47 112.5zM129 391v975h254v-975h-254z" />
    <glyph glyph-name="quotedbl" unicode="&#x22;" horiz-adv-x="821" 
d="M86 1366h276l-47 -549h-182zM457 1366h276l-47 -549h-182z" />
    <glyph glyph-name="numbersign" unicode="#" horiz-adv-x="1228" 
d="M20 381l35 223h211l29 184h-209l35 226h209l55 352h254l-57 -352h188l55 352h256l-55 -352h207l-35 -226h-207l-28 -184h208l-34 -223h-209l-62 -381h-256l62 381h-189l-59 -381h-254l61 381h-211zM518 604h189l28 184h-188z" />
    <glyph glyph-name="dollar" unicode="$" horiz-adv-x="1161" 
d="M96 244l152 157q57 -80 130 -130t175 -50q39 0 76 12.5t65.5 36t46 56t17.5 75.5q0 51 -29 93q-27 39 -74 60t-88 38q-70 29 -137.5 60.5t-119.5 74.5t-83.5 104.5t-31.5 149.5q0 80 32.5 155.5t91.5 129.5q47 45 100.5 65.5t117.5 30.5v197h127v-197q102 -12 171.5 -47
t143.5 -107l-135 -172q-43 49 -97.5 80t-121.5 31q-31 0 -62 -9.5t-55.5 -27.5t-40.5 -45t-16 -59q0 -57 42 -92t106.5 -64t138 -57.5t138 -74.5t106.5 -116t42 -176q0 -84 -26.5 -153.5t-75 -123t-114 -90t-144.5 -55.5v-207h-127v199q-147 10 -251 69.5t-190 178.5z" />
    <glyph glyph-name="percent" unicode="%" horiz-adv-x="1587" 
d="M61 1059q0 74 28 133t76 102t110.5 65.5t134.5 22.5q70 0 132 -22.5t110 -64.5t76 -101t28 -133t-28 -133.5t-75 -102.5t-110.5 -66.5t-132.5 -23.5q-72 0 -135.5 22.5t-110.5 64.5t-75 102.5t-28 134.5zM231 1059q0 -37 14.5 -69t38 -55.5t55.5 -37.5t69 -14
q74 0 125 51t51 125t-51.5 125t-124.5 51q-37 0 -69 -14.5t-55.5 -38t-38 -55t-14.5 -68.5zM332 6l813 1405l108 -61l-813 -1407zM834 303q0 74 27.5 133.5t75.5 101.5t110.5 64.5t134.5 22.5q70 0 132 -22.5t109 -64.5t75 -101.5t28 -131.5q0 -74 -28 -133t-74 -102
t-109.5 -66.5t-132.5 -23.5q-72 0 -135.5 22.5t-110.5 64.5t-74.5 102t-27.5 134zM1004 303q0 -37 13 -68.5t37.5 -56t56.5 -39t69 -14.5q74 0 126 52t52 126t-52.5 125t-125.5 51q-37 0 -69 -14t-55.5 -38t-37.5 -55.5t-14 -68.5z" />
    <glyph glyph-name="ampersand" unicode="&#x26;" horiz-adv-x="1454" 
d="M109 360q0 100 49 187.5t135 140.5q35 23 70.5 41.5t70.5 40.5q-55 63 -96 132t-41 157q0 80 30.5 143.5t82 106.5t120 65.5t144.5 22.5q72 0 138.5 -22.5t116.5 -65.5t80.5 -104.5t30.5 -137.5q0 -59 -21.5 -108.5t-56 -90.5t-79.5 -74.5t-92 -60.5l225 -258
q45 45 88 91t82 98l155 -154q-39 -53 -85 -101.5t-93 -95.5l277 -313h-330l-133 154q-96 -78 -202.5 -131.5t-233.5 -53.5q-86 0 -165 27t-138.5 78t-94 122.5t-34.5 163.5zM377 393q0 -41 17.5 -74.5t46 -59.5t64.5 -40t75 -14q72 0 133 35.5t114 81.5l-258 296
q-29 -18 -61.5 -41.5t-62 -51t-49 -61.5t-19.5 -71zM547 1077q0 -29 11 -56.5t28.5 -53t38 -49t39.5 -44.5q25 16 52 37t51 44.5t38 52t14 63.5q0 61 -40 98t-99 37q-55 0 -94 -35.5t-39 -93.5z" />
    <glyph glyph-name="quotesingle" unicode="'" horiz-adv-x="450" 
d="M86 1366h276l-47 -549h-182z" />
    <glyph glyph-name="parenleft" unicode="(" horiz-adv-x="653" 
d="M137 621q0 117 11.5 240.5t36 246.5t62.5 240.5t93 220.5l199 -109q-92 -199 -129 -415t-37 -433q0 -102 9 -212.5t28.5 -222t51.5 -218t77 -199.5l-199 -108q-57 111 -96 229.5t-62.5 242.5t-34 249t-10.5 248z" />
    <glyph glyph-name="parenright" unicode=")" horiz-adv-x="653" 
d="M117 -240q92 199 128 415t36 433q0 100 -9.5 212t-29 223.5t-50 218t-75.5 198.5l196 109q55 -104 94 -225t64 -247t36 -252t11 -245q0 -115 -12 -238.5t-37 -247.5t-63.5 -242t-92.5 -220z" />
    <glyph glyph-name="asterisk" unicode="*" horiz-adv-x="1161" 
d="M236 1214l59 181l233 -119l-43 258h191l-43 -258l233 121l58 -180l-260 -41l188 -185l-154 -110l-118 235l-117 -237l-154 110l187 187z" />
    <glyph glyph-name="plus" unicode="+" 
d="M68 580v229h319v319h250v-319h319v-229h-319v-320h-250v320h-319z" />
    <glyph glyph-name="comma" unicode="," horiz-adv-x="512" 
d="M8 -268l217 551l230 -27l-289 -543z" />
    <glyph glyph-name="hyphen" unicode="-" horiz-adv-x="460" 
d="M0 367v208h461v-208h-461z" />
    <glyph glyph-name="period" unicode="." horiz-adv-x="512" 
d="M96 133q0 66 47 113t113 47t113 -47t47 -113t-47 -113t-113 -47t-113 47.5t-47 112.5z" />
    <glyph glyph-name="slash" unicode="/" horiz-adv-x="952" 
d="M-59 -281l772 1850l172 -68l-772 -1849z" />
    <glyph glyph-name="zero" unicode="0" horiz-adv-x="1161" 
d="M51 682q0 121 30 248t93.5 231.5t163.5 172t242 67.5q141 0 241.5 -66.5t164 -171t93 -231.5t29.5 -248t-29.5 -248t-93 -231.5t-164 -172t-241.5 -67.5t-241.5 66.5t-164 171t-93.5 231.5t-30 248zM317 684q0 -59 11.5 -142t41 -160t81 -130t129.5 -53t129 53t80.5 130
t41 160t11.5 142t-11.5 142t-41 158t-81 128t-128.5 53q-78 0 -129.5 -53t-81 -128t-41 -158t-11.5 -142z" />
    <glyph glyph-name="one" unicode="1" horiz-adv-x="1161" 
d="M268 1133v233h463v-1366h-266v1133h-197z" />
    <glyph glyph-name="two" unicode="2" horiz-adv-x="1161" 
d="M35 0l403 457q41 47 95.5 107.5t102.5 127t82 136t34 135.5q0 43 -16.5 79.5t-45 64.5t-65.5 43t-80 15q-102 0 -150.5 -65.5t-52.5 -159.5h-285q6 104 43 189t98.5 145.5t147.5 93.5t191 33q96 0 183 -31t153.5 -87t105.5 -138t39 -182q0 -72 -21.5 -136.5t-56.5 -124
t-80 -113.5t-90 -104l-238 -254h496v-231h-993z" />
    <glyph glyph-name="three" unicode="3" horiz-adv-x="1161" 
d="M49 393h268q12 -94 72 -144t154 -50t156.5 60t62.5 157q0 45 -16.5 85t-44 68.5t-67.5 46t-85 17.5q-12 0 -24.5 -1t-24.5 -3v192q10 -2 18 -2h19q86 0 137 51.5t51 137.5q0 80 -51 131t-131 51q-88 0 -132 -49t-55 -131h-252q29 195 145 293t312 98q86 0 161 -24.5
t132 -73t90 -119t33 -160.5q0 -98 -36 -168t-122 -123q109 -45 159 -132t50 -204q0 -104 -40 -185t-106.5 -135t-154.5 -83t-186 -29q-96 0 -182.5 30t-154 85t-108.5 135t-47 178z" />
    <glyph glyph-name="four" unicode="4" horiz-adv-x="1161" 
d="M43 242v118l678 1031h240v-936h159v-213h-159v-242h-250v242h-668zM358 455h353v542z" />
    <glyph glyph-name="five" unicode="5" horiz-adv-x="1161" 
d="M53 143l88 230q68 -78 154 -126t190 -48q55 0 104.5 20.5t86.5 56t59.5 84t22.5 103.5q0 63 -26.5 113.5t-71 85t-100.5 54t-114 19.5q-141 0 -262 -86h-14l162 717h631v-233h-451l-53 -211q25 4 50.5 6t49.5 2q102 0 187 -37t146.5 -101.5t96.5 -151.5t35 -187
q0 -117 -42 -207t-114.5 -152.5t-170 -95.5t-208.5 -33q-131 0 -236.5 43t-199.5 135z" />
    <glyph glyph-name="six" unicode="6" horiz-adv-x="1161" 
d="M61 434q0 119 52.5 228.5t119.5 203.5q102 141 207 278.5t209 278.5l189 -143l-324 -414q82 33 160 33q94 0 172 -37t134 -98.5t87 -143t31 -171.5q0 -115 -41 -205t-112 -151.5t-166 -94.5t-206 -33q-104 0 -196 33t-163 93.5t-112 147.5t-41 195zM328 432
q0 -53 19.5 -100t53 -82t80.5 -54.5t101 -19.5q53 0 98 20.5t79 55.5t53 81t19 99q0 51 -19 98.5t-53 81t-79 54t-98 20.5t-99.5 -19.5t-81 -54t-54 -81t-19.5 -99.5z" />
    <glyph glyph-name="seven" unicode="7" horiz-adv-x="1161" 
d="M94 1133v233h1053l-832 -1405l-213 127l625 1045h-633z" />
    <glyph glyph-name="eight" unicode="8" horiz-adv-x="1161" 
d="M106 373q0 125 63.5 211t180.5 129q-92 47 -145 121.5t-53 181.5q0 92 36.5 163.5t97 121t139.5 75t165 25.5t161.5 -26.5t134 -77t92.5 -122t34 -161.5q0 -111 -53.5 -182.5t-149.5 -118.5q117 -43 181.5 -126t64.5 -210q0 -98 -39 -175t-104.5 -129.5t-149.5 -80
t-176 -27.5q-90 0 -176 26.5t-154 78t-109 128t-41 175.5zM373 393q0 -43 15 -82t43 -69.5t66 -48t83 -17.5t82.5 17.5t65.5 47t44 69.5t16 83t-16 82t-44 67.5t-66.5 45t-81.5 16.5t-81 -16.5t-65.5 -46t-44 -67.5t-16.5 -81zM391 1014q0 -39 15.5 -74t41 -60.5t60.5 -41
t74 -15.5q80 0 135 55.5t55 135.5t-55 136t-135 56q-39 0 -74 -15t-60.5 -42t-41 -61.5t-15.5 -73.5z" />
    <glyph glyph-name="nine" unicode="9" horiz-adv-x="1161" 
d="M61 918q0 113 41 201.5t113 151t166 96.5t203 34q104 0 197 -32t164 -92t112 -147t41 -198q0 -119 -52.5 -229.5t-119.5 -204.5q-102 -141 -206 -278.5t-208 -276.5l-188 141l323 416q-74 -33 -160 -33q-94 0 -171.5 37t-134 98.5t-88.5 143t-32 172.5zM328 934
q0 -53 19.5 -99.5t53 -81t79.5 -55t100 -20.5q53 0 99 20.5t80 55t53 82t19 100.5t-19 99t-53 81t-80 54.5t-99 19.5t-99.5 -20.5t-80 -55.5t-53 -82t-19.5 -98z" />
    <glyph glyph-name="colon" unicode=":" horiz-adv-x="512" 
d="M96 133q0 66 47 113t113 47t113 -47t47 -113t-47 -113t-113 -47t-113 47.5t-47 112.5zM96 758q0 66 47 113t113 47t113 -47t47 -113t-46 -114t-114 -48q-66 0 -113 48t-47 114z" />
    <glyph glyph-name="semicolon" unicode=";" horiz-adv-x="512" 
d="M-4 -268l219 551l227 -27l-288 -543zM160 756q0 66 47 112.5t112 46.5q66 0 114 -45.5t48 -113.5t-48 -114t-114 -46t-112.5 47t-46.5 113z" />
    <glyph glyph-name="less" unicode="&#x3c;" 
d="M68 578v210l888 447v-248l-624 -305l622 -305l2 -246z" />
    <glyph glyph-name="equal" unicode="=" 
d="M68 414v217h888v-217h-888zM68 762v219h888v-219h-888z" />
    <glyph glyph-name="greater" unicode="&#x3e;" 
d="M68 131v246l624 307l-622 305l-2 246l888 -449v-208z" />
    <glyph glyph-name="question" unicode="?" horiz-adv-x="1001" 
d="M88 1001v25q0 84 36 151.5t94 115.5t134 74t154 26q82 0 156.5 -29t132 -79t91.5 -120.5t34 -156.5q0 -78 -27 -140.5t-73 -109.5t-108.5 -79t-131.5 -48v-174h-252v360q16 -4 34.5 -6t36.5 -2q47 0 93.5 12.5t83 37t59 63.5t22.5 92q0 68 -45 112.5t-112 44.5
q-61 0 -104.5 -42t-43.5 -103q0 -6 1 -12t1 -13h-266zM297 133q0 66 47 113t113 47q68 0 114.5 -46t46.5 -114q0 -66 -47 -113t-112 -47q-66 0 -114 46.5t-48 113.5z" />
    <glyph glyph-name="at" unicode="@" horiz-adv-x="1501" 
d="M68 672q0 150 56 280.5t152.5 228t227.5 153t282 55.5q131 0 249 -43t207 -122t140.5 -191t51.5 -249q0 -102 -35 -200q-16 -47 -45 -95.5t-68 -87.5t-86 -63.5t-102 -24.5q-53 0 -99.5 31t-60.5 84q-43 -63 -110.5 -97t-143.5 -34q-68 0 -121 26.5t-90 70.5t-56.5 102.5
t-19.5 121.5q0 74 26 147t73 131t112.5 95t145.5 37q59 0 115.5 -26.5t86.5 -79.5l17 86l172 -2l-78 -394q-4 -23 -8 -44t-4 -44q0 -25 10 -48t41 -23q29 0 54.5 22.5t41.5 44.5q41 55 60.5 126t19.5 138q0 104 -39 188.5t-104.5 143t-154.5 89t-189 30.5q-119 0 -221.5 -44
t-177 -121t-117.5 -179.5t-43 -220.5q0 -109 38.5 -212.5t114.5 -181.5q84 -86 185.5 -116.5t218.5 -30.5q98 0 194 16.5t189 51.5l38 -156q-98 -35 -203.5 -50.5t-209.5 -15.5q-74 0 -146.5 10.5t-142.5 34.5q-102 37 -185 102.5t-140.5 152.5t-88 188.5t-30.5 208.5z
M592 627q0 -63 36 -109.5t103 -46.5q45 0 79 22.5t56.5 57.5t33.5 77t11 81q0 59 -36.5 100t-96.5 41q-43 0 -77.5 -20.5t-58.5 -52.5t-37 -71.5t-13 -78.5z" />
    <glyph glyph-name="A" unicode="A" horiz-adv-x="1372" 
d="M2 0l592 1395h201l575 -1395h-287l-116 289h-557l-125 -289h-283zM494 504h391l-193 491z" />
    <glyph glyph-name="B" unicode="B" horiz-adv-x="1167" 
d="M158 0v1366h338q41 0 86 -3t89 -11.5t85 -24.5t73 -43q61 -51 92 -127t31 -153q0 -92 -33.5 -160t-115.5 -115q53 -10 95 -27.5t83 -58.5q49 -49 73.5 -117.5t24.5 -138.5q0 -102 -37.5 -175t-101 -120t-147.5 -69.5t-177 -22.5h-458zM424 215h115q49 0 97 7t85 27.5
t60.5 59t23.5 97.5q0 57 -22.5 93t-59.5 57.5t-83 29.5t-93 8h-123v-379zM424 797h76q88 0 147.5 40t59.5 136t-58.5 136t-146.5 40h-78v-352z" />
    <glyph glyph-name="C" unicode="C" horiz-adv-x="1232" 
d="M88 676q0 150 56.5 280.5t154.5 229t230.5 155t281.5 56.5q92 0 173 -21.5t161 -62.5v-316q-70 72 -150 114t-184 42q-98 0 -181 -38t-142.5 -103.5t-92.5 -151.5t-33 -182q0 -98 34 -183t93.5 -147.5t143.5 -99.5t182 -37q100 0 180 40t150 111v-313q-82 -39 -163 -59.5
t-173 -20.5q-147 0 -278.5 54.5t-229.5 149.5t-155.5 224t-57.5 279z" />
    <glyph glyph-name="D" unicode="D" horiz-adv-x="1370" 
d="M158 0v1366h389q152 0 286 -47t233 -135t157.5 -214t58.5 -286q0 -154 -64.5 -292t-183.5 -236q-111 -90 -230.5 -123t-258.5 -33h-387zM424 231h72q102 0 194 19.5t170 89.5q72 63 110 155.5t38 188.5t-38 185t-110 155q-78 72 -170 91.5t-194 19.5h-72v-904z" />
    <glyph glyph-name="E" unicode="E" horiz-adv-x="1013" 
d="M158 0v1366h755v-231h-489v-304h471v-231h-471v-369h489v-231h-755z" />
    <glyph glyph-name="F" unicode="F" horiz-adv-x="956" 
d="M158 0v1366h723v-231h-457v-304h428v-231h-428v-600h-266z" />
    <glyph glyph-name="G" unicode="G" horiz-adv-x="1560" 
d="M88 680q0 156 55.5 288t152.5 227t229 148.5t288 53.5q186 0 336.5 -80t249.5 -242l-232 -125q-59 98 -149 150.5t-207 52.5q-100 0 -182 -38t-141.5 -102.5t-92.5 -150.5t-33 -182q0 -98 33 -183t92.5 -148.5t141.5 -100.5t182 -37q68 0 128 19.5t108.5 56.5t80 91
t39.5 124h-321v229h627v-33q0 -57 -5.5 -113.5t-15.5 -111.5q-25 -119 -84 -212t-145 -157.5t-192.5 -99.5t-225.5 -35q-156 0 -287 52.5t-226 146.5t-149.5 225t-54.5 287z" />
    <glyph glyph-name="H" unicode="H" horiz-adv-x="1423" 
d="M158 0v1366h266v-528h577v528h267v-1366h-267v608h-577v-608h-266z" />
    <glyph glyph-name="I" unicode="I" horiz-adv-x="579" 
d="M158 0v1366h266v-1366h-266z" />
    <glyph glyph-name="J" unicode="J" horiz-adv-x="798" 
d="M-55 96l161 195q23 -35 57 -55.5t75 -20.5q55 0 83.5 27.5t41 67.5t12.5 87v88v881h266v-922q0 -84 -11.5 -166.5t-58.5 -154.5q-49 -78 -133 -117t-174 -39q-92 0 -173 34t-146 95z" />
    <glyph glyph-name="K" unicode="K" horiz-adv-x="1304" 
d="M158 0v1366h266v-578l502 578h336l-578 -631l608 -735h-350l-487 612l-31 -30v-582h-266z" />
    <glyph glyph-name="L" unicode="L" horiz-adv-x="870" 
d="M158 0v1366h266v-1135h420v-231h-686z" />
    <glyph glyph-name="M" unicode="M" horiz-adv-x="1777" 
d="M84 0l254 1391h182l373 -893l389 893h182l228 -1391h-269l-120 842l-377 -860h-74l-363 860l-137 -842h-268z" />
    <glyph glyph-name="N" unicode="N" horiz-adv-x="1595" 
d="M158 0v1397h184l832 -951v920h266v-1393h-185l-831 951v-924h-266z" />
    <glyph glyph-name="O" unicode="O" horiz-adv-x="1636" 
d="M88 680q0 154 57.5 285t156.5 227t233.5 150.5t285.5 54.5q150 0 283 -54.5t231.5 -150.5t155.5 -227t57 -283q0 -154 -57 -284t-157.5 -225t-233.5 -149.5t-283 -54.5q-152 0 -285 53.5t-231 148.5t-155.5 225t-57.5 284zM362 684q0 -94 35 -180t96.5 -150.5
t144.5 -103.5t179 -39q98 0 181 38t144.5 103.5t96.5 150.5t35 181q0 94 -35 180t-96.5 149.5t-145.5 101.5t-180 38t-179 -38t-144.5 -102.5t-96.5 -149.5t-35 -179z" />
    <glyph glyph-name="P" unicode="P" horiz-adv-x="1095" 
d="M158 0v1366h397q100 0 190.5 -17.5t169.5 -86.5q72 -61 106 -149.5t34 -180.5q0 -84 -27 -164t-84 -141q-49 -53 -111.5 -79t-130.5 -35q-62 -8 -125 -8h-15q-70 1 -138 1v-506h-266zM424 737h108q49 0 94.5 9.5t79 32t54 60.5t20.5 95q0 45 -17.5 87t-51.5 71
q-39 31 -93.5 37t-101.5 6h-92v-398z" />
    <glyph glyph-name="Q" unicode="Q" horiz-adv-x="1630" 
d="M88 680q0 154 57.5 286t157.5 227t234.5 149.5t285.5 54.5q154 0 287 -54.5t233.5 -149.5t158 -226t57.5 -287q0 -145 -48.5 -263t-144.5 -224l221 -220l-268 -26l-113 125q-90 -53 -182 -78t-197 -25q-152 0 -286.5 53.5t-235 147.5t-159 224t-58.5 286zM362 678
q0 -98 34 -183t94.5 -147.5t144.5 -99.5t182 -37q55 0 102.5 12.5t92.5 44.5l-264 258l276 23l152 -156q59 63 83.5 133t24.5 156q0 98 -36 183t-97 149.5t-146 101.5t-184 37q-100 0 -184 -38t-145.5 -102.5t-95.5 -150.5t-34 -184z" />
    <glyph glyph-name="R" unicode="R" horiz-adv-x="1177" 
d="M158 0v1366h395q90 0 183 -20.5t165 -77.5q68 -55 101.5 -138t33.5 -169q0 -63 -20.5 -131t-57.5 -119q-43 -59 -102 -90t-131 -46l430 -575h-330l-368 549h-33v-549h-266zM424 737h76q51 0 98 10.5t84 34t58.5 63.5t21.5 99t-21.5 98t-56.5 62.5t-82 34t-98 10.5h-80
v-412z" />
    <glyph glyph-name="S" unicode="S" horiz-adv-x="1089" 
d="M68 227l172 166q43 -86 115.5 -134t170.5 -48q86 0 148.5 50t62.5 142q0 70 -44 111t-111.5 68.5t-144.5 54.5t-144.5 69t-111.5 108.5t-44 176.5q0 90 34 164t92.5 126t136 80t163.5 28q111 0 213.5 -39t186.5 -113l-140 -182q-45 53 -97 81.5t-124 28.5
q-33 0 -66.5 -10t-61.5 -29.5t-45 -48t-17 -65.5q0 -57 44 -91t111.5 -59.5t144 -54.5t144.5 -75t112 -120.5t44 -193.5q0 -104 -36 -188.5t-100.5 -142.5t-151.5 -89t-187 -31q-156 0 -269.5 65.5t-199.5 194.5z" />
    <glyph glyph-name="T" unicode="T" horiz-adv-x="907" 
d="M14 1135v231h879v-231h-307v-1135h-267v1135h-305z" />
    <glyph glyph-name="U" unicode="U" horiz-adv-x="1411" 
d="M158 530v836h266v-782q0 -66 4 -126.5t39 -119.5q37 -63 102.5 -95t137.5 -32t136 32.5t103 94.5q35 55 39 118.5t4 127.5v782h266v-836q0 -98 -19 -191t-81 -173q-39 -51 -91 -88t-110.5 -61.5t-122 -36t-124.5 -11.5q-125 0 -248 46t-201 151q-59 80 -79.5 173
t-20.5 191z" />
    <glyph glyph-name="V" unicode="V" horiz-adv-x="1318" 
d="M2 1366h291l364 -917l369 917h289l-590 -1401h-141z" />
    <glyph glyph-name="W" unicode="W" horiz-adv-x="1998" 
d="M2 1366h283l305 -930l334 942h147l315 -942l328 930h281l-512 -1393h-189l-303 893l-317 -893h-189z" />
    <glyph glyph-name="X" unicode="X" horiz-adv-x="1280" 
d="M14 0l484 721l-408 645h320l239 -424l252 424h320l-420 -645l467 -721h-314l-307 500l-319 -500h-314z" />
    <glyph glyph-name="Y" unicode="Y" horiz-adv-x="1193" 
d="M-10 1366h313l295 -475l291 475h317l-481 -741v-625h-266v625z" />
    <glyph glyph-name="Z" unicode="Z" horiz-adv-x="1196" 
d="M43 0l668 1135h-564v231h1004l-666 -1135h631v-231h-1073z" />
    <glyph glyph-name="bracketleft" unicode="[" horiz-adv-x="710" 
d="M178 -328v1862h424v-219h-186v-1424h186v-219h-424z" />
    <glyph glyph-name="backslash" unicode="\" 
d="M55 1536h244l637 -1706h-244z" />
    <glyph glyph-name="bracketright" unicode="]" horiz-adv-x="710" 
d="M109 -109h186v1424h-186v219h426v-1862h-426v219z" />
    <glyph glyph-name="asciicircum" unicode="^" 
d="M16 694l332 678h328l332 -678h-260l-236 480l-236 -480h-260z" />
    <glyph glyph-name="underscore" unicode="_" 
d="M0 -100h1024v-224h-1024v224z" />
    <glyph glyph-name="grave" unicode="`" 
d="M190 1319l181 115l243 -310l-116 -82z" />
    <glyph glyph-name="a" unicode="a" horiz-adv-x="1165" 
d="M72 446q0 92 30.5 177.5t87 150t135 103t177.5 38.5q92 0 163.5 -35.5t131.5 -105.5v113h250v-887h-250v117q-51 -72 -126 -109t-163 -37q-100 0 -181 39t-137.5 103.5t-87 150.5t-30.5 182zM328 444q0 -51 19.5 -97t53 -80t78.5 -53t96 -19t96.5 19t79 53t53 80t19.5 97
t-19.5 96.5t-53 79t-78.5 53t-97 19.5q-51 0 -96 -19.5t-78.5 -53t-53 -78.5t-19.5 -97z" />
    <glyph glyph-name="b" unicode="b" horiz-adv-x="1165" 
d="M119 0v1534h248v-760q66 70 133 105.5t164 35.5q98 0 177 -38.5t136 -103t88 -150t31 -177.5q0 -96 -31 -182t-88 -150.5t-138 -103.5t-182 -39q-92 0 -162.5 37t-127.5 109v-117h-248zM342 444q0 -51 19.5 -97t53.5 -80t79 -53t96 -19t96 19t79 53t53.5 80t19.5 97
t-19.5 96.5t-53.5 79t-79 53t-96 19.5t-96 -19.5t-79 -53t-53.5 -78.5t-19.5 -97z" />
    <glyph glyph-name="c" unicode="c" horiz-adv-x="854" 
d="M72 440q0 102 37.5 189.5t104.5 151t155 99t190 35.5q59 0 115.5 -12t109.5 -41v-246q-47 37 -94 56.5t-106 19.5q-53 0 -100.5 -18.5t-82 -51t-54 -77.5t-19.5 -101q0 -55 19.5 -100t54 -79t81.5 -52t101 -18q59 0 107 19t93 56v-243q-57 -29 -111.5 -42.5t-117.5 -13.5
q-100 0 -188 35t-154 97.5t-103.5 148.5t-37.5 188z" />
    <glyph glyph-name="d" unicode="d" horiz-adv-x="1165" 
d="M72 446q0 92 30.5 177.5t87 150t135 103t177.5 38.5q92 0 163.5 -35.5t131.5 -105.5v760h250v-1534h-250v117q-51 -72 -126 -109t-163 -37q-100 0 -181 39t-137.5 103.5t-87 150.5t-30.5 182zM328 444q0 -51 19.5 -97t53 -80t78.5 -53t96 -19t96.5 19t79 53t53 80
t19.5 97t-19.5 96.5t-53 79t-78.5 53t-97 19.5q-51 0 -96 -19.5t-78.5 -53t-53 -78.5t-19.5 -97z" />
    <glyph glyph-name="e" unicode="e" horiz-adv-x="1060" 
d="M72 444q0 106 32.5 193.5t93 149t146.5 95t193 33.5q111 0 194.5 -34.5t141 -98t87 -151.5t29.5 -195v-33h-663q4 -104 55 -170.5t162 -66.5q72 0 122 29.5t89 89.5l229 -37q-59 -143 -172 -210t-264 -67q-109 0 -196 34t-149.5 95.5t-96 148.5t-33.5 195zM334 561h420
q-18 84 -71.5 131t-141.5 47q-86 0 -138.5 -48t-68.5 -130z" />
    <glyph glyph-name="f" unicode="f" horiz-adv-x="600" 
d="M31 674v213h96v284q0 55 6 106.5t33 102.5q43 84 129 131.5t178 47.5q39 0 67.5 -7.5t63.5 -23.5v-228q-29 14 -55.5 23.5t-56.5 9.5q-41 0 -65 -19.5t-35 -48t-14 -64.5t-3 -66v-248h229v-213h-229v-674h-248v674h-96z" />
    <glyph glyph-name="g" unicode="g" horiz-adv-x="1161" 
d="M72 432q0 94 29.5 182t86 155t136 106.5t182.5 39.5q96 0 161.5 -34.5t125.5 -108.5v115h249v-854q0 -53 -2 -99.5t-12 -89.5t-30.5 -84t-55.5 -82q-72 -84 -171 -119.5t-206 -35.5q-86 0 -167 24.5t-145.5 71.5t-107.5 116.5t-51 160.5h268q20 -82 73.5 -122t137.5 -40
q117 0 168.5 71.5t51.5 180.5v133q-63 -72 -132 -110t-167 -38t-176 37t-133.5 99.5t-84 146.5t-28.5 178zM328 444q0 -51 19.5 -97t53 -80t78.5 -53t96 -19t96.5 19t79 53t53 80t19.5 97t-19.5 96.5t-53 79t-78.5 53t-97 19.5q-51 0 -96 -19.5t-78.5 -53t-53 -78.5
t-19.5 -97z" />
    <glyph glyph-name="h" unicode="h" horiz-adv-x="1091" 
d="M119 0v1534h248v-762q53 72 119.5 107.5t158.5 35.5q72 0 141.5 -26.5t116.5 -81.5t58.5 -117.5t11.5 -132.5v-557h-248v485q0 45 -6 86t-24.5 70t-52.5 46.5t-87 17.5q-57 0 -94 -20.5t-57.5 -55.5t-28.5 -80t-8 -94v-455h-248z" />
    <glyph glyph-name="i" unicode="i" horiz-adv-x="477" 
d="M90 1262q0 61 44 105t106 44q61 0 104 -44t43 -105t-43 -105.5t-104 -44.5t-105.5 44t-44.5 106zM115 0v887h247v-887h-247z" />
    <glyph glyph-name="j" unicode="j" horiz-adv-x="477" 
d="M90 1262q0 61 44 105t106 44q61 0 104 -44t43 -105t-43 -105.5t-104 -44.5t-105.5 44t-44.5 106zM115 -473v1360h247v-1360h-247z" />
    <glyph glyph-name="k" unicode="k" horiz-adv-x="1058" 
d="M119 0v1534h248v-971l331 324h336l-416 -389l449 -498h-340l-334 381l-26 -27v-354h-248z" />
    <glyph glyph-name="l" unicode="l" horiz-adv-x="485" 
d="M119 0v1534h248v-1534h-248z" />
    <glyph glyph-name="m" unicode="m" horiz-adv-x="1617" 
d="M119 0v887h248v-101q57 63 120.5 96t149.5 33q96 0 161.5 -40.5t114.5 -120.5q53 80 124 120.5t167 40.5q72 0 139.5 -31.5t108.5 -95.5q31 -47 39 -103t8 -112v-573h-248v485q0 39 -5 78t-20.5 71t-44 51.5t-77.5 19.5q-55 0 -88 -23t-51.5 -58.5t-24.5 -80.5t-6 -88
v-455h-248v471q0 35 -2 76t-16 71q-16 41 -53 64t-80 23q-41 0 -80 -21.5t-60 -58.5q-20 -35 -24 -82t-4 -88v-455h-248z" />
    <glyph glyph-name="n" unicode="n" horiz-adv-x="1091" 
d="M119 0v887h248v-109q31 35 60.5 60.5t62 43t70.5 25.5t85 8q72 0 141.5 -25.5t116.5 -80.5t58.5 -115.5t11.5 -130.5v-563h-248v492q0 45 -6 83.5t-24.5 67.5t-51.5 45.5t-86 16.5q-57 0 -94 -19.5t-58.5 -53.5t-29.5 -79t-8 -94v-459h-248z" />
    <glyph glyph-name="o" unicode="o" horiz-adv-x="1157" 
d="M72 442q0 111 40 199t108.5 149.5t161.5 93t200 31.5q104 0 196 -32.5t161 -93t107.5 -147.5t38.5 -198t-39.5 -197.5t-108.5 -148t-161 -94.5t-196 -33q-106 0 -198.5 32t-161 93.5t-108.5 148.5t-40 197zM328 442q0 -51 20.5 -96t54 -79t78.5 -53t97 -19q51 0 97 19
t79.5 52t54 78t20.5 98q0 51 -19 97.5t-54 80t-81 53t-97 19.5t-97.5 -19.5t-80 -53t-53 -79.5t-19.5 -98z" />
    <glyph glyph-name="p" unicode="p" horiz-adv-x="1165" 
d="M119 -473v1360h248v-113q61 72 127.5 106.5t162.5 34.5q98 0 179.5 -37.5t138.5 -103t89 -152t32 -180.5q0 -92 -31 -178t-88 -150.5t-136 -103.5t-177 -39t-167 36t-130 110v-590h-248zM342 444q0 -51 19.5 -97t53.5 -80t79 -53t96 -19t96 19t79 53t53.5 80t19.5 97
t-19.5 96.5t-53.5 79t-79 53t-96 19.5t-96 -19.5t-79 -53t-53.5 -78.5t-19.5 -97z" />
    <glyph glyph-name="q" unicode="q" horiz-adv-x="1165" 
d="M72 442q0 94 30.5 180.5t88 152t138.5 103t179 37.5q92 0 161.5 -33.5t127.5 -107.5v113h250v-1360h-250v590q-117 -145 -295 -146q-98 0 -177 39t-135.5 103.5t-87 150.5t-30.5 178zM328 444q0 -51 19.5 -97t53 -80t78.5 -53t96 -19t96.5 19t79 53t53 80t19.5 97
t-19.5 96.5t-53 79t-78.5 53t-97 19.5q-51 0 -96 -19.5t-78.5 -53t-53 -78.5t-19.5 -97z" />
    <glyph glyph-name="r" unicode="r" horiz-adv-x="737" 
d="M119 0v887h248v-133q43 76 105.5 118.5t152.5 42.5q55 0 108 -20l-35 -233q-31 16 -57.5 23t-60.5 7q-63 0 -104.5 -20.5t-66 -57t-33.5 -85t-9 -103.5v-426h-248z" />
    <glyph glyph-name="s" unicode="s" horiz-adv-x="829" 
d="M63 119l132 151q41 -45 93 -74.5t115 -29.5q43 0 78 25.5t35 72.5q0 39 -29.5 60.5t-72.5 38t-95.5 34t-95.5 46t-72.5 74.5t-29.5 122q0 68 25.5 120t69.5 88t101.5 54.5t120.5 18.5q80 0 153 -23t136 -72l-123 -145q-33 25 -69.5 42t-77.5 17q-33 0 -64 -19.5
t-31 -55.5q0 -33 31 -52.5t76 -36t98.5 -35t98.5 -49t75.5 -78.5t30.5 -124q0 -78 -30.5 -137.5t-83 -99.5t-119 -60.5t-138.5 -20.5q-96 0 -184 39t-154 109z" />
    <glyph glyph-name="t" unicode="t" horiz-adv-x="552" 
d="M23 674v213h98v303h248v-303h174v-213h-174v-674h-248v674h-98z" />
    <glyph glyph-name="u" unicode="u" horiz-adv-x="1095" 
d="M119 344v543h248v-502q0 -92 41 -147.5t139 -55.5t139 55.5t41 147.5v502h250v-543q0 -98 -33 -169t-91 -116t-136 -66.5t-170 -21.5t-170 21.5t-135.5 66.5t-90 116t-32.5 169z" />
    <glyph glyph-name="v" unicode="v" horiz-adv-x="1028" 
d="M2 887h279l233 -500l234 500h278l-457 -905h-114z" />
    <glyph glyph-name="w" unicode="w" horiz-adv-x="1622" 
d="M2 887h279l233 -512l242 536h106l242 -544l239 520h277l-459 -905h-114l-240 540l-236 -540h-114z" />
    <glyph glyph-name="x" unicode="x" horiz-adv-x="1150" 
d="M2 0l422 483l-340 404h313l183 -230l186 230h315l-348 -404l416 -483h-315l-254 309l-258 -309h-320z" />
    <glyph glyph-name="y" unicode="y" horiz-adv-x="1095" 
d="M2 887h289l266 -504l254 504h283l-717 -1362h-281l326 608z" />
    <glyph glyph-name="z" unicode="z" horiz-adv-x="993" 
d="M27 0l503 676h-426v215h863l-502 -676h469v-215h-907z" />
    <glyph glyph-name="braceleft" unicode="{" 
d="M252 397v209q66 16 89.5 56t23.5 104v324q0 166 75.5 229t235.5 63q35 0 70.5 -2t70.5 -2v-219q-16 0 -34.5 1t-34.5 1q-68 0 -101 -24.5t-33 -98.5v-290q0 -90 -23.5 -146.5t-98.5 -109.5q78 -47 100 -108.5t22 -147.5v-297q0 -51 17.5 -75t46.5 -32t65.5 -7t73.5 1
v-219q-35 0 -70.5 -2t-70.5 -2q-164 0 -237.5 64.5t-73.5 232.5v319q0 66 -19.5 114t-93.5 64z" />
    <glyph glyph-name="bar" unicode="|" 
d="M387 -512v2048h250v-2048h-250z" />
    <glyph glyph-name="braceright" unicode="}" 
d="M250 -174q16 0 34.5 -1t34.5 -1q66 0 100 23.5t34 97.5v293q0 37 5 75.5t19 73.5q16 39 41 61.5t57 45.5q-78 49 -100 108.5t-22 147.5v294q0 33 -7.5 59.5t-39.5 43.5q-12 6 -33 8t-43.5 3t-44 1h-35.5v219q35 0 69.5 2t69.5 2q162 0 237.5 -64.5t75.5 -232.5v-319
q0 -66 19.5 -115t93.5 -63v-209q-66 -16 -89.5 -56t-23.5 -104v-323q0 -166 -75.5 -229.5t-235.5 -63.5q-35 0 -70.5 2t-70.5 2v219z" />
    <glyph glyph-name="asciitilde" unicode="~" horiz-adv-x="1366" 
d="M184 1243q10 23 20.5 45.5t20.5 44.5q41 86 104.5 137.5t162.5 51.5q53 0 103 -16.5t98 -37t96.5 -37t95.5 -16.5q59 0 92 32t61 79l142 -82q-25 -53 -54.5 -101.5t-66.5 -85t-86 -59t-115 -22.5q-51 0 -98 16t-93 36.5t-93.5 37t-96.5 16.5q-33 0 -56.5 -10t-41 -28.5
t-30.5 -42t-25 -48.5z" />
    <glyph glyph-name="uni00A0" unicode="&#xa0;" horiz-adv-x="512" 
 />
    <glyph glyph-name="exclamdown" unicode="&#xa1;" horiz-adv-x="512" 
d="M96 905q0 66 47 113t113 47t113 -47t47 -113t-46 -114t-114 -48q-66 0 -113 48.5t-47 113.5zM129 -328v973h254v-973h-254z" />
    <glyph glyph-name="cent" unicode="&#xa2;" horiz-adv-x="1161" 
d="M199 684q0 98 29.5 178t85 139.5t132 98.5t170.5 55v154h129v-160q41 -6 82 -15.5t80 -27.5v-252q-45 43 -88 66.5t-106 23.5q-55 0 -101.5 -20.5t-79 -56.5t-50 -83t-17.5 -102q0 -53 17.5 -99t50 -81t77.5 -54.5t99 -19.5q119 0 198 90v-254q-80 -33 -162 -41v-172
h-129v166q-90 12 -166.5 52t-132 101.5t-87 141.5t-31.5 172z" />
    <glyph glyph-name="sterling" unicode="&#xa3;" horiz-adv-x="1161" 
d="M37 16q23 53 48.5 100.5t60 82t80.5 57.5t110 27q23 51 22 108q0 47 -16 92h-242v187h133q-35 63 -58 132.5t-23 143.5q0 104 43 188.5t113.5 142.5t162.5 89t191 31q223 0 337.5 -130t118.5 -345l-268 -29q2 16 3 29.5t1 29.5q0 92 -60.5 150.5t-152.5 58.5
q-98 0 -159.5 -65.5t-61.5 -161.5q0 -70 27.5 -137.5t58.5 -126.5h303v-187h-246q4 -20 6 -38.5t2 -38.5q0 -35 -7 -70t-17 -70q31 -10 69.5 -24.5t78.5 -27.5t79 -22.5t70 -9.5q51 0 78.5 33t42.5 78l182 -39q-18 -63 -43 -115.5t-61.5 -90.5t-88 -58.5t-123.5 -20.5
q-61 0 -117.5 16.5t-112.5 36t-113.5 36t-116.5 16.5q-100 0 -142 -92z" />
    <glyph glyph-name="currency" unicode="&#xa4;" horiz-adv-x="1366" 
d="M49 1262l137 135l209 -211q68 47 136.5 69.5t152.5 22.5q82 0 148.5 -21.5t134.5 -66.5l209 205l135 -135l-207 -205q45 -68 69.5 -135.5t24.5 -151.5q0 -80 -23.5 -146.5t-66.5 -134.5l207 -208l-133 -138l-209 209q-131 -94 -289 -94q-82 0 -150.5 24.5t-138.5 67.5
l-209 -205l-135 133l209 209q-92 127 -92 283q0 80 23.5 148.5t68.5 134.5zM395 768q0 -59 22.5 -112.5t61.5 -93.5t92.5 -62.5t112.5 -22.5t111.5 23.5t91.5 63.5t61.5 92.5t22.5 111.5t-22.5 111.5t-61.5 92.5t-91.5 62.5t-111.5 22.5t-112.5 -22.5t-92.5 -61.5
t-61.5 -92.5t-22.5 -112.5z" />
    <glyph glyph-name="yen" unicode="&#xa5;" horiz-adv-x="1161" 
d="M14 1366h293l275 -475l268 475h297l-264 -436h153v-187h-266l-72 -127h338v-188h-338v-428h-245v428h-328v188h328l-70 127h-258v187h147z" />
    <glyph glyph-name="brokenbar" unicode="&#xa6;" 
d="M387 313h244v-825h-244v825zM387 655v877h244v-877h-244z" />
    <glyph glyph-name="section" unicode="&#xa7;" horiz-adv-x="1161" 
d="M150 604q0 117 57 211t176 125q-182 82 -182 279q0 80 29.5 142t79.5 104t118 63.5t143 21.5q49 0 100.5 -9t97.5 -29.5t86 -52.5t67 -77q31 -49 38 -96t9 -104h-248q-4 66 -37 116t-106 50q-55 0 -96.5 -40t-41.5 -96q0 -53 42 -87.5t105.5 -64.5t138.5 -59.5
t138.5 -75.5t105.5 -115t42 -173q0 -127 -64.5 -212t-175.5 -138q90 -41 138 -108.5t48 -168.5q0 -82 -31.5 -148.5t-85 -112.5t-124 -71.5t-148.5 -25.5q-184 0 -283.5 104.5t-107.5 284.5h252q2 -70 37 -124t113 -54q63 0 105 43t42 106q0 47 -20.5 78t-53 52.5t-70.5 36
t-75 26.5q-72 25 -139.5 54.5t-120.5 84.5q-51 53 -74.5 120.5t-23.5 139.5zM408 612q0 -35 13 -67.5t35.5 -57t53.5 -39t68 -14.5t67.5 14.5t54 39t37 57t13.5 67.5q0 37 -13.5 69t-36 56.5t-54.5 39t-68 14.5q-37 0 -68 -14.5t-53.5 -39t-35.5 -57.5t-13 -68z" />
    <glyph glyph-name="dieresis" unicode="&#xa8;" 
d="M152 1200q0 59 44 103.5t103 44.5q61 0 104 -43.5t43 -104.5t-43 -104t-104 -43q-59 0 -103 44t-44 103zM578 1200q0 61 43 104.5t104 43.5t104 -43.5t43 -104.5t-43 -104t-104 -43q-59 0 -103 44t-44 103z" />
    <glyph glyph-name="copyright" unicode="&#xa9;" horiz-adv-x="1556" 
d="M68 684q0 147 56 277.5t153.5 226.5t227.5 152.5t277 56.5t275.5 -57.5t224.5 -155t151.5 -227.5t55.5 -275q0 -147 -55.5 -276.5t-151.5 -226.5t-225 -153.5t-277 -56.5q-147 0 -277 56.5t-226.5 153.5t-152.5 227.5t-56 277.5zM211 684q0 -119 44 -225.5t121 -187.5
t180 -128t224 -47q119 0 222.5 47t180.5 128t120 187.5t43 223.5q0 119 -43 225.5t-119 186.5t-179.5 127t-224.5 47t-224 -46t-180 -126t-121 -186.5t-44 -225.5zM373 678q0 94 36.5 173t99 136t144.5 90t174 33q18 0 50 -4t65 -10t61.5 -16.5t43.5 -22.5v-223
q-49 51 -98.5 79.5t-121.5 28.5q-55 0 -102 -20.5t-82 -55.5t-54.5 -83t-19.5 -103t20.5 -102.5t55.5 -81t83 -53t103 -19.5q72 0 119 26.5t97 77.5v-223q-53 -23 -107.5 -37t-112.5 -14q-90 0 -172 30.5t-145.5 87t-100 134.5t-36.5 172z" />
    <glyph glyph-name="ordfeminine" unicode="&#xaa;" horiz-adv-x="694" 
d="M43 1085q0 55 18.5 106.5t52 89.5t81 61.5t106.5 23.5q55 0 98 -22.5t78 -63.5v70h148v-531h-148v70q-35 -45 -76 -66.5t-98 -21.5q-59 0 -107.5 23.5t-82 62.5t-52 90t-18.5 108zM63 629v112h560v-112h-560zM197 1083q0 -61 43 -104t104 -43t104.5 43t43.5 104
t-43 104.5t-105 43.5q-61 0 -104 -43t-43 -105z" />
    <glyph glyph-name="guillemotleft" unicode="&#xab;" horiz-adv-x="1050" 
d="M82 444l319 441l144 -103l-248 -338l250 -329l-146 -105zM483 444l320 441l143 -103l-248 -338l250 -329l-145 -105z" />
    <glyph glyph-name="logicalnot" unicode="&#xac;" 
d="M68 322v225h888v-547h-249v322h-639z" />
    <glyph glyph-name="uni00AD" unicode="&#xad;" horiz-adv-x="460" 
d="M0 367v208h461v-208h-461z" />
    <glyph glyph-name="registered" unicode="&#xae;" horiz-adv-x="1073" 
d="M82 1141q0 94 36 177t97 144.5t144 97t178 35.5q94 0 177 -35.5t144.5 -97t97 -144.5t35.5 -177t-35.5 -177t-97 -144.5t-144.5 -97.5t-177 -36t-177.5 36t-144.5 97.5t-97 144.5t-36 177zM176 1141q0 -74 28.5 -139.5t78 -114.5t115 -78t139.5 -29t139 29t114.5 78
t78 114.5t28.5 139.5t-28.5 139.5t-78 114.5t-115 77.5t-138.5 28.5q-74 0 -139.5 -28.5t-115 -77.5t-78 -115t-28.5 -139zM383 915v451h139q70 0 123 -29.5t53 -109.5q0 -51 -29.5 -84t-76.5 -43l139 -185h-121l-125 166v-166h-102zM485 1165h19q29 0 56.5 11.5t27.5 46.5
q0 37 -26.5 46t-55.5 9h-21v-113z" />
    <glyph glyph-name="macron" unicode="&#xaf;" 
d="M139 1128v164h746v-164h-746z" />
    <glyph glyph-name="degree" unicode="&#xb0;" 
d="M201 1049q0 63 24.5 119.5t67.5 97.5t99.5 64.5t119.5 23.5t119.5 -23.5t99.5 -64.5t67.5 -97.5t24.5 -119.5q0 -66 -24.5 -121.5t-67.5 -97.5t-99.5 -65.5t-119.5 -23.5t-119.5 23.5t-99.5 65.5t-67.5 97.5t-24.5 121.5zM350 1049q0 -68 48 -114t114 -46t114 47t48 113
q0 68 -48 113.5t-114 45.5t-114 -46t-48 -113z" />
    <glyph glyph-name="plusminus" unicode="&#xb1;" 
d="M68 106v232h888v-232h-888zM68 727v229h319v320h250v-320h319v-229h-319v-319h-250v319h-319z" />
    <glyph glyph-name="uni00B2" unicode="&#xb2;" horiz-adv-x="792" 
d="M57 547l248 280q25 27 55.5 63t58 76t47 80.5t19.5 77.5q0 47 -33.5 83t-80.5 36q-63 0 -87 -44t-24 -97h-182q10 131 84 211t209 80q57 0 110.5 -19.5t92 -55.5t62 -85t23.5 -111q0 -86 -45 -157.5t-102 -130.5l-129 -138h283v-149h-609z" />
    <glyph glyph-name="uni00B3" unicode="&#xb3;" horiz-adv-x="792" 
d="M74 788h172q12 -119 131 -118q53 0 88 34.5t35 88.5q0 51 -34 86.5t-87 35.5q-10 0 -19.5 -1t-19.5 -1v129q6 -2 13 -2h14q49 0 77.5 27t28.5 78q0 41 -28.5 69.5t-69.5 28.5q-53 0 -77 -26.5t-30 -75.5h-162q16 119 83 183.5t190 64.5q51 0 97 -15.5t82 -44.5t56.5 -72
t20.5 -98t-19.5 -99t-66.5 -77q63 -29 90 -85t27 -122q0 -61 -25 -109.5t-67 -81t-95 -49t-110 -16.5q-59 0 -111.5 19.5t-92.5 54.5t-64.5 84t-26.5 110z" />
    <glyph glyph-name="acute" unicode="&#xb4;" 
d="M410 1124l243 310l181 -115l-308 -277z" />
    <glyph glyph-name="paragraph" unicode="&#xb6;" horiz-adv-x="1339" 
d="M53 1004q0 68 23.5 134t70.5 115q72 72 175.5 92.5t201.5 20.5h666v-192h-146v-1364h-210v1364h-177v-1364h-211v845h-26q-78 0 -145.5 25t-116.5 70t-77 109.5t-28 144.5z" />
    <glyph glyph-name="periodcentered" unicode="&#xb7;" horiz-adv-x="374" 
d="M0 586q0 78 55.5 132t132.5 54q78 0 132.5 -54t54.5 -132t-54.5 -133.5t-132.5 -55.5q-39 0 -73.5 14.5t-60 40t-40 60.5t-14.5 74z" />
    <glyph glyph-name="cedilla" unicode="&#xb8;" 
d="M358 -365l203 273l160 -90l-238 -254z" />
    <glyph glyph-name="uni00B9" unicode="&#xb9;" horiz-adv-x="792" 
d="M199 1217v149h290v-819h-172v670h-118z" />
    <glyph glyph-name="ordmasculine" unicode="&#xba;" horiz-adv-x="690" 
d="M43 1083q0 66 23.5 118t64.5 89t96.5 56.5t118.5 19.5t118.5 -19.5t95.5 -56.5t63.5 -89t23.5 -118t-23.5 -118t-64.5 -88.5t-95 -56t-118 -19.5q-63 0 -118.5 19.5t-96.5 56t-64.5 89t-23.5 117.5zM74 629v112h559v-112h-559zM197 1083q0 -59 44 -103t103 -44
q61 0 105.5 43t44.5 104t-44 104.5t-106 43.5q-59 0 -103 -44t-44 -104z" />
    <glyph glyph-name="guillemotright" unicode="&#xbb;" horiz-adv-x="1050" 
d="M102 115l252 329l-250 338l144 103l319 -441l-319 -434zM504 115l250 329l-248 338l143 103l320 -441l-320 -434z" />
    <glyph glyph-name="onequarter" unicode="&#xbc;" horiz-adv-x="1861" 
d="M188 1217v149h291v-819h-172v670h-119zM459 6l813 1405l108 -61l-813 -1407zM1139 141v76l405 617h152v-551h96v-142h-96v-141h-160v141h-397zM1348 283h188v290z" />
    <glyph glyph-name="onehalf" unicode="&#xbd;" horiz-adv-x="1826" 
d="M188 1217v149h291v-819h-172v670h-119zM459 6l813 1405l108 -61l-813 -1407zM1106 0l248 281q23 27 54.5 62.5t59 75.5t47 81t19.5 75q0 47 -34 83t-81 36q-61 0 -85.5 -43t-24.5 -96h-183q10 129 84 209t209 80q57 0 109.5 -19.5t92.5 -55.5t63.5 -85t23.5 -109
q0 -88 -45 -158.5t-102 -129.5l-129 -137h282v-150h-608z" />
    <glyph glyph-name="threequarters" unicode="&#xbe;" horiz-adv-x="1855" 
d="M61 788h172q12 -119 132 -118q53 0 87.5 34.5t34.5 88.5q0 51 -33.5 86.5t-86.5 35.5q-10 0 -19.5 -1t-19.5 -1v129q6 -2 13 -2h13q49 0 78 27t29 78q0 41 -29 69.5t-70 28.5q-53 0 -76.5 -26.5t-29.5 -75.5h-162q16 119 83 183.5t190 64.5q51 0 97 -15.5t82 -44.5
t56.5 -72t20.5 -98t-19.5 -99t-66.5 -77q63 -29 89.5 -85t26.5 -122q0 -61 -24.5 -109.5t-66.5 -81t-95 -49t-111 -16.5q-59 0 -111 19.5t-92 54.5t-65 84t-27 110zM453 6l813 1405l108 -61l-813 -1407zM1133 141v76l405 617h152v-551h96v-142h-96v-141h-160v141h-397z
M1341 283h189v290z" />
    <glyph glyph-name="questiondown" unicode="&#xbf;" horiz-adv-x="1001" 
d="M82 29q0 78 25.5 140t71.5 109.5t107.5 80t133.5 49.5v174h254v-361q-16 4 -34.5 6t-37.5 2q-47 0 -93 -12t-83 -37.5t-59.5 -64.5t-22.5 -90q0 -68 45 -113t113 -45q61 0 103 42t42 103v25h264v-27q0 -84 -35.5 -151.5t-95 -114.5t-134.5 -72.5t-152 -25.5
q-82 0 -157 27.5t-131 78.5t-90 121t-34 156zM383 905q0 66 47 113t113 47t114 -46t48 -114t-47.5 -115t-114.5 -47q-68 0 -114 48.5t-46 113.5z" />
    <glyph glyph-name="Agrave" unicode="&#xc0;" horiz-adv-x="1372" 
d="M2 0l592 1395h201l575 -1395h-287l-116 289h-557l-125 -289h-283zM365 1724l170 140l282 -273l-110 -100zM494 504h391l-193 491z" />
    <glyph glyph-name="Aacute" unicode="&#xc1;" horiz-adv-x="1372" 
d="M2 0l592 1395h201l575 -1395h-287l-116 289h-557l-125 -289h-283zM494 504h391l-193 491zM584 1591l280 273l170 -140l-342 -233z" />
    <glyph glyph-name="Acircumflex" unicode="&#xc2;" horiz-adv-x="1372" 
d="M2 0l592 1395h201l575 -1395h-287l-116 289h-557l-125 -289h-283zM352 1622l346 283l353 -283l-129 -123l-224 189l-223 -189zM494 504h391l-193 491z" />
    <glyph glyph-name="Atilde" unicode="&#xc3;" horiz-adv-x="1372" 
d="M2 0l592 1395h201l575 -1395h-287l-116 289h-557l-125 -289h-283zM315 1520q6 43 21.5 89t42.5 84t65.5 61.5t90.5 23.5q39 0 77.5 -12.5t75.5 -28t72 -27.5t69 -12q37 0 54.5 23.5t31.5 52.5h144q-10 -47 -28.5 -93.5t-48.5 -83t-71 -59t-94 -22.5q-37 0 -71.5 12
t-68.5 26.5t-69 26.5t-71 12q-35 0 -53.5 -22.5t-28.5 -50.5h-140zM494 504h391l-193 491z" />
    <glyph glyph-name="Adieresis" unicode="&#xc4;" horiz-adv-x="1372" 
d="M2 0l592 1395h201l575 -1395h-287l-116 289h-557l-125 -289h-283zM309 1663q0 61 44 103t104 42q59 0 103 -42t44 -103t-43 -104t-104 -43q-59 0 -103.5 44t-44.5 103zM494 504h391l-193 491zM768 1663q0 61 44 103t103 42t103.5 -42t44.5 -103t-43 -104t-105 -43
q-59 0 -103 44t-44 103z" />
    <glyph glyph-name="Aring" unicode="&#xc5;" horiz-adv-x="1372" 
d="M2 0l592 1395h201l575 -1395h-287l-116 289h-557l-125 -289h-283zM494 504h391l-193 491zM496 1690q0 39 15 73.5t41 60t60.5 40t73.5 14.5t74 -14.5t60.5 -40t41 -60t15.5 -73.5t-15.5 -74t-41 -60.5t-60.5 -41t-74 -15.5t-73.5 15.5t-60.5 41t-41 60.5t-15 74z
M608 1690q0 -33 22.5 -55.5t55.5 -22.5t55.5 22.5t22.5 55.5t-22.5 55t-55.5 22t-55.5 -22.5t-22.5 -54.5z" />
    <glyph glyph-name="AE" unicode="&#xc6;" horiz-adv-x="1884" 
d="M14 0l588 1366h721l90 -231h-502l123 -306h494l94 -229h-496l150 -369h504l90 -231h-780l-119 289h-555l-119 -289h-283zM502 504h389l-189 465z" />
    <glyph glyph-name="Ccedilla" unicode="&#xc7;" horiz-adv-x="1232" 
d="M88 674q0 152 56.5 282.5t154.5 228t230.5 153t283.5 55.5q90 0 171 -19.5t161 -60.5v-316q-70 72 -152 112t-184 40q-98 0 -180 -38t-141.5 -102.5t-92.5 -150.5t-33 -180q0 -96 33 -180t92.5 -148.5t141.5 -101.5t180 -37q100 0 183 40t153 111v-313
q-86 -37 -165 -58.5t-173 -21.5q-147 0 -278.5 54.5t-228.5 149.5t-154.5 223t-57.5 278zM537 -371l206 283l172 -102l-247 -265z" />
    <glyph glyph-name="Egrave" unicode="&#xc8;" horiz-adv-x="1013" 
d="M158 0v1366h755v-231h-489v-304h471v-231h-471v-369h489v-231h-755zM199 1724l170 140l280 -273l-108 -100z" />
    <glyph glyph-name="Eacute" unicode="&#xc9;" horiz-adv-x="1013" 
d="M158 0v1366h755v-231h-489v-304h471v-231h-471v-369h489v-231h-755zM418 1591l280 273l170 -140l-342 -233z" />
    <glyph glyph-name="Ecircumflex" unicode="&#xca;" horiz-adv-x="1013" 
d="M158 0v1366h755v-231h-489v-304h471v-231h-471v-369h489v-231h-755zM186 1622l346 283l353 -283l-129 -123l-224 189l-223 -189z" />
    <glyph glyph-name="Edieresis" unicode="&#xcb;" horiz-adv-x="1013" 
d="M145 1663q0 61 44 103t104 42q59 0 103 -42t44 -103q0 -59 -44 -103t-103 -44q-61 0 -104.5 43t-43.5 104zM158 0v1366h755v-231h-489v-304h471v-231h-471v-369h489v-231h-755zM604 1663q0 61 44 103t104 42q59 0 103 -42t44 -103q0 -59 -44 -103t-103 -44
q-61 0 -104.5 43t-43.5 104z" />
    <glyph glyph-name="Igrave" unicode="&#xcc;" horiz-adv-x="579" 
d="M-18 1724l172 140l280 -273l-110 -100zM158 0v1366h266v-1366h-266z" />
    <glyph glyph-name="Iacute" unicode="&#xcd;" horiz-adv-x="579" 
d="M147 1591l281 273l170 -140l-342 -233zM158 0v1366h266v-1366h-266z" />
    <glyph glyph-name="Icircumflex" unicode="&#xce;" horiz-adv-x="579" 
d="M-8 1630l297 254l301 -254l-111 -110l-190 166l-191 -166zM158 0v1366h266v-1366h-266z" />
    <glyph glyph-name="Idieresis" unicode="&#xcf;" horiz-adv-x="579" 
d="M8 1671q0 51 36 85t85 34t84 -35t35 -84t-34 -85t-85 -36q-49 0 -85 36t-36 85zM158 0v1366h266v-1366h-266zM332 1671q0 51 35.5 85t85.5 34q49 0 83.5 -35t34.5 -84t-34.5 -85t-83.5 -36t-85 36t-36 85z" />
    <glyph glyph-name="Eth" unicode="&#xd0;" horiz-adv-x="1370" 
d="M43 580v204h115v582h391q135 0 259 -35t230 -123q119 -98 181.5 -236t62.5 -292q0 -150 -65.5 -288t-182.5 -234q-109 -90 -228.5 -124t-258.5 -34h-389v580h-115zM424 231h72q98 0 193 20.5t171 88.5q72 66 110 156t38 186q0 98 -38 187t-110 155q-78 72 -170 91.5
t-194 19.5h-72v-351h291v-204h-291v-349z" />
    <glyph glyph-name="Ntilde" unicode="&#xd1;" horiz-adv-x="1595" 
d="M158 0v1397h184l832 -951v920h266v-1393h-185l-831 951v-924h-266zM428 1520q6 43 21.5 89t42 84t65.5 61.5t90 23.5q39 0 78 -12.5t76 -28t71.5 -27.5t69.5 -12q37 0 54.5 23.5t31.5 52.5h143q-10 -47 -28.5 -93.5t-48 -83t-70.5 -59t-94 -22.5q-37 0 -72 12t-68.5 26.5
t-68.5 26.5t-72 12q-35 0 -53 -22.5t-29 -50.5h-139z" />
    <glyph glyph-name="Ograve" unicode="&#xd2;" horiz-adv-x="1636" 
d="M88 680q0 154 57.5 285t156.5 227t233.5 150.5t285.5 54.5q150 0 283 -54.5t231.5 -150.5t155.5 -227t57 -283q0 -154 -57 -284t-157.5 -225t-233.5 -149.5t-283 -54.5q-152 0 -285 53.5t-231 148.5t-155.5 225t-57.5 284zM362 684q0 -94 35 -180t96.5 -150.5
t144.5 -103.5t179 -39q98 0 181 38t144.5 103.5t96.5 150.5t35 181q0 94 -35 180t-96.5 149.5t-145.5 101.5t-180 38t-179 -38t-144.5 -102.5t-96.5 -149.5t-35 -179zM510 1724l170 140l281 -273l-109 -100z" />
    <glyph glyph-name="Oacute" unicode="&#xd3;" horiz-adv-x="1636" 
d="M88 680q0 154 57.5 285t156.5 227t233.5 150.5t285.5 54.5q150 0 283 -54.5t231.5 -150.5t155.5 -227t57 -283q0 -154 -57 -284t-157.5 -225t-233.5 -149.5t-283 -54.5q-152 0 -285 53.5t-231 148.5t-155.5 225t-57.5 284zM362 684q0 -94 35 -180t96.5 -150.5
t144.5 -103.5t179 -39q98 0 181 38t144.5 103.5t96.5 150.5t35 181q0 94 -35 180t-96.5 149.5t-145.5 101.5t-180 38t-179 -38t-144.5 -102.5t-96.5 -149.5t-35 -179zM674 1591l282 273l170 -140l-342 -233z" />
    <glyph glyph-name="Ocircumflex" unicode="&#xd4;" horiz-adv-x="1636" 
d="M88 680q0 154 57.5 285t156.5 227t233.5 150.5t285.5 54.5q150 0 283 -54.5t231.5 -150.5t155.5 -227t57 -283q0 -154 -57 -284t-157.5 -225t-233.5 -149.5t-283 -54.5q-152 0 -285 53.5t-231 148.5t-155.5 225t-57.5 284zM362 684q0 -94 35 -180t96.5 -150.5
t144.5 -103.5t179 -39q98 0 181 38t144.5 103.5t96.5 150.5t35 181q0 94 -35 180t-96.5 149.5t-145.5 101.5t-180 38t-179 -38t-144.5 -102.5t-96.5 -149.5t-35 -179zM469 1622l346 283l352 -283l-129 -123l-223 189l-223 -189z" />
    <glyph glyph-name="Otilde" unicode="&#xd5;" horiz-adv-x="1636" 
d="M88 680q0 154 57.5 285t156.5 227t233.5 150.5t285.5 54.5q150 0 283 -54.5t231.5 -150.5t155.5 -227t57 -283q0 -154 -57 -284t-157.5 -225t-233.5 -149.5t-283 -54.5q-152 0 -285 53.5t-231 148.5t-155.5 225t-57.5 284zM362 684q0 -94 35 -180t96.5 -150.5
t144.5 -103.5t179 -39q98 0 181 38t144.5 103.5t96.5 150.5t35 181q0 94 -35 180t-96.5 149.5t-145.5 101.5t-180 38t-179 -38t-144.5 -102.5t-96.5 -149.5t-35 -179zM446 1520q6 43 21.5 89t42.5 84t65.5 61.5t90.5 23.5q39 0 77.5 -12.5t75.5 -28t72 -27.5t70 -12
q37 0 54 23.5t32 52.5h143q-10 -47 -28.5 -93.5t-48.5 -83t-71 -59t-94 -22.5q-37 0 -71.5 12t-68.5 26.5t-68.5 26.5t-71.5 12q-35 0 -53.5 -22.5t-28.5 -50.5h-140z" />
    <glyph glyph-name="Odieresis" unicode="&#xd6;" horiz-adv-x="1636" 
d="M88 680q0 154 57.5 285t156.5 227t233.5 150.5t285.5 54.5q150 0 283 -54.5t231.5 -150.5t155.5 -227t57 -283q0 -154 -57 -284t-157.5 -225t-233.5 -149.5t-283 -54.5q-152 0 -285 53.5t-231 148.5t-155.5 225t-57.5 284zM362 684q0 -94 35 -180t96.5 -150.5
t144.5 -103.5t179 -39q98 0 181 38t144.5 103.5t96.5 150.5t35 181q0 94 -35 180t-96.5 149.5t-145.5 101.5t-180 38t-179 -38t-144.5 -102.5t-96.5 -149.5t-35 -179zM440 1663q0 59 44 102t104 43q59 0 103 -42t44 -103t-43 -104t-104 -43q-59 0 -103.5 44t-44.5 103z
M899 1663q0 59 44 102t104 43q59 0 103 -42t44 -103t-43 -104t-104 -43q-59 0 -103.5 44t-44.5 103z" />
    <glyph glyph-name="multiply" unicode="&#xd7;" 
d="M117 461l233 233l-233 234l162 162l233 -234l233 234l162 -162l-233 -234l233 -233l-162 -162l-233 233l-233 -233z" />
    <glyph glyph-name="Oslash" unicode="&#xd8;" horiz-adv-x="1648" 
d="M94 680q0 154 57.5 286t157 227t233.5 149.5t285 54.5q201 0 373 -99l156 185l164 -137l-152 -183q184 -207 184 -481q0 -154 -57 -284t-157.5 -225t-233.5 -149.5t-283 -54.5q-201 0 -375 97l-155 -185l-164 137l152 181q-184 207 -185 481zM369 684q0 -74 21.5 -144.5
t62.5 -131.5l581 692q-53 27 -102 40t-109 13q-96 0 -179 -38t-144.5 -102.5t-96 -149.5t-34.5 -179zM612 264q51 -27 101.5 -40t107.5 -13q96 0 180 38t145.5 102.5t96.5 149.5t35 181q0 74 -20.5 143.5t-63.5 130.5z" />
    <glyph glyph-name="Ugrave" unicode="&#xd9;" horiz-adv-x="1411" 
d="M158 530v836h266v-782q0 -66 4 -126.5t39 -119.5q37 -63 102.5 -95t137.5 -32t136 32.5t103 94.5q35 55 39 118.5t4 127.5v782h266v-836q0 -98 -19 -191t-81 -173q-39 -51 -91 -88t-110.5 -61.5t-122 -36t-124.5 -11.5q-125 0 -248 46t-201 151q-59 80 -79.5 173
t-20.5 191zM397 1724l172 140l281 -273l-111 -100z" />
    <glyph glyph-name="Uacute" unicode="&#xda;" horiz-adv-x="1411" 
d="M158 530v836h266v-782q0 -66 4 -126.5t39 -119.5q37 -63 102.5 -95t137.5 -32t136 32.5t103 94.5q35 55 39 118.5t4 127.5v782h266v-836q0 -98 -19 -191t-81 -173q-39 -51 -91 -88t-110.5 -61.5t-122 -36t-124.5 -11.5q-125 0 -248 46t-201 151q-59 80 -79.5 173
t-20.5 191zM563 1591l281 273l170 -140l-342 -233z" />
    <glyph glyph-name="Ucircumflex" unicode="&#xdb;" horiz-adv-x="1411" 
d="M158 530v836h266v-782q0 -66 4 -126.5t39 -119.5q37 -63 102.5 -95t137.5 -32t136 32.5t103 94.5q35 55 39 118.5t4 127.5v782h266v-836q0 -98 -19 -191t-81 -173q-39 -51 -91 -88t-110.5 -61.5t-122 -36t-124.5 -11.5q-125 0 -248 46t-201 151q-59 80 -79.5 173
t-20.5 191zM358 1622l347 283l352 -283l-129 -123l-223 189l-224 -189z" />
    <glyph glyph-name="Udieresis" unicode="&#xdc;" horiz-adv-x="1411" 
d="M158 530v836h266v-782q0 -66 4 -126.5t39 -119.5q37 -63 102.5 -95t137.5 -32t136 32.5t103 94.5q35 55 39 118.5t4 127.5v782h266v-836q0 -98 -19 -191t-81 -173q-39 -51 -91 -88t-110.5 -61.5t-122 -36t-124.5 -11.5q-125 0 -248 46t-201 151q-59 80 -79.5 173
t-20.5 191zM330 1663q0 61 44 103t103 42t103.5 -42t44.5 -103q0 -59 -44 -103t-104 -44q-61 0 -104 43t-43 104zM788 1663q0 61 44.5 103t103.5 42t103 -42t44 -103q0 -59 -44 -103t-103 -44q-61 0 -104.5 43t-43.5 104z" />
    <glyph glyph-name="Yacute" unicode="&#xdd;" horiz-adv-x="1193" 
d="M-10 1366h315l295 -475l289 475h317l-479 -739v-627h-266v627zM455 1591l280 273l170 -140l-342 -233z" />
    <glyph glyph-name="Thorn" unicode="&#xde;" horiz-adv-x="1099" 
d="M158 0v1366h266v-192h108q84 0 169 -10.5t159 -51.5q100 -57 149.5 -156.5t49.5 -212.5q0 -111 -47 -214t-144 -162q-49 -31 -103 -44.5t-112.5 -17.5t-116 -2t-112.5 2v-305h-266zM424 553h117q96 0 158.5 42t62.5 148q0 55 -19.5 91t-52.5 56.5t-77 29t-91 8.5h-98
v-375z" />
    <glyph glyph-name="germandbls" unicode="&#xdf;" horiz-adv-x="1159" 
d="M119 0v1114q0 211 110.5 328t325.5 117q90 0 168 -28t134 -79t89 -126t33 -167q0 -100 -44 -167.5t-124 -123.5q47 -20 85 -41.5t73 -56.5q61 -61 89.5 -144t28.5 -169q0 -102 -37.5 -199.5t-115.5 -165.5q-88 -78 -191.5 -99.5t-216.5 -21.5v224q61 2 117.5 20t97.5 52
t65.5 85t24.5 119q0 72 -32.5 132.5t-96.5 96.5q-41 25 -85 32t-91 11v215q92 4 152.5 50.5t60.5 144.5q0 82 -53 131t-133 49q-72 0 -111 -30.5t-55 -77.5t-18 -104.5t-2 -110.5v-1010h-248z" />
    <glyph glyph-name="agrave" unicode="&#xe0;" horiz-adv-x="1165" 
d="M72 446q0 92 30.5 177.5t87 150t135 103t177.5 38.5q92 0 163.5 -35.5t131.5 -105.5v113h250v-887h-250v117q-51 -72 -126 -109t-163 -37q-100 0 -181 39t-137.5 103.5t-87 150.5t-30.5 182zM233 1319l181 115l243 -310l-116 -82zM328 444q0 -51 19.5 -97t53 -80
t78.5 -53t96 -19t96.5 19t79 53t53 80t19.5 97t-19.5 96.5t-53 79t-78.5 53t-97 19.5q-51 0 -96 -19.5t-78.5 -53t-53 -78.5t-19.5 -97z" />
    <glyph glyph-name="aacute" unicode="&#xe1;" horiz-adv-x="1165" 
d="M72 446q0 92 30.5 177.5t87 150t135 103t177.5 38.5q92 0 163.5 -35.5t131.5 -105.5v113h250v-887h-250v117q-51 -72 -126 -109t-163 -37q-100 0 -181 39t-137.5 103.5t-87 150.5t-30.5 182zM328 444q0 -51 19.5 -97t53 -80t78.5 -53t96 -19t96.5 19t79 53t53 80t19.5 97
t-19.5 96.5t-53 79t-78.5 53t-97 19.5q-51 0 -96 -19.5t-78.5 -53t-53 -78.5t-19.5 -97zM479 1124l244 310l180 -115l-307 -277z" />
    <glyph glyph-name="acircumflex" unicode="&#xe2;" horiz-adv-x="1165" 
d="M72 446q0 92 30.5 177.5t87 150t135 103t177.5 38.5q92 0 163.5 -35.5t131.5 -105.5v113h250v-887h-250v117q-51 -72 -126 -109t-163 -37q-100 0 -181 39t-137.5 103.5t-87 150.5t-30.5 182zM233 1165l347 283l352 -283l-129 -123l-223 189l-224 -189zM328 444
q0 -51 19.5 -97t53 -80t78.5 -53t96 -19t96.5 19t79 53t53 80t19.5 97t-19.5 96.5t-53 79t-78.5 53t-97 19.5q-51 0 -96 -19.5t-78.5 -53t-53 -78.5t-19.5 -97z" />
    <glyph glyph-name="atilde" unicode="&#xe3;" horiz-adv-x="1165" 
d="M72 446q0 92 30.5 177.5t87 150t135 103t177.5 38.5q92 0 163.5 -35.5t131.5 -105.5v113h250v-887h-250v117q-51 -72 -126 -109t-163 -37q-100 0 -181 39t-137.5 103.5t-87 150.5t-30.5 182zM211 1071q6 43 21.5 89t42 84t65.5 61.5t90 23.5q39 0 78 -12t76 -27.5
t71.5 -28t69.5 -12.5q37 0 54.5 23.5t31.5 52.5h143q-10 -47 -28.5 -93t-48 -83t-70.5 -59.5t-94 -22.5q-37 0 -72 12.5t-68.5 26.5t-68.5 26.5t-72 12.5q-35 0 -53.5 -22.5t-28.5 -51.5h-139zM328 444q0 -51 19.5 -97t53 -80t78.5 -53t96 -19t96.5 19t79 53t53 80t19.5 97
t-19.5 96.5t-53 79t-78.5 53t-97 19.5q-51 0 -96 -19.5t-78.5 -53t-53 -78.5t-19.5 -97z" />
    <glyph glyph-name="adieresis" unicode="&#xe4;" horiz-adv-x="1165" 
d="M72 446q0 92 30.5 177.5t87 150t135 103t177.5 38.5q92 0 163.5 -35.5t131.5 -105.5v113h250v-887h-250v117q-51 -72 -126 -109t-163 -37q-100 0 -181 39t-137.5 103.5t-87 150.5t-30.5 182zM221 1200q0 59 44 103.5t104 44.5q61 0 104 -43.5t43 -104.5t-43 -104
t-104 -43q-59 0 -103.5 44t-44.5 103zM328 444q0 -51 19.5 -97t53 -80t78.5 -53t96 -19t96.5 19t79 53t53 80t19.5 97t-19.5 96.5t-53 79t-78.5 53t-97 19.5q-51 0 -96 -19.5t-78.5 -53t-53 -78.5t-19.5 -97zM647 1200q0 61 43 104.5t105 43.5q61 0 104 -43.5t43 -104.5
t-43 -104t-104 -43q-59 0 -103.5 44t-44.5 103z" />
    <glyph glyph-name="aring" unicode="&#xe5;" horiz-adv-x="1165" 
d="M72 446q0 92 30.5 177.5t87 150t135 103t177.5 38.5q92 0 163.5 -35.5t131.5 -105.5v113h250v-887h-250v117q-51 -72 -126 -109t-163 -37q-100 0 -181 39t-137.5 103.5t-87 150.5t-30.5 182zM328 444q0 -51 19.5 -97t53 -80t78.5 -53t96 -19t96.5 19t79 53t53 80t19.5 97
t-19.5 96.5t-53 79t-78.5 53t-97 19.5q-51 0 -96 -19.5t-78.5 -53t-53 -78.5t-19.5 -97zM356 1227q0 76 54.5 130t130.5 54q78 0 131 -53t53 -131t-53.5 -131.5t-130.5 -53.5q-76 0 -130.5 54.5t-54.5 130.5zM469 1227q0 -29 21.5 -50.5t50.5 -21.5t50 21.5t21 50.5
q0 31 -20.5 51t-50.5 20q-29 0 -50.5 -21.5t-21.5 -49.5z" />
    <glyph glyph-name="ae" unicode="&#xe6;" horiz-adv-x="1652" 
d="M72 262q0 76 30.5 132.5t80.5 91t114.5 52t132.5 17.5t126 -13.5t118 -47.5q2 10 2 21v22q0 51 -18.5 85.5t-49 57t-71.5 33t-86 10.5q-61 0 -123 -10.5t-121 -28.5v199q61 16 124.5 24t127.5 8q102 0 187 -29.5t145 -119.5q63 80 150 114.5t185 34.5q111 0 195 -34.5
t142.5 -98t88 -151.5t29.5 -195v-33h-668q6 -104 61.5 -171.5t166.5 -67.5q66 0 119 31.5t81 91.5l232 -39q-27 -68 -72 -119t-102.5 -87t-125 -53.5t-136.5 -17.5q-106 0 -195.5 39t-150.5 129q-68 -90 -158 -129t-201 -39q-68 0 -132 17.5t-114.5 53.5t-82 90t-31.5 130z
M311 270q0 -35 17.5 -57.5t43 -36.5t56.5 -20t59 -6q27 0 60 7t60.5 22.5t47 38.5t19.5 56q0 31 -20.5 51.5t-50.5 33t-62.5 16.5t-57.5 4t-55.5 -5t-56 -17.5t-43 -33t-17.5 -53.5zM922 563h419q-20 84 -69 130t-139 46t-139.5 -47t-71.5 -129z" />
    <glyph glyph-name="ccedilla" unicode="&#xe7;" horiz-adv-x="854" 
d="M72 440q0 102 37.5 189.5t104.5 151t155 99t190 35.5q59 0 115.5 -12t109.5 -41v-246q-47 37 -94 56.5t-106 19.5q-53 0 -100.5 -18.5t-82 -51t-54 -77.5t-19.5 -101q0 -55 19.5 -100t54 -79t81.5 -52t101 -18q59 0 107 19t93 56v-243q-57 -29 -111.5 -42.5t-117.5 -13.5
q-100 0 -188 35t-154 97.5t-103.5 148.5t-37.5 188zM301 -365l203 273l160 -90l-238 -254z" />
    <glyph glyph-name="egrave" unicode="&#xe8;" horiz-adv-x="1060" 
d="M72 444q0 106 32.5 193.5t93 149t146.5 95t193 33.5q111 0 194.5 -34.5t141 -98t87 -151.5t29.5 -195v-33h-663q4 -104 55 -170.5t162 -66.5q72 0 122 29.5t89 89.5l229 -37q-59 -143 -172 -210t-264 -67q-109 0 -196 34t-149.5 95.5t-96 148.5t-33.5 195zM209 1319
l180 115l244 -310l-117 -82zM334 561h420q-18 84 -71.5 131t-141.5 47q-86 0 -138.5 -48t-68.5 -130z" />
    <glyph glyph-name="eacute" unicode="&#xe9;" horiz-adv-x="1060" 
d="M72 444q0 106 32.5 193.5t93 149t146.5 95t193 33.5q111 0 194.5 -34.5t141 -98t87 -151.5t29.5 -195v-33h-663q4 -104 55 -170.5t162 -66.5q72 0 122 29.5t89 89.5l229 -37q-59 -143 -172 -210t-264 -67q-109 0 -196 34t-149.5 95.5t-96 148.5t-33.5 195zM334 561h420
q-18 84 -71.5 131t-141.5 47q-86 0 -138.5 -48t-68.5 -130zM428 1124l244 310l180 -115l-307 -277z" />
    <glyph glyph-name="ecircumflex" unicode="&#xea;" horiz-adv-x="1060" 
d="M72 444q0 106 32.5 193.5t93 149t146.5 95t193 33.5q111 0 194.5 -34.5t141 -98t87 -151.5t29.5 -195v-33h-663q4 -104 55 -170.5t162 -66.5q72 0 122 29.5t89 89.5l229 -37q-59 -143 -172 -210t-264 -67q-109 0 -196 34t-149.5 95.5t-96 148.5t-33.5 195zM182 1165
l346 283l353 -283l-129 -123l-224 189l-223 -189zM334 561h420q-18 84 -71.5 131t-141.5 47q-86 0 -138.5 -48t-68.5 -130z" />
    <glyph glyph-name="edieresis" unicode="&#xeb;" horiz-adv-x="1060" 
d="M72 444q0 106 32.5 193.5t93 149t146.5 95t193 33.5q111 0 194.5 -34.5t141 -98t87 -151.5t29.5 -195v-33h-663q4 -104 55 -170.5t162 -66.5q72 0 122 29.5t89 89.5l229 -37q-59 -143 -172 -210t-264 -67q-109 0 -196 34t-149.5 95.5t-96 148.5t-33.5 195zM170 1200
q0 59 44 103.5t103 44.5q61 0 104.5 -43.5t43.5 -104.5t-43 -104t-105 -43q-59 0 -103 44t-44 103zM334 561h420q-18 84 -71.5 131t-141.5 47q-86 0 -138.5 -48t-68.5 -130zM596 1200q0 61 43 104.5t104 43.5t104.5 -43.5t43.5 -104.5t-43 -104t-105 -43q-59 0 -103 44
t-44 103z" />
    <glyph glyph-name="igrave" unicode="&#xec;" horiz-adv-x="479" 
d="M0 1370l205 66l155 -363l-135 -47zM117 0v889h248v-889h-248z" />
    <glyph glyph-name="iacute" unicode="&#xed;" horiz-adv-x="479" 
d="M117 0v889h248v-889h-248zM119 1073l155 363l205 -66l-225 -344z" />
    <glyph glyph-name="icircumflex" unicode="&#xee;" horiz-adv-x="479" 
d="M-14 1174l252 253l258 -253l-103 -101l-155 160l-154 -160zM117 0v889h248v-889h-248z" />
    <glyph glyph-name="idieresis" unicode="&#xef;" horiz-adv-x="479" 
d="M-2 1200q0 45 30.5 76t75.5 31t77 -31t32 -76t-31.5 -75.5t-77.5 -30.5q-45 0 -75.5 30.5t-30.5 75.5zM117 0v889h248v-889h-248zM268 1200q0 45 31 76t76 31t76.5 -31t31.5 -76t-31.5 -75.5t-76.5 -30.5q-43 0 -75 31.5t-32 74.5z" />
    <glyph glyph-name="eth" unicode="&#xf0;" horiz-adv-x="1157" 
d="M72 449q0 100 44 196t122 160q76 61 168 85.5t188 24.5h17t18 -2q-70 131 -160 236l-190 -96l-80 164l147 75q-41 33 -86 53.5t-92 43.5l74 147q72 -27 145.5 -65.5t132.5 -86.5l232 115l84 -168l-152 -78q82 -76 154.5 -166t128 -191t87 -211.5t31.5 -225.5
q0 -113 -36.5 -203t-102 -153.5t-158 -97.5t-202.5 -34q-109 0 -202 33t-162.5 94.5t-109.5 149.5t-40 201zM328 442q0 -51 20.5 -96t54 -79t79.5 -53t98 -19q51 0 97 19t80 53t53 79t19 96q0 53 -19 98.5t-53 79t-79 53t-98 19.5q-51 0 -97.5 -19.5t-80 -53t-54 -79.5
t-20.5 -98z" />
    <glyph glyph-name="ntilde" unicode="&#xf1;" horiz-adv-x="1091" 
d="M119 0v887h248v-109q31 35 60.5 60.5t62 43t70.5 25.5t85 8q72 0 141.5 -25.5t116.5 -80.5t58.5 -115.5t11.5 -130.5v-563h-248v492q0 45 -6 83.5t-24.5 67.5t-51.5 45.5t-86 16.5q-57 0 -94 -19.5t-58.5 -53.5t-29.5 -79t-8 -94v-459h-248zM176 1071q6 43 21.5 89t42 84
t65.5 61.5t90 23.5q39 0 78 -12t76 -27.5t71.5 -28t69.5 -12.5q37 0 54.5 23.5t31.5 52.5h144q-10 -47 -29 -93t-48.5 -83t-70.5 -59.5t-94 -22.5q-37 0 -72 12.5t-68.5 26.5t-68.5 26.5t-72 12.5q-35 0 -53 -22.5t-29 -51.5h-139z" />
    <glyph glyph-name="ograve" unicode="&#xf2;" horiz-adv-x="1157" 
d="M72 442q0 111 40 199t108.5 149.5t161.5 93t200 31.5q104 0 196 -32.5t161 -93t107.5 -147.5t38.5 -198t-39.5 -197.5t-108.5 -148t-161 -94.5t-196 -33q-106 0 -198.5 32t-161 93.5t-108.5 148.5t-40 197zM256 1319l180 115l244 -310l-117 -82zM328 442q0 -51 20.5 -96
t54 -79t78.5 -53t97 -19q51 0 97 19t79.5 52t54 78t20.5 98q0 51 -19 97.5t-54 80t-81 53t-97 19.5t-97.5 -19.5t-80 -53t-53 -79.5t-19.5 -98z" />
    <glyph glyph-name="oacute" unicode="&#xf3;" horiz-adv-x="1157" 
d="M72 442q0 111 40 199t108.5 149.5t161.5 93t200 31.5q104 0 196 -32.5t161 -93t107.5 -147.5t38.5 -198t-39.5 -197.5t-108.5 -148t-161 -94.5t-196 -33q-106 0 -198.5 32t-161 93.5t-108.5 148.5t-40 197zM328 442q0 -51 20.5 -96t54 -79t78.5 -53t97 -19q51 0 97 19
t79.5 52t54 78t20.5 98q0 51 -19 97.5t-54 80t-81 53t-97 19.5t-97.5 -19.5t-80 -53t-53 -79.5t-19.5 -98zM475 1124l244 310l180 -115l-307 -277z" />
    <glyph glyph-name="ocircumflex" unicode="&#xf4;" horiz-adv-x="1157" 
d="M72 442q0 111 40 199t108.5 149.5t161.5 93t200 31.5q104 0 196 -32.5t161 -93t107.5 -147.5t38.5 -198t-39.5 -197.5t-108.5 -148t-161 -94.5t-196 -33q-106 0 -198.5 32t-161 93.5t-108.5 148.5t-40 197zM229 1165l346 283l353 -283l-129 -123l-224 189l-223 -189z
M328 442q0 -51 20.5 -96t54 -79t78.5 -53t97 -19q51 0 97 19t79.5 52t54 78t20.5 98q0 51 -19 97.5t-54 80t-81 53t-97 19.5t-97.5 -19.5t-80 -53t-53 -79.5t-19.5 -98z" />
    <glyph glyph-name="otilde" unicode="&#xf5;" horiz-adv-x="1157" 
d="M72 442q0 111 40 199t108.5 149.5t161.5 93t200 31.5q104 0 196 -32.5t161 -93t107.5 -147.5t38.5 -198t-39.5 -197.5t-108.5 -148t-161 -94.5t-196 -33q-106 0 -198.5 32t-161 93.5t-108.5 148.5t-40 197zM207 1071q6 43 21.5 89t42 84t65.5 61.5t90 23.5q39 0 78 -12
t75.5 -27.5t71.5 -28t70 -12.5q37 0 54.5 23.5t31.5 52.5h143q-10 -47 -28.5 -93t-48 -83t-70.5 -59.5t-94 -22.5q-37 0 -72 12.5t-68.5 26.5t-68.5 26.5t-72 12.5q-35 0 -53.5 -22.5t-28.5 -51.5h-139zM328 442q0 -51 20.5 -96t54 -79t78.5 -53t97 -19q51 0 97 19t79.5 52
t54 78t20.5 98q0 51 -19 97.5t-54 80t-81 53t-97 19.5t-97.5 -19.5t-80 -53t-53 -79.5t-19.5 -98z" />
    <glyph glyph-name="odieresis" unicode="&#xf6;" horiz-adv-x="1157" 
d="M72 442q0 111 40 199t108.5 149.5t161.5 93t200 31.5q104 0 196 -32.5t161 -93t107.5 -147.5t38.5 -198t-39.5 -197.5t-108.5 -148t-161 -94.5t-196 -33q-106 0 -198.5 32t-161 93.5t-108.5 148.5t-40 197zM217 1200q0 59 44 103.5t104 44.5q61 0 104 -43.5t43 -104.5
t-43 -104t-104 -43q-59 0 -103.5 44t-44.5 103zM328 442q0 -51 20.5 -96t54 -79t78.5 -53t97 -19q51 0 97 19t79.5 52t54 78t20.5 98q0 51 -19 97.5t-54 80t-81 53t-97 19.5t-97.5 -19.5t-80 -53t-53 -79.5t-19.5 -98zM643 1200q0 61 43 104.5t105 43.5q61 0 104 -43.5
t43 -104.5t-43 -104t-104 -43q-59 0 -103.5 44t-44.5 103z" />
    <glyph glyph-name="divide" unicode="&#xf7;" 
d="M68 580v229h888v-229h-888zM367 342q0 59 43 102t102 43t101 -43t42 -102t-42 -102t-101 -43t-102 43t-43 102zM367 1044q0 59 43 102.5t102 43.5t101 -43.5t42 -102.5t-42 -101t-101 -42t-102 42t-43 101z" />
    <glyph glyph-name="oslash" unicode="&#xf8;" horiz-adv-x="1159" 
d="M72 446q0 109 40 196t108.5 147.5t160.5 93t197 32.5q68 0 132 -13t124 -42l129 154l110 -94l-119 -144q68 -72 99.5 -154t31.5 -180q0 -109 -39.5 -195.5t-107.5 -148t-160 -94.5t-196 -33q-135 0 -258 56l-127 -154l-113 94l119 144q-70 72 -100.5 154.5t-30.5 180.5z
M328 442q0 -37 11 -69.5t30 -65.5l307 367q-47 18 -98 18t-97.5 -19.5t-80 -53t-53 -79.5t-19.5 -98zM481 215q51 -20 97 -20q51 0 97 19t81 53t54 79t19 98q0 37 -11 70t-30 66z" />
    <glyph glyph-name="ugrave" unicode="&#xf9;" horiz-adv-x="1095" 
d="M119 344v543h248v-502q0 -92 41 -147.5t139 -55.5t139 55.5t41 147.5v502h250v-543q0 -98 -33 -169t-91 -116t-136 -66.5t-170 -21.5t-170 21.5t-135.5 66.5t-90 116t-32.5 169zM225 1319l181 115l243 -310l-117 -82z" />
    <glyph glyph-name="uacute" unicode="&#xfa;" horiz-adv-x="1095" 
d="M119 344v543h248v-502q0 -92 41 -147.5t139 -55.5t139 55.5t41 147.5v502h250v-543q0 -98 -33 -169t-91 -116t-136 -66.5t-170 -21.5t-170 21.5t-135.5 66.5t-90 116t-32.5 169zM444 1124l244 310l180 -115l-307 -277z" />
    <glyph glyph-name="ucircumflex" unicode="&#xfb;" horiz-adv-x="1095" 
d="M119 344v543h248v-502q0 -92 41 -147.5t139 -55.5t139 55.5t41 147.5v502h250v-543q0 -98 -33 -169t-91 -116t-136 -66.5t-170 -21.5t-170 21.5t-135.5 66.5t-90 116t-32.5 169zM199 1165l346 283l352 -283l-129 -123l-223 189l-223 -189z" />
    <glyph glyph-name="udieresis" unicode="&#xfc;" horiz-adv-x="1095" 
d="M119 344v543h248v-502q0 -92 41 -147.5t139 -55.5t139 55.5t41 147.5v502h250v-543q0 -98 -33 -169t-91 -116t-136 -66.5t-170 -21.5t-170 21.5t-135.5 66.5t-90 116t-32.5 169zM186 1200q0 59 44 103.5t104 44.5q61 0 104 -43.5t43 -104.5t-43 -104t-104 -43
q-59 0 -103.5 44t-44.5 103zM612 1200q0 61 43 104.5t105 43.5q61 0 104 -43.5t43 -104.5t-43 -104t-104 -43q-59 0 -103.5 44t-44.5 103z" />
    <glyph glyph-name="yacute" unicode="&#xfd;" horiz-adv-x="1095" 
d="M2 887h289l266 -504l252 504h285l-717 -1360h-281l326 608zM418 1124l244 310l180 -115l-307 -277z" />
    <glyph glyph-name="thorn" unicode="&#xfe;" horiz-adv-x="1161" 
d="M119 -467v1960h256v-698q59 61 123.5 92t150.5 31q102 0 184 -38t138.5 -102.5t87.5 -152t31 -185.5q0 -94 -32 -178t-89.5 -148.5t-137 -102.5t-178.5 -38q-86 0 -152.5 30t-125.5 89v-559h-256zM365 442q0 -104 59 -174.5t168 -70.5q51 0 92 19.5t70.5 53t45 78.5
t15.5 94t-15.5 94.5t-44 79t-69.5 53t-94 19.5q-109 0 -168 -70.5t-59 -175.5z" />
    <glyph glyph-name="ydieresis" unicode="&#xff;" horiz-adv-x="1095" 
d="M2 887h289l266 -504l254 504h283l-717 -1362h-281l326 608zM188 1200q0 59 44 103.5t104 44.5q61 0 104 -43.5t43 -104.5t-43 -104t-104 -43q-59 0 -103.5 44t-44.5 103zM614 1200q0 61 43 104.5t105 43.5q61 0 104 -43.5t43 -104.5t-43 -104t-104 -43q-59 0 -103.5 44
t-44.5 103z" />
    <glyph glyph-name="OE" unicode="&#x152;" horiz-adv-x="2123" 
d="M88 682q0 147 56.5 277.5t152.5 227.5t226 153.5t278 56.5q147 0 264 -52.5t217 -162.5v184h743v-231h-479v-306h457v-229h-457v-369h479v-231h-743v184q-98 -111 -213 -163t-262 -52q-150 0 -281 55.5t-228 150.5t-153.5 225t-56.5 282zM362 684q0 -92 32 -178
t90.5 -151.5t138 -104.5t178.5 -39q98 0 181 38t144.5 102.5t95 149.5t33.5 181q0 94 -35.5 180t-97 150.5t-144.5 102.5t-179 38t-176 -39t-137.5 -103.5t-90.5 -149.5t-33 -177z" />
    <glyph glyph-name="oe" unicode="&#x153;" horiz-adv-x="1810" 
d="M70 442q0 106 38.5 193.5t106.5 150t158 96t192 33.5q111 0 204 -38.5t165 -122.5q66 88 153 124.5t193 36.5q121 0 208 -37.5t142.5 -105t82 -162t26.5 -207.5h-676q8 -100 63.5 -169.5t163.5 -69.5q137 0 207 123l229 -39q-57 -145 -173.5 -211t-266.5 -66
q-109 0 -198 40t-152 132q-80 -92 -167 -132t-208 -40q-104 0 -193 34t-156 95.5t-104.5 148.5t-37.5 193zM328 446q0 -51 17 -97t50 -79.5t77 -54t97 -20.5q51 0 95.5 20.5t77 55t50 79.5t17.5 96t-17.5 96.5t-50 78t-76.5 52t-96 19.5q-53 0 -97 -19.5t-75.5 -52
t-50 -77.5t-18.5 -97zM1073 563h426q-23 82 -73 129t-138 47q-90 0 -141 -46t-74 -130z" />
    <glyph glyph-name="Ydieresis" unicode="&#x178;" horiz-adv-x="1193" 
d="M-10 1366h313l295 -475l291 475h317l-481 -741v-625h-266v625zM221 1663q0 61 44 103t104 42q59 0 103 -42t44 -103q0 -59 -44 -103t-103 -44q-61 0 -104.5 43t-43.5 104zM680 1663q0 61 44 103t103 42t103.5 -42t44.5 -103q0 -59 -44 -103t-104 -44q-61 0 -104 43
t-43 104z" />
    <glyph glyph-name="circumflex" unicode="&#x2c6;" 
d="M164 1165l346 283l352 -283l-129 -123l-223 189l-223 -189z" />
    <glyph glyph-name="tilde" unicode="&#x2dc;" 
d="M141 1071q6 43 21.5 89t42 84t65.5 61.5t90 23.5q39 0 78 -12t76 -27.5t72 -28t69 -12.5q37 0 54.5 23.5t31.5 52.5h144q-10 -47 -28.5 -93t-48.5 -83t-71 -59.5t-94 -22.5q-37 0 -71.5 12.5t-68.5 26.5t-69 26.5t-72 12.5q-35 0 -53 -22.5t-28 -51.5h-140z" />
    <glyph glyph-name="uni2000" unicode="&#x2000;" horiz-adv-x="952" 
 />
    <glyph glyph-name="uni2001" unicode="&#x2001;" horiz-adv-x="1905" 
 />
    <glyph glyph-name="uni2002" unicode="&#x2002;" horiz-adv-x="952" 
 />
    <glyph glyph-name="uni2003" unicode="&#x2003;" horiz-adv-x="1905" 
 />
    <glyph glyph-name="uni2004" unicode="&#x2004;" horiz-adv-x="635" 
 />
    <glyph glyph-name="uni2005" unicode="&#x2005;" horiz-adv-x="476" 
 />
    <glyph glyph-name="uni2006" unicode="&#x2006;" horiz-adv-x="317" 
 />
    <glyph glyph-name="uni2007" unicode="&#x2007;" horiz-adv-x="317" 
 />
    <glyph glyph-name="uni2008" unicode="&#x2008;" horiz-adv-x="238" 
 />
    <glyph glyph-name="uni2009" unicode="&#x2009;" horiz-adv-x="381" 
 />
    <glyph glyph-name="uni200A" unicode="&#x200a;" horiz-adv-x="105" 
 />
    <glyph glyph-name="uni2010" unicode="&#x2010;" horiz-adv-x="460" 
d="M0 367v208h461v-208h-461z" />
    <glyph glyph-name="uni2011" unicode="&#x2011;" horiz-adv-x="460" 
d="M0 367v208h461v-208h-461z" />
    <glyph glyph-name="figuredash" unicode="&#x2012;" horiz-adv-x="460" 
d="M0 367v208h461v-208h-461z" />
    <glyph glyph-name="endash" unicode="&#x2013;" 
d="M68 580v229h888v-229h-888z" />
    <glyph glyph-name="emdash" unicode="&#x2014;" horiz-adv-x="1378" 
d="M0 367v208h1378v-208h-1378z" />
    <glyph glyph-name="quoteleft" unicode="&#x2018;" horiz-adv-x="624" 
d="M88 848l289 545l158 -21l-218 -551z" />
    <glyph glyph-name="quoteright" unicode="&#x2019;" horiz-adv-x="595" 
d="M47 842l219 551l228 -27l-289 -545z" />
    <glyph glyph-name="quotesinglbase" unicode="&#x201a;" horiz-adv-x="595" 
d="M47 -268l219 551l228 -27l-289 -543z" />
    <glyph glyph-name="quotedblleft" unicode="&#x201c;" horiz-adv-x="1009" 
d="M88 848l289 545l158 -21l-218 -551zM473 848l289 545l158 -21l-218 -551z" />
    <glyph glyph-name="quotedblright" unicode="&#x201d;" horiz-adv-x="1009" 
d="M88 842l219 551l228 -27l-289 -545zM473 842l219 551l228 -27l-289 -545z" />
    <glyph glyph-name="quotedblbase" unicode="&#x201e;" horiz-adv-x="1009" 
d="M88 -268l219 551l228 -27l-289 -543zM473 -268l219 551l228 -27l-289 -543z" />
    <glyph glyph-name="bullet" unicode="&#x2022;" horiz-adv-x="1366" 
d="M401 696q0 57 21.5 109.5t60.5 92.5t90.5 62.5t110.5 22.5q57 0 108.5 -23.5t90.5 -62.5t60.5 -91.5t21.5 -109.5t-21.5 -109t-60.5 -91t-90.5 -62.5t-108.5 -23.5q-59 0 -110.5 22.5t-90.5 62.5t-60.5 91t-21.5 110z" />
    <glyph glyph-name="ellipsis" unicode="&#x2026;" horiz-adv-x="1738" 
d="M129 131q0 66 46 114t114 48t115 -47t47 -115t-48.5 -114t-113.5 -46q-66 0 -113 47.5t-47 112.5zM709 131q0 66 46 114t113 48q68 0 114 -48t46 -114t-47 -113t-113 -47t-112.5 47.5t-46.5 112.5zM1288 131q0 66 46 114t114 48t115 -47t47 -115t-48.5 -114t-113.5 -46
q-66 0 -113 47.5t-47 112.5z" />
    <glyph glyph-name="uni202F" unicode="&#x202f;" horiz-adv-x="381" 
 />
    <glyph glyph-name="guilsinglleft" unicode="&#x2039;" horiz-adv-x="649" 
d="M82 444l319 441l144 -103l-248 -338l250 -329l-146 -105z" />
    <glyph glyph-name="guilsinglright" unicode="&#x203a;" horiz-adv-x="649" 
d="M102 115l252 329l-250 338l144 103l319 -441l-319 -434z" />
    <glyph glyph-name="uni205F" unicode="&#x205f;" horiz-adv-x="476" 
 />
    <glyph glyph-name="Euro" unicode="&#x20ac;" horiz-adv-x="1161" 
d="M10 764l49 137h168q29 100 83.5 190.5t129 158t170 107.5t203.5 40q78 0 147.5 -21.5t135.5 -62.5v-316q-55 68 -123 112t-160 44q-55 0 -108.5 -18.5t-96.5 -51t-72.5 -80t-39.5 -102.5h477l-51 -137h-453q-6 -43 -6 -86q0 -12 1 -25.5t1 -25.5h395l-49 -135h-330
q8 -63 38 -114.5t75 -88.5t101.5 -57.5t119.5 -20.5q90 0 158.5 43t122.5 108v-313q-68 -37 -137.5 -58.5t-147.5 -21.5q-115 0 -212 42t-174 114t-129 166t-77 201h-207l49 135h138v49v44t4 44h-193z" />
    <glyph glyph-name="trademark" unicode="&#x2122;" horiz-adv-x="1476" 
d="M-6 1210v156h510v-156h-168v-622h-174v622h-168zM532 588l140 792h127l190 -473l201 473h127l125 -792h-174l-60 428l-186 -438h-68l-180 438l-67 -428h-175z" />
    <glyph glyph-name="uni25FC" unicode="&#x25fc;" horiz-adv-x="890" 
d="M0 0v891h891v-891h-891z" />
    <glyph glyph-name="uniFB01" unicode="&#xfb01;" horiz-adv-x="1077" 
d="M31 674v213h96v284q0 55 6 106.5t33 102.5q43 84 129 131.5t178 47.5q39 0 67.5 -7.5t63.5 -23.5v-228q-29 14 -55.5 23.5t-56.5 9.5q-41 0 -65 -19.5t-35 -48t-14 -64.5t-3 -66v-248h229v-213h-229v-674h-248v674h-96zM690 1262q0 61 44 105t106 44q61 0 104 -44
t43 -105t-43 -105.5t-104 -44.5t-105.5 44t-44.5 106zM715 0v887h248v-887h-248z" />
    <glyph glyph-name="uniFB02" unicode="&#xfb02;" horiz-adv-x="1085" 
d="M31 674v213h96v284q0 55 6 106.5t33 102.5q43 84 129 131.5t178 47.5q39 0 67.5 -7.5t63.5 -23.5v-228q-29 14 -55.5 23.5t-56.5 9.5q-41 0 -65 -19.5t-35 -48t-14 -64.5t-3 -66v-248h229v-213h-229v-674h-248v674h-96zM719 0v1534h248v-1534h-248z" />
    </font>
</defs>
</svg>
