<?xml version="1.0" encoding="utf-8"?>
<!-- Generator: Adobe Illustrator 17.0.0, SVG Export Plug-In . SVG Version: 6.00 Build 0)  -->
<!DOCTYPE svg PUBLIC "-//W3C//DTD SVG 1.1//EN" "http://www.w3.org/Graphics/SVG/1.1/DTD/svg11.dtd">
<svg version="1.1" id="Layer_1" xmlns="http://www.w3.org/2000/svg" xmlns:xlink="http://www.w3.org/1999/xlink" x="0px" y="0px"
	 width="10px" height="150px" viewBox="0 0 10 150" enable-background="new 0 0 10 150" xml:space="preserve">
<g>
	<g>
		<path fill="#A7875E" d="M5,107.525c1.654,0,3,1.346,3,3s-1.346,3-3,3s-3-1.346-3-3S3.346,107.525,5,107.525 M5,106.525
			c-2.209,0-4,1.791-4,4s1.791,4,4,4s4-1.791,4-4S7.209,106.525,5,106.525L5,106.525z"/>
	</g>
	<g>
		<path fill="#A7875E" d="M5,72.525c1.654,0,3,1.346,3,3s-1.346,3-3,3s-3-1.346-3-3S3.346,72.525,5,72.525 M5,71.525
			c-2.209,0-4,1.791-4,4s1.791,4,4,4s4-1.791,4-4S7.209,71.525,5,71.525L5,71.525z"/>
	</g>
	<g>
		<path fill="#A7875E" d="M5,37.804c1.654,0,3,1.346,3,3s-1.346,3-3,3s-3-1.346-3-3S3.346,37.804,5,37.804 M5,36.804
			c-2.209,0-4,1.791-4,4s1.791,4,4,4s4-1.791,4-4S7.209,36.804,5,36.804L5,36.804z"/>
	</g>
	<g>
		<path fill="#A7875E" d="M5,2.526c1.654,0,3,1.346,3,3s-1.346,3-3,3s-3-1.346-3-3S3.346,2.526,5,2.526 M5,1.526
			c-2.209,0-4,1.791-4,4s1.791,4,4,4s4-1.791,4-4S7.209,1.526,5,1.526L5,1.526z"/>
	</g>
</g>
</svg>
