<?xml version="1.0" encoding="utf-8"?>
<!-- Generator: Adobe Illustrator 17.0.0, SVG Export Plug-In . SVG Version: 6.00 Build 0)  -->
<!DOCTYPE svg PUBLIC "-//W3C//DTD SVG 1.1//EN" "http://www.w3.org/Graphics/SVG/1.1/DTD/svg11.dtd">
<svg version="1.1" id="Layer_1" xmlns="http://www.w3.org/2000/svg" xmlns:xlink="http://www.w3.org/1999/xlink" x="0px" y="0px"
	 width="25px" height="35px" viewBox="0 0 25 35" enable-background="new 0 0 25 35" xml:space="preserve">
<g>
	<path fill="#A7875E" d="M7.038,10.162c0,1.116-1.203,1.818-2.174,1.268c-1.043-0.59-2.085-1.18-3.128-1.77c0,0.911,0,1.822,0,2.734
		c0,2.013,1.083,3.87,2.835,4.861c2.49,1.409,4.98,2.818,7.47,4.227c0-6.822,0-13.645,0-20.467C9.195,1.323,7.038,3.726,7.038,6.588
		C7.038,7.78,7.038,8.971,7.038,10.162z"/>
	<path fill="#A7875E" d="M12.041,29.475c0-0.614-0.206-0.966-0.739-1.268c-2.244-1.269-4.487-2.539-6.731-3.808
		c-1.752-0.991-2.835-2.848-2.835-4.861c0-0.833,0-1.666,0-2.499c3.435,1.943,6.87,3.887,10.305,5.83c0,0.981,0,1.962,0,2.943
		c0,0.429,0.178,0.607,0.607,0.607c0.429,0,0.607-0.178,0.607-0.607c0-0.981,0-1.962,0-2.943c3.435-1.944,6.87-3.887,10.305-5.83
		c0,0.833,0,1.666,0,2.499c0,2.013-1.083,3.87-2.835,4.861c-2.244,1.269-4.487,2.539-6.731,3.808
		c-0.534,0.302-0.739,0.655-0.739,1.268c0,1.968,0,1.964,0,3.933c0,0.429-0.178,0.607-0.607,0.607c-0.429,0-0.607-0.178-0.607-0.607
		C12.041,31.439,12.041,31.443,12.041,29.475z"/>
	<path fill="#A7875E" d="M18.259,10.162c0,1.116,1.203,1.818,2.174,1.268c1.043-0.59,2.085-1.18,3.128-1.77c0,0.911,0,1.822,0,2.734
		c0,2.013-1.083,3.87-2.835,4.861c-2.49,1.409-4.98,2.818-7.47,4.227c0-6.822,0-13.645,0-20.467
		c2.846,0.308,5.003,2.711,5.003,5.574C18.259,7.78,18.259,8.971,18.259,10.162z"/>
</g>
</svg>
