<?xml version="1.0" encoding="utf-8"?>
<!-- Generator: Adobe Illustrator 17.0.0, SVG Export Plug-In . SVG Version: 6.00 Build 0)  -->
<!DOCTYPE svg PUBLIC "-//W3C//DTD SVG 1.1//EN" "http://www.w3.org/Graphics/SVG/1.1/DTD/svg11.dtd">
<svg version="1.1" id="Layer_1" xmlns="http://www.w3.org/2000/svg" xmlns:xlink="http://www.w3.org/1999/xlink" x="0px" y="0px"
	 width="210px" height="115px" viewBox="0 0 210 115" enable-background="new 0 0 210 115" xml:space="preserve">
<g>
	<g>
		<g>
			<path fill="#A7875E" d="M5.168,1.628h2.278l0.131,0.195h0.195V1.628c2.865,0.348,4.97,0.999,6.315,1.953
				c1.302,1.042,2.061,2.323,2.278,3.841H16.17l0.195,0.13v0.195c0,1.997-1.281,3.754-3.841,5.273v0.13h-0.717
				c-0.824,0.044-1.236,0.174-1.236,0.391c0.042,1.042,0.151,1.562,0.325,1.562l-0.13,0.195c0.217,2.127,0.564,3.864,1.041,5.208
				l-0.195,0.195l0.911,4.687h-0.195l0.325,0.717l-0.13,0.195l0.521,3.125H12.85l0.717,4.948l-0.196,0.13
				c1.042,7.465,1.801,12.001,2.278,13.606h-0.195c-0.434,0.391-0.825,0.586-1.172,0.586v-0.195l-0.195,0.195h-0.911
				c-0.219,0-0.434-0.543-0.652-1.628h0.13l-0.325-0.651l0.195-0.195v-0.195l-0.391-1.042h0.196l-0.522-2.083l0.131-0.195v-0.13
				c-0.521-1.909-1.042-4.599-1.563-8.072h0.196l-0.196-0.13v-0.195l0.196-0.195c-0.739-5.859-1.26-9.244-1.563-10.156h0.13
				l-1.367-9.635l-2.083,0.391v1.042l0.196,0.195l-0.587,3.124l0.196,3.516l-0.196,0.13v0.195l0.196,0.195v0.195l-0.196,0.651
				l0.196,0.195l-0.196,0.195v1.758l-0.13,0.13v0.195l0.13,0.13h-0.13l0.13,0.195v0.195l-0.13,0.195l0.13,0.13l-0.13,1.237v1.042
				l0.13,0.195l-0.13,0.195v0.13l0.13,0.521h-0.13c0.217,0.608,0.326,1.953,0.326,4.036v0.325l0.195,0.195l-0.195,0.195v2.279
				l0.195,0.13l-0.195,0.195v2.083l0.195,0.195v0.195l-0.195,0.13l0.195,0.195H5.493l0.195,0.195v5.209l0.196,0.911l-0.717,0.716
				c-1.65-0.433-2.474-1.019-2.474-1.758V38.02l-0.195-0.195l0.195-0.195v-0.13l-0.195-0.195l0.195-0.13l-0.195-0.716l0.195-0.911
				H2.499l0.195-0.13v-0.195l-0.195-1.042l0.195-0.195l-0.326-0.325l0.131-0.195v-0.195l-0.131-0.13h0.131l-0.131-0.195v-2.474
				l-0.195-0.13l0.195-0.521l-0.195-0.586l0.195-0.13l-0.195-0.195l0.195-0.13L2.173,28.58l0.195-0.195H2.173l0.195-0.195
				l-0.195-1.042l0.195-3.515h0.326v-0.13l-0.195-0.195l0.195-0.13v-2.799l-0.195-0.717l0.195-0.195v-0.13l-0.195-0.195v-0.195
				l0.195-0.846H2.499c0.26-0.607,0.391-1.67,0.391-3.19v-0.13l-0.196-1.237h0.196L2.499,11.98l0.391-1.042l-0.196-0.195v-0.195
				l0.196-0.195l-0.196-0.13V9.701l0.196-0.195L2.693,9.31V9.18l0.196-0.195L2.693,8.79V6.186L2.889,5.99V5.86H2.693l0.196-0.195
				V4.427L2.693,2.865C2.693,2.302,3.517,1.888,5.168,1.628z M5.688,3.256v3.971L5.493,7.422v0.13h0.195L5.493,8.139l0.195,2.213
				l-0.195,0.195l0.195,0.195l-0.195,0.195h0.195l-0.195,0.13v1.628h0.195l2.409-0.716l0.195,0.13h0.196
				c3.124-1.084,4.687-2.646,4.687-4.687c0-2.213-1.456-3.558-4.362-4.036L6.534,3.06L5.688,3.256z"/>
			<path fill="#A7875E" d="M22.745,2.735h0.195l0.131,0.586l-0.131,0.13l0.131,1.758V6.25l0.195,0.195v0.13h-0.195l0.195,0.195V9.05
				l0.13,0.195l-0.13,0.13l0.13,1.237v1.953l0.196,0.195l-0.196,0.13l0.196,0.911v2.213l0.195,0.195l-0.195,0.195v0.651l0.195,0.195
				l-0.195,0.195v0.195l0.195,0.521h-0.195l0.195,0.521l-0.195,0.716l0.195,0.456l-0.195,0.717h0.195l-0.195,0.195v0.13l0.195,1.432
				h-0.195l0.195,0.521l0.326,14.193l0.195,0.13v0.195l-0.195,0.195c0.217,1.129,0.326,2.822,0.326,5.078v0.13l0.195,0.195v0.195
				h-0.195l0.195,0.13v0.195c0,0.348-0.217,0.76-0.65,1.236l0.325,2.409c-0.347,0-0.521,0.195-0.521,0.585
				c-0.694,0-1.172,0.109-1.432,0.326c-0.695,0-1.042-0.521-1.042-1.562h-0.13l0.13-0.195l-0.13-0.911v-1.693l-0.195-0.195
				l0.325-2.799l-0.13-4.036h-0.195l0.195-0.13l-0.195-3.515v-0.521l-0.196-0.846h0.196l-0.196-0.195v-0.39l0.196-0.13l-0.196-0.195
				v-0.195l0.196-0.13l-0.196-0.195v-4.167l0.196-0.195l-0.196-0.195v-2.083l-0.195-0.195l0.195-0.13v-1.432l-0.195-0.195
				l0.195-0.13v-4.232l-0.195-0.651l0.195-0.716l-0.195-0.717h0.195l-0.195-0.195v-4.883l-0.131-0.13l0.131-0.195l-0.131-1.237
				V5.729l-0.195-2.083C21.138,3.039,21.964,2.735,22.745,2.735z"/>
			<path fill="#A7875E" d="M29.775,4.167h1.758c3.082,3.429,5.143,6.293,6.185,8.593l-0.196,0.13
				c0.694,0.911,1.323,2.778,1.889,5.599l0.391,2.279h-0.196l0.521,2.799h-0.195l0.195,0.13v2.474l-0.195,0.195l0.195,0.13v0.391
				l-0.195,1.758l0.195,0.195l-0.195,0.13h0.195l-0.195,0.195v0.325l0.195,0.195l-0.195,0.195v1.368l-0.13,0.846h0.13l-0.521,3.189
				h0.195l-0.195,0.195v0.846l-0.522,2.799l0.196,0.195c-0.174,0.044-0.629,1.26-1.367,3.646l-1.628,2.083l-1.887,1.758v0.326
				h-0.196l-0.195-0.13h-0.131c-0.955,0.695-2.061,1.042-3.319,1.042h-0.196V47.72H29.45c-0.608,0-0.955-0.195-1.041-0.585h0.195
				l-0.195-0.13v-0.195l0.195-1.237h-0.195l0.326-2.083l-0.131-0.195v-0.13l0.326-1.953h-0.195l0.195-0.13v-1.758l0.196-0.195
				v-0.195h-0.196l0.196-0.195v-0.13l-0.196-0.195l0.196-0.13v-1.432l-0.196-0.195v-0.13h0.196l-0.196-0.195v-0.391l0.196-0.846
				h-0.196l0.196-0.195v-3.841l-0.196-0.651l0.196-0.195v-0.195l-0.196-0.13l0.196-0.911v-0.716l-0.196-0.13l0.196-0.195V25.65
				l0.195-0.846l-0.195-0.195h0.195l-0.195-0.195V22.2l-0.196-1.302h0.196l-0.196-0.456l0.196-5.989l0.195-0.521h-0.195l0.195-0.13
				v-0.195l-0.195-0.846l0.195-2.799V8.724c0-2.126-0.195-3.19-0.585-3.19C28.994,4.797,29.341,4.341,29.775,4.167z M31.729,8.724
				v1.563l0.195,0.846h-0.195l0.195,0.195v0.13l-0.195,0.195v0.195h0.195l-0.195,0.195v0.521l0.195,0.195l-0.195,0.13v0.195
				l0.195,0.521l-0.195,0.521h0.195l-0.195,0.13v6.64l0.195,0.195l-0.195,0.195l0.195,0.911v1.888l0.196,0.195
				c-0.261,0.521-0.391,1.26-0.391,2.213v0.195l0.195,0.717l-0.195,0.716v0.325l0.195,0.717l-0.195,0.13l0.195,1.107l-0.195,6.25
				l0.195,0.911l-0.715,5.403h0.195l-0.326,0.521l0.131,0.195v0.195l-0.131,1.172l0.456,0.716h0.391c0.911,0,2.061-1.215,3.45-3.646
				c1.172-2.951,1.758-5.576,1.758-7.877l-0.13-0.195c0.217-1.128,0.326-2.821,0.326-5.078v-5.403c0-0.607-0.109-0.912-0.326-0.912
				l0.13-0.13v-0.195c-0.087-1.735-0.26-2.604-0.521-2.604l0.196-0.195c0-1.779-1.042-4.623-3.126-8.528l-1.758-2.279H31.729z"/>
			<path fill="#A7875E" d="M54.514,2.735l0.131,0.195l0.911-0.195h0.195c0.174,0,0.521,0.413,1.042,1.237v0.195
				c-0.955,0.348-1.78,0.521-2.474,0.521v0.13l-0.196-0.13c-3.603,0.304-5.403,0.585-5.403,0.846l-0.196-0.13
				c0,0.26-0.868,0.478-2.604,0.651V6.25h0.391l0.131,0.716l-0.131,0.195l0.326,3.125h-0.195l0.195,0.13v1.628h1.041l0.846-0.195
				v0.195c2.171-0.477,4.34-0.716,6.511-0.716l0.325,0.325l0.522,1.237h-0.131l-2.669,0.521v-0.195l-4.558,0.717l-1.758-0.13h-0.13
				v1.172l0.13,0.195l-0.13,0.195v0.13l0.13,1.432l-0.13,1.042h0.13l-0.13,0.195v0.13c0,0.609,0.107,0.911,0.326,0.911l-0.196,0.195
				v1.042l0.196,0.13l-0.196,0.195v0.521l0.196,0.195l-0.326,1.758l0.13,0.13l-0.325,2.083l0.195,0.195v0.195
				c-0.217,0.218-0.326,0.804-0.326,1.758h-0.195l0.195,0.13v0.195l-0.195,0.195v0.13l0.195,0.585l-0.195,0.13v0.195l0.195,0.521
				l-0.195,0.521h0.195l-0.195,0.195v2.083l-0.196,0.195l0.196,0.13v0.521l-0.196,0.195l0.196,0.195v0.13l-0.196,1.627l0.196,0.456
				l-0.196,0.195h0.196l-0.196,0.195l0.196,0.717l-0.196,0.521l0.196,0.846l-0.196,0.521l0.196,0.195h-0.196l0.196,0.195v0.651
				l-0.196,0.195v0.195l0.196,0.13h0.195l-0.195,0.716c0,1.693,0.412,2.864,1.237,3.515c0,0.391,0.563,0.846,1.693,1.368
				l5.077-0.521h1.237c0.347,0.13,0.522,0.5,0.522,1.107v0.456c-0.261,0-0.544,0.239-0.846,0.716l-1.042-0.325l-0.717,0.195v-0.195
				c-1.605,0.348-3.428,0.521-5.468,0.521l-1.693-0.911l-0.717-0.651l-0.846-1.758l-0.195-0.521l0.195-0.195v-0.13l-0.391-0.912
				h0.196l-0.522-3.841l0.131-0.195h-0.131l0.131-0.195v-1.888l-0.131-0.195l0.131-0.13v-0.195l-0.131-0.521h0.131l-0.131-0.195
				v-0.13l0.131-0.195v-0.195l-0.131-0.521l0.131-0.13h-0.131l0.131-0.195v-0.195l-0.131-0.912l0.326-6.25h-0.195l0.391-0.521
				l-0.196-0.195v-0.716l0.196-0.13V25.13l-0.196-0.13h0.196l-0.196-0.195v-0.716l0.196-0.195l-0.196-0.195v-0.13l0.196-2.67h-0.196
				l0.196-0.13v-0.195l-0.196-0.13v-0.195l0.196-0.716l-0.196-0.13l0.196-0.195h-0.196l0.196-0.195l-0.196-1.236v-2.409
				l-0.326-4.362l0.131-0.195l-0.131-0.846V7.292l-0.195-1.758l1.041-0.325l-0.13-0.195V4.818c0-0.347,1.042-0.693,3.124-1.042
				c0-0.303,2.279-0.585,6.836-0.846V2.735z"/>
			<path fill="#A7875E" d="M146.825,5.013c0.65,0,1.106,0.413,1.367,1.237h0.195v1.758l-0.325,4.752v0.13l-0.196,0.195v0.13h0.196
				l-0.326,2.279h0.13l-0.846,4.232l0.13,0.13l-0.456,4.558h0.131l-0.522,1.758h0.196l-0.196,0.195v1.367l-0.195,0.911h0.195
				l-0.195,0.521c0,2.083-0.109,3.124-0.326,3.124l0.196,0.195v0.195l-0.391,1.368v1.042l-0.131,0.195l0.131,0.195l-0.131,1.172
				v2.669l-0.195,0.651l0.195,0.717v2.474l-0.195,0.13l0.326,0.911l-0.131,0.521l0.131,0.195v0.13
				c-0.305,0.911-0.652,1.454-1.042,1.628h-1.562c-0.739-2.517-2.148-5.317-4.232-8.399v-0.195h-0.326l-1.367,3.451l0.195,0.195
				c-0.174,0-0.543,0.76-1.106,2.278h-0.131l0.131,0.195v0.13c-0.348,0.478-0.804,1.715-1.368,3.711h-1.041
				c-0.608,0-1.151-0.173-1.628-0.521l0.196-0.195v-0.326l-0.326-0.325l0.13-0.195v-0.195l-0.13-0.195v-0.13h0.13
				c-1.736-12.412-3.017-20.289-3.841-23.632l0.196-0.13c-0.348,0-0.63-1.128-0.846-3.385l-0.521-1.758h0.13l-2.083-8.854
				l0.195-0.195c0.347-0.217,0.522-0.456,0.522-0.716h0.65c1.042,0,1.628,0.76,1.758,2.278c1.996,8.03,3.407,14.322,4.232,18.879
				h-0.195l0.715,3.321h-0.195l0.391,0.911h-0.196l0.326,1.563h-0.13l0.846,5.208l-0.196,0.195l0.391,2.083h0.196
				c0.391-1.693,1.323-4.254,2.799-7.682l0.652-0.912h0.715c0,0.478,0.629,1.607,1.889,3.385l2.474,4.362h0.195v-4.948l0.13-0.651
				l-0.13-0.521l0.846-12.565l0.196-0.195h-0.196l0.911-6.315h-0.195c0.477-3.385,0.715-6.358,0.715-8.919V6.055
				C145.718,5.361,146.174,5.013,146.825,5.013z"/>
			<path fill="#A7875E" d="M162.775,1.368l0.911,0.651l0.195,0.716h-0.195c0.172,1.39,0.347,2.083,0.521,2.083l-0.195,0.195v0.195
				c0.26,0.478,0.563,2.93,0.911,7.356l0.326,1.237h-0.131l2.084,10.481h-0.195l1.562,7.682h-0.195l0.717,2.474h-0.131l2.083,10.938
				c0.217,0,0.326,0.434,0.326,1.302c0,0.521-0.348,0.976-1.042,1.367h-0.195l-0.13-0.195l-0.587,0.195
				c-0.694,0-1.258-1.519-1.693-4.557l-0.391-0.326l0.196-0.521l-0.326-1.107h0.13l-0.846-3.256h-0.195l0.195-0.585l-2.279-12.565
				c-2.821,0.13-4.232,0.304-4.232,0.521c-0.781,6.207-1.584,10.634-2.408,13.281h0.195c-1.172,3.125-1.931,5.86-2.278,8.203h-1.433
				l-1.041-1.042v-0.521l0.195-0.195l-0.195-0.13v-0.195c1.519-5.164,2.8-11.393,3.841-18.684l0.717-4.036h-0.196l0.391-0.846
				h-0.195l0.846-4.036l-0.131-0.195c0.217,0,0.564-1.974,1.042-5.924c0.824-5.685,1.409-8.832,1.758-9.44L162.775,1.368z
				 M161.929,13.607l-1.237,8.008l-0.13,1.758h0.13l3.189-0.326l-0.391-1.562h0.196l-1.237-5.599h0.195
				c-0.174-0.954-0.347-1.432-0.521-1.432l0.196-0.195v-0.13l-0.196-0.521H161.929z"/>
			<path fill="#A7875E" d="M182.174,2.67h0.715c0.825,0.044,1.237,0.153,1.237,0.326l0.131-0.13l2.148,0.651l0.13-0.195l0.326,0.911
				l-1.172,0.391l-3.124-0.586c-2.344,0.391-3.82,1.085-4.428,2.083c-0.78,1.042-1.236,1.932-1.367,2.67h0.196l-0.391,1.367v0.195
				c0,2.691,0.477,4.036,1.432,4.036l2.409,0.325v-0.195c3.601,0.651,5.403,1.368,5.403,2.148c0.564,0,1.389,1.563,2.474,4.687
				l0.326,0.391l-0.13,0.13l1.171,5.794l-0.13,0.13v0.195l0.326,2.799l-0.326,2.279l0.13,0.195l-0.325,2.474h0.195l-0.326,1.367
				h0.131c-1.391,5.599-2.562,8.398-3.517,8.398c0,0.218-0.694,0.738-2.083,1.562l-0.13-0.195c-0.044,0.39-0.976,0.911-2.799,1.562
				c-0.348,0.26-0.934,0.391-1.758,0.391v0.195l-0.196-0.195h-0.195l-0.131,0.195c-1.432-0.261-2.495-0.565-3.189-0.912l-0.13,0.195
				l-1.954-0.521c0.303-1.302,0.652-1.953,1.041-1.953l4.037,0.846c1.693,0,3.841-1.15,6.445-3.45l1.628-6.12l-0.196-0.195
				l0.652-5.729l-0.131-0.195h0.131c-0.261-2.646-0.543-4.513-0.846-5.599h0.195c-1.26-5.599-2.669-8.398-4.232-8.398l-1.171-0.13
				l-0.391-0.39l-0.196,0.195l-3.254-0.521v0.13c-2.258-0.434-3.385-2.105-3.385-5.013v-1.237h0.195l-0.195-0.195V9.636
				c0.216-1.519,1.15-3.256,2.799-5.209C177.855,3.43,179.786,2.844,182.174,2.67z"/>
			<path fill="#A7875E" d="M203.137,4.167h0.195l0.131,0.195h0.195l-0.195,0.13v0.195l0.715,6.315
				c0.694,0.087,1.042,0.239,1.042,0.456v0.716c-0.564,0.565-0.846,0.977-0.846,1.237l0.195,0.195v0.195l-0.195,0.651h0.195
				l-0.195,0.195c0.172,2.431,0.347,3.646,0.521,3.646L204.7,18.49v0.195c0,0.999,0.13,1.736,0.391,2.213l-0.196,0.717l0.196,0.585
				h-0.196l0.326,1.888l-0.13,0.521h0.13l-0.13,0.195v0.195l0.13,0.456h-0.13l0.521,3.84h-0.196l0.391,1.107v1.236l0.131,0.13v0.195
				l-0.131,0.13h0.131l-0.131,0.195c0.433,4.08,0.652,7.162,0.652,9.245l0.195,0.195h-0.195l0.521,2.799l-0.13,0.195l0.325,2.279
				c-0.694,0.565-1.519,0.911-2.473,1.042c-0.566,0-0.911-0.456-1.042-1.367l0.196-0.195h-0.196l0.196-0.195v-0.195l-0.522-5.208
				l0.131-0.195v-0.195l-0.456-3.972h0.13l-0.326-1.627l0.196-0.13c-0.087-1.084-0.219-1.628-0.391-1.628l0.195-0.13v-0.195
				c-0.044-1.736-0.174-2.604-0.391-2.604l0.196-0.195l-0.326-1.368l0.13-0.195h-0.13l0.13-0.195l-0.325-1.888l0.195-0.521h-0.195
				l0.195-0.195l-0.391-6.25h-0.13l0.13-0.195l-0.326-2.148h0.196c-0.261-0.607-0.391-1.758-0.391-3.45h-0.13l-3.191,0.326h-0.846
				l0.196,0.195l-0.196,0.13v0.195l0.196,1.042l-0.196,0.195l0.326,1.562l-0.13,0.195l0.13,0.846v2.279l0.195,0.716l-0.195,0.195
				l0.326,3.841h-0.131l0.326,0.846l-0.195,0.195v0.846l0.195,0.195l-0.195,0.195v0.521l0.195,0.13l-0.195,0.195v0.195l0.195,0.195
				v0.13h-0.195l0.195,0.195v0.13l-0.195,0.195l0.195,0.195v0.195l-0.195,1.562l0.195,0.521l-0.195,0.716h0.195l-0.195,0.13v0.911
				l0.195,0.13v0.195l-0.195,0.195l0.195,0.195l-0.195,0.13l0.195,0.195h-0.195l0.391,2.083h-0.196l0.196,0.521l0.324,3.321
				l-0.13,0.195v0.195l0.13,0.456h-0.13l0.326,1.953l-0.196,0.195l0.391,0.325h-0.195l0.326,2.279
				c-0.609,0.955-1.412,1.432-2.409,1.432c0-0.26-0.238-0.39-0.717-0.39v-0.326h-0.195l0.195-0.195v-1.758l-0.195-0.13v-0.195h0.195
				l-0.325-1.562l0.13-0.195l-0.717-7.487h0.196l-0.326-1.953l0.13-0.716h-0.13l0.13-0.13V28.45l-0.13-0.195l0.13-0.13v-0.195
				l-0.13-3.515h-0.196l0.196-0.13v-0.195l-0.196-0.521h0.196l-0.326-1.953l0.13-0.13v-1.628l-0.13-0.13v-0.195l0.13-0.13h-0.13
				l0.13-0.195l-0.324-2.148l0.195-0.13v-0.326l-0.195-0.716l0.195-0.521l-0.195-0.521h0.195l-0.195-0.195V12.76l-0.196-0.195V12.37
				h0.196l-0.391-1.562l0.195-0.195l-0.326-1.562l0.131-0.521l-0.131-0.521h0.131l-0.326-2.799c0.303-0.303,0.954-0.542,1.954-0.716
				v-0.13c0.693,0,1.041,0.803,1.041,2.409v1.563l0.13,0.195l-0.13,0.195l0.326,2.93l1.758,0.195v-0.195l0.195,0.195h1.042
				l1.237-0.195c-0.131-2.604-0.326-4.34-0.587-5.208h0.196l-0.196-0.195V6.055C200.663,4.797,201.487,4.167,203.137,4.167z"/>
			<path fill="#A7875E" d="M11.613,68.748c2.995,0.478,5.273,1.454,6.836,2.929c0.694,1.129,1.041,2.062,1.041,2.799v1.758
				c0,2.04-2.799,3.668-8.397,4.882c-1.477,0.391-2.865,0.586-4.167,0.586H6.209v0.456l0.131,1.953l-0.131,0.717H6.34l-0.131,0.13
				v0.391l0.131,0.195l-0.131,0.13l0.131,1.236v0.521l-0.131,0.195v0.13H6.34l-0.131,0.586l0.131,0.456l-0.131,0.195L6.34,89.19
				l-0.131,0.195H6.34l-0.131,0.13v0.195l0.131,6.445l0.195,0.585l-0.195,0.13l0.195,0.195H6.34l0.195,0.13v1.236
				c0,0.999,0.13,1.758,0.391,2.279l-0.195,0.195l0.195,0.13H6.73l0.325,0.912h-0.13l0.13,0.195v2.799l-0.13,0.13l0.13,0.195v0.521
				l-0.13,0.195v0.195h0.13l-0.13,0.13v0.326l0.13,0.195l-0.325,1.953l0.195,0.195v1.497l-0.195,0.195v0.195h0.195l-0.391,1.237
				H6.73c0,0.478-0.76,0.825-2.279,1.042c0-0.477-0.174-0.716-0.521-0.716l0.196-0.195v-6.055l0.13-0.716l-0.13-0.716v-0.717
				l0.13-0.195l-0.13-0.13v-1.758l-0.196-0.195v-0.13h0.196c-0.261-0.26-0.457-1.844-0.587-4.752H3.41l0.13-0.13v-0.195l-0.13-0.195
				v-0.195l0.13-0.13V95.83l-0.456-3.646l0.13-0.195v-0.391l-0.13-0.846l0.13-1.041l-0.13-0.195l0.13-0.13V89.19l-0.13-0.195
				l0.326-0.521l-0.196-0.13v-3.515l-0.13-0.195l0.13-0.13c-0.087-0.737-0.195-1.107-0.325-1.107l0.195-0.13v-0.911l-0.195-0.651
				l0.195-0.195l-0.391-1.562l0.196-0.195v-0.846l-0.196-0.911h0.196l-0.196-0.13V76.43l-0.195-0.717l0.195-0.195l-0.521-4.362
				C3.908,69.552,7.055,68.748,11.613,68.748z M5.688,71.677v1.953l0.196,1.888l-0.196,0.195l0.326,3.646h1.041l0.913,0.195
				c5.468-0.998,8.203-2.105,8.203-3.32l0.195-0.13l0.13-0.586c0-2.604-1.736-4.166-5.208-4.687h-0.911
				C7.772,70.831,6.209,71.114,5.688,71.677z"/>
			<path fill="#A7875E" d="M33.03,67.836l0.131,0.195l0.911-0.195h0.195c0.174,0,0.521,0.413,1.042,1.237v0.195
				c-0.955,0.348-1.78,0.521-2.474,0.521v0.13l-0.196-0.13c-3.603,0.304-5.403,0.585-5.403,0.846l-0.196-0.13
				c0,0.26-0.868,0.478-2.604,0.651v0.195h0.391l0.131,0.716l-0.131,0.195l0.326,3.125h-0.195l0.195,0.13v1.628h1.041l0.846-0.195
				v0.195c2.171-0.477,4.34-0.716,6.511-0.716l0.325,0.325l0.522,1.237h-0.131l-2.669,0.521v-0.195l-4.558,0.717l-1.758-0.13h-0.13
				v1.172l0.13,0.195l-0.13,0.195v0.13l0.13,1.432l-0.13,1.042h0.13l-0.13,0.195v0.13c0,0.609,0.107,0.911,0.326,0.911l-0.196,0.195
				v1.042l0.196,0.13l-0.196,0.195v0.521l0.196,0.195l-0.326,1.758l0.13,0.13l-0.325,2.083l0.195,0.195v0.195
				c-0.217,0.218-0.326,0.804-0.326,1.758h-0.195l0.195,0.13v0.195l-0.195,0.195v0.13l0.195,0.585l-0.195,0.13v0.195l0.195,0.521
				l-0.195,0.521h0.195l-0.195,0.195v2.083l-0.196,0.195l0.196,0.13v0.521l-0.196,0.195l0.196,0.195v0.13l-0.196,1.627l0.196,0.456
				l-0.196,0.195h0.196l-0.196,0.195l0.196,0.717l-0.196,0.521l0.196,0.846l-0.196,0.521l0.196,0.195h-0.196l0.196,0.195v0.651
				l-0.196,0.195v0.195l0.196,0.13h0.195l-0.195,0.716c0,1.693,0.412,2.864,1.237,3.515c0,0.391,0.563,0.846,1.693,1.368
				l5.077-0.521h1.237c0.347,0.13,0.522,0.5,0.522,1.107v0.456c-0.261,0-0.544,0.239-0.846,0.716l-1.042-0.325l-0.717,0.195v-0.195
				c-1.605,0.348-3.428,0.521-5.468,0.521l-1.693-0.911l-0.717-0.651l-0.846-1.758l-0.195-0.521l0.195-0.195v-0.13l-0.391-0.912
				h0.196l-0.522-3.841l0.131-0.195h-0.131l0.131-0.195v-1.888l-0.131-0.195l0.131-0.13v-0.195l-0.131-0.521h0.131l-0.131-0.195
				v-0.13l0.131-0.195v-0.195l-0.131-0.521l0.131-0.13h-0.131l0.131-0.195v-0.195l-0.131-0.912l0.326-6.25h-0.195l0.391-0.521
				l-0.196-0.195v-0.716l0.196-0.13v-0.195l-0.196-0.13h0.196l-0.196-0.195V89.19l0.196-0.195l-0.196-0.195v-0.13L22.875,86h-0.196
				l0.196-0.13v-0.195l-0.196-0.13v-0.195l0.196-0.716l-0.196-0.13l0.196-0.195h-0.196l0.196-0.195l-0.196-1.236v-2.409
				l-0.326-4.362l0.131-0.195l-0.131-0.846v-2.669l-0.195-1.758l1.041-0.325l-0.13-0.195V69.92c0-0.347,1.042-0.693,3.124-1.042
				c0-0.303,2.279-0.585,6.836-0.846V67.836z"/>
			<path fill="#A7875E" d="M42.079,66.73h2.278l0.131,0.195h0.195V66.73c2.865,0.348,4.97,0.999,6.315,1.953
				c1.302,1.042,2.061,2.323,2.278,3.841h-0.195l0.195,0.13v0.195c0,1.997-1.281,3.754-3.841,5.273v0.13h-0.717
				c-0.824,0.044-1.236,0.174-1.236,0.391c0.042,1.042,0.151,1.562,0.325,1.562l-0.13,0.195c0.217,2.127,0.564,3.864,1.041,5.208
				l-0.195,0.195l0.911,4.687H49.24l0.325,0.717l-0.13,0.195l0.521,3.125h-0.195l0.717,4.948l-0.196,0.13
				c1.042,7.465,1.801,12.001,2.278,13.606h-0.195c-0.434,0.391-0.825,0.586-1.172,0.586v-0.195l-0.195,0.195h-0.911
				c-0.219,0-0.434-0.543-0.652-1.628h0.13l-0.325-0.651l0.195-0.195v-0.195l-0.391-1.042h0.196l-0.522-2.083l0.131-0.195v-0.13
				c-0.521-1.909-1.042-4.599-1.563-8.072h0.196l-0.196-0.13v-0.195l0.196-0.195c-0.739-5.859-1.26-9.244-1.563-10.156h0.13
				l-1.367-9.635l-2.083,0.391v1.042l0.196,0.195l-0.587,3.124l0.196,3.516l-0.196,0.13v0.195l0.196,0.195v0.195l-0.196,0.651
				l0.196,0.195l-0.196,0.195v1.758l-0.13,0.13v0.195l0.13,0.13h-0.13l0.13,0.195v0.195l-0.13,0.195l0.13,0.13l-0.13,1.237v1.042
				l0.13,0.195l-0.13,0.195v0.13l0.13,0.521h-0.13c0.217,0.608,0.326,1.953,0.326,4.036v0.325l0.195,0.195l-0.195,0.195v2.279
				l0.195,0.13l-0.195,0.195v2.083l0.195,0.195v0.195l-0.195,0.13l0.195,0.195h-0.195l0.195,0.195v5.209l0.196,0.911l-0.717,0.716
				c-1.65-0.433-2.474-1.019-2.474-1.758v-7.877l-0.195-0.195l0.195-0.195v-0.13l-0.195-0.195l0.195-0.13l-0.195-0.716l0.195-0.911
				H39.41l0.195-0.13v-0.195l-0.195-1.042l0.195-0.195l-0.326-0.325l0.131-0.195v-0.195l-0.131-0.13h0.131l-0.131-0.195V95.57
				l-0.195-0.13l0.195-0.521l-0.195-0.586l0.195-0.13l-0.195-0.195l0.195-0.13l-0.195-0.195l0.195-0.195h-0.195l0.195-0.195
				l-0.195-1.042l0.195-3.515h0.326v-0.13l-0.195-0.195l0.195-0.13v-2.799l-0.195-0.717l0.195-0.195v-0.13l-0.195-0.195v-0.195
				l0.195-0.846H39.41c0.26-0.607,0.391-1.67,0.391-3.19v-0.13l-0.196-1.237h0.196l-0.391-1.562l0.391-1.042l-0.196-0.195v-0.195
				l0.196-0.195l-0.196-0.13v-0.521l0.196-0.195l-0.196-0.195v-0.13l0.196-0.195l-0.196-0.195v-2.604l0.196-0.195v-0.13h-0.196
				l0.196-0.195v-1.237l-0.196-1.562C39.605,67.403,40.428,66.99,42.079,66.73z M42.599,68.358v3.971l-0.195,0.195v0.13h0.195
				l-0.195,0.586l0.195,2.213l-0.195,0.195l0.195,0.195l-0.195,0.195h0.195l-0.195,0.13v1.628h0.195l2.409-0.716l0.195,0.13h0.196
				c3.124-1.084,4.687-2.646,4.687-4.687c0-2.213-1.456-3.558-4.362-4.036l-2.279-0.325L42.599,68.358z"/>
			<path fill="#A7875E" d="M59.657,67.836h0.195l0.131,0.586l-0.131,0.13l0.131,1.758v1.042l0.195,0.195v0.13h-0.195l0.195,0.195
				v2.279l0.13,0.195l-0.13,0.13l0.13,1.237v1.953l0.196,0.195l-0.196,0.13l0.196,0.911v2.213l0.195,0.195l-0.195,0.195v0.651
				l0.195,0.195l-0.195,0.195v0.195l0.195,0.521h-0.195l0.195,0.521l-0.195,0.716l0.195,0.456l-0.195,0.717h0.195l-0.195,0.195V86
				l0.195,1.432h-0.195l0.195,0.521l0.326,14.193l0.195,0.13v0.195l-0.195,0.195c0.217,1.129,0.326,2.822,0.326,5.078v0.13
				l0.195,0.195v0.195H61.35l0.195,0.13v0.195c0,0.348-0.217,0.76-0.65,1.236l0.325,2.409c-0.347,0-0.521,0.195-0.521,0.585
				c-0.694,0-1.172,0.109-1.432,0.326c-0.695,0-1.042-0.521-1.042-1.562h-0.13l0.13-0.195l-0.13-0.911v-1.693l-0.195-0.195
				l0.325-2.799l-0.13-4.036H57.9l0.195-0.13L57.9,98.109v-0.521l-0.196-0.846H57.9l-0.196-0.195v-0.39l0.196-0.13l-0.196-0.195
				v-0.195l0.196-0.13l-0.196-0.195v-4.167l0.196-0.195l-0.196-0.195v-2.083l-0.195-0.195l0.195-0.13v-1.432l-0.195-0.195
				l0.195-0.13v-4.232l-0.195-0.651l0.195-0.716l-0.195-0.717h0.195l-0.195-0.195v-4.883l-0.131-0.13l0.131-0.195l-0.131-1.237
				v-2.799l-0.195-2.083C58.051,68.141,58.876,67.836,59.657,67.836z"/>
			<path fill="#A7875E" d="M73.72,67.056h0.715l0.196,0.195l0.13-0.195c1.302,0,2.756,1.042,4.362,3.124h0.196l-0.196,0.195
				l1.758,4.036l-0.195,0.195l0.585,4.557l-0.195,0.456l0.195,0.586l-0.195,0.13l0.195,0.195h-0.195l0.195,0.13v4.232l-0.195,0.195
				l0.195,0.13v3.711l0.131,0.13l-0.131,0.195v4.883l0.131,0.195v0.195h-0.131l0.131,0.13l-0.131,0.911v6.64l-0.195,0.13v0.195
				l0.195,0.195l-0.195,0.195h0.195l-0.391,0.846l0.196,0.195c-0.348,2.387-0.999,4.601-1.954,6.64
				c-2.343,2.344-4.905,3.516-7.682,3.516c-1.866,0-3.254-1.649-4.166-4.948l-0.587-3.646l0.196-0.195l-1.042-9.44l0.196-0.521
				h-0.196l0.196-0.13v-0.195l-0.196-0.195l0.196-0.195l-0.391-3.125h0.195l-0.195-0.13v-4.557l-0.131-1.237h0.131l-0.326-1.758
				l0.195-0.195v-0.325l-0.195-0.195l0.195-0.13V82.81l-0.195-0.195c0.433-8.245,1.67-13.02,3.711-14.322
				C69.944,67.468,71.505,67.056,73.72,67.056z M69.357,72.979h0.131c-0.434,0.781-0.652,2.019-0.652,3.711v0.521l-0.195,0.195
				l0.195,0.13l-0.195,0.911v1.562l-0.196,0.195l0.196,0.13v0.195l-0.196,1.042h0.196l-0.196,0.195v1.042l0.196,0.651l-0.196,0.195
				v0.195l0.196,0.521h-0.196l0.196,0.195v1.887l0.195,0.195v0.195h-0.195l0.195,0.13v2.995l0.196,5.273h0.13l-0.13,0.13
				l0.325,2.474l-0.195,0.195l0.717,5.599h-0.196l0.196,0.13v1.368l0.195,1.236h-0.195c0,1.65,0.585,3.408,1.758,5.273h0.326
				c0.868,0,2.321-0.824,4.362-2.474c0.563,0,1.15-1.735,1.758-5.208l0.195-0.911l-0.195-0.13l0.195-0.911v-0.13l-0.195-0.195
				l0.391-1.041l-0.196-0.521l0.196-0.521l-0.196-0.195l0.196-0.195h-0.196l0.196-0.521l-0.196-1.758l0.196-2.083l-0.196-3.646
				h-0.195l0.195-0.195v-2.799l-0.195-0.846h0.195l-0.195-0.521l0.195-0.195v-0.195l-0.195-0.195v-0.13l0.195-1.042h-0.195
				l0.195-0.195v-0.195l-0.195-0.13l0.195-0.195v-0.195l-0.195-0.13l0.195-0.195v-0.195l-0.195-1.042h0.195l-0.195-0.195v-0.326
				h0.195c-0.217-3.732-0.391-5.599-0.521-5.599l0.13-0.13c-0.217-2.17-0.78-4.036-1.693-5.599
				c-0.955-1.432-2.061-2.148-3.319-2.148h-0.196C71.202,68.618,70.095,70.073,69.357,72.979z"/>
			<path fill="#A7875E" d="M86.477,69.269h1.758c3.082,3.429,5.143,6.293,6.185,8.593l-0.196,0.13
				c0.694,0.911,1.323,2.778,1.889,5.599l0.391,2.279h-0.196l0.521,2.799h-0.195l0.195,0.13v2.474l-0.195,0.195l0.195,0.13v0.391
				l-0.195,1.758l0.195,0.195l-0.195,0.13h0.195l-0.195,0.195v0.325l0.195,0.195l-0.195,0.195v1.368l-0.13,0.846h0.13l-0.521,3.189
				h0.195l-0.195,0.195v0.846l-0.522,2.799l0.196,0.195c-0.174,0.044-0.629,1.26-1.367,3.646l-1.628,2.083l-1.887,1.758v0.326
				h-0.196l-0.195-0.13h-0.131c-0.955,0.695-2.061,1.042-3.319,1.042h-0.196v-0.326h-0.717c-0.608,0-0.955-0.195-1.041-0.585h0.195
				l-0.195-0.13v-0.195l0.195-1.237H85.11l0.326-2.083l-0.131-0.195v-0.13l0.326-1.953h-0.195l0.195-0.13v-1.758l0.196-0.195v-0.195
				h-0.196l0.196-0.195v-0.13l-0.196-0.195l0.196-0.13v-1.432l-0.196-0.195v-0.13h0.196l-0.196-0.195v-0.391l0.196-0.846h-0.196
				l0.196-0.195v-3.841l-0.196-0.651l0.196-0.195v-0.195l-0.196-0.13l0.196-0.911v-0.716l-0.196-0.13l0.196-0.195v-2.279
				l0.195-0.846l-0.195-0.195h0.195l-0.195-0.195v-2.214L85.631,86h0.196l-0.196-0.456l0.196-5.989l0.195-0.521h-0.195l0.195-0.13
				v-0.195l-0.195-0.846l0.195-2.799v-1.237c0-2.126-0.195-3.19-0.585-3.19C85.696,69.899,86.043,69.443,86.477,69.269z
				 M88.431,73.826v1.563l0.195,0.846h-0.195l0.195,0.195v0.13l-0.195,0.195v0.195h0.195l-0.195,0.195v0.521l0.195,0.195
				l-0.195,0.13v0.195l0.195,0.521l-0.195,0.521h0.195l-0.195,0.13V86l0.195,0.195l-0.195,0.195l0.195,0.911v1.888l0.196,0.195
				c-0.261,0.521-0.391,1.26-0.391,2.213v0.195l0.195,0.717l-0.195,0.716v0.325l0.195,0.717l-0.195,0.13l0.195,1.107l-0.195,6.25
				l0.195,0.911l-0.715,5.403h0.195l-0.326,0.521l0.131,0.195v0.195l-0.131,1.172l0.456,0.716h0.391c0.911,0,2.061-1.215,3.45-3.646
				c1.172-2.951,1.758-5.576,1.758-7.877l-0.13-0.195c0.217-1.128,0.326-2.821,0.326-5.078v-5.403c0-0.607-0.109-0.912-0.326-0.912
				l0.13-0.13v-0.195c-0.087-1.735-0.26-2.604-0.521-2.604l0.196-0.195c0-1.779-1.042-4.623-3.126-8.528l-1.758-2.279H88.431z"/>
			<path fill="#A7875E" d="M102.819,67.836h0.195l0.131,0.586l-0.131,0.13l0.131,1.758v1.042l0.195,0.195v0.13h-0.195l0.195,0.195
				v2.279l0.13,0.195l-0.13,0.13l0.13,1.237v1.953l0.196,0.195l-0.196,0.13l0.196,0.911v2.213l0.195,0.195l-0.195,0.195v0.651
				l0.195,0.195l-0.195,0.195v0.195l0.195,0.521h-0.195l0.195,0.521l-0.195,0.716l0.195,0.456l-0.195,0.717h0.195l-0.195,0.195V86
				l0.195,1.432h-0.195l0.195,0.521l0.326,14.193l0.195,0.13v0.195l-0.195,0.195c0.217,1.129,0.326,2.822,0.326,5.078v0.13
				l0.195,0.195v0.195h-0.195l0.195,0.13v0.195c0,0.348-0.217,0.76-0.65,1.236l0.325,2.409c-0.347,0-0.521,0.195-0.521,0.585
				c-0.694,0-1.172,0.109-1.432,0.326c-0.695,0-1.042-0.521-1.042-1.562h-0.13l0.13-0.195l-0.13-0.911v-1.693l-0.195-0.195
				l0.325-2.799l-0.13-4.036h-0.195l0.195-0.13l-0.195-3.515v-0.521l-0.196-0.846h0.196l-0.196-0.195v-0.39l0.196-0.13l-0.196-0.195
				v-0.195l0.196-0.13l-0.196-0.195v-4.167l0.196-0.195l-0.196-0.195v-2.083l-0.195-0.195l0.195-0.13v-1.432l-0.195-0.195
				l0.195-0.13v-4.232l-0.195-0.651l0.195-0.716l-0.195-0.717h0.195l-0.195-0.195v-4.883l-0.131-0.13l0.131-0.195l-0.131-1.237
				v-2.799l-0.195-2.083C101.212,68.141,102.037,67.836,102.819,67.836z"/>
			<path fill="#A7875E" d="M116.359,67.511v0.195l0.196-0.195h1.237l0.13,0.195l0.195-0.195h0.326c1.172,0,2.344,0.521,3.515,1.562
				v0.391c-0.26,0.564-0.846,0.846-1.758,0.846h-0.325c-0.566-0.694-1.736-1.042-3.517-1.042c-1.693,0-2.864,1.107-3.515,3.321
				c-0.434,0.911-0.89,2.821-1.367,5.728h0.13l-0.325,1.432l0.195,0.716v0.521l-0.195,0.13l0.195,0.586l-0.195,1.562l0.195,0.13
				l-0.195,0.911v2.995l0.195,0.13l-0.195,0.195v0.13l0.325,2.344l-0.13,0.13l0.13,0.195h-0.13l0.521,2.604h-0.195
				c0.26,0.391,0.391,1.15,0.391,2.279h0.13l-0.13,0.195l1.041,6.119h-0.195l0.325,1.172h-0.13l0.652,2.148l-0.131,0.13v0.195
				c1.042,3.603,2.43,5.403,4.167,5.403l4.558-2.278h0.911l0.456,0.586c0,0.955-0.934,1.758-2.8,2.409
				c-1.475,1.172-2.756,1.758-3.841,1.758c-3.082,0-5.099-2.17-6.054-6.51c-0.738-3.125-1.281-6.38-1.628-9.766h-0.13l0.13-0.13
				v-0.195l-0.325-1.758l0.195-0.195l-0.717-4.882l0.131-0.912v-1.042c0-0.954-0.109-1.692-0.326-2.213l0.326-0.391h-0.131
				l0.131-0.195v-0.13l-0.131-0.195l0.131-0.846v-3.711l0.195-0.13V79.75h-0.195l1.041-5.403h-0.13
				c1.388-3.689,2.907-5.794,4.558-6.315L116.359,67.511z"/>
			<path fill="#A7875E" d="M135.89,66.47l0.911,0.651l0.195,0.716h-0.195c0.172,1.39,0.347,2.083,0.521,2.083l-0.195,0.195v0.195
				c0.26,0.478,0.563,2.93,0.911,7.356l0.326,1.237h-0.131l2.083,10.481h-0.195l1.562,7.682h-0.195l0.717,2.474h-0.131l2.083,10.938
				c0.217,0,0.326,0.434,0.326,1.302c0,0.521-0.348,0.976-1.042,1.367h-0.195l-0.13-0.195l-0.587,0.195
				c-0.694,0-1.258-1.519-1.693-4.557l-0.391-0.326l0.196-0.521l-0.326-1.107h0.13l-0.846-3.256h-0.195l0.195-0.585l-2.278-12.565
				c-2.821,0.13-4.232,0.304-4.232,0.521c-0.781,6.207-1.584,10.634-2.408,13.281h0.195c-1.172,3.125-1.931,5.86-2.278,8.203h-1.433
				l-1.041-1.042v-0.521l0.195-0.195l-0.195-0.13v-0.195c1.519-5.164,2.8-11.393,3.841-18.684l0.717-4.036h-0.196l0.391-0.846
				h-0.195l0.846-4.036l-0.131-0.195c0.217,0,0.564-1.974,1.042-5.924c0.824-5.685,1.409-8.832,1.758-9.44L135.89,66.47z
				 M135.044,78.709l-1.237,8.008l-0.13,1.758h0.13l3.189-0.326l-0.391-1.562h0.196l-1.237-5.599h0.195
				c-0.174-0.954-0.347-1.432-0.521-1.432l0.196-0.195v-0.13l-0.196-0.521H135.044z"/>
			<path fill="#A7875E" d="M147.737,68.032l0.196,0.195h1.106c0.477,1.26,0.868,3.994,1.172,8.203h0.195l-0.195,0.13l0.326,1.758
				h-0.131l0.326,0.717l-0.195,0.195l0.391,3.32h-0.196l0.196,0.195v1.042l0.195,2.083h-0.195l0.325,2.083l-0.13,0.195l0.13,0.195
				h0.196l-0.196,0.13l0.913,7.682l-0.196,0.195v0.195l0.196,0.652l-0.196,0.195l0.911,6.836l-0.195,0.195l0.65,6.055h1.237
				l0.196-0.13l0.195,0.13h0.13l1.628-0.326l0.13,0.195l0.913-0.195h1.171l0.196-0.13h0.195v0.13l3.45-0.716
				c0.694,1.085,1.237,1.627,1.628,1.627v0.521c0,0.304-0.89,0.521-2.669,0.651v0.195l-0.13-0.195l-2.474,0.391v-0.195l-0.196,0.195
				h-0.65c-1.433,0.044-2.148,0.152-2.148,0.325l-0.131-0.13h-0.195l-0.717,0.13v-0.13l-1.562,0.326v-0.195l-0.196,0.195h-0.13
				c-2.083,0-3.124-0.889-3.124-2.669l0.13-0.13v-0.195c-0.087-1.389-0.195-2.083-0.326-2.083l0.196-0.195l-0.717-5.403h0.13
				l-0.13-0.195v-2.278l-0.195-0.13v-0.195h0.195l-0.326-1.562h0.131c-0.219-1.389-0.391-2.083-0.522-2.083l0.196-0.195v-0.846
				l-0.196-0.195v-0.195h0.196l-0.521-3.646h0.13l-0.13-0.195v-0.521l0.13-0.13l-0.326-1.758h0.196l-0.717-9.114h-0.196l0.196-0.195
				l-0.326-1.758h0.13l-0.325-1.758h0.195l-0.911-6.64c0-0.433,0.456-0.651,1.367-0.651V68.032z"/>
			<path fill="#A7875E" d="M168.18,68.032l0.196,0.195h1.106c0.477,1.26,0.868,3.994,1.172,8.203h0.195l-0.195,0.13l0.326,1.758
				h-0.131l0.326,0.717l-0.195,0.195l0.391,3.32h-0.196l0.196,0.195v1.042l0.195,2.083h-0.195l0.325,2.083l-0.13,0.195l0.13,0.195
				h0.196l-0.196,0.13l0.913,7.682l-0.196,0.195v0.195l0.196,0.652l-0.196,0.195l0.911,6.836l-0.195,0.195l0.65,6.055h1.237
				l0.196-0.13l0.195,0.13h0.13l1.628-0.326l0.13,0.195l0.913-0.195h1.171l0.196-0.13h0.195v0.13l3.45-0.716
				c0.694,1.085,1.237,1.627,1.628,1.627v0.521c0,0.304-0.89,0.521-2.669,0.651v0.195l-0.13-0.195l-2.474,0.391v-0.195l-0.196,0.195
				h-0.65c-1.433,0.044-2.148,0.152-2.148,0.325l-0.131-0.13h-0.195l-0.717,0.13v-0.13l-1.562,0.326v-0.195l-0.196,0.195h-0.13
				c-2.083,0-3.124-0.889-3.124-2.669l0.13-0.13v-0.195c-0.087-1.389-0.195-2.083-0.326-2.083l0.196-0.195l-0.717-5.403h0.13
				l-0.13-0.195v-2.278l-0.195-0.13v-0.195h0.195l-0.326-1.562h0.131c-0.219-1.389-0.391-2.083-0.522-2.083l0.196-0.195v-0.846
				l-0.196-0.195v-0.195h0.196l-0.521-3.646h0.13l-0.13-0.195v-0.521l0.13-0.13l-0.326-1.758h0.196l-0.717-9.114h-0.196l0.196-0.195
				l-0.326-1.758h0.13l-0.325-1.758h0.195l-0.911-6.64c0-0.433,0.456-0.651,1.367-0.651V68.032z"/>
			<path fill="#A7875E" d="M200.535,66.99c1.388,0.088,2.083,0.565,2.083,1.432l-0.13,0.13v0.195l0.13,0.13v0.195
				c-1.475,4.818-3.038,9.31-4.687,13.476l-0.196,1.562v0.391l0.196,0.651l-0.196,0.521l0.391,2.799h-0.195l0.195,0.195v3.515
				l0.131,1.172h-0.131l0.131,0.195v3.19l0.195,0.651l-0.195,0.195l0.521,5.599l-0.13,0.195l0.325,2.605h-0.195l0.195,0.195v0.456
				l-0.195,0.195v0.195h0.195l-0.195,0.195v0.521l0.195,0.13v0.195l-0.195,0.195h0.195l-0.195,0.13v0.195l0.195,0.521h-0.195
				c0.261,0.781,0.391,2.019,0.391,3.711l-1.042,0.326h-0.521l-0.195-0.195l-0.196,0.195h-0.195c-0.261,0-0.543-1.628-0.846-4.883
				h0.195l-0.195-0.195v-0.325l0.195-0.195l-0.195-0.195v-0.716c0-1.736-0.109-2.605-0.326-2.605l0.13-0.195l-0.324-2.214h0.195
				l-0.391-1.953h0.196l-0.326-1.888l0.13-0.195l-0.13-0.846v-2.669l-0.196-0.13v-0.195l0.196-0.195h-0.196l0.196-0.195v-0.13
				l-0.196-0.521h0.196l-0.196-0.195v-0.195l0.196-0.13l-0.391-1.953l0.195-0.13l-0.325-2.344l0.13-0.13
				c0-1.823-0.391-2.995-1.172-3.516c-1.172-3.515-3.342-8.636-6.51-15.364l0.195-0.912h1.368l0.195,0.195h0.196v-0.195
				c0.65,0,1.518,1.476,2.604,4.427c0.868,1.476,1.388,2.626,1.562,3.45c0.217,0.044,0.868,1.497,1.954,4.362l0.13,0.195h0.196
				l0.195-0.911h-0.195c1.041-1.735,2.321-5.273,3.841-10.611h-0.131C199.753,67.576,200.144,66.99,200.535,66.99z"/>
		</g>
		<g>
			<path fill="#A7875E" d="M104.922,35.552c2.374-0.19,7.691-2.089,7.691-6.457c0-1.139-0.76-1.804-1.709-1.804
				c-1.995,0-1.234,3.798-4.464,3.798c-1.234,0-1.519-2.374-1.898-3.608c-0.571,1.139-1.71,3.323-2.469,3.323
				c-1.425,0-2.754-0.95-3.514-2.184c-0.57,1.14-2.563,2.469-3.703,2.469c-0.759,0-2.374-0.76-2.374-2.183
				c0-1.519,0.475-3.419,0.475-5.128c0-0.474,0-0.949-0.095-1.424c-2.469,0-3.038,2.183-3.038,4.652c0,0.665,0,1.234,0,1.899
				c0,1.139,0.285,4.177-1.139,4.177c-1.14,0-2.089-0.854-2.089-2.374c0-2.374,0.759-4.558,0.759-7.026c0-0.76,0-1.14-0.38-1.709
				c-3.038,3.038-2.658,11.489-5.032,11.489c-1.615,0-2.943-0.855-3.514-2.564c-0.664,1.899-0.854,4.558-2.754,4.558
				c-1.993,0-2.943-1.14-2.943-5.032c0-3.324,1.045-9.021,4.464-9.021c0.57,0,0.948,0.285,1.328,1.044
				c0.475-0.76,1.045-0.95,1.519-0.95c0.57,0,0.95,0.285,0.95,0.57v7.216c0,0.38,0.38,0.57,0.665,0.57s0.38-0.189,0.665-0.57
				c0.854-4.273,1.993-10.065,6.362-10.065c1.898,0,0.474,1.709,1.519,2.184c0.189,0.19,3.417-2.944,4.462-2.944
				c0.57,0,0.854,0.095,1.234,1.044c0,3.419-0.474,5.697-0.474,8.926c3.608,0,2.183-11.015,9.115-11.015
				c0.474-3.133-0.665-10.919,3.132-10.919c1.045,0,1.139,1.14,1.139,2.089c0,7.881-1.804,9.211-1.804,16.522
				c0,0.949,0,1.234,0.38,2.374c0.95-1.329,1.995-2.848,3.608-2.848c2.469,0,3.608,2.183,3.608,3.987
				c0,6.457-6.456,8.641-10.064,9.021c-8.261,0.95-17.756,0.095-25.448,5.792c-1.139,0.854-3.703,4.178-5.412,4.178
				c-0.759,0-1.615-0.57-1.615-1.615C72.069,36.122,96.187,36.502,104.922,35.552z M103.022,5.738
				c0,6.552-20.889,10.255-27.346,10.255c-0.948,0-1.044-0.475-1.044-0.855c0-0.379,0.285-0.76,0.665-0.76
				c7.785-0.664,11.678-1.804,17.185-4.558c4.462-2.279,4.462-5.792,8.356-5.792C102.263,4.029,103.022,4.694,103.022,5.738z
				 M77.291,24.158c-1.615,0-2.278,3.133-2.278,5.412c0,1.33,0.189,2.279,0.57,2.279c2.089,0,2.469-6.267,2.469-7.501
				C77.767,24.253,77.482,24.158,77.291,24.158z M101.979,27.482c1.804,0,2.943-6.362,2.943-8.261c-2.848,0-3.797,3.419-3.797,6.647
				C101.124,26.817,101.124,27.482,101.979,27.482z"/>
		</g>
	</g>
</g>
</svg>
