<?xml version="1.0" encoding="utf-8"?>
<!-- Generator: Adobe Illustrator 17.0.0, SVG Export Plug-In . SVG Version: 6.00 Build 0)  -->
<!DOCTYPE svg PUBLIC "-//W3C//DTD SVG 1.1//EN" "http://www.w3.org/Graphics/SVG/1.1/DTD/svg11.dtd">
<svg version="1.1" id="Layer_1" xmlns="http://www.w3.org/2000/svg" xmlns:xlink="http://www.w3.org/1999/xlink" x="0px" y="0px"
	 width="250px" height="160px" viewBox="0 0 250 160" enable-background="new 0 0 250 160" xml:space="preserve">
<g id="ARMIRA">
	<g>
		<path fill-rule="evenodd" clip-rule="evenodd" d="M20.21,79.714h34.887L37.689,44.8L20.21,79.714z M27.294,75.386l10.395-20.774
			l10.39,20.774H27.294z M60.023,79.714h4.316V64.49h4.047l26.518,15.158v-4.939L77.09,64.49h17.814V44.872H60.023V79.714z
			 M64.339,49.266h26.249v10.896H64.339V49.266z M137.15,44.8l-17.408,8.799L102.4,44.8v34.914h34.75V44.8z M132.828,75.452h-26.112
			V51.909l13.026,6.563l13.086-6.563V75.452z M156.45,79.714h4.316V64.49h4.047l26.518,15.158v-4.939L173.517,64.49h17.814V44.872
			H156.45V79.714z M160.766,49.266h26.249v10.896h-26.249V49.266z M213.802,44.8l-17.479,34.914h34.887L213.802,44.8z
			 M213.802,54.612l10.39,20.774h-20.779L213.802,54.612z M144.64,79.714h4.319V44.8h-4.319V79.714z M109.477,106.531h8.321v2.553
			h-8.321v1.259h8.321v3.199h-8.321v1.259h9.503v-9.526h-9.503V106.531z M128.425,109.066h-7.121v-3.812h-1.2v5.069h8.321v4.477
			h1.182v-9.546h-1.182V109.066z M131.746,114.8h1.198v-1.277h-1.198V114.8z M134.974,110.342h8.341v3.199h-8.341v1.259h9.521
			v-9.526h-9.521V110.342z M136.174,106.531h7.141v2.553h-7.141V106.531z M68.064,106.641c-0.431-0.432-0.935-0.769-1.513-1.017
			s-1.193-0.37-1.845-0.37h-4.796v9.546h4.796c0.652,0,1.267-0.123,1.845-0.37c0.578-0.246,1.083-0.585,1.513-1.017
			c0.431-0.432,0.771-0.938,1.023-1.517c0.252-0.578,0.378-1.201,0.378-1.868s-0.126-1.288-0.378-1.868
			C68.835,107.579,68.494,107.073,68.064,106.641z M68.008,111.396c-0.184,0.432-0.441,0.82-0.775,1.165
			c-0.344,0.345-0.735,0.607-1.171,0.786c-0.436,0.179-0.888,0.269-1.357,0.269h-3.616v-7.177h3.616
			c0.468,0,0.921,0.089,1.357,0.267c0.436,0.179,0.827,0.441,1.171,0.786c0.333,0.334,0.591,0.719,0.775,1.156
			c0.186,0.439,0.277,0.898,0.277,1.378C68.285,110.507,68.193,110.964,68.008,111.396z M75.112,114.799h1.216v-9.546h-1.216
			V114.799z M81.643,114.799h9.538l-4.76-9.546L81.643,114.799z M83.58,113.616l2.841-5.68l2.841,5.68H83.58z M169.384,105.254
			v9.546h9.502v-9.546l-4.76,2.404L169.384,105.254z M177.704,113.634h-7.14v-6.438l3.562,1.796l3.578-1.796V113.634z
			 M180.932,105.254v9.546h9.502v-9.546l-4.76,2.404L180.932,105.254z M189.253,113.634h-7.14v-6.438l3.562,1.796l3.578-1.796
			V113.634z"/>
	</g>
</g>
</svg>
