<?xml version="1.0" encoding="utf-8"?>
<!-- Generator: Adobe Illustrator 17.0.0, SVG Export Plug-In . SVG Version: 6.00 Build 0)  -->
<!DOCTYPE svg PUBLIC "-//W3C//DTD SVG 1.1//EN" "http://www.w3.org/Graphics/SVG/1.1/DTD/svg11.dtd">
<svg version="1.1" id="Layer_1" xmlns="http://www.w3.org/2000/svg" xmlns:xlink="http://www.w3.org/1999/xlink" x="0px" y="0px"
	 width="212px" height="70px" viewBox="0 0 212 70" enable-background="new 0 0 212 70" xml:space="preserve">
<g>
	<g>
		<path d="M17.963,0l17.454,34.914H0.437L17.963,0z M17.963,9.812L7.54,30.586h20.84L17.963,9.812z"/>
		<path d="M75.331,0.072V19.69H57.469l17.862,10.219v4.939L48.742,19.69h-4.058v15.224h-4.328V0.072H75.331z M71.003,15.362V4.466
			H44.684v10.896H71.003z"/>
		<path d="M82.846,34.914V0l17.388,8.799L117.689,0v34.914H82.846z M87.174,30.652h26.181V7.109l-13.121,6.563l-13.06-6.563V30.652z
			"/>
		<path d="M172.015,0.072V19.69h-17.862l17.862,10.219v4.939L145.426,19.69h-4.058v15.224h-4.328V0.072H172.015z M167.687,15.362
			V4.466h-26.319v10.896H167.687z"/>
		<path d="M194.546,0L212,34.914h-34.98L194.546,0z M194.546,9.812l-10.417,20.774h20.835L194.546,9.812z"/>
		<rect x="125.199" width="4.33" height="34.914"/>
	</g>
	<g>
		<g>
			<g>
				<path d="M99.47,60.474v0.018v9.49V70h-9.528v-1.259h8.343v-3.199h-8.343v-1.259h8.343v-2.553h-8.343v-1.257H99.47z"/>
				<path d="M108.941,60.454h1.185V70h-1.185v-4.477h-8.343v-5.069h1.203v3.812h7.14V60.454z"/>
				<path d="M112.271,68.723h1.201V70h-1.201V68.723z"/>
				<path d="M115.507,60.474v5.069h8.363v3.199h-8.363V70h9.546v-0.056v-9.471H115.507z M123.87,64.284h-7.16v-2.553h7.16V64.284z"
					/>
			</g>
		</g>
		<g>
			<g>
				<path d="M40.242,60.454h4.809c0.654,0,1.27,0.123,1.85,0.37c0.58,0.247,1.086,0.585,1.517,1.017
					c0.432,0.432,0.773,0.938,1.026,1.517s0.379,1.201,0.379,1.868c0,0.667-0.126,1.29-0.379,1.868
					c-0.253,0.58-0.594,1.086-1.026,1.517c-0.432,0.432-0.938,0.771-1.517,1.017c-0.58,0.247-1.196,0.37-1.85,0.37h-4.809V60.454z
					 M41.425,68.816h3.626c0.47,0,0.923-0.09,1.36-0.269c0.437-0.179,0.829-0.441,1.174-0.786c0.334-0.345,0.593-0.733,0.777-1.165
					c0.186-0.432,0.278-0.889,0.278-1.369s-0.092-0.939-0.278-1.378c-0.184-0.437-0.443-0.822-0.777-1.156
					c-0.345-0.345-0.737-0.607-1.174-0.786c-0.437-0.179-0.891-0.267-1.36-0.267h-3.626V68.816z"/>
				<path d="M55.485,70v-9.546h1.219V70H55.485z"/>
				<path d="M66.825,60.454L71.598,70h-9.564L66.825,60.454z M66.825,63.137l-2.849,5.68h5.698L66.825,63.137z"/>
			</g>
		</g>
		<g>
			<g>
				<path d="M150.009,70v-9.546l4.755,2.404l4.773-2.404V70H150.009z M151.192,68.834h7.159v-6.438l-3.588,1.796l-3.571-1.796
					V68.834z"/>
				<path d="M161.588,70v-9.546l4.755,2.404l4.773-2.404V70H161.588z M162.772,68.834h7.159v-6.438l-3.588,1.796l-3.571-1.796
					V68.834z"/>
			</g>
		</g>
	</g>
</g>
</svg>
