<?xml version="1.0" encoding="utf-8"?>
<!-- Generator: Adobe Illustrator 17.0.0, SVG Export Plug-In . SVG Version: 6.00 Build 0)  -->
<!DOCTYPE svg PUBLIC "-//W3C//DTD SVG 1.1//EN" "http://www.w3.org/Graphics/SVG/1.1/DTD/svg11.dtd">
<svg version="1.1" id="Layer_1" xmlns="http://www.w3.org/2000/svg" xmlns:xlink="http://www.w3.org/1999/xlink" x="0px" y="0px"
	 width="18px" height="20px" viewBox="0 0 18 20" enable-background="new 0 0 18 20" xml:space="preserve">
<g id="components">
	<g>
		<path fill-rule="evenodd" clip-rule="evenodd" fill="#393939" d="M13.52,1.317h-0.846L9,8.697L5.326,1.317H4.48l-4.48,9l4.48,9
			h0.847L9,11.936l3.674,7.381h0.846l4.48-9L13.52,1.317z M4.903,3.467l1.72,3.455L6.314,6.789c-0.511-0.221-0.96-0.323-1.411-0.323
			c-0.451,0-0.899,0.103-1.411,0.323L3.183,6.922L4.903,3.467z M4.903,17.166l-1.72-3.455l0.309,0.133
			c0.511,0.221,0.96,0.323,1.411,0.323c0.451,0,0.9-0.103,1.411-0.323l0.309-0.133L4.903,17.166z M4.903,13.296
			c-1.582,0-2.868-1.336-2.868-2.979s1.287-2.979,2.868-2.979c1.582,0,2.868,1.336,2.868,2.979S6.484,13.296,4.903,13.296z
			 M13.097,3.467l1.72,3.455l-0.309-0.133c-0.511-0.221-0.96-0.323-1.411-0.323c-0.451,0-0.899,0.103-1.411,0.323l-0.309,0.133
			L13.097,3.467z M13.097,17.166l-1.72-3.455l0.309,0.133c0.511,0.221,0.96,0.323,1.411,0.323c0.451,0,0.899-0.103,1.411-0.323
			l0.309-0.133L13.097,17.166z M13.097,13.296c-1.582,0-2.868-1.336-2.868-2.979s1.287-2.979,2.868-2.979
			c1.582,0,2.868,1.336,2.868,2.979S14.679,13.296,13.097,13.296z"/>
	</g>
</g>
</svg>
