<?xml version="1.0" encoding="utf-8"?>
<!-- Generator: Adobe Illustrator 17.0.0, SVG Export Plug-In . SVG Version: 6.00 Build 0)  -->
<!DOCTYPE svg PUBLIC "-//W3C//DTD SVG 1.1//EN" "http://www.w3.org/Graphics/SVG/1.1/DTD/svg11.dtd">
<svg version="1.1" id="Layer_1" xmlns="http://www.w3.org/2000/svg" xmlns:xlink="http://www.w3.org/1999/xlink" x="0px" y="0px"
	 width="14px" height="14px" viewBox="0 0 14 14" enable-background="new 0 0 14 14" xml:space="preserve">
<g id="C">
	<g>
		<path fill-rule="evenodd" clip-rule="evenodd" fill="#FFFFFF" d="M9.5,9.123C9.356,9.454,9.169,9.744,8.937,9.99
			c-0.231,0.248-0.507,0.444-0.826,0.587c-0.319,0.143-0.679,0.214-1.077,0.214c-0.567,0-1.053-0.107-1.46-0.323
			c-0.408-0.214-0.741-0.5-1-0.855c-0.26-0.355-0.451-0.758-0.575-1.209c-0.124-0.451-0.186-0.908-0.186-1.37
			c0-0.471,0.062-0.929,0.186-1.377c0.124-0.447,0.315-0.847,0.575-1.202c0.259-0.355,0.592-0.641,1-0.857
			c0.407-0.215,0.893-0.322,1.46-0.322c0.311,0,0.608,0.045,0.892,0.136c0.283,0.093,0.543,0.226,0.778,0.402
			C8.94,3.988,9.139,4.206,9.303,4.465c0.163,0.26,0.281,0.553,0.353,0.88h0.814c-0.056-0.446-0.19-0.842-0.401-1.186
			c-0.212-0.342-0.475-0.632-0.79-0.867C8.964,3.057,8.613,2.879,8.225,2.76C7.838,2.64,7.441,2.58,7.034,2.58
			c-0.671,0-1.259,0.122-1.766,0.364C4.761,3.188,4.341,3.516,4.005,3.926C3.67,4.338,3.418,4.811,3.251,5.345
			C3.084,5.88,2.999,6.443,2.999,7.033c0,0.59,0.084,1.153,0.252,1.688c0.168,0.535,0.419,1.005,0.754,1.413
			c0.336,0.408,0.756,0.732,1.263,0.976c0.507,0.244,1.096,0.365,1.766,0.365c0.502,0,0.959-0.08,1.371-0.239
			c0.41-0.159,0.768-0.387,1.071-0.683c0.304-0.294,0.551-0.654,0.742-1.078c0.191-0.423,0.315-0.898,0.371-1.424H9.776
			C9.736,8.434,9.644,8.791,9.5,9.123z M7,0C3.14,0,0,3.141,0,7c0,3.86,3.14,7,7,7c3.86,0,7-3.14,7-7C14,3.141,10.86,0,7,0z
			 M7,13.091c-3.359,0-6.091-2.732-6.091-6.091c0-3.359,2.732-6.091,6.091-6.091c3.359,0,6.091,2.732,6.091,6.091
			C13.091,10.359,10.359,13.091,7,13.091z"/>
	</g>
</g>
</svg>
