<?xml version="1.0" encoding="utf-8"?>
<!-- Generator: Adobe Illustrator 17.0.0, SVG Export Plug-In . SVG Version: 6.00 Build 0)  -->
<!DOCTYPE svg PUBLIC "-//W3C//DTD SVG 1.1//EN" "http://www.w3.org/Graphics/SVG/1.1/DTD/svg11.dtd">
<svg version="1.1" id="Layer_1" xmlns="http://www.w3.org/2000/svg" xmlns:xlink="http://www.w3.org/1999/xlink" x="0px" y="0px"
	 width="65px" height="95px" viewBox="0 0 65 95" enable-background="new 0 0 65 95" xml:space="preserve">
<g>
	<path d="M0.178,78.29V16.71L32.5,0l32.321,16.71v61.58L32.5,95L0.178,78.29z M32.5,66.013c-5.899,0-10.7,4.799-10.7,10.699
		c0,5.899,4.8,10.699,10.7,10.699s10.699-4.799,10.699-10.699C43.199,70.812,38.4,66.013,32.5,66.013z M46.397,72.06
		c1.092,3.261,1.092,6.043,0,9.304l-0.356,1.065L57.1,76.712L46.04,70.994L46.397,72.06z M7.9,76.712l11.059,5.717l-0.356-1.065
		c-1.092-3.261-1.092-6.043,0-9.304l0.356-1.065L7.9,76.712z M4.431,20.083v52.852l26.118-13.502V45.145L16.98,31.576l13.569-13.569
		V6.58L4.431,20.083z M34.801,44.795v14.818L60.57,72.934V20.083L34.801,6.761v11.596l13.22,13.219L34.801,44.795z M23.978,31.576
		l8.522,8.522l8.522-8.522L32.5,23.054L23.978,31.576z"/>
	<path d="M32.5,81.118c-2.43,0-4.406-1.977-4.406-4.406c0-2.43,1.976-4.407,4.406-4.407c2.429,0,4.406,1.977,4.406,4.407
		C36.906,79.141,34.93,81.118,32.5,81.118z"/>
</g>
</svg>
