<?xml version="1.0" encoding="utf-8"?>
<!-- Generator: Adobe Illustrator 17.0.0, SVG Export Plug-In . SVG Version: 6.00 Build 0)  -->
<!DOCTYPE svg PUBLIC "-//W3C//DTD SVG 1.1//EN" "http://www.w3.org/Graphics/SVG/1.1/DTD/svg11.dtd">
<svg version="1.1" id="Layer_1" xmlns="http://www.w3.org/2000/svg" xmlns:xlink="http://www.w3.org/1999/xlink" x="0px" y="0px"
	 width="57.839px" height="85px" viewBox="0 0 57.839 85" enable-background="new 0 0 57.839 85" xml:space="preserve">
<g>
	<path d="M0,70.049V14.951L28.92,0l28.919,14.951v55.098L28.92,85L0,70.049z M28.92,59.064c-5.278,0-9.573,4.294-9.573,9.573
		c0,5.278,4.295,9.572,9.573,9.572s9.573-4.294,9.573-9.572C38.493,63.358,34.198,59.064,28.92,59.064z M41.353,64.474
		c0.977,2.918,0.977,5.407,0,8.325l-0.319,0.953l9.895-5.115l-9.895-5.116L41.353,64.474z M6.909,68.637l9.895,5.115l-0.319-0.953
		c-0.977-2.918-0.977-5.407,0-8.325l0.319-0.953L6.909,68.637z M3.805,17.969v47.288l23.369-12.081V40.393L15.033,28.252
		l12.141-12.141V5.887L3.805,17.969z M30.978,40.08v13.258l23.056,11.919V17.969L30.978,6.049v10.376l11.828,11.827L30.978,40.08z
		 M21.294,28.252l7.625,7.625l7.625-7.625l-7.625-7.625L21.294,28.252z"/>
	<path d="M28.92,72.579c-2.174,0-3.943-1.769-3.943-3.943c0-2.174,1.768-3.943,3.943-3.943c2.173,0,3.942,1.769,3.942,3.943
		C32.862,70.811,31.093,72.579,28.92,72.579z"/>
</g>
</svg>
