<?xml version="1.0" encoding="utf-8"?>
<!-- Generator: Adobe Illustrator 17.0.0, SVG Export Plug-In . SVG Version: 6.00 Build 0)  -->
<!DOCTYPE svg PUBLIC "-//W3C//DTD SVG 1.1//EN" "http://www.w3.org/Graphics/SVG/1.1/DTD/svg11.dtd">
<svg version="1.1" id="Layer_1" xmlns="http://www.w3.org/2000/svg" xmlns:xlink="http://www.w3.org/1999/xlink" x="0px" y="0px"
	 width="250px" height="160px" viewBox="0 0 250 160" enable-background="new 0 0 250 160" xml:space="preserve">
<g id="eye">
	<g>
		<path fill-rule="evenodd" clip-rule="evenodd" d="M125.71,18.3l-42,21.635v79.73l42,21.635l42-21.635v-79.73L125.71,18.3z
			 M136.784,59.182L125.71,70.216l-11.074-11.034l11.074-11.033L136.784,59.182z M89.236,44.302l33.939-17.482v14.795
			l-17.632,17.568l17.632,17.568v18.498l-33.939,17.482V44.302z M107.652,123.645l0.463,1.379l-14.371-7.402l14.371-7.403
			l-0.463,1.379C106.233,115.82,106.233,119.423,107.652,123.645z M125.71,131.474c-7.666,0-13.904-6.214-13.904-13.852
			c0-7.638,6.238-13.852,13.904-13.852c7.666,0,13.903,6.214,13.903,13.852C139.613,125.259,133.377,131.474,125.71,131.474z
			 M143.305,125.024l0.463-1.379c1.419-4.222,1.419-7.825,0-12.047l-0.463-1.379l14.371,7.403L143.305,125.024z M162.185,112.731
			L128.7,95.483V76.298l17.178-17.115L128.7,42.068V27.054l33.485,17.248V112.731z M125.71,111.916
			c-3.157,0-5.726,2.559-5.726,5.706c0,3.146,2.568,5.705,5.726,5.705c3.157,0,5.725-2.559,5.725-5.705
			C131.435,114.475,128.867,111.916,125.71,111.916z"/>
	</g>
</g>
</svg>
