<?xml version="1.0" encoding="utf-8"?>
<!-- Generator: Adobe Illustrator 17.0.0, SVG Export Plug-In . SVG Version: 6.00 Build 0)  -->
<!DOCTYPE svg PUBLIC "-//W3C//DTD SVG 1.1//EN" "http://www.w3.org/Graphics/SVG/1.1/DTD/svg11.dtd">
<svg version="1.1" id="Layer_1" xmlns="http://www.w3.org/2000/svg" xmlns:xlink="http://www.w3.org/1999/xlink" x="0px" y="0px"
	 width="10px" height="150px" viewBox="0 0 10 150" enable-background="new 0 0 10 150" xml:space="preserve">
<g id="circle5">
	<g>
		<path fill-rule="evenodd" clip-rule="evenodd" d="M5,141.525c-2.209,0-4,1.791-4,4s1.791,4,4,4c2.209,0,4-1.791,4-4
			S7.209,141.525,5,141.525z M5,148.525c-1.654,0-3-1.346-3-3c0-1.654,1.346-3,3-3s3,1.346,3,3C8,147.179,6.654,148.525,5,148.525z"
			/>
	</g>
</g>
<g id="circle4">
	<g>
		<path fill-rule="evenodd" clip-rule="evenodd" d="M5,106.525c-2.209,0-4,1.791-4,4c0,2.209,1.791,4,4,4c2.209,0,4-1.791,4-4
			C9,108.316,7.209,106.525,5,106.525z M5,113.525c-1.654,0-3-1.346-3-3c0-1.654,1.346-3,3-3s3,1.346,3,3
			C8,112.179,6.654,113.525,5,113.525z"/>
	</g>
</g>
<g id="circle3">
	<g>
		<path fill-rule="evenodd" clip-rule="evenodd" d="M5,71.525c-2.209,0-4,1.791-4,4c0,2.209,1.791,4,4,4c2.209,0,4-1.791,4-4
			C9,73.316,7.209,71.525,5,71.525z M5,78.525c-1.654,0-3-1.346-3-3c0-1.654,1.346-3,3-3s3,1.346,3,3
			C8,77.179,6.654,78.525,5,78.525z"/>
	</g>
</g>
<g id="circle2">
	<g>
		<path fill-rule="evenodd" clip-rule="evenodd" d="M5,36.526c-2.209,0-4,1.791-4,4s1.791,4,4,4c2.209,0,4-1.791,4-4
			S7.209,36.526,5,36.526z M5,43.526c-1.654,0-3-1.346-3-3c0-1.654,1.346-3,3-3s3,1.346,3,3C8,42.18,6.654,43.526,5,43.526z"/>
	</g>
</g>
<g id="circle1">
	<g>
		<path fill-rule="evenodd" clip-rule="evenodd" d="M5,1.526c-2.209,0-4,1.791-4,4c0,2.209,1.791,4,4,4c2.209,0,4-1.791,4-4
			C9,3.317,7.209,1.526,5,1.526z M5,8.526c-1.654,0-3-1.346-3-3c0-1.654,1.346-3,3-3s3,1.346,3,3C8,7.18,6.654,8.526,5,8.526z"/>
	</g>
</g>
</svg>
