<?xml version="1.0" encoding="utf-8"?>
<!-- Generator: Adobe Illustrator 17.0.0, SVG Export Plug-In . SVG Version: 6.00 Build 0)  -->
<!DOCTYPE svg PUBLIC "-//W3C//DTD SVG 1.1//EN" "http://www.w3.org/Graphics/SVG/1.1/DTD/svg11.dtd">
<svg version="1.1" id="Layer_1" xmlns="http://www.w3.org/2000/svg" xmlns:xlink="http://www.w3.org/1999/xlink" x="0px" y="0px"
	 width="100px" height="20px" viewBox="0 0 100 20" enable-background="new 0 0 100 20" xml:space="preserve">
<g>
	<path fill="#3C3C3C" d="M36.003,1.462c-2.5,0-5,0-7.5,0c-0.815,0-1.63,0-2.445,0c0,5.681,0,11.363,0,17.044c0.815,0,1.63,0,2.445,0
		c0-2.318,0-4.635,0-6.953c0.153,0,0.307,0,0.46,0c1.674,2.318,3.349,4.635,5.023,6.953c1.084,0,2.169,0,3.253,0
		c-1.674-2.318-3.349-4.635-5.025-6.953c0.818,0,1.637,0,2.455,0c1.675,2.318,3.349,4.635,5.023,6.953c1.085,0,2.169,0,3.254,0
		c-1.732-2.397-3.462-4.792-5.194-7.188C43.176,9.805,42.593,1.515,36.003,1.462z M28.503,9.272c0-1.799,0-3.599,0-5.398
		c2.5,0,5,0,7.5,0c3.748,0.185,3.748,5.214,0,5.398C33.503,9.272,31.003,9.272,28.503,9.272z"/>
	<polygon fill="#3C3C3C" points="96.505,18.505 100,18.505 91.701,0.884 87.26,10.311 82.82,0.884 74.52,18.505 78.015,18.505 
		82.82,8.304 87.215,17.636 88.959,13.934 91.112,18.505 94.609,18.505 90.751,10.32 91.701,8.304 	"/>
	<path fill="#3C3C3C" d="M7.041,1.461c-0.815,0-1.63,0-2.445,0c-0.815,0-1.63,0-2.445,0c0,2.495,0,4.989,0,7.484
		c-0.717,0-1.434,0-2.152,0c0,0.804,0,1.608,0,2.412c0.717,0,1.434,0,2.152,0c0,2.383,0,4.765,0,7.148c0.815,0,1.63,0,2.445,0
		c0.815,0,1.63,0,2.445,0C19.804,18.518,19.804,1.448,7.041,1.461z M7.041,15.884c-0.692,0-1.384,0-2.075,0c0-1.509,0-3.018,0-4.527
		c1.511,0,3.023,0,4.534,0c0-0.804,0-1.608,0-2.412c-1.511,0-3.023,0-4.534,0c0-1.621,0-3.243,0-4.864c0.692,0,1.384,0,2.075,0
		C15.879,4.074,15.879,15.893,7.041,15.884z"/>
	<path fill="#3C3C3C" d="M65.337,6.329c1.747,2.529,1.425,5.926-0.769,8.09c-2.193,2.164-5.636,2.483-8.199,0.76
		c-0.628,0.62-1.258,1.241-1.886,1.861c3.62,2.729,8.726,2.395,11.947-0.784c3.222-3.178,3.561-8.216,0.795-11.788
		C66.596,5.09,65.967,5.71,65.337,6.329z"/>
	<path fill="#3C3C3C" d="M55.44,5.411c2.181-2.152,5.603-2.481,8.164-0.782c0.628-0.622,1.258-1.241,1.888-1.863
		c-3.62-2.703-8.705-2.359-11.916,0.806c-3.21,3.169-3.559,8.187-0.819,11.759c0.63-0.622,1.26-1.243,1.89-1.865
		C52.925,10.94,53.257,7.565,55.44,5.411z"/>
</g>
</svg>
