<?xml version="1.0" encoding="utf-8"?>
<!-- Generator: Adobe Illustrator 17.0.0, SVG Export Plug-In . SVG Version: 6.00 Build 0)  -->
<!DOCTYPE svg PUBLIC "-//W3C//DTD SVG 1.1//EN" "http://www.w3.org/Graphics/SVG/1.1/DTD/svg11.dtd">
<svg version="1.1" id="Layer_1" xmlns="http://www.w3.org/2000/svg" xmlns:xlink="http://www.w3.org/1999/xlink" x="0px" y="0px"
	 width="48px" height="48px" viewBox="0 0 48 48" enable-background="new 0 0 48 48" xml:space="preserve">
<g id="facebook">
	<g>
		<path fill-rule="evenodd" clip-rule="evenodd" fill="#FFFFFF" d="M22.477,17.627v3.38h-3.958v4.584h3.958v11.762h4.734V25.591
			h3.948l0.591-4.584H27.21v-2.926c0-1.327,0.369-2.231,2.272-2.231l2.427-0.001v-4.1c-0.42-0.056-1.861-0.181-3.537-0.181
			C24.873,11.568,22.477,13.704,22.477,17.627z M24,0C10.767,0,0,10.767,0,24c0,13.234,10.767,24,24,24s24-10.766,24-24
			C48,10.767,37.234,0,24,0z M24,46.545C11.568,46.545,1.455,36.432,1.455,24C1.455,11.568,11.568,1.455,24,1.455
			c12.431,0,22.545,10.114,22.545,22.545C46.545,36.432,36.432,46.545,24,46.545z"/>
	</g>
</g>
</svg>
