<?xml version="1.0" encoding="utf-8"?>
<!-- Generator: Adobe Illustrator 17.0.0, SVG Export Plug-In . SVG Version: 6.00 Build 0)  -->
<!DOCTYPE svg PUBLIC "-//W3C//DTD SVG 1.1//EN" "http://www.w3.org/Graphics/SVG/1.1/DTD/svg11.dtd">
<svg version="1.1" id="Layer_1" xmlns="http://www.w3.org/2000/svg" xmlns:xlink="http://www.w3.org/1999/xlink" x="0px" y="0px"
	 width="48px" height="48px" viewBox="0 0 48 48" enable-background="new 0 0 48 48" xml:space="preserve">
<g id="instagram">
	<g>
		<path fill-rule="evenodd" clip-rule="evenodd" fill="#FFFFFF" d="M30.512,22.218c0.462,1.985,0,4.04-1.266,5.637
			c-1.268,1.596-3.164,2.512-5.202,2.512c-2.039,0-3.935-0.916-5.203-2.513c-1.267-1.596-1.728-3.65-1.265-5.635
			c0.07-0.298,0.139-0.595,0.209-0.893h-7.268v10.608c0,2.962,2.408,5.37,5.37,5.37H32.2c2.962,0,5.371-2.408,5.371-5.37V21.325
			h-7.267C30.373,21.623,30.443,21.92,30.512,22.218z M36.117,22.78v9.154c0,2.159-1.757,3.916-3.917,3.916H15.886
			c-2.159,0-3.916-1.757-3.916-3.916V22.78h4.031c-0.254,2.134,0.346,4.271,1.7,5.978c1.546,1.946,3.857,3.062,6.342,3.062
			c2.484,0,4.795-1.116,6.341-3.061c1.355-1.709,1.955-3.846,1.7-5.98H36.117z M18.48,20.097c1.231-1.886,3.311-3.013,5.563-3.013
			c2.252,0,4.332,1.127,5.563,3.013c0.072,0.11,0.143,0.22,0.215,0.33h7.75v-4.992c0-2.962-2.41-5.371-5.371-5.371H15.886
			c-2.96,0-5.37,2.41-5.37,5.371v4.992h7.75C18.337,20.317,18.409,20.207,18.48,20.097z M30.841,14.571
			c0-0.676,0.547-1.223,1.223-1.223h1.036c0.676,0,1.224,0.547,1.224,1.223v1.001c0,0.676-0.548,1.223-1.224,1.223h-1.036
			c-0.676,0-1.223-0.547-1.223-1.223V14.571z M24,0C10.766,0,0,10.766,0,24s10.766,24,24,24c13.234,0,24-10.766,24-24S37.234,0,24,0
			z M24,46.546C11.568,46.546,1.454,36.432,1.454,24C1.454,11.568,11.568,1.454,24,1.454c12.432,0,22.546,10.114,22.546,22.546
			C46.546,36.432,36.432,46.546,24,46.546z M24.042,17.919c-3.161,0-5.764,2.573-5.803,5.735c-0.038,3.2,2.533,5.837,5.732,5.876
			h0.073c3.161,0,5.765-2.573,5.804-5.735C29.887,20.597,27.314,17.96,24.042,17.919z M24.044,27.592
			c-2.135,0-3.866-1.731-3.866-3.866s1.731-3.866,3.866-3.866c2.135,0,3.866,1.731,3.866,3.866S26.179,27.592,24.044,27.592z"/>
	</g>
</g>
</svg>
