<?xml version="1.0" encoding="utf-8"?>
<!-- Generator: Adobe Illustrator 17.0.0, SVG Export Plug-In . SVG Version: 6.00 Build 0)  -->
<!DOCTYPE svg PUBLIC "-//W3C//DTD SVG 1.1//EN" "http://www.w3.org/Graphics/SVG/1.1/DTD/svg11.dtd">
<svg version="1.1" id="Layer_1" xmlns="http://www.w3.org/2000/svg" xmlns:xlink="http://www.w3.org/1999/xlink" x="0px" y="0px"
	 width="19.549px" height="20px" viewBox="0 0 19.549 20" enable-background="new 0 0 19.549 20" xml:space="preserve">
<g id="lifestyle">
	<g>
		<path fill-rule="evenodd" clip-rule="evenodd" fill="#FF3333" d="M8.644,5.624C7.793,4.294,6.304,3.5,4.66,3.5
			c-1.644,0-3.133,0.794-3.983,2.124c-0.851,1.33-0.903,2.946-0.139,4.322L0.568,10l-0.03,0.054
			c-0.763,1.376-0.712,2.992,0.139,4.322c0.851,1.33,2.34,2.124,3.983,2.124c1.643,0,3.133-0.794,3.983-2.124
			c0.851-1.33,0.903-2.946,0.139-4.322L8.753,10l0.03-0.054C9.546,8.57,9.494,6.954,8.644,5.624z M7.291,14.023
			c-0.634,0.776-1.593,1.22-2.63,1.22c-1.037,0-1.996-0.445-2.63-1.22s-0.849-1.765-0.589-2.714L1.49,11.13l0.149,0.12
			c0.842,0.679,1.915,1.054,3.022,1.054c1.107,0,2.18-0.374,3.022-1.054l0.149-0.12l0.049,0.179
			C8.14,12.258,7.925,13.247,7.291,14.023z M2.18,10l0.081-0.08C2.894,9.297,3.746,8.953,4.66,8.953
			c0.914,0,1.766,0.343,2.399,0.967L7.141,10l-0.081,0.08c-0.633,0.623-1.485,0.967-2.399,0.967c-0.914,0-1.766-0.343-2.399-0.967
			L2.18,10z M7.88,8.691L7.831,8.87L7.682,8.75C6.84,8.071,5.767,7.696,4.66,7.696c-1.107,0-2.18,0.374-3.022,1.054L1.49,8.87
			L1.441,8.691C1.18,7.742,1.395,6.752,2.03,5.977c0.635-0.776,1.593-1.22,2.63-1.22c1.037,0,1.996,0.445,2.63,1.22
			C7.925,6.753,8.14,7.742,7.88,8.691z M18.981,10l0.03-0.054c0.763-1.376,0.711-2.992-0.139-4.322
			c-0.851-1.33-2.34-2.124-3.984-2.124c-1.643,0-3.133,0.794-3.983,2.124c-0.851,1.33-0.903,2.946-0.139,4.322L10.796,10
			l-0.03,0.054c-0.763,1.376-0.711,2.992,0.139,4.322c0.851,1.33,2.34,2.124,3.983,2.124c1.644,0,3.133-0.794,3.984-2.124
			c0.85-1.33,0.902-2.946,0.139-4.322L18.981,10z M17.519,14.023c-0.635,0.776-1.594,1.22-2.631,1.22
			c-1.037,0-1.996-0.445-2.63-1.22c-0.635-0.776-0.85-1.765-0.589-2.714l0.049-0.179l0.149,0.12
			c0.842,0.679,1.915,1.054,3.022,1.054c1.107,0,2.18-0.374,3.022-1.054l0.149-0.12l0.049,0.179
			C18.369,12.258,18.154,13.247,17.519,14.023z M12.408,10l0.081-0.08c0.633-0.623,1.485-0.967,2.399-0.967
			c0.914,0,1.766,0.343,2.399,0.967L17.369,10l-0.081,0.08c-0.633,0.623-1.485,0.967-2.399,0.967c-0.914,0-1.766-0.343-2.399-0.967
			L12.408,10z M18.108,8.691L18.059,8.87l-0.149-0.12c-0.842-0.679-1.915-1.054-3.022-1.054c-1.107,0-2.18,0.374-3.022,1.054
			l-0.149,0.12l-0.049-0.179c-0.26-0.949-0.046-1.938,0.589-2.714c0.634-0.776,1.593-1.22,2.63-1.22c1.037,0,1.996,0.445,2.631,1.22
			C18.154,6.753,18.369,7.742,18.108,8.691z"/>
	</g>
</g>
</svg>
