<?xml version="1.0" encoding="utf-8"?>
<!-- Generator: Adobe Illustrator 17.0.0, SVG Export Plug-In . SVG Version: 6.00 Build 0)  -->
<!DOCTYPE svg PUBLIC "-//W3C//DTD SVG 1.1//EN" "http://www.w3.org/Graphics/SVG/1.1/DTD/svg11.dtd">
<svg version="1.1" id="Layer_1" xmlns="http://www.w3.org/2000/svg" xmlns:xlink="http://www.w3.org/1999/xlink" x="0px" y="0px"
	 width="18px" height="20px" viewBox="0 0 18 20" enable-background="new 0 0 18 20" xml:space="preserve">
<g id="lifestyle">
	<g>
		<path fill-rule="evenodd" clip-rule="evenodd" fill="#393939" d="M5.112,8.869c1.33,0.851,2.946,0.903,4.322,0.139l0.054-0.03
			l0.054,0.03c1.377,0.763,2.992,0.711,4.322-0.139c1.33-0.851,2.124-2.34,2.124-3.983c0-1.644-0.794-3.133-2.124-3.983
			C12.534,0.052,10.918,0,9.541,0.763l-0.054,0.03l-0.054-0.03C8.057,0,6.442,0.052,5.112,0.903c-1.33,0.851-2.124,2.34-2.124,3.983
			C2.988,6.529,3.782,8.019,5.112,8.869z M10.738,1.864l-0.12-0.149l0.179-0.049c0.949-0.26,1.938-0.045,2.714,0.589
			c0.776,0.635,1.22,1.593,1.22,2.63s-0.445,1.996-1.22,2.63c-0.776,0.635-1.765,0.849-2.714,0.589l-0.179-0.049l0.12-0.149
			c0.679-0.842,1.054-1.915,1.054-3.022C11.791,3.779,11.417,2.706,10.738,1.864z M9.408,2.487l0.08-0.081l0.08,0.081
			c0.623,0.633,0.967,1.485,0.967,2.399c0,0.914-0.343,1.766-0.967,2.399l-0.08,0.081l-0.08-0.081
			C8.784,6.652,8.441,5.8,8.441,4.886C8.441,3.972,8.784,3.12,9.408,2.487z M5.465,2.255c0.775-0.635,1.765-0.85,2.714-0.589
			l0.179,0.049l-0.12,0.149C7.558,2.706,7.184,3.779,7.184,4.886c0,1.107,0.374,2.18,1.054,3.022l0.12,0.149L8.179,8.105
			C7.229,8.366,6.24,8.151,5.465,7.516c-0.776-0.635-1.22-1.593-1.22-2.63S4.689,2.89,5.465,2.255z M13.864,11.131
			c-1.33-0.851-2.946-0.903-4.322-0.139l-0.054,0.03l-0.054-0.03c-1.377-0.763-2.992-0.711-4.322,0.139
			c-1.33,0.851-2.124,2.34-2.124,3.983c0,1.644,0.794,3.133,2.124,3.984c1.33,0.85,2.946,0.902,4.322,0.139l0.054-0.03l0.054,0.03
			c1.376,0.763,2.992,0.711,4.322-0.139c1.33-0.851,2.124-2.34,2.124-3.984C15.988,13.471,15.194,11.981,13.864,11.131z
			 M8.238,18.136l0.12,0.149l-0.179,0.049c-0.949,0.26-1.938,0.045-2.714-0.589c-0.776-0.635-1.22-1.594-1.22-2.63
			c0-1.037,0.445-1.996,1.22-2.63c0.776-0.635,1.765-0.849,2.714-0.589l0.179,0.049l-0.12,0.149
			c-0.679,0.842-1.054,1.915-1.054,3.022S7.558,17.294,8.238,18.136z M9.568,17.513l-0.08,0.081l-0.08-0.081
			c-0.623-0.633-0.967-1.485-0.967-2.399s0.343-1.766,0.967-2.399l0.08-0.081l0.08,0.081c0.623,0.633,0.967,1.485,0.967,2.399
			S10.191,16.88,9.568,17.513z M13.511,17.745c-0.776,0.635-1.765,0.85-2.714,0.589l-0.179-0.049l0.12-0.149
			c0.679-0.842,1.054-1.915,1.054-3.022s-0.374-2.18-1.054-3.022l-0.12-0.149l0.179-0.049c0.949-0.26,1.938-0.046,2.714,0.589
			c0.776,0.635,1.22,1.593,1.22,2.63S14.286,17.11,13.511,17.745z"/>
	</g>
</g>
</svg>
