<?xml version="1.0" encoding="utf-8"?>
<!-- Generator: Adobe Illustrator 17.0.0, SVG Export Plug-In . SVG Version: 6.00 Build 0)  -->
<!DOCTYPE svg PUBLIC "-//W3C//DTD SVG 1.1//EN" "http://www.w3.org/Graphics/SVG/1.1/DTD/svg11.dtd">
<svg version="1.1" id="Layer_1" xmlns="http://www.w3.org/2000/svg" xmlns:xlink="http://www.w3.org/1999/xlink" x="0px" y="0px"
	 width="48px" height="48px" viewBox="0 0 48 48" enable-background="new 0 0 48 48" xml:space="preserve">
<g id="lift">
	<g>
		<path fill-rule="evenodd" clip-rule="evenodd" fill="#999999" d="M24.126,35.759h4.935v-4.673h-4.935V35.759z M18.763,35.759
			h4.935v-4.673h-4.935V35.759z M35.862,30.499c-0.431-1.865-0.863-3.73-1.294-5.595c-0.188-0.81-0.898-1.382-1.716-1.382
			c-1.766,0-3.532,0-5.299,0c1.047,0,1.895-0.863,1.895-1.928c0-2.738,0-5.476,0-8.214c-0.518-0.979-1.036-1.957-1.554-2.936
			c1.114,0,2.227,0,3.341,0c0,0.286,0,0.571,0,0.856c0.141,0,0.282,0,0.423,0c0-0.822,0-1.643,0-2.465c-0.141,0-0.282,0-0.423,0
			c0,0.291,0,0.581,0,0.872c-2.302,0-4.603,0-6.905,0c0,0.246,0,0.491,0,0.736c0.949,0,1.898,0,2.846,0
			c0.547,1.033,1.093,2.065,1.64,3.098c0,2.63,0,5.261,0,7.891c0,0.798-0.636,1.446-1.421,1.446c-0.801,0-1.603,0-2.404,0
			c0-0.171,0-0.343,0-0.515c-0.719,0-1.438,0-2.157,0c0,0.386,0,0.771,0,1.157c-2.62,0-5.24,0-7.86,0
			c-0.818,0-1.529,0.572-1.716,1.382c-0.432,1.865-0.863,3.73-1.294,5.595c-0.214,0.926,0.267,1.872,1.133,2.229
			c0.038,1.547,0.076,3.095,0.114,4.643c0,0.99,0.789,1.793,1.763,1.793c5.959,0,11.918,0,17.877,0c0.974,0,1.763-0.803,1.763-1.793
			c0.038-1.548,0.076-3.095,0.114-4.643C35.595,32.371,36.076,31.425,35.862,30.499z M34.409,32.317
			c0.01,0.07,0.016,0.142,0.016,0.215c0,0.097,0,0.195,0,0.292L34.409,32.317L34.409,32.317c-0.102-0.697-0.693-1.231-1.406-1.231
			c-1.171,0-2.343,0-3.514,0c0,1.558,0,3.115,0,4.673c1.55,0,3.1,0,4.651,0c0,0.537,0,1.075,0,1.612
			c0,0.724-0.577,1.312-1.289,1.312c-5.959,0-11.918,0-17.877,0c-0.712,0-1.289-0.587-1.289-1.312c0-0.537,0-1.074,0-1.612
			c1.55,0,3.1,0,4.651,0c0-1.558,0-3.115,0-4.673c-1.171,0-2.343,0-3.514,0c-0.703,0-1.301,0.523-1.405,1.231
			c-0.701-0.23-1.113-0.966-0.949-1.696c0.417-1.865,0.833-3.731,1.25-5.596c0.133-0.597,0.655-1.021,1.257-1.021
			c2.62,0,5.24,0,7.86,0c0,0.185,0,0.37,0,0.555c0.719,0,1.438,0,2.157,0c0-0.185,0-0.37,0-0.555c2.62,0,5.24,0,7.86,0
			c0.602,0,1.124,0.424,1.257,1.021c0.417,1.865,0.833,3.73,1.25,5.596C35.522,31.351,35.11,32.087,34.409,32.317z"/>
	</g>
</g>
</svg>
