<?xml version="1.0" encoding="utf-8"?>
<!-- Generator: Adobe Illustrator 17.0.0, SVG Export Plug-In . SVG Version: 6.00 Build 0)  -->
<!DOCTYPE svg PUBLIC "-//W3C//DTD SVG 1.1//EN" "http://www.w3.org/Graphics/SVG/1.1/DTD/svg11.dtd">
<svg version="1.1" id="Layer_1" xmlns="http://www.w3.org/2000/svg" xmlns:xlink="http://www.w3.org/1999/xlink" x="0px" y="0px"
	 width="160px" height="48px" viewBox="0 0 160 48" enable-background="new 0 0 160 48" xml:space="preserve">
<rect fill-rule="evenodd" clip-rule="evenodd" fill="#999999" width="48" height="48"/>
<g id="DROM">
	<g>
		<path fill-rule="evenodd" clip-rule="evenodd" fill="#999999" d="M95.003,16.344h-9.945v16.433h2.445v-6.704h0.46
			c1.674,2.235,3.349,4.469,5.023,6.704h3.254c-1.674-2.235-3.349-4.469-5.025-6.704h2.455c1.674,2.235,3.349,4.469,5.023,6.704
			h3.254c-1.732-2.311-3.462-4.62-5.193-6.93C102.176,24.388,101.593,16.395,95.003,16.344z M87.503,23.875V18.67h7.5
			c3.748,0.178,3.748,5.026,0,5.205H87.503z M155.506,32.777H159l-8.299-16.989l-4.44,9.089l-4.44-9.089l-8.299,16.989h3.495
			l4.805-9.835l4.395,8.996l1.744-3.569l2.153,4.407h3.496l-3.857-7.892l0.949-1.943L155.506,32.777z M66.042,16.344h-4.89v7.215H59
			v2.326h2.152v6.892h4.89C78.804,32.788,78.804,16.331,66.042,16.344z M66.042,30.25h-2.075v-4.364h4.534v-2.326h-4.534v-4.69
			h2.075C74.879,18.863,74.879,30.258,66.042,30.25z M124.337,21.037c1.747,2.438,1.425,5.713-0.769,7.8
			c-2.193,2.086-5.636,2.394-8.199,0.733c-0.628,0.598-1.258,1.197-1.886,1.794c3.62,2.631,8.726,2.31,11.947-0.756
			c3.222-3.063,3.561-7.922,0.795-11.365C125.597,19.842,124.967,20.44,124.337,21.037z M114.44,20.152
			c2.181-2.075,5.603-2.392,8.164-0.754c0.628-0.599,1.258-1.197,1.888-1.796c-3.62-2.607-8.706-2.275-11.916,0.777
			c-3.21,3.055-3.559,7.894-0.819,11.337c0.63-0.599,1.26-1.199,1.89-1.798C111.926,25.483,112.257,22.229,114.44,20.152z"/>
	</g>
</g>
<g id="Monogram">
	<g>
		<path fill-rule="evenodd" clip-rule="evenodd" d="M0,0v48h48V0H0z M14.424,17.366c0.915,0.518,1.83,1.035,2.745,1.553
			c0.852,0.482,1.908-0.133,1.908-1.113V14.67c0-2.512,1.893-4.621,4.39-4.891v17.96c-2.185-1.236-4.37-2.472-6.555-3.709
			c-1.537-0.87-2.488-2.499-2.488-4.265V17.366z M33.576,26.033c0,1.766-0.95,3.396-2.488,4.266
			c-1.969,1.114-3.938,2.228-5.907,3.342c-0.469,0.265-0.649,0.574-0.649,1.113c0,1.727,0,0.766,0,2.493
			c0,0.377-0.156,0.533-0.533,0.533c-0.377,0-0.533-0.156-0.533-0.533c0-1.727,0-0.766,0-2.493c0-0.539-0.18-0.848-0.649-1.113
			c-1.969-1.114-3.938-2.228-5.906-3.342c-1.537-0.87-2.488-2.499-2.488-4.266V23.84c3.014,1.705,6.029,3.411,9.043,5.116v2.583
			c0,0.377,0.156,0.533,0.533,0.533c0.377,0,0.533-0.156,0.533-0.533v-2.583c3.014-1.705,6.029-3.411,9.043-5.116V26.033z
			 M33.576,19.765c0,1.766-0.95,3.396-2.488,4.265c-2.185,1.236-4.37,2.473-6.555,3.709V9.779c2.497,0.27,4.39,2.379,4.39,4.891
			v3.136c0,0.979,1.056,1.595,1.908,1.113c0.915-0.518,1.83-1.035,2.745-1.553V19.765z"/>
	</g>
</g>
</svg>
