<?xml version="1.0" encoding="utf-8"?>
<!-- Generator: Adobe Illustrator 17.0.0, SVG Export Plug-In . SVG Version: 6.00 Build 0)  -->
<!DOCTYPE svg PUBLIC "-//W3C//DTD SVG 1.1//EN" "http://www.w3.org/Graphics/SVG/1.1/DTD/svg11.dtd">
<svg version="1.1" id="Layer_1" xmlns="http://www.w3.org/2000/svg" xmlns:xlink="http://www.w3.org/1999/xlink" x="0px" y="0px"
	 width="48px" height="48px" viewBox="0 0 48 48" enable-background="new 0 0 48 48" xml:space="preserve">
<g>
	<rect width="48" height="48"/>
	<g>
		<g>
			<path fill="#FFFFFF" d="M19.077,17.806c0,0.979-1.056,1.595-1.908,1.113c-0.915-0.518-1.83-1.035-2.745-1.553
				c0,0.8,0,1.599,0,2.399c0,1.766,0.95,3.396,2.488,4.265c2.185,1.236,4.37,2.473,6.555,3.709c0-5.987,0-11.973,0-17.96
				c-2.497,0.27-4.39,2.379-4.39,4.891C19.077,15.716,19.077,16.761,19.077,17.806z"/>
		</g>
		<g>
			<path fill="#FFFFFF" d="M23.467,34.753c0-0.538-0.18-0.848-0.649-1.113c-1.969-1.114-3.938-2.228-5.906-3.342
				c-1.537-0.87-2.488-2.499-2.488-4.265c0-0.731,0-1.462,0-2.193c3.014,1.705,6.029,3.411,9.043,5.116c0,0.861,0,1.722,0,2.583
				c0,0.377,0.156,0.533,0.533,0.533c0.377,0,0.533-0.156,0.533-0.533c0-0.861,0-1.722,0-2.583c3.014-1.705,6.029-3.411,9.043-5.116
				c0,0.731,0,1.462,0,2.193c0,1.766-0.95,3.396-2.488,4.265c-1.969,1.114-3.938,2.228-5.906,3.342
				c-0.469,0.265-0.649,0.574-0.649,1.113c0,1.727,0,0.766,0,2.493c0,0.377-0.156,0.533-0.533,0.533
				c-0.377,0-0.533-0.156-0.533-0.533C23.467,35.52,23.467,36.48,23.467,34.753z"/>
		</g>
		<g>
			<path fill="#FFFFFF" d="M28.923,17.806c0,0.979,1.056,1.595,1.908,1.113c0.915-0.518,1.83-1.035,2.745-1.553
				c0,0.8,0,1.599,0,2.399c0,1.766-0.95,3.396-2.488,4.265c-2.185,1.236-4.37,2.473-6.555,3.709c0-5.987,0-11.973,0-17.96
				c2.497,0.27,4.39,2.379,4.39,4.891C28.923,15.716,28.923,16.761,28.923,17.806z"/>
		</g>
	</g>
</g>
</svg>
