<?xml version="1.0" encoding="utf-8"?>
<!-- Generator: Adobe Illustrator 17.0.0, SVG Export Plug-In . SVG Version: 6.00 Build 0)  -->
<!DOCTYPE svg PUBLIC "-//W3C//DTD SVG 1.1//EN" "http://www.w3.org/Graphics/SVG/1.1/DTD/svg11.dtd">
<svg version="1.1" id="Layer_1" xmlns="http://www.w3.org/2000/svg" xmlns:xlink="http://www.w3.org/1999/xlink" x="0px" y="0px"
	 width="240px" height="63px" viewBox="0 0 240 63" enable-background="new 0 0 240 63" xml:space="preserve">
<g>
	<g>
		<g>
			<path fill="#FFFFFF" d="M226.566,0l-13.488,26.39H240L226.566,0z M226.566,7.417l8.019,15.699h-16.039L226.566,7.417z"/>
			<path fill="#FFFFFF" d="M182.305,26.389h3.331V14.883h3.126l20.465,11.454v-3.732l-13.749-7.722h13.749V0.052h-26.922V26.389z
				 M185.636,3.376h20.256v8.232h-20.256V3.376z"/>
			<path fill="#FFFFFF" d="M173.503,3.838c-1.216-1.194-2.637-2.13-4.27-2.814C167.602,0.344,165.866,0,164.026,0
				c-1.875,0-3.629,0.344-5.259,1.024c-1.634,0.684-3.055,1.62-4.27,2.814c-1.215,1.19-2.172,2.59-2.863,4.192
				c-0.698,1.602-1.042,3.324-1.042,5.163c0,1.807,0.343,3.512,1.042,5.114c0.691,1.606,1.648,3.002,2.863,4.196
				c1.216,1.194,2.637,2.141,4.27,2.835c1.63,0.701,3.384,1.049,5.259,1.049c1.839,0,3.576-0.347,5.206-1.049
				c1.634-0.695,3.055-1.641,4.27-2.835c1.215-1.194,2.179-2.59,2.892-4.196c0.712-1.602,1.066-3.307,1.066-5.114
				c0-1.839-0.355-3.561-1.066-5.163C175.682,6.429,174.718,5.029,173.503,3.838z M173.322,16.954
				c-0.503,1.212-1.226,2.293-2.161,3.246c-0.971,0.921-2.077,1.63-3.307,2.123c-1.233,0.496-2.509,0.744-3.827,0.744
				c-1.354,0-2.647-0.248-3.88-0.744c-1.233-0.493-2.317-1.201-3.253-2.123c-0.974-0.954-1.712-2.034-2.215-3.246
				c-0.503-1.208-0.755-2.463-0.755-3.76c0-1.329,0.251-2.597,0.755-3.81c0.503-1.208,1.241-2.275,2.215-3.193
				c0.936-0.957,2.02-1.68,3.253-2.176c1.233-0.493,2.527-0.741,3.88-0.741c1.318,0,2.594,0.248,3.827,0.741
				c1.23,0.496,2.335,1.219,3.307,2.176c0.935,0.918,1.658,1.984,2.161,3.193c0.503,1.212,0.755,2.481,0.755,3.81
				C174.077,14.491,173.825,15.745,173.322,16.954z"/>
			<path fill="#FFFFFF" d="M142.678,3.838c-1.219-1.194-2.64-2.13-4.27-2.814C136.774,0.344,135.037,0,133.199,0
				c-4.513,0-9.025,0-13.537,0c0,8.796,0,17.591,0,26.387c4.512,0,9.025,0,13.537,0c1.839,0,3.576-0.34,5.209-1.021
				c1.63-0.684,3.051-1.619,4.27-2.814c1.215-1.191,2.176-2.59,2.888-4.192c0.712-1.602,1.066-3.324,1.066-5.163
				c0-1.843-0.354-3.565-1.066-5.167C144.854,6.429,143.893,5.029,142.678,3.838z M142.518,16.978
				c-0.517,1.195-1.247,2.268-2.187,3.222c-0.971,0.957-2.073,1.679-3.306,2.172c-1.233,0.496-2.509,0.744-3.827,0.744
				c-3.402,0-6.804,0-10.206,0c0-6.614,0-13.228,0-19.842c3.402,0,6.804,0,10.206,0c1.318,0,2.594,0.248,3.827,0.741
				c1.233,0.496,2.335,1.219,3.306,2.176c0.939,0.918,1.669,1.984,2.187,3.193c0.524,1.212,0.783,2.481,0.783,3.813
				C143.301,14.523,143.043,15.784,142.518,16.978z"/>
			<path fill="#FFFFFF" d="M88.938,26.39h26.922L102.426,0L88.938,26.39z M94.406,23.116l8.02-15.699l8.019,15.699H94.406z"/>
			<polygon fill="#FFFFFF" points="60.247,3.376 71.962,3.376 71.962,6.651 60.247,6.651 60.247,9.922 71.962,9.922 71.962,26.39 
				75.297,26.39 75.297,9.922 87.013,9.922 87.013,6.651 75.297,6.651 75.297,3.376 87.013,3.376 87.013,0.053 60.247,0.053 			"/>
			<polygon fill="#FFFFFF" points="30.044,3.428 41.76,3.428 41.76,22.962 30.044,22.962 30.044,26.389 56.966,26.389 
				56.966,22.962 45.197,22.962 45.197,3.428 56.966,3.428 56.966,0.002 30.044,0.002 			"/>
			<path fill="#FFFFFF" d="M0,26.389l3.331-0.053v-8.232h23.537V0.002H0V26.389z M3.331,3.326h20.153v4.908H3.331V3.326z
				 M3.331,11.558h20.153v3.271H3.331V11.558z"/>
		</g>
	</g>
	<g>
		<g>
			<g>
				<g>
					<path fill="#FFFFFF" d="M33.76,53.215h4.821c0.656,0,1.273,0.123,1.854,0.371c0.581,0.248,1.088,0.587,1.521,1.02
						s0.775,0.94,1.029,1.521s0.38,1.204,0.38,1.873s-0.127,1.293-0.38,1.873c-0.254,0.581-0.596,1.088-1.029,1.521
						c-0.433,0.433-0.94,0.773-1.521,1.02c-0.581,0.248-1.199,0.371-1.854,0.371H33.76V53.215z M34.946,61.598h3.635
						c0.471,0,0.925-0.091,1.364-0.27s0.831-0.442,1.177-0.788c0.335-0.346,0.594-0.735,0.779-1.168
						c0.187-0.433,0.279-0.891,0.279-1.373s-0.092-0.942-0.279-1.382c-0.185-0.438-0.444-0.824-0.779-1.159
						c-0.346-0.346-0.739-0.608-1.177-0.788s-0.893-0.268-1.364-0.268h-3.635V61.598z"/>
					<path fill="#FFFFFF" d="M49.041,62.784v-9.569h1.222v9.569H49.041z"/>
					<path fill="#FFFFFF" d="M60.408,53.215l4.785,9.569h-9.587L60.408,53.215z M60.408,55.904l-2.856,5.694h5.712L60.408,55.904z"
						/>
				</g>
			</g>
			<g>
				<g>
					<path fill="#FFFFFF" d="M122.63,62.784v-9.569l4.766,2.41l4.785-2.41v9.569H122.63z M123.816,61.616h7.177v-6.454l-3.597,1.8
						l-3.58-1.8V61.616z"/>
					<path fill="#FFFFFF" d="M134.238,62.784v-9.569l4.766,2.41l4.785-2.41v9.569H134.238z M135.424,61.616h7.177v-6.454l-3.597,1.8
						l-3.58-1.8V61.616z"/>
				</g>
			</g>
			<g>
				<path fill="#FFFFFF" d="M93.133,53.234v0.018v9.514v0.018h-9.551v-1.262h8.364v-3.207h-8.364v-1.262h8.364v-2.56h-8.364v-1.26
					H93.133z"/>
				<path fill="#FFFFFF" d="M94.264,53.215h9.607v1.264h-8.399v2.88h8.399v5.426h-9.607v-1.264h8.418v-2.899h-8.418V53.215z"/>
			</g>
			<g>
				<path fill="#FFFFFF" d="M172.667,57.385v-4.171h-8.38v9.569h9.569v-5.398H172.667z M165.477,54.421h6.002v2.964h-6.002V54.421z
					 M172.667,61.575h-7.172v-2.973l7.172-0.009V61.575z"/>
				<path fill="#FFFFFF" d="M180.652,53.233l4.775,9.551h-9.569L180.652,53.233z M180.652,55.917l-2.85,5.683h5.7L180.652,55.917z"
					/>
				<path fill="#FFFFFF" d="M196.347,53.252v5.367h-4.886l4.886,2.796v1.351l-7.274-4.147h-1.11v4.165h-1.184v-9.531H196.347z
					 M195.163,57.435v-2.981h-7.2v2.981H195.163z"/>
			</g>
		</g>
	</g>
</g>
</svg>
