<?xml version="1.0" encoding="utf-8"?>
<!-- Generator: Adobe Illustrator 17.0.0, SVG Export Plug-In . SVG Version: 6.00 Build 0)  -->
<!DOCTYPE svg PUBLIC "-//W3C//DTD SVG 1.1//EN" "http://www.w3.org/Graphics/SVG/1.1/DTD/svg11.dtd">
<svg version="1.1" id="Layer_1" xmlns="http://www.w3.org/2000/svg" xmlns:xlink="http://www.w3.org/1999/xlink" x="0px" y="0px"
	 width="250px" height="160px" viewBox="0 0 250 160" enable-background="new 0 0 250 160" xml:space="preserve">
<g id="PITADORA">
	<g>
		<path fill-rule="evenodd" clip-rule="evenodd" fill="#FFFFFF" d="M232.276,3.8l-13.488,26.37h26.922L232.276,3.8z M232.276,11.212
			l8.019,15.687h-16.039L232.276,11.212z M188.015,30.169h3.331V18.671h3.126l20.465,11.445v-3.729l-13.75-7.716h13.75V3.852
			h-26.922V30.169z M191.346,7.173h20.256v8.226h-20.256V7.173z M179.213,26.286c1.215-1.193,2.179-2.588,2.892-4.193
			c0.712-1.601,1.066-3.304,1.066-5.11c0-1.838-0.354-3.559-1.066-5.159c-0.712-1.601-1.676-3-2.892-4.189
			c-1.216-1.193-2.637-2.128-4.27-2.812c-1.63-0.68-3.367-1.024-5.206-1.024c-1.875,0-3.629,0.343-5.259,1.024
			c-1.634,0.683-3.055,1.618-4.27,2.812c-1.215,1.189-2.172,2.588-2.863,4.189c-0.698,1.601-1.042,3.321-1.042,5.159
			c0,1.806,0.343,3.509,1.042,5.11c0.691,1.604,1.648,2.999,2.863,4.193c1.216,1.193,2.637,2.139,4.27,2.833
			c1.63,0.701,3.384,1.048,5.259,1.048c1.839,0,3.576-0.347,5.206-1.048C176.576,28.425,177.997,27.479,179.213,26.286z
			 M169.736,26.849c-1.354,0-2.647-0.248-3.88-0.744c-1.233-0.492-2.318-1.2-3.253-2.121c-0.974-0.953-1.712-2.033-2.215-3.244
			c-0.503-1.207-0.755-2.461-0.755-3.757c0-1.328,0.252-2.595,0.755-3.807c0.503-1.207,1.24-2.273,2.215-3.19
			c0.936-0.956,2.02-1.678,3.253-2.174c1.233-0.492,2.527-0.74,3.88-0.74c1.318,0,2.594,0.248,3.827,0.74
			c1.23,0.496,2.336,1.218,3.307,2.174c0.935,0.917,1.658,1.983,2.161,3.19c0.503,1.211,0.755,2.479,0.755,3.807
			c0,1.296-0.252,2.549-0.755,3.757c-0.503,1.211-1.226,2.291-2.161,3.244c-0.971,0.921-2.077,1.629-3.307,2.121
			C172.331,26.601,171.055,26.849,169.736,26.849z M144.118,29.147c1.63-0.683,3.051-1.618,4.27-2.811
			c1.215-1.19,2.176-2.588,2.888-4.189c0.712-1.601,1.066-3.321,1.066-5.159c0-1.842-0.354-3.562-1.066-5.163
			c-0.712-1.601-1.673-3-2.888-4.189c-1.219-1.193-2.64-2.128-4.27-2.812c-1.634-0.68-3.37-1.024-5.209-1.024h-13.537v26.367h13.537
			C140.747,30.167,142.484,29.827,144.118,29.147z M128.702,7.072h10.206c1.318,0,2.594,0.248,3.827,0.74
			c1.233,0.496,2.335,1.218,3.306,2.174c0.939,0.917,1.669,1.983,2.187,3.19c0.524,1.211,0.783,2.479,0.783,3.811
			c0,1.324-0.259,2.585-0.783,3.778c-0.518,1.194-1.247,2.266-2.187,3.219c-0.971,0.956-2.073,1.678-3.306,2.171
			c-1.233,0.496-2.509,0.744-3.827,0.744h-10.206V7.072z M108.136,3.8L94.648,30.17h26.922L108.136,3.8z M108.136,11.212
			l8.019,15.687h-16.039L108.136,11.212z M92.723,10.446H81.007V7.174h11.715V3.853H65.957v3.321h11.716v3.272H65.957v3.269h11.716
			v16.455h3.335V13.714h11.715V10.446z M62.676,26.744H50.907V7.226h11.769V3.802H35.754v3.424H47.47v19.518H35.754v3.424h26.922
			V26.744z M5.71,30.169l3.331-0.053V21.89h23.537V3.802H5.71V30.169z M9.041,7.123h20.153v4.905H9.041V7.123z M9.041,15.35h20.153
			v3.268H9.041V15.35z M91.069,155.8h69.282l-34.643-59.954L91.069,155.8z M114.203,124.154c3.836-6.635,7.668-13.278,11.505-19.913
			c4.235,7.325,8.47,14.658,12.704,21.982C126.411,141.946,133.267,117.316,114.203,124.154z M47.666,58.364
			c-0.433-0.432-0.94-0.771-1.521-1.019c-0.581-0.248-1.199-0.371-1.854-0.371H39.47v9.562h4.821c0.655,0,1.273-0.123,1.854-0.371
			c0.581-0.246,1.088-0.586,1.521-1.019c0.433-0.432,0.775-0.939,1.029-1.52c0.253-0.579,0.38-1.203,0.38-1.871
			s-0.127-1.29-0.38-1.871C48.441,59.303,48.099,58.796,47.666,58.364z M47.61,63.126c-0.185,0.432-0.444,0.822-0.779,1.167
			c-0.346,0.346-0.739,0.608-1.177,0.787c-0.438,0.179-0.893,0.27-1.364,0.27h-3.635v-7.189h3.635c0.471,0,0.925,0.089,1.364,0.268
			c0.438,0.179,0.831,0.442,1.177,0.787c0.335,0.335,0.594,0.72,0.779,1.158c0.187,0.44,0.279,0.899,0.279,1.381
			C47.889,62.236,47.797,62.694,47.61,63.126z M54.751,66.536h1.222v-9.562h-1.222V66.536z M61.315,66.536h9.587l-4.785-9.562
			L61.315,66.536z M63.262,65.35l2.856-5.689l2.856,5.689H63.262z M128.34,66.536h9.551v-9.562l-4.784,2.409l-4.766-2.409V66.536z
			 M129.526,58.919l3.58,1.799l3.596-1.799v6.449h-7.177V58.919z M139.948,56.974v9.562h9.551v-9.562l-4.784,2.409L139.948,56.974z
			 M148.311,65.368h-7.177v-6.449l3.58,1.799l3.596-1.799V65.368z M98.843,56.993h-9.551v1.259h8.364v2.557h-8.364v1.261h8.364
			v3.204h-8.364v1.261h9.551V56.993z M109.581,58.236v-1.263h-9.607v5.403h8.418v2.897h-8.418v1.263h9.607v-5.422h-8.399v-2.878
			H109.581z M178.377,56.974h-8.38v9.562h9.569v-5.394h-1.189V56.974z M171.187,58.18h6.002v2.962h-6.002V58.18z M178.377,65.328
			h-7.172v-2.971l7.172-0.009V65.328z M181.568,66.535h9.569l-4.775-9.544L181.568,66.535z M183.513,65.353l2.85-5.679l2.85,5.679
			H183.513z M192.49,66.535h1.184v-4.161h1.11l7.273,4.143v-1.35l-4.886-2.793h4.886v-5.362h-9.567V66.535z M193.673,58.213h7.2
			v2.978h-7.2V58.213z"/>
	</g>
</g>
</svg>
