<?xml version="1.0" encoding="utf-8"?>
<!-- Generator: Adobe Illustrator 17.0.0, SVG Export Plug-In . SVG Version: 6.00 Build 0)  -->
<!DOCTYPE svg PUBLIC "-//W3C//DTD SVG 1.1//EN" "http://www.w3.org/Graphics/SVG/1.1/DTD/svg11.dtd">
<svg version="1.1" id="Layer_1" xmlns="http://www.w3.org/2000/svg" xmlns:xlink="http://www.w3.org/1999/xlink" x="0px" y="0px"
	 width="35px" height="85.642px" viewBox="0 0 35 85.642" enable-background="new 0 0 35 85.642" xml:space="preserve">
<path fill="#A7875E" d="M26.904,85.642H8.096c-4.289,0-7.778-3.489-7.778-7.778V30.546c0-4.289,3.489-7.778,7.778-7.778h10.081
	c2.123,0,4.062-0.981,5.318-2.692c1.257-1.71,1.614-3.853,0.98-5.879c-0.866-2.771-3.404-4.633-6.313-4.633
	c-1.337,0-2.633,0.408-3.747,1.181l-6.669,4.626c-1.952,1.262-4.25,0.826-5.507-0.886c-0.826-1.124-1.053-2.558-0.622-3.934
	C4.306,4.076,10.531-0.082,17.493-0.082c1.125,0,2.259,0.112,3.369,0.333c8.009,1.598,13.821,8.684,13.821,16.85v60.761
	C34.683,82.152,31.193,85.642,26.904,85.642z M8.096,23.768c-3.738,0-6.778,3.041-6.778,6.778v47.317
	c0,3.737,3.041,6.778,6.778,6.778h18.808c3.737,0,6.778-3.041,6.778-6.778V17.102c0-7.69-5.475-14.365-13.017-15.87
	c-1.046-0.208-2.113-0.314-3.173-0.314c-6.556,0-12.418,3.916-14.936,9.975c-0.319,1.026-0.147,2.135,0.488,3
	c0.952,1.295,2.665,1.603,4.145,0.647l6.656-4.617c1.282-0.889,2.775-1.359,4.317-1.359c3.349,0,6.27,2.144,7.269,5.334
	c0.729,2.333,0.318,4.8-1.13,6.77c-1.447,1.97-3.68,3.1-6.124,3.1H8.096z"/>
<g>
	<g>
		<g>
			<path fill="#A7875E" d="M12.577,58.534c0,0.979-1.056,1.595-1.908,1.113c-0.915-0.518-1.83-1.035-2.745-1.553
				c0,0.8,0,1.599,0,2.399c0,1.766,0.95,3.396,2.488,4.266c2.185,1.236,4.37,2.473,6.555,3.709c0-5.987,0-11.973,0-17.96
				c-2.497,0.27-4.39,2.379-4.39,4.891C12.577,56.443,12.577,57.488,12.577,58.534z"/>
		</g>
		<g>
			<path fill="#A7875E" d="M16.967,75.481c0-0.538-0.18-0.848-0.649-1.113c-1.969-1.114-3.938-2.228-5.906-3.342
				c-1.537-0.87-2.488-2.499-2.488-4.265c0-0.731,0-1.462,0-2.193c3.014,1.705,6.029,3.411,9.043,5.116c0,0.861,0,1.722,0,2.583
				c0,0.377,0.156,0.533,0.533,0.533c0.377,0,0.533-0.156,0.533-0.533c0-0.861,0-1.722,0-2.583c3.014-1.705,6.029-3.411,9.043-5.116
				c0,0.731,0,1.462,0,2.193c0,1.766-0.95,3.396-2.488,4.265c-1.969,1.114-3.938,2.228-5.906,3.342
				c-0.469,0.265-0.649,0.574-0.649,1.113c0,1.727,0,0.766,0,2.493c0,0.377-0.156,0.533-0.533,0.533
				c-0.377,0-0.533-0.156-0.533-0.533C16.967,76.247,16.967,77.208,16.967,75.481z"/>
		</g>
		<g>
			<path fill="#A7875E" d="M22.423,58.534c0,0.979,1.056,1.595,1.908,1.113c0.915-0.518,1.83-1.035,2.745-1.553
				c0,0.8,0,1.599,0,2.399c0,1.766-0.95,3.396-2.488,4.266c-2.185,1.236-4.37,2.473-6.555,3.709c0-5.987,0-11.973,0-17.96
				c2.497,0.27,4.39,2.379,4.39,4.891C22.423,56.443,22.423,57.488,22.423,58.534z"/>
		</g>
	</g>
</g>
</svg>
