<?xml version="1.0" encoding="utf-8"?>
<!-- Generator: Adobe Illustrator 17.0.0, SVG Export Plug-In . SVG Version: 6.00 Build 0)  -->
<!DOCTYPE svg PUBLIC "-//W3C//DTD SVG 1.1//EN" "http://www.w3.org/Graphics/SVG/1.1/DTD/svg11.dtd">
<svg version="1.1" id="Layer_1" xmlns="http://www.w3.org/2000/svg" xmlns:xlink="http://www.w3.org/1999/xlink" x="0px" y="0px"
	 width="70px" height="70px" viewBox="0 0 70 70" enable-background="new 0 0 70 70" xml:space="preserve">
<g>
	<g>
		<path fill="#A7875E" d="M45.427,47.825c-0.126,0-0.253-0.048-0.351-0.144l-12.57-12.335c-0.096-0.094-0.15-0.223-0.15-0.357
			s0.054-0.263,0.15-0.357l12.57-12.336c0.199-0.193,0.516-0.19,0.707,0.007c0.193,0.197,0.19,0.514-0.006,0.707L33.57,34.989
			l12.207,11.979c0.196,0.193,0.199,0.51,0.006,0.707C45.686,47.775,45.557,47.825,45.427,47.825z"/>
		<path fill="#A7875E" d="M34.974,69.5c-7.5,0-14.644-2.384-20.662-6.894C6.938,57.08,2.157,49.014,0.851,39.891
			c-1.307-9.122,1.017-18.206,6.543-25.58C13.972,5.534,24.043,0.5,35.026,0.5c7.499,0,14.645,2.384,20.662,6.894
			c7.374,5.526,12.154,13.593,13.461,22.714c1.307,9.122-1.017,18.206-6.543,25.58C56.028,64.466,45.956,69.5,34.974,69.5z
			 M35.026,1.5c-10.665,0-20.445,4.888-26.833,13.411c-5.366,7.16-7.622,15.981-6.354,24.839C3.108,48.607,7.75,56.44,14.91,61.806
			c5.844,4.38,12.781,6.694,20.062,6.694c10.665,0,20.444-4.888,26.832-13.411c5.366-7.16,7.623-15.981,6.354-24.838
			c-1.27-8.857-5.911-16.69-13.071-22.057C49.245,3.815,42.308,1.5,35.026,1.5z"/>
		<path fill="#A7875E" d="M37.307,47.825c-0.126,0-0.253-0.048-0.351-0.144l-12.57-12.335c-0.096-0.094-0.15-0.223-0.15-0.357
			s0.054-0.263,0.15-0.357l12.57-12.336c0.199-0.193,0.516-0.19,0.707,0.007c0.193,0.197,0.19,0.514-0.006,0.707L25.45,34.989
			l12.207,11.979c0.196,0.193,0.199,0.51,0.006,0.707C37.565,47.775,37.437,47.825,37.307,47.825z"/>
	</g>
</g>
</svg>
