<?xml version="1.0" encoding="utf-8"?>
<!-- Generator: Adobe Illustrator 17.0.0, SVG Export Plug-In . SVG Version: 6.00 Build 0)  -->
<!DOCTYPE svg PUBLIC "-//W3C//DTD SVG 1.1//EN" "http://www.w3.org/Graphics/SVG/1.1/DTD/svg11.dtd">
<svg version="1.1" id="Layer_1" xmlns="http://www.w3.org/2000/svg" xmlns:xlink="http://www.w3.org/1999/xlink" x="0px" y="0px"
	 width="94px" height="74px" viewBox="0 0 94 74" enable-background="new 0 0 94 74" xml:space="preserve">
<path fill="#A7875E" d="M21.325,73.211l-2.337-1.94l0.652-1.132l-4.928-4.369l0.806-6.481l-2.222-0.951l2.478-6.649
	c0.354-0.95,1.148-1.685,2.124-1.963l4.72-1.35l0.126,0.029c5.126,1.19,12.4-0.604,21.63-5.324
	c1.299-1.92,0.951-10.266-0.494-11.549c-8.373-3.824-15.807-6.393-22.098-7.636l-0.557-0.11l0.569-1.706l1.147-0.527l1.044-3.041
	l1.959-0.141l0.434-0.773L8.271,12.31L0.919,8.174l1.413-2.211l29.891-1.661l1.436,1.014l13.573-2.431c0.002,0,0.003,0,0.005-0.001
	c12.466-2.385,26.65,1.11,34.548,5.37l8.061,3.038c0.401,0.152,0.718,0.452,0.891,0.845c0.172,0.393,0.179,0.828,0.019,1.226
	l-1.002,2.495c-0.051,0.126-0.058,0.221-0.026,0.353l3.318,13.858c0.15,0.627,0.168,1.216,0.056,1.854l-0.337,1.913l0.447,0.558
	c0.692,0.866,0.888,2.051,0.511,3.092l-3.893,10.779c-0.211,0.581-0.166,1.229,0.121,1.776l1.647,3.131l-0.308,0.26
	c-7.394,6.228-12.575,6.008-19.742,5.71c-9.596-0.404-22.73-0.955-49.925,13.909L21.325,73.211z M20.274,71.039l1.167,0.969
	C48.679,57.175,61.912,57.729,71.59,58.14c6.842,0.284,11.812,0.496,18.747-5.219l-1.271-2.417
	c-0.418-0.797-0.483-1.737-0.177-2.582l3.893-10.779c0.26-0.717,0.125-1.532-0.352-2.128l-0.729-0.911l0.415-2.357
	c0.088-0.498,0.073-0.958-0.044-1.447l-3.318-13.858c-0.08-0.336-0.058-0.641,0.071-0.96l1.002-2.494
	c0.059-0.146,0.057-0.306-0.007-0.451s-0.18-0.255-0.328-0.311l-8.121-3.065c-7.613-4.1-21.025-7.464-33.026-5.46
	c-0.004,0.001-0.008,0.002-0.012,0.002l-14.91,2.67l-1.493-1.054L2.899,6.932L2.332,7.821l6.38,3.589l19.153,5.579l-1.312,2.34
	l-1.837,0.133l-0.969,2.82l-1.142,0.525l-0.073,0.22c6.262,1.3,13.6,3.863,21.824,7.623l0.101,0.062
	c2.121,1.665,2.25,11.019,0.645,13.068l-0.166,0.137c-9.42,4.832-16.918,6.683-22.291,5.491l-4.473,1.278
	c-0.671,0.192-1.217,0.697-1.46,1.352l-2.145,5.756l2.037,0.872l-0.833,6.706l5.144,4.561L20.274,71.039z"/>
<g>
	<path fill="#A7875E" d="M71.013,33.884c-0.827-0.832-0.949-2.133-0.292-3.105c0.657-0.972,1.91-1.342,2.991-0.884
		c0.189-0.28,0.379-0.561,0.569-0.841c-1.548-0.763-3.422-0.266-4.389,1.163c-0.967,1.43-0.731,3.354,0.553,4.507
		C70.634,34.445,70.824,34.164,71.013,33.884z"/>
	<path fill="#A7875E" d="M62.5,34.775c0.306-0.059,0.611-0.118,0.917-0.177c0.794,0.756,1.589,1.513,2.383,2.269
		c0.405-0.078,0.81-0.156,1.214-0.234c-0.821-0.782-1.642-1.564-2.463-2.346c1.914-0.963,1.091-4.057-1.373-3.603
		c-0.933,0.18-1.867,0.36-2.8,0.54c-0.304,0.059-0.609,0.117-0.913,0.176c0.415,2.149,0.829,4.299,1.244,6.449
		c0.304-0.059,0.609-0.117,0.913-0.176c-0.169-0.877-0.338-1.754-0.507-2.63c0.057-0.011,0.114-0.022,0.172-0.033
		c0.794,0.756,1.589,1.513,2.383,2.269c0.405-0.078,0.81-0.156,1.214-0.234C64.089,36.287,63.294,35.531,62.5,34.775z
		 M60.948,34.179c-0.131-0.681-0.263-1.362-0.394-2.043c0.933-0.18,1.867-0.36,2.8-0.54c1.412-0.2,1.779,1.703,0.394,2.043
		C62.814,33.819,61.881,33.999,60.948,34.179z"/>
	<path fill="#A7875E" d="M52.366,32.77c-0.304,0.059-0.608,0.117-0.913,0.176c-0.304,0.059-0.609,0.117-0.913,0.176
		c0.182,0.944,0.364,1.888,0.546,2.832c-0.268,0.052-0.535,0.103-0.803,0.155c0.059,0.304,0.117,0.609,0.176,0.913
		c0.268-0.052,0.535-0.103,0.803-0.155c0.174,0.901,0.348,1.803,0.522,2.704c0.304-0.059,0.608-0.117,0.913-0.176
		c0.304-0.059,0.609-0.117,0.913-0.176C58.375,38.304,57.129,31.846,52.366,32.77z M53.418,38.227
		c-0.258,0.05-0.723,0.14-0.775,0.149c-0.11-0.571-0.22-1.142-0.33-1.713c0.357-0.069,1.128-0.218,1.693-0.327
		c-0.059-0.304-0.117-0.608-0.176-0.913c-0.564,0.109-1.335,0.258-1.693,0.327c-0.118-0.613-0.237-1.227-0.355-1.84
		c0.052-0.01,0.517-0.1,0.775-0.149C55.856,33.122,56.718,37.593,53.418,38.227z"/>
	<path fill="#A7875E" d="M75.052,29.573c-0.19,0.28-0.379,0.56-0.569,0.84c0.837,0.831,0.964,2.14,0.303,3.116
		c-0.661,0.977-1.923,1.345-3.005,0.878c-0.189,0.28-0.379,0.56-0.568,0.84c1.55,0.772,3.432,0.278,4.403-1.157
		C76.587,32.656,76.346,30.725,75.052,29.573z"/>
	<polygon fill="#A7875E" points="84.262,30.093 84.469,29.262 87.008,32.776 88.312,32.524 83.928,26.455 82.958,30.341 
		80.613,27.094 78.8,34.359 80.105,34.107 81.154,29.902 83.476,33.115 83.857,31.589 84.994,33.164 86.299,32.912 	"/>
</g>
</svg>
