<?xml version="1.0" encoding="utf-8"?>
<!-- Generator: Adobe Illustrator 17.0.0, SVG Export Plug-In . SVG Version: 6.00 Build 0)  -->
<!DOCTYPE svg PUBLIC "-//W3C//DTD SVG 1.1//EN" "http://www.w3.org/Graphics/SVG/1.1/DTD/svg11.dtd">
<svg version="1.1" id="Layer_1" xmlns="http://www.w3.org/2000/svg" xmlns:xlink="http://www.w3.org/1999/xlink" x="0px" y="0px"
	 width="97px" height="68px" viewBox="0 0 97 68" enable-background="new 0 0 97 68" xml:space="preserve">
<g>
	<g>
		<path fill="#FFFFFF" d="M23.198,0c8.131,0,15.498,4.153,19.707,11.11s4.466,15.409,0.689,22.61L43.446,34l0.148,0.281
			c3.777,7.2,3.519,15.652-0.689,22.609C38.697,63.847,31.33,68,23.198,68c-8.132,0-15.499-4.153-19.708-11.11
			c-4.208-6.957-4.465-15.408-0.688-22.608L2.951,34l-0.148-0.281c-3.777-7.2-3.52-15.652,0.688-22.609
			C7.699,4.153,15.066,0,23.198,0z M39.127,27.152c1.287-4.965,0.225-10.139-2.915-14.195s-7.883-6.383-13.014-6.383
			S13.324,8.9,10.184,12.957c-3.14,4.056-4.203,9.231-2.916,14.196l0.243,0.936l0.736-0.628c4.166-3.553,9.475-5.511,14.951-5.511
			s10.785,1.957,14.95,5.511l0.736,0.628L39.127,27.152z M23.198,39.476c4.521,0,8.737-1.796,11.87-5.057L35.47,34l-0.402-0.419
			c-3.133-3.261-7.348-5.057-11.87-5.057c-4.522,0-8.738,1.796-11.871,5.057L10.925,34l0.402,0.419
			C14.46,37.68,18.676,39.476,23.198,39.476z M23.198,46.05c-5.476,0-10.785-1.957-14.951-5.511l-0.736-0.628l-0.243,0.936
			c-1.287,4.966-0.224,10.14,2.916,14.197c3.14,4.056,7.883,6.382,13.014,6.382s9.874-2.327,13.014-6.383
			c3.14-4.056,4.202-9.231,2.915-14.196l-0.243-0.936l-0.736,0.628C33.984,44.092,28.674,46.05,23.198,46.05z"/>
		<path fill="#FFFFFF" d="M73.802,0c8.132,0,15.499,4.154,19.708,11.11c4.207,6.957,4.465,15.409,0.688,22.609L94.05,34l0.148,0.281
			c3.777,7.2,3.519,15.651-0.688,22.608C89.301,63.846,81.934,68,73.802,68c-8.131,0-15.498-4.153-19.707-11.11
			c-4.208-6.957-4.466-15.409-0.689-22.609L53.554,34l-0.148-0.281c-3.777-7.201-3.519-15.653,0.689-22.61S65.671,0,73.802,0z
			 M89.732,27.152c1.287-4.965,0.224-10.139-2.916-14.196c-3.14-4.056-7.883-6.383-13.014-6.383S63.928,8.9,60.788,12.957
			s-4.202,9.231-2.915,14.195l0.243,0.936l0.736-0.628c4.165-3.553,9.474-5.511,14.95-5.511c5.476,0,10.785,1.957,14.951,5.511
			l0.736,0.628L89.732,27.152z M73.802,39.476c4.522,0,8.738-1.796,11.871-5.057L86.075,34l-0.402-0.419
			c-3.133-3.261-7.348-5.057-11.871-5.057s-8.738,1.796-11.871,5.057L61.529,34l0.402,0.419
			C65.064,37.68,69.28,39.476,73.802,39.476z M73.802,46.05c-5.476,0-10.785-1.957-14.95-5.511l-0.736-0.628l-0.243,0.936
			c-1.287,4.965-0.225,10.14,2.915,14.196c3.14,4.057,7.883,6.383,13.014,6.383c5.13,0,9.874-2.327,13.014-6.383
			c3.14-4.057,4.203-9.231,2.916-14.196l-0.243-0.936l-0.736,0.628C84.587,44.092,79.278,46.05,73.802,46.05z"/>
	</g>
</g>
</svg>
