<?xml version="1.0" encoding="utf-8"?>
<!-- Generator: Adobe Illustrator 17.0.0, SVG Export Plug-In . SVG Version: 6.00 Build 0)  -->
<!DOCTYPE svg PUBLIC "-//W3C//DTD SVG 1.1//EN" "http://www.w3.org/Graphics/SVG/1.1/DTD/svg11.dtd">
<svg version="1.1" id="Layer_1" xmlns="http://www.w3.org/2000/svg" xmlns:xlink="http://www.w3.org/1999/xlink" x="0px" y="0px"
	 width="250px" height="160px" viewBox="0 0 250 160" enable-background="new 0 0 250 160" xml:space="preserve">
<g id="space">
	<g>
		<path fill-rule="evenodd" clip-rule="evenodd" fill="#FFFFFF" d="M120.056,56.573C115.803,49.514,108.357,45.3,100.14,45.3
			c-8.219,0-15.664,4.214-19.917,11.274c-4.253,7.059-4.512,15.635-0.695,22.941l0.15,0.285l-0.15,0.285
			c-3.817,7.306-3.558,15.882,0.695,22.941c4.253,7.059,11.699,11.274,19.917,11.274c8.218,0,15.663-4.214,19.916-11.273
			c4.253-7.06,4.513-15.635,0.696-22.942l-0.15-0.285l0.15-0.285C124.569,72.209,124.309,63.632,120.056,56.573z M113.292,101.153
			c-3.173,4.116-7.967,6.477-13.152,6.477c-5.186,0-9.979-2.36-13.152-6.476c-3.173-4.116-4.248-9.367-2.947-14.406l0.245-0.95
			l0.744,0.637c4.21,3.606,9.576,5.592,15.11,5.592c5.534,0,10.9-1.986,15.109-5.592l0.744-0.637l0.245,0.95
			C117.539,91.786,116.465,97.037,113.292,101.153z M87.736,79.8l0.407-0.425c3.166-3.309,7.426-5.132,11.997-5.132
			c4.569,0,8.83,1.823,11.996,5.132l0.407,0.425l-0.407,0.425c-3.166,3.309-7.426,5.131-11.996,5.131
			c-4.57,0-8.831-1.822-11.997-5.131L87.736,79.8z M116.238,72.852l-0.245,0.95l-0.744-0.637c-4.209-3.606-9.574-5.592-15.109-5.592
			c-5.534,0-10.9,1.986-15.11,5.592l-0.744,0.637l-0.245-0.95c-1.301-5.038-0.226-10.289,2.947-14.405
			c3.173-4.116,7.967-6.477,13.152-6.477c5.185,0,9.979,2.361,13.152,6.477C116.465,62.564,117.539,67.814,116.238,72.852z
			 M171.744,79.8l0.15-0.285c3.817-7.306,3.557-15.882-0.695-22.941c-4.253-7.059-11.699-11.274-19.917-11.274
			c-8.218,0-15.663,4.214-19.916,11.273c-4.253,7.059-4.513,15.635-0.696,22.942l0.15,0.285l-0.15,0.285
			c-3.817,7.306-3.557,15.882,0.696,22.942c4.253,7.059,11.699,11.273,19.916,11.273c8.219,0,15.664-4.215,19.917-11.274
			c4.252-7.059,4.512-15.635,0.695-22.94L171.744,79.8z M164.433,101.153c-3.173,4.116-7.968,6.477-13.152,6.477
			c-5.185,0-9.979-2.361-13.152-6.477c-3.173-4.116-4.247-9.367-2.946-14.405l0.245-0.95l0.744,0.637
			c4.209,3.606,9.575,5.592,15.109,5.592s10.9-1.986,15.11-5.592l0.744-0.637l0.245,0.95
			C168.681,91.786,167.606,97.037,164.433,101.153z M138.877,79.8l0.407-0.425c3.166-3.309,7.426-5.132,11.997-5.132
			c4.57,0,8.831,1.823,11.997,5.132l0.407,0.425l-0.407,0.425c-3.166,3.309-7.426,5.131-11.997,5.131
			c-4.57,0-8.831-1.822-11.997-5.131L138.877,79.8z M167.38,72.852l-0.245,0.95l-0.744-0.637c-4.21-3.606-9.576-5.592-15.11-5.592
			s-10.9,1.986-15.109,5.592l-0.744,0.637l-0.245-0.95c-1.301-5.038-0.228-10.288,2.946-14.404
			c3.173-4.116,7.967-6.477,13.152-6.477c5.186,0,9.979,2.361,13.152,6.477C167.606,62.564,168.681,67.814,167.38,72.852z"/>
	</g>
</g>
</svg>
