<?xml version="1.0" encoding="utf-8"?>
<!-- Generator: Adobe Illustrator 17.0.0, SVG Export Plug-In . SVG Version: 6.00 Build 0)  -->
<!DOCTYPE svg PUBLIC "-//W3C//DTD SVG 1.1//EN" "http://www.w3.org/Graphics/SVG/1.1/DTD/svg11.dtd">
<svg version="1.1" id="Layer_1" xmlns="http://www.w3.org/2000/svg" xmlns:xlink="http://www.w3.org/1999/xlink" x="0px" y="0px"
	 width="48px" height="48px" viewBox="0 0 48 48" enable-background="new 0 0 48 48" xml:space="preserve">
<g id="tumblr">
	<g>
		<path fill-rule="evenodd" clip-rule="evenodd" fill="#FFFFFF" d="M24,0C10.767,0,0,10.767,0,24c0,13.234,10.767,24,24,24
			c13.234,0,24-10.766,24-24C48,10.767,37.234,0,24,0z M24,46.545C11.568,46.545,1.455,36.432,1.455,24
			C1.455,11.568,11.568,1.455,24,1.455c12.431,0,22.545,10.114,22.545,22.545C46.545,36.432,36.432,46.545,24,46.545z
			 M27.229,32.361c-2.001,0.054-2.389-1.406-2.406-2.465v-7.782h5.02v-3.785h-5.002V11.96c0,0-3.602,0-3.662,0
			c-0.06,0-0.165,0.053-0.18,0.187c-0.214,1.949-1.127,5.37-4.919,6.737v3.229h2.53v8.169c0,2.796,2.064,6.769,7.509,6.676
			c1.837-0.032,3.878-0.801,4.329-1.464l-1.202-3.566C28.781,32.15,27.892,32.343,27.229,32.361z"/>
	</g>
</g>
</svg>
