<?xml version="1.0" encoding="utf-8"?>
<!-- Generator: Adobe Illustrator 17.0.0, SVG Export Plug-In . SVG Version: 6.00 Build 0)  -->
<!DOCTYPE svg PUBLIC "-//W3C//DTD SVG 1.1//EN" "http://www.w3.org/Graphics/SVG/1.1/DTD/svg11.dtd">
<svg version="1.1" id="Layer_1" xmlns="http://www.w3.org/2000/svg" xmlns:xlink="http://www.w3.org/1999/xlink" x="0px" y="0px"
	 width="48px" height="48px" viewBox="0 0 48 48" enable-background="new 0 0 48 48" xml:space="preserve">
<g id="twitter">
	<g>
		<path fill-rule="evenodd" clip-rule="evenodd" fill="#FFFFFF" d="M37.614,14.337c-1.097,0.651-2.313,1.123-3.606,1.378
			c-1.036-1.104-2.512-1.794-4.146-1.794c-3.137,0-5.68,2.543-5.68,5.679c0,0.445,0.05,0.879,0.147,1.294
			c-4.72-0.237-8.905-2.498-11.706-5.934c-0.489,0.839-0.769,1.814-0.769,2.855c0,1.97,1.003,3.709,2.527,4.727
			c-0.931-0.029-1.807-0.285-2.573-0.71c0,0.024,0,0.048,0,0.071c0,2.752,1.958,5.047,4.556,5.569
			c-0.477,0.13-0.978,0.199-1.496,0.199c-0.366,0-0.722-0.036-1.068-0.102c0.723,2.256,2.82,3.898,5.305,3.944
			c-1.944,1.523-4.393,2.431-7.053,2.431c-0.458,0-0.91-0.027-1.355-0.079c2.513,1.611,5.499,2.552,8.706,2.552
			c10.446,0,16.159-8.654,16.159-16.159c0-0.246-0.005-0.491-0.016-0.735c1.11-0.801,2.072-1.801,2.834-2.94
			c-1.018,0.452-2.113,0.757-3.262,0.894C36.29,16.776,37.19,15.663,37.614,14.337z M24,0C10.767,0,0,10.767,0,24
			c0,13.234,10.767,24,24,24c13.234,0,24-10.766,24-24C48,10.767,37.234,0,24,0z M24,46.545C11.568,46.545,1.455,36.432,1.455,24
			C1.455,11.568,11.568,1.455,24,1.455c12.432,0,22.545,10.114,22.545,22.545C46.545,36.432,36.432,46.545,24,46.545z"/>
	</g>
</g>
</svg>
