<?xml version="1.0" encoding="utf-8"?>
<!-- Generator: Adobe Illustrator 17.0.0, SVG Export Plug-In . SVG Version: 6.00 Build 0)  -->
<!DOCTYPE svg PUBLIC "-//W3C//DTD SVG 1.1//EN" "http://www.w3.org/Graphics/SVG/1.1/DTD/svg11.dtd">
<svg version="1.1" id="Layer_1" xmlns="http://www.w3.org/2000/svg" xmlns:xlink="http://www.w3.org/1999/xlink" x="0px" y="0px"
	 width="70px" height="70px" viewBox="0 0 70 70" enable-background="new 0 0 70 70" xml:space="preserve">
<g>
	<path fill="#A7875E" d="M41.365,68.646c-0.643,0-1.28-0.097-1.894-0.288l-2.87-0.893c-1.039-0.323-2.164-0.323-3.202,0l-2.87,0.893
		c-2.16,0.672-4.587,0.118-6.242-1.425l-2.198-2.05c-0.802-0.748-1.799-1.228-2.885-1.389l-2.973-0.441
		c-2.258-0.335-4.177-1.864-5.006-3.991l-1.091-2.8c-0.399-1.023-1.089-1.889-1.997-2.504L5.65,52.072
		c-1.889-1.282-2.954-3.492-2.778-5.769l0.232-2.997c0.085-1.094-0.162-2.174-0.712-3.122l-1.509-2.599
		c-1.147-1.975-1.147-4.427,0-6.402l1.51-2.599c0.55-0.948,0.797-2.028,0.712-3.122l-0.232-2.997
		c-0.176-2.276,0.889-4.486,2.778-5.768l2.487-1.688c0.907-0.615,1.598-1.481,1.997-2.503l1.07-2.746
		c0.851-2.182,2.769-3.712,5.027-4.046l2.973-0.441c1.085-0.161,2.083-0.641,2.885-1.389l2.198-2.049
		c1.654-1.543,4.08-2.099,6.242-1.425l2.87,0.893c1.038,0.323,2.163,0.323,3.202,0l2.87-0.893c2.165-0.673,4.587-0.117,6.241,1.425
		l2.198,2.049c0.803,0.748,1.8,1.229,2.886,1.389l2.973,0.441c2.258,0.334,4.176,1.864,5.006,3.991l1.091,2.801
		c0.397,1.022,1.088,1.888,1.996,2.503l2.488,1.688c1.889,1.281,2.953,3.491,2.777,5.768l-0.232,2.997
		c-0.084,1.095,0.163,2.175,0.713,3.122l1.51,2.599c1.146,1.975,1.146,4.428,0,6.403l-1.51,2.599
		c-0.55,0.948-0.797,2.027-0.713,3.122l0.232,2.996c0.176,2.277-0.888,4.487-2.778,5.769l-2.487,1.687
		c-0.907,0.616-1.598,1.481-1.996,2.504l-1.091,2.8c-0.829,2.128-2.747,3.657-5.006,3.991l-2.973,0.441
		c-1.086,0.162-2.084,0.642-2.886,1.389l-2.198,2.05C44.529,68.038,42.984,68.646,41.365,68.646z M35,66.237
		c0.643,0,1.28,0.097,1.894,0.288l2.87,0.893c1.83,0.571,3.879,0.1,5.277-1.204l2.198-2.05c0.948-0.884,2.128-1.453,3.413-1.644
		l2.973-0.441c1.909-0.284,3.53-1.577,4.232-3.376l1.091-2.8c0.471-1.209,1.287-2.233,2.361-2.962l2.487-1.687
		c1.597-1.083,2.497-2.952,2.349-4.878l-0.232-2.996c-0.1-1.294,0.191-2.571,0.842-3.692l1.51-2.599
		c0.969-1.669,0.969-3.744,0-5.413l-1.51-2.599c-0.65-1.121-0.942-2.397-0.842-3.693l0.232-2.997
		c0.148-1.925-0.752-3.793-2.349-4.876l-2.427-1.646c-1.135-0.77-1.951-1.794-2.422-3.003l-1.07-2.745
		c-0.723-1.854-2.344-3.147-4.253-3.429l-2.973-0.441c-1.285-0.19-2.464-0.759-3.413-1.644l-2.198-2.049
		c-1.398-1.304-3.45-1.774-5.277-1.205l-2.87,0.893c-1.228,0.382-2.561,0.382-3.787,0l-2.87-0.893
		c-1.829-0.569-3.879-0.1-5.277,1.205l-2.198,2.049c-0.949,0.885-2.129,1.453-3.413,1.644l-2.973,0.441
		c-1.909,0.283-3.531,1.576-4.232,3.375l-1.091,2.801c-0.471,1.21-1.288,2.233-2.361,2.961l-2.487,1.687
		c-1.597,1.083-2.497,2.952-2.349,4.877l0.232,2.997c0.1,1.294-0.191,2.571-0.843,3.693l-1.509,2.599
		c-0.969,1.669-0.969,3.744,0,5.413l1.509,2.599c0.651,1.121,0.943,2.398,0.843,3.692l-0.232,2.997
		c-0.149,1.924,0.752,3.793,2.349,4.877l2.487,1.687c1.073,0.727,1.89,1.752,2.362,2.962l1.091,2.8
		c0.701,1.798,2.323,3.092,4.232,3.376l2.973,0.441c1.285,0.191,2.464,0.758,3.413,1.644l2.198,2.05
		c1.398,1.304,3.446,1.772,5.277,1.204l2.87-0.893C33.719,66.334,34.357,66.237,35,66.237z"/>
	<path fill="#A7875E" d="M62.886,34.877c-0.272,0-0.493-0.22-0.493-0.493c0-8.861-4.314-17.213-11.54-22.341
		c-0.222-0.157-0.274-0.465-0.117-0.687c0.159-0.222,0.466-0.273,0.687-0.116c7.486,5.313,11.956,13.965,11.956,23.144
		C63.379,34.657,63.159,34.877,62.886,34.877z"/>
	<path fill="#A7875E" d="M34.945,62.757c-1.437,0-2.876-0.109-4.305-0.331c-7.472-1.161-14.286-5.351-18.695-11.493
		c-0.159-0.221-0.108-0.529,0.113-0.688c0.221-0.16,0.528-0.109,0.688,0.113c4.256,5.929,10.834,9.974,18.046,11.095
		c7.212,1.122,14.707-0.734,20.563-5.092c0.217-0.162,0.525-0.118,0.69,0.101c0.163,0.218,0.117,0.527-0.101,0.69
		C47.037,60.802,41.02,62.757,34.945,62.757z"/>
	<path fill="#A7875E" d="M8.563,26.001c-0.052,0-0.105-0.008-0.157-0.025c-0.258-0.087-0.397-0.366-0.31-0.624
		c2.907-8.658,9.855-15.425,18.587-18.101c0.261-0.083,0.535,0.066,0.615,0.327s-0.066,0.535-0.327,0.615
		c-8.428,2.583-15.135,9.115-17.941,17.472C8.961,25.871,8.769,26.001,8.563,26.001z"/>
	<path fill="#A7875E" d="M33.221,44.547l-9.595-11.861c-0.171-0.212-0.139-0.522,0.073-0.693c0.212-0.17,0.522-0.138,0.693,0.073
		l8.691,10.743l12.502-21.763c0.136-0.237,0.439-0.317,0.673-0.182c0.236,0.136,0.318,0.437,0.182,0.673L33.221,44.547z"/>
</g>
</svg>
